  0
SECTION
  2
BLOCKS
  0
ENDSEC
  0
SECTION
  2
ENTITIES
  0
LINE
  8
0
 10
18
 20
41.25
 11
21
 21
41.25
  0
LINE
  8
0
 10
21
 20
41.25
 11
21
 21
53.25
  0
LINE
  8
0
 10
21
 20
53.25
 11
17.9774
 21
53.25
  0
LINE
  8
0
 10
17.9774
 20
53.25
 11
17.9606
 21
53.0582
  0
LINE
  8
0
 10
17.9606
 20
53.0582
 11
17.9223
 21
52.746
  0
LINE
  8
0
 10
17.9223
 20
52.746
 11
17.8731
 21
52.4354
  0
LINE
  8
0
 10
17.8731
 20
52.4354
 11
17.8131
 21
52.1267
  0
LINE
  8
0
 10
17.8131
 20
52.1267
 11
17.7424
 21
51.8203
  0
LINE
  8
0
 10
17.7424
 20
51.8203
 11
17.661
 21
51.5165
  0
LINE
  8
0
 10
17.661
 20
51.5165
 11
17.569
 21
51.2157
  0
LINE
  8
0
 10
17.569
 20
51.2157
 11
17.4666
 21
50.9184
  0
LINE
  8
0
 10
17.4666
 20
50.9184
 11
17.3539
 21
50.6248
  0
LINE
  8
0
 10
17.3539
 20
50.6248
 11
17.231
 21
50.3353
  0
LINE
  8
0
 10
17.231
 20
50.3353
 11
17.0981
 21
50.0503
  0
LINE
  8
0
 10
17.0981
 20
50.0503
 11
16.9554
 21
49.7701
  0
LINE
  8
0
 10
16.9554
 20
49.7701
 11
16.8029
 21
49.495
  0
LINE
  8
0
 10
16.8029
 20
49.495
 11
16.6409
 21
49.2254
  0
LINE
  8
0
 10
16.6409
 20
49.2254
 11
16.4696
 21
48.9617
  0
LINE
  8
0
 10
16.4696
 20
48.9617
 11
16.2892
 21
48.7041
  0
LINE
  8
0
 10
16.2892
 20
48.7041
 11
16.1
 21
48.4529
  0
LINE
  8
0
 10
16.1
 20
48.4529
 11
15.9021
 21
48.2085
  0
LINE
  8
0
 10
15.9021
 20
48.2085
 11
15.6957
 21
47.9711
  0
LINE
  8
0
 10
15.6957
 20
47.9711
 11
15.4812
 21
47.7411
  0
LINE
  8
0
 10
15.4812
 20
47.7411
 11
15.2589
 21
47.5188
  0
LINE
  8
0
 10
15.2589
 20
47.5188
 11
15.0289
 21
47.3043
  0
LINE
  8
0
 10
15.0289
 20
47.3043
 11
14.7915
 21
47.0979
  0
LINE
  8
0
 10
14.7915
 20
47.0979
 11
14.5471
 21
46.9
  0
LINE
  8
0
 10
14.5471
 20
46.9
 11
14.2959
 21
46.7108
  0
LINE
  8
0
 10
14.2959
 20
46.7108
 11
14.0383
 21
46.5304
  0
LINE
  8
0
 10
14.0383
 20
46.5304
 11
13.7746
 21
46.3591
  0
LINE
  8
0
 10
13.7746
 20
46.3591
 11
13.505
 21
46.1971
  0
LINE
  8
0
 10
13.505
 20
46.1971
 11
13.2299
 21
46.0446
  0
LINE
  8
0
 10
13.2299
 20
46.0446
 11
12.9497
 21
45.9019
  0
LINE
  8
0
 10
12.9497
 20
45.9019
 11
12.6647
 21
45.769
  0
LINE
  8
0
 10
12.6647
 20
45.769
 11
12.3752
 21
45.6461
  0
LINE
  8
0
 10
12.3752
 20
45.6461
 11
12.0816
 21
45.5334
  0
LINE
  8
0
 10
12.0816
 20
45.5334
 11
11.7842
 21
45.431
  0
LINE
  8
0
 10
11.7842
 20
45.431
 11
11.4835
 21
45.339
  0
LINE
  8
0
 10
11.4835
 20
45.339
 11
11.1797
 21
45.2576
  0
LINE
  8
0
 10
11.1797
 20
45.2576
 11
10.8733
 21
45.1869
  0
LINE
  8
0
 10
10.8733
 20
45.1869
 11
10.5646
 21
45.1269
  0
LINE
  8
0
 10
10.5646
 20
45.1269
 11
10.2539
 21
45.0777
  0
LINE
  8
0
 10
10.2539
 20
45.0777
 11
9.94179
 21
45.0394
  0
LINE
  8
0
 10
9.94179
 20
45.0394
 11
9.62849
 21
45.012
  0
LINE
  8
0
 10
9.62849
 20
45.012
 11
9.31444
 21
44.9955
  0
LINE
  8
0
 10
9.31444
 20
44.9955
 11
8.99998
 21
44.99
  0
LINE
  8
0
 10
8.99998
 20
44.99
 11
8.68555
 21
44.9955
  0
LINE
  8
0
 10
8.68555
 20
44.9955
 11
8.37149
 21
45.012
  0
LINE
  8
0
 10
8.37149
 20
45.012
 11
8.0582
 21
45.0394
  0
LINE
  8
0
 10
8.0582
 20
45.0394
 11
7.74605
 21
45.0777
  0
LINE
  8
0
 10
7.74605
 20
45.0777
 11
7.43542
 21
45.1269
  0
LINE
  8
0
 10
7.43542
 20
45.1269
 11
7.12671
 21
45.1869
  0
LINE
  8
0
 10
7.12671
 20
45.1869
 11
6.82028
 21
45.2576
  0
LINE
  8
0
 10
6.82028
 20
45.2576
 11
6.51649
 21
45.339
  0
LINE
  8
0
 10
6.51649
 20
45.339
 11
6.21574
 21
45.431
  0
LINE
  8
0
 10
6.21574
 20
45.431
 11
5.9184
 21
45.5334
  0
LINE
  8
0
 10
5.9184
 20
45.5334
 11
5.62479
 21
45.6461
  0
LINE
  8
0
 10
5.62479
 20
45.6461
 11
5.3353
 21
45.769
  0
LINE
  8
0
 10
5.3353
 20
45.769
 11
5.05026
 21
45.9019
  0
LINE
  8
0
 10
5.05026
 20
45.9019
 11
4.77005
 21
46.0446
  0
LINE
  8
0
 10
4.77005
 20
46.0446
 11
4.495
 21
46.1971
  0
LINE
  8
0
 10
4.495
 20
46.1971
 11
4.22542
 21
46.3591
  0
LINE
  8
0
 10
4.22542
 20
46.3591
 11
3.96167
 21
46.5304
  0
LINE
  8
0
 10
3.96167
 20
46.5304
 11
3.70404
 21
46.7108
  0
LINE
  8
0
 10
3.70404
 20
46.7108
 11
3.45288
 21
46.9
  0
LINE
  8
0
 10
3.45288
 20
46.9
 11
3.20848
 21
47.0979
  0
LINE
  8
0
 10
3.20848
 20
47.0979
 11
2.97113
 21
47.3043
  0
LINE
  8
0
 10
2.97113
 20
47.3043
 11
2.74112
 21
47.5188
  0
LINE
  8
0
 10
2.74112
 20
47.5188
 11
2.51874
 21
47.7411
  0
LINE
  8
0
 10
2.51874
 20
47.7411
 11
2.30426
 21
47.9711
  0
LINE
  8
0
 10
2.30426
 20
47.9711
 11
2.09793
 21
48.2085
  0
LINE
  8
0
 10
2.09793
 20
48.2085
 11
1.90001
 21
48.4529
  0
LINE
  8
0
 10
1.90001
 20
48.4529
 11
1.71075
 21
48.7041
  0
LINE
  8
0
 10
1.71075
 20
48.7041
 11
1.53036
 21
48.9617
  0
LINE
  8
0
 10
1.53036
 20
48.9617
 11
1.35909
 21
49.2254
  0
LINE
  8
0
 10
1.35909
 20
49.2254
 11
1.1971
 21
49.495
  0
LINE
  8
0
 10
1.1971
 20
49.495
 11
1.04463
 21
49.7701
  0
LINE
  8
0
 10
1.04463
 20
49.7701
 11
0.901855
 21
50.0503
  0
LINE
  8
0
 10
0.901855
 20
50.0503
 11
0.768951
 21
50.3353
  0
LINE
  8
0
 10
0.768951
 20
50.3353
 11
0.646072
 21
50.6248
  0
LINE
  8
0
 10
0.646072
 20
50.6248
 11
0.533356
 21
50.9184
  0
LINE
  8
0
 10
0.533356
 20
50.9184
 11
0.430969
 21
51.2157
  0
LINE
  8
0
 10
0.430969
 20
51.2157
 11
0.33902
 21
51.5165
  0
LINE
  8
0
 10
0.33902
 20
51.5165
 11
0.257629
 21
51.8203
  0
LINE
  8
0
 10
0.257629
 20
51.8203
 11
0.18689
 21
52.1267
  0
LINE
  8
0
 10
0.18689
 20
52.1267
 11
0.126877
 21
52.4354
  0
LINE
  8
0
 10
0.126877
 20
52.4354
 11
0.0776825
 21
52.746
  0
LINE
  8
0
 10
0.0776825
 20
52.746
 11
0.0393524
 21
53.0582
  0
LINE
  8
0
 10
0.0393524
 20
53.0582
 11
0.0225677
 21
53.25
  0
LINE
  8
0
 10
0.0225677
 20
53.25
 11
-0.0225677
 21
53.25
  0
LINE
  8
0
 10
-0.0225677
 20
53.25
 11
-0.0393524
 21
53.0582
  0
LINE
  8
0
 10
-0.0393524
 20
53.0582
 11
-0.0776825
 21
52.746
  0
LINE
  8
0
 10
-0.0776825
 20
52.746
 11
-0.126877
 21
52.4354
  0
LINE
  8
0
 10
-0.126877
 20
52.4354
 11
-0.18689
 21
52.1267
  0
LINE
  8
0
 10
-0.18689
 20
52.1267
 11
-0.257629
 21
51.8203
  0
LINE
  8
0
 10
-0.257629
 20
51.8203
 11
-0.33902
 21
51.5165
  0
LINE
  8
0
 10
-0.33902
 20
51.5165
 11
-0.430969
 21
51.2157
  0
LINE
  8
0
 10
-0.430969
 20
51.2157
 11
-0.533356
 21
50.9184
  0
LINE
  8
0
 10
-0.533356
 20
50.9184
 11
-0.646072
 21
50.6248
  0
LINE
  8
0
 10
-0.646072
 20
50.6248
 11
-0.768951
 21
50.3353
  0
LINE
  8
0
 10
-0.768951
 20
50.3353
 11
-0.901855
 21
50.0503
  0
LINE
  8
0
 10
-0.901855
 20
50.0503
 11
-1.04463
 21
49.7701
  0
LINE
  8
0
 10
-1.04463
 20
49.7701
 11
-1.1971
 21
49.495
  0
LINE
  8
0
 10
-1.1971
 20
49.495
 11
-1.35909
 21
49.2254
  0
LINE
  8
0
 10
-1.35909
 20
49.2254
 11
-1.53036
 21
48.9617
  0
LINE
  8
0
 10
-1.53036
 20
48.9617
 11
-1.71075
 21
48.7041
  0
LINE
  8
0
 10
-1.71075
 20
48.7041
 11
-1.90001
 21
48.4529
  0
LINE
  8
0
 10
-1.90001
 20
48.4529
 11
-2.09793
 21
48.2085
  0
LINE
  8
0
 10
-2.09793
 20
48.2085
 11
-2.30426
 21
47.9711
  0
LINE
  8
0
 10
-2.30426
 20
47.9711
 11
-2.51874
 21
47.7411
  0
LINE
  8
0
 10
-2.51874
 20
47.7411
 11
-2.74112
 21
47.5188
  0
LINE
  8
0
 10
-2.74112
 20
47.5188
 11
-2.97113
 21
47.3043
  0
LINE
  8
0
 10
-2.97113
 20
47.3043
 11
-3.20848
 21
47.0979
  0
LINE
  8
0
 10
-3.20848
 20
47.0979
 11
-3.45288
 21
46.9
  0
LINE
  8
0
 10
-3.45288
 20
46.9
 11
-3.70404
 21
46.7108
  0
LINE
  8
0
 10
-3.70404
 20
46.7108
 11
-3.96167
 21
46.5304
  0
LINE
  8
0
 10
-3.96167
 20
46.5304
 11
-4.22542
 21
46.3591
  0
LINE
  8
0
 10
-4.22542
 20
46.3591
 11
-4.495
 21
46.1971
  0
LINE
  8
0
 10
-4.495
 20
46.1971
 11
-4.77005
 21
46.0446
  0
LINE
  8
0
 10
-4.77005
 20
46.0446
 11
-5.05026
 21
45.9019
  0
LINE
  8
0
 10
-5.05026
 20
45.9019
 11
-5.3353
 21
45.769
  0
LINE
  8
0
 10
-5.3353
 20
45.769
 11
-5.62479
 21
45.6461
  0
LINE
  8
0
 10
-5.62479
 20
45.6461
 11
-5.9184
 21
45.5334
  0
LINE
  8
0
 10
-5.9184
 20
45.5334
 11
-6.21574
 21
45.431
  0
LINE
  8
0
 10
-6.21574
 20
45.431
 11
-6.51649
 21
45.339
  0
LINE
  8
0
 10
-6.51649
 20
45.339
 11
-6.82028
 21
45.2576
  0
LINE
  8
0
 10
-6.82028
 20
45.2576
 11
-7.12671
 21
45.1869
  0
LINE
  8
0
 10
-7.12671
 20
45.1869
 11
-7.43542
 21
45.1269
  0
LINE
  8
0
 10
-7.43542
 20
45.1269
 11
-7.74605
 21
45.0777
  0
LINE
  8
0
 10
-7.74605
 20
45.0777
 11
-8.0582
 21
45.0394
  0
LINE
  8
0
 10
-8.0582
 20
45.0394
 11
-8.37149
 21
45.012
  0
LINE
  8
0
 10
-8.37149
 20
45.012
 11
-8.68555
 21
44.9955
  0
LINE
  8
0
 10
-8.68555
 20
44.9955
 11
-9
 21
44.99
  0
LINE
  8
0
 10
-9
 20
44.99
 11
-9.31444
 21
44.9955
  0
LINE
  8
0
 10
-9.31444
 20
44.9955
 11
-9.62849
 21
45.012
  0
LINE
  8
0
 10
-9.62849
 20
45.012
 11
-9.94179
 21
45.0394
  0
LINE
  8
0
 10
-9.94179
 20
45.0394
 11
-10.2539
 21
45.0777
  0
LINE
  8
0
 10
-10.2539
 20
45.0777
 11
-10.5646
 21
45.1269
  0
LINE
  8
0
 10
-10.5646
 20
45.1269
 11
-10.8733
 21
45.1869
  0
LINE
  8
0
 10
-10.8733
 20
45.1869
 11
-11.1797
 21
45.2576
  0
LINE
  8
0
 10
-11.1797
 20
45.2576
 11
-11.4835
 21
45.339
  0
LINE
  8
0
 10
-11.4835
 20
45.339
 11
-11.7842
 21
45.431
  0
LINE
  8
0
 10
-11.7842
 20
45.431
 11
-12.0816
 21
45.5334
  0
LINE
  8
0
 10
-12.0816
 20
45.5334
 11
-12.3752
 21
45.6461
  0
LINE
  8
0
 10
-12.3752
 20
45.6461
 11
-12.6647
 21
45.769
  0
LINE
  8
0
 10
-12.6647
 20
45.769
 11
-12.9497
 21
45.9019
  0
LINE
  8
0
 10
-12.9497
 20
45.9019
 11
-13.2299
 21
46.0446
  0
LINE
  8
0
 10
-13.2299
 20
46.0446
 11
-13.505
 21
46.1971
  0
LINE
  8
0
 10
-13.505
 20
46.1971
 11
-13.7746
 21
46.3591
  0
LINE
  8
0
 10
-13.7746
 20
46.3591
 11
-14.0383
 21
46.5304
  0
LINE
  8
0
 10
-14.0383
 20
46.5304
 11
-14.2959
 21
46.7108
  0
LINE
  8
0
 10
-14.2959
 20
46.7108
 11
-14.5471
 21
46.9
  0
LINE
  8
0
 10
-14.5471
 20
46.9
 11
-14.7915
 21
47.0979
  0
LINE
  8
0
 10
-14.7915
 20
47.0979
 11
-15.0289
 21
47.3043
  0
LINE
  8
0
 10
-15.0289
 20
47.3043
 11
-15.2589
 21
47.5188
  0
LINE
  8
0
 10
-15.2589
 20
47.5188
 11
-15.4812
 21
47.7411
  0
LINE
  8
0
 10
-15.4812
 20
47.7411
 11
-15.6957
 21
47.9711
  0
LINE
  8
0
 10
-15.6957
 20
47.9711
 11
-15.9021
 21
48.2085
  0
LINE
  8
0
 10
-15.9021
 20
48.2085
 11
-16.1
 21
48.4529
  0
LINE
  8
0
 10
-16.1
 20
48.4529
 11
-16.2892
 21
48.7041
  0
LINE
  8
0
 10
-16.2892
 20
48.7041
 11
-16.4696
 21
48.9617
  0
LINE
  8
0
 10
-16.4696
 20
48.9617
 11
-16.6409
 21
49.2254
  0
LINE
  8
0
 10
-16.6409
 20
49.2254
 11
-16.8029
 21
49.495
  0
LINE
  8
0
 10
-16.8029
 20
49.495
 11
-16.9554
 21
49.7701
  0
LINE
  8
0
 10
-16.9554
 20
49.7701
 11
-17.0981
 21
50.0503
  0
LINE
  8
0
 10
-17.0981
 20
50.0503
 11
-17.231
 21
50.3353
  0
LINE
  8
0
 10
-17.231
 20
50.3353
 11
-17.3539
 21
50.6248
  0
LINE
  8
0
 10
-17.3539
 20
50.6248
 11
-17.4666
 21
50.9184
  0
LINE
  8
0
 10
-17.4666
 20
50.9184
 11
-17.569
 21
51.2157
  0
LINE
  8
0
 10
-17.569
 20
51.2157
 11
-17.661
 21
51.5165
  0
LINE
  8
0
 10
-17.661
 20
51.5165
 11
-17.7424
 21
51.8203
  0
LINE
  8
0
 10
-17.7424
 20
51.8203
 11
-17.8131
 21
52.1267
  0
LINE
  8
0
 10
-17.8131
 20
52.1267
 11
-17.8731
 21
52.4354
  0
LINE
  8
0
 10
-17.8731
 20
52.4354
 11
-17.9223
 21
52.746
  0
LINE
  8
0
 10
-17.9223
 20
52.746
 11
-17.9606
 21
53.0582
  0
LINE
  8
0
 10
-17.9606
 20
53.0582
 11
-17.9774
 21
53.25
  0
LINE
  8
0
 10
-17.9774
 20
53.25
 11
-21
 21
53.25
  0
LINE
  8
0
 10
-21
 20
53.25
 11
-21
 21
41.25
  0
LINE
  8
0
 10
-21
 20
41.25
 11
-18
 21
41.25
  0
LINE
  8
0
 10
-18
 20
41.25
 11
-18
 21
36.75
  0
LINE
  8
0
 10
-18
 20
36.75
 11
18
 21
36.75
  0
LINE
  8
0
 10
18
 20
36.75
 11
18
 21
41.25
  0
LINE
  8
0
 10
18
 20
24.15
 11
21
 21
24.15
  0
LINE
  8
0
 10
21
 20
24.15
 11
21
 21
36.15
  0
LINE
  8
0
 10
21
 20
36.15
 11
17.9774
 21
36.15
  0
LINE
  8
0
 10
17.9774
 20
36.15
 11
17.9606
 21
35.9582
  0
LINE
  8
0
 10
17.9606
 20
35.9582
 11
17.9223
 21
35.646
  0
LINE
  8
0
 10
17.9223
 20
35.646
 11
17.8731
 21
35.3354
  0
LINE
  8
0
 10
17.8731
 20
35.3354
 11
17.8131
 21
35.0267
  0
LINE
  8
0
 10
17.8131
 20
35.0267
 11
17.7424
 21
34.7203
  0
LINE
  8
0
 10
17.7424
 20
34.7203
 11
17.661
 21
34.4165
  0
LINE
  8
0
 10
17.661
 20
34.4165
 11
17.569
 21
34.1157
  0
LINE
  8
0
 10
17.569
 20
34.1157
 11
17.4666
 21
33.8184
  0
LINE
  8
0
 10
17.4666
 20
33.8184
 11
17.3539
 21
33.5248
  0
LINE
  8
0
 10
17.3539
 20
33.5248
 11
17.231
 21
33.2353
  0
LINE
  8
0
 10
17.231
 20
33.2353
 11
17.0981
 21
32.9503
  0
LINE
  8
0
 10
17.0981
 20
32.9503
 11
16.9554
 21
32.67
  0
LINE
  8
0
 10
16.9554
 20
32.67
 11
16.8029
 21
32.395
  0
LINE
  8
0
 10
16.8029
 20
32.395
 11
16.6409
 21
32.1254
  0
LINE
  8
0
 10
16.6409
 20
32.1254
 11
16.4696
 21
31.8617
  0
LINE
  8
0
 10
16.4696
 20
31.8617
 11
16.2892
 21
31.604
  0
LINE
  8
0
 10
16.2892
 20
31.604
 11
16.1
 21
31.3529
  0
LINE
  8
0
 10
16.1
 20
31.3529
 11
15.9021
 21
31.1085
  0
LINE
  8
0
 10
15.9021
 20
31.1085
 11
15.6957
 21
30.8711
  0
LINE
  8
0
 10
15.6957
 20
30.8711
 11
15.4812
 21
30.6411
  0
LINE
  8
0
 10
15.4812
 20
30.6411
 11
15.2589
 21
30.4187
  0
LINE
  8
0
 10
15.2589
 20
30.4187
 11
15.0289
 21
30.2043
  0
LINE
  8
0
 10
15.0289
 20
30.2043
 11
14.7915
 21
29.9979
  0
LINE
  8
0
 10
14.7915
 20
29.9979
 11
14.5471
 21
29.8
  0
LINE
  8
0
 10
14.5471
 20
29.8
 11
14.2959
 21
29.6108
  0
LINE
  8
0
 10
14.2959
 20
29.6108
 11
14.0383
 21
29.4304
  0
LINE
  8
0
 10
14.0383
 20
29.4304
 11
13.7746
 21
29.2591
  0
LINE
  8
0
 10
13.7746
 20
29.2591
 11
13.505
 21
29.0971
  0
LINE
  8
0
 10
13.505
 20
29.0971
 11
13.2299
 21
28.9446
  0
LINE
  8
0
 10
13.2299
 20
28.9446
 11
12.9497
 21
28.8019
  0
LINE
  8
0
 10
12.9497
 20
28.8019
 11
12.6647
 21
28.669
  0
LINE
  8
0
 10
12.6647
 20
28.669
 11
12.3752
 21
28.5461
  0
LINE
  8
0
 10
12.3752
 20
28.5461
 11
12.0816
 21
28.4334
  0
LINE
  8
0
 10
12.0816
 20
28.4334
 11
11.7842
 21
28.331
  0
LINE
  8
0
 10
11.7842
 20
28.331
 11
11.4835
 21
28.239
  0
LINE
  8
0
 10
11.4835
 20
28.239
 11
11.1797
 21
28.1576
  0
LINE
  8
0
 10
11.1797
 20
28.1576
 11
10.8733
 21
28.0869
  0
LINE
  8
0
 10
10.8733
 20
28.0869
 11
10.5646
 21
28.0269
  0
LINE
  8
0
 10
10.5646
 20
28.0269
 11
10.2539
 21
27.9777
  0
LINE
  8
0
 10
10.2539
 20
27.9777
 11
9.94179
 21
27.9394
  0
LINE
  8
0
 10
9.94179
 20
27.9394
 11
9.62849
 21
27.912
  0
LINE
  8
0
 10
9.62849
 20
27.912
 11
9.31444
 21
27.8955
  0
LINE
  8
0
 10
9.31444
 20
27.8955
 11
8.99998
 21
27.89
  0
LINE
  8
0
 10
8.99998
 20
27.89
 11
8.68555
 21
27.8955
  0
LINE
  8
0
 10
8.68555
 20
27.8955
 11
8.37149
 21
27.912
  0
LINE
  8
0
 10
8.37149
 20
27.912
 11
8.0582
 21
27.9394
  0
LINE
  8
0
 10
8.0582
 20
27.9394
 11
7.74605
 21
27.9777
  0
LINE
  8
0
 10
7.74605
 20
27.9777
 11
7.43542
 21
28.0269
  0
LINE
  8
0
 10
7.43542
 20
28.0269
 11
7.12671
 21
28.0869
  0
LINE
  8
0
 10
7.12671
 20
28.0869
 11
6.82028
 21
28.1576
  0
LINE
  8
0
 10
6.82028
 20
28.1576
 11
6.51649
 21
28.239
  0
LINE
  8
0
 10
6.51649
 20
28.239
 11
6.21574
 21
28.331
  0
LINE
  8
0
 10
6.21574
 20
28.331
 11
5.9184
 21
28.4334
  0
LINE
  8
0
 10
5.9184
 20
28.4334
 11
5.62479
 21
28.5461
  0
LINE
  8
0
 10
5.62479
 20
28.5461
 11
5.3353
 21
28.669
  0
LINE
  8
0
 10
5.3353
 20
28.669
 11
5.05026
 21
28.8019
  0
LINE
  8
0
 10
5.05026
 20
28.8019
 11
4.77005
 21
28.9446
  0
LINE
  8
0
 10
4.77005
 20
28.9446
 11
4.495
 21
29.0971
  0
LINE
  8
0
 10
4.495
 20
29.0971
 11
4.22542
 21
29.2591
  0
LINE
  8
0
 10
4.22542
 20
29.2591
 11
3.96167
 21
29.4304
  0
LINE
  8
0
 10
3.96167
 20
29.4304
 11
3.70404
 21
29.6108
  0
LINE
  8
0
 10
3.70404
 20
29.6108
 11
3.45288
 21
29.8
  0
LINE
  8
0
 10
3.45288
 20
29.8
 11
3.20848
 21
29.9979
  0
LINE
  8
0
 10
3.20848
 20
29.9979
 11
2.97113
 21
30.2043
  0
LINE
  8
0
 10
2.97113
 20
30.2043
 11
2.74112
 21
30.4187
  0
LINE
  8
0
 10
2.74112
 20
30.4187
 11
2.51874
 21
30.6411
  0
LINE
  8
0
 10
2.51874
 20
30.6411
 11
2.30426
 21
30.8711
  0
LINE
  8
0
 10
2.30426
 20
30.8711
 11
2.09793
 21
31.1085
  0
LINE
  8
0
 10
2.09793
 20
31.1085
 11
1.90001
 21
31.3529
  0
LINE
  8
0
 10
1.90001
 20
31.3529
 11
1.71075
 21
31.604
  0
LINE
  8
0
 10
1.71075
 20
31.604
 11
1.53036
 21
31.8617
  0
LINE
  8
0
 10
1.53036
 20
31.8617
 11
1.35909
 21
32.1254
  0
LINE
  8
0
 10
1.35909
 20
32.1254
 11
1.1971
 21
32.395
  0
LINE
  8
0
 10
1.1971
 20
32.395
 11
1.04463
 21
32.67
  0
LINE
  8
0
 10
1.04463
 20
32.67
 11
0.901855
 21
32.9503
  0
LINE
  8
0
 10
0.901855
 20
32.9503
 11
0.768951
 21
33.2353
  0
LINE
  8
0
 10
0.768951
 20
33.2353
 11
0.646072
 21
33.5248
  0
LINE
  8
0
 10
0.646072
 20
33.5248
 11
0.533356
 21
33.8184
  0
LINE
  8
0
 10
0.533356
 20
33.8184
 11
0.430969
 21
34.1157
  0
LINE
  8
0
 10
0.430969
 20
34.1157
 11
0.33902
 21
34.4165
  0
LINE
  8
0
 10
0.33902
 20
34.4165
 11
0.257629
 21
34.7203
  0
LINE
  8
0
 10
0.257629
 20
34.7203
 11
0.18689
 21
35.0267
  0
LINE
  8
0
 10
0.18689
 20
35.0267
 11
0.126877
 21
35.3354
  0
LINE
  8
0
 10
0.126877
 20
35.3354
 11
0.0776825
 21
35.646
  0
LINE
  8
0
 10
0.0776825
 20
35.646
 11
0.0393524
 21
35.9582
  0
LINE
  8
0
 10
0.0393524
 20
35.9582
 11
0.0225677
 21
36.15
  0
LINE
  8
0
 10
0.0225677
 20
36.15
 11
-0.0225677
 21
36.15
  0
LINE
  8
0
 10
-0.0225677
 20
36.15
 11
-0.0393524
 21
35.9582
  0
LINE
  8
0
 10
-0.0393524
 20
35.9582
 11
-0.0776825
 21
35.646
  0
LINE
  8
0
 10
-0.0776825
 20
35.646
 11
-0.126877
 21
35.3354
  0
LINE
  8
0
 10
-0.126877
 20
35.3354
 11
-0.18689
 21
35.0267
  0
LINE
  8
0
 10
-0.18689
 20
35.0267
 11
-0.257629
 21
34.7203
  0
LINE
  8
0
 10
-0.257629
 20
34.7203
 11
-0.33902
 21
34.4165
  0
LINE
  8
0
 10
-0.33902
 20
34.4165
 11
-0.430969
 21
34.1157
  0
LINE
  8
0
 10
-0.430969
 20
34.1157
 11
-0.533356
 21
33.8184
  0
LINE
  8
0
 10
-0.533356
 20
33.8184
 11
-0.646072
 21
33.5248
  0
LINE
  8
0
 10
-0.646072
 20
33.5248
 11
-0.768951
 21
33.2353
  0
LINE
  8
0
 10
-0.768951
 20
33.2353
 11
-0.901855
 21
32.9503
  0
LINE
  8
0
 10
-0.901855
 20
32.9503
 11
-1.04463
 21
32.67
  0
LINE
  8
0
 10
-1.04463
 20
32.67
 11
-1.1971
 21
32.395
  0
LINE
  8
0
 10
-1.1971
 20
32.395
 11
-1.35909
 21
32.1254
  0
LINE
  8
0
 10
-1.35909
 20
32.1254
 11
-1.53036
 21
31.8617
  0
LINE
  8
0
 10
-1.53036
 20
31.8617
 11
-1.71075
 21
31.604
  0
LINE
  8
0
 10
-1.71075
 20
31.604
 11
-1.90001
 21
31.3529
  0
LINE
  8
0
 10
-1.90001
 20
31.3529
 11
-2.09793
 21
31.1085
  0
LINE
  8
0
 10
-2.09793
 20
31.1085
 11
-2.30426
 21
30.8711
  0
LINE
  8
0
 10
-2.30426
 20
30.8711
 11
-2.51874
 21
30.6411
  0
LINE
  8
0
 10
-2.51874
 20
30.6411
 11
-2.74112
 21
30.4187
  0
LINE
  8
0
 10
-2.74112
 20
30.4187
 11
-2.97113
 21
30.2043
  0
LINE
  8
0
 10
-2.97113
 20
30.2043
 11
-3.20848
 21
29.9979
  0
LINE
  8
0
 10
-3.20848
 20
29.9979
 11
-3.45288
 21
29.8
  0
LINE
  8
0
 10
-3.45288
 20
29.8
 11
-3.70404
 21
29.6108
  0
LINE
  8
0
 10
-3.70404
 20
29.6108
 11
-3.96167
 21
29.4304
  0
LINE
  8
0
 10
-3.96167
 20
29.4304
 11
-4.22542
 21
29.2591
  0
LINE
  8
0
 10
-4.22542
 20
29.2591
 11
-4.495
 21
29.0971
  0
LINE
  8
0
 10
-4.495
 20
29.0971
 11
-4.77005
 21
28.9446
  0
LINE
  8
0
 10
-4.77005
 20
28.9446
 11
-5.05026
 21
28.8019
  0
LINE
  8
0
 10
-5.05026
 20
28.8019
 11
-5.3353
 21
28.669
  0
LINE
  8
0
 10
-5.3353
 20
28.669
 11
-5.62479
 21
28.5461
  0
LINE
  8
0
 10
-5.62479
 20
28.5461
 11
-5.9184
 21
28.4334
  0
LINE
  8
0
 10
-5.9184
 20
28.4334
 11
-6.21574
 21
28.331
  0
LINE
  8
0
 10
-6.21574
 20
28.331
 11
-6.51649
 21
28.239
  0
LINE
  8
0
 10
-6.51649
 20
28.239
 11
-6.82028
 21
28.1576
  0
LINE
  8
0
 10
-6.82028
 20
28.1576
 11
-7.12671
 21
28.0869
  0
LINE
  8
0
 10
-7.12671
 20
28.0869
 11
-7.43542
 21
28.0269
  0
LINE
  8
0
 10
-7.43542
 20
28.0269
 11
-7.74605
 21
27.9777
  0
LINE
  8
0
 10
-7.74605
 20
27.9777
 11
-8.0582
 21
27.9394
  0
LINE
  8
0
 10
-8.0582
 20
27.9394
 11
-8.37149
 21
27.912
  0
LINE
  8
0
 10
-8.37149
 20
27.912
 11
-8.68555
 21
27.8955
  0
LINE
  8
0
 10
-8.68555
 20
27.8955
 11
-9
 21
27.89
  0
LINE
  8
0
 10
-9
 20
27.89
 11
-9.31444
 21
27.8955
  0
LINE
  8
0
 10
-9.31444
 20
27.8955
 11
-9.62849
 21
27.912
  0
LINE
  8
0
 10
-9.62849
 20
27.912
 11
-9.94179
 21
27.9394
  0
LINE
  8
0
 10
-9.94179
 20
27.9394
 11
-10.2539
 21
27.9777
  0
LINE
  8
0
 10
-10.2539
 20
27.9777
 11
-10.5646
 21
28.0269
  0
LINE
  8
0
 10
-10.5646
 20
28.0269
 11
-10.8733
 21
28.0869
  0
LINE
  8
0
 10
-10.8733
 20
28.0869
 11
-11.1797
 21
28.1576
  0
LINE
  8
0
 10
-11.1797
 20
28.1576
 11
-11.4835
 21
28.239
  0
LINE
  8
0
 10
-11.4835
 20
28.239
 11
-11.7842
 21
28.331
  0
LINE
  8
0
 10
-11.7842
 20
28.331
 11
-12.0816
 21
28.4334
  0
LINE
  8
0
 10
-12.0816
 20
28.4334
 11
-12.3752
 21
28.5461
  0
LINE
  8
0
 10
-12.3752
 20
28.5461
 11
-12.6647
 21
28.669
  0
LINE
  8
0
 10
-12.6647
 20
28.669
 11
-12.9497
 21
28.8019
  0
LINE
  8
0
 10
-12.9497
 20
28.8019
 11
-13.2299
 21
28.9446
  0
LINE
  8
0
 10
-13.2299
 20
28.9446
 11
-13.505
 21
29.0971
  0
LINE
  8
0
 10
-13.505
 20
29.0971
 11
-13.7746
 21
29.2591
  0
LINE
  8
0
 10
-13.7746
 20
29.2591
 11
-14.0383
 21
29.4304
  0
LINE
  8
0
 10
-14.0383
 20
29.4304
 11
-14.2959
 21
29.6108
  0
LINE
  8
0
 10
-14.2959
 20
29.6108
 11
-14.5471
 21
29.8
  0
LINE
  8
0
 10
-14.5471
 20
29.8
 11
-14.7915
 21
29.9979
  0
LINE
  8
0
 10
-14.7915
 20
29.9979
 11
-15.0289
 21
30.2043
  0
LINE
  8
0
 10
-15.0289
 20
30.2043
 11
-15.2589
 21
30.4187
  0
LINE
  8
0
 10
-15.2589
 20
30.4187
 11
-15.4812
 21
30.6411
  0
LINE
  8
0
 10
-15.4812
 20
30.6411
 11
-15.6957
 21
30.8711
  0
LINE
  8
0
 10
-15.6957
 20
30.8711
 11
-15.9021
 21
31.1085
  0
LINE
  8
0
 10
-15.9021
 20
31.1085
 11
-16.1
 21
31.3529
  0
LINE
  8
0
 10
-16.1
 20
31.3529
 11
-16.2892
 21
31.604
  0
LINE
  8
0
 10
-16.2892
 20
31.604
 11
-16.4696
 21
31.8617
  0
LINE
  8
0
 10
-16.4696
 20
31.8617
 11
-16.6409
 21
32.1254
  0
LINE
  8
0
 10
-16.6409
 20
32.1254
 11
-16.8029
 21
32.395
  0
LINE
  8
0
 10
-16.8029
 20
32.395
 11
-16.9554
 21
32.67
  0
LINE
  8
0
 10
-16.9554
 20
32.67
 11
-17.0981
 21
32.9503
  0
LINE
  8
0
 10
-17.0981
 20
32.9503
 11
-17.231
 21
33.2353
  0
LINE
  8
0
 10
-17.231
 20
33.2353
 11
-17.3539
 21
33.5248
  0
LINE
  8
0
 10
-17.3539
 20
33.5248
 11
-17.4666
 21
33.8184
  0
LINE
  8
0
 10
-17.4666
 20
33.8184
 11
-17.569
 21
34.1157
  0
LINE
  8
0
 10
-17.569
 20
34.1157
 11
-17.661
 21
34.4165
  0
LINE
  8
0
 10
-17.661
 20
34.4165
 11
-17.7424
 21
34.7203
  0
LINE
  8
0
 10
-17.7424
 20
34.7203
 11
-17.8131
 21
35.0267
  0
LINE
  8
0
 10
-17.8131
 20
35.0267
 11
-17.8731
 21
35.3354
  0
LINE
  8
0
 10
-17.8731
 20
35.3354
 11
-17.9223
 21
35.646
  0
LINE
  8
0
 10
-17.9223
 20
35.646
 11
-17.9606
 21
35.9582
  0
LINE
  8
0
 10
-17.9606
 20
35.9582
 11
-17.9774
 21
36.15
  0
LINE
  8
0
 10
-17.9774
 20
36.15
 11
-21
 21
36.15
  0
LINE
  8
0
 10
-21
 20
36.15
 11
-21
 21
24.15
  0
LINE
  8
0
 10
-21
 20
24.15
 11
-18
 21
24.15
  0
LINE
  8
0
 10
-18
 20
24.15
 11
-18
 21
19.65
  0
LINE
  8
0
 10
-18
 20
19.65
 11
18
 21
19.65
  0
LINE
  8
0
 10
18
 20
19.65
 11
18
 21
24.15
  0
LINE
  8
0
 10
18
 20
7.04999
 11
21
 21
7.04999
  0
LINE
  8
0
 10
21
 20
7.04999
 11
21
 21
19.05
  0
LINE
  8
0
 10
21
 20
19.05
 11
17.9774
 21
19.05
  0
LINE
  8
0
 10
17.9774
 20
19.05
 11
17.9606
 21
18.8582
  0
LINE
  8
0
 10
17.9606
 20
18.8582
 11
17.9223
 21
18.546
  0
LINE
  8
0
 10
17.9223
 20
18.546
 11
17.8731
 21
18.2354
  0
LINE
  8
0
 10
17.8731
 20
18.2354
 11
17.8131
 21
17.9267
  0
LINE
  8
0
 10
17.8131
 20
17.9267
 11
17.7424
 21
17.6203
  0
LINE
  8
0
 10
17.7424
 20
17.6203
 11
17.661
 21
17.3165
  0
LINE
  8
0
 10
17.661
 20
17.3165
 11
17.569
 21
17.0157
  0
LINE
  8
0
 10
17.569
 20
17.0157
 11
17.4666
 21
16.7184
  0
LINE
  8
0
 10
17.4666
 20
16.7184
 11
17.3539
 21
16.4248
  0
LINE
  8
0
 10
17.3539
 20
16.4248
 11
17.231
 21
16.1353
  0
LINE
  8
0
 10
17.231
 20
16.1353
 11
17.0981
 21
15.8503
  0
LINE
  8
0
 10
17.0981
 20
15.8503
 11
16.9554
 21
15.57
  0
LINE
  8
0
 10
16.9554
 20
15.57
 11
16.8029
 21
15.295
  0
LINE
  8
0
 10
16.8029
 20
15.295
 11
16.6409
 21
15.0254
  0
LINE
  8
0
 10
16.6409
 20
15.0254
 11
16.4696
 21
14.7617
  0
LINE
  8
0
 10
16.4696
 20
14.7617
 11
16.2892
 21
14.504
  0
LINE
  8
0
 10
16.2892
 20
14.504
 11
16.1
 21
14.2529
  0
LINE
  8
0
 10
16.1
 20
14.2529
 11
15.9021
 21
14.0085
  0
LINE
  8
0
 10
15.9021
 20
14.0085
 11
15.6957
 21
13.7711
  0
LINE
  8
0
 10
15.6957
 20
13.7711
 11
15.4812
 21
13.5411
  0
LINE
  8
0
 10
15.4812
 20
13.5411
 11
15.2589
 21
13.3187
  0
LINE
  8
0
 10
15.2589
 20
13.3187
 11
15.0289
 21
13.1043
  0
LINE
  8
0
 10
15.0289
 20
13.1043
 11
14.7915
 21
12.8979
  0
LINE
  8
0
 10
14.7915
 20
12.8979
 11
14.5471
 21
12.7
  0
LINE
  8
0
 10
14.5471
 20
12.7
 11
14.2959
 21
12.5108
  0
LINE
  8
0
 10
14.2959
 20
12.5108
 11
14.0383
 21
12.3304
  0
LINE
  8
0
 10
14.0383
 20
12.3304
 11
13.7746
 21
12.1591
  0
LINE
  8
0
 10
13.7746
 20
12.1591
 11
13.505
 21
11.9971
  0
LINE
  8
0
 10
13.505
 20
11.9971
 11
13.2299
 21
11.8446
  0
LINE
  8
0
 10
13.2299
 20
11.8446
 11
12.9497
 21
11.7019
  0
LINE
  8
0
 10
12.9497
 20
11.7019
 11
12.6647
 21
11.569
  0
LINE
  8
0
 10
12.6647
 20
11.569
 11
12.3752
 21
11.4461
  0
LINE
  8
0
 10
12.3752
 20
11.4461
 11
12.0816
 21
11.3334
  0
LINE
  8
0
 10
12.0816
 20
11.3334
 11
11.7842
 21
11.231
  0
LINE
  8
0
 10
11.7842
 20
11.231
 11
11.4835
 21
11.139
  0
LINE
  8
0
 10
11.4835
 20
11.139
 11
11.1797
 21
11.0576
  0
LINE
  8
0
 10
11.1797
 20
11.0576
 11
10.8733
 21
10.9869
  0
LINE
  8
0
 10
10.8733
 20
10.9869
 11
10.5646
 21
10.9269
  0
LINE
  8
0
 10
10.5646
 20
10.9269
 11
10.2539
 21
10.8777
  0
LINE
  8
0
 10
10.2539
 20
10.8777
 11
9.94179
 21
10.8394
  0
LINE
  8
0
 10
9.94179
 20
10.8394
 11
9.62849
 21
10.812
  0
LINE
  8
0
 10
9.62849
 20
10.812
 11
9.31444
 21
10.7955
  0
LINE
  8
0
 10
9.31444
 20
10.7955
 11
8.99998
 21
10.79
  0
LINE
  8
0
 10
8.99998
 20
10.79
 11
8.68555
 21
10.7955
  0
LINE
  8
0
 10
8.68555
 20
10.7955
 11
8.37149
 21
10.812
  0
LINE
  8
0
 10
8.37149
 20
10.812
 11
8.0582
 21
10.8394
  0
LINE
  8
0
 10
8.0582
 20
10.8394
 11
7.74605
 21
10.8777
  0
LINE
  8
0
 10
7.74605
 20
10.8777
 11
7.43542
 21
10.9269
  0
LINE
  8
0
 10
7.43542
 20
10.9269
 11
7.12671
 21
10.9869
  0
LINE
  8
0
 10
7.12671
 20
10.9869
 11
6.82028
 21
11.0576
  0
LINE
  8
0
 10
6.82028
 20
11.0576
 11
6.51649
 21
11.139
  0
LINE
  8
0
 10
6.51649
 20
11.139
 11
6.21574
 21
11.231
  0
LINE
  8
0
 10
6.21574
 20
11.231
 11
5.9184
 21
11.3334
  0
LINE
  8
0
 10
5.9184
 20
11.3334
 11
5.62479
 21
11.4461
  0
LINE
  8
0
 10
5.62479
 20
11.4461
 11
5.3353
 21
11.569
  0
LINE
  8
0
 10
5.3353
 20
11.569
 11
5.05026
 21
11.7019
  0
LINE
  8
0
 10
5.05026
 20
11.7019
 11
4.77005
 21
11.8446
  0
LINE
  8
0
 10
4.77005
 20
11.8446
 11
4.495
 21
11.9971
  0
LINE
  8
0
 10
4.495
 20
11.9971
 11
4.22542
 21
12.1591
  0
LINE
  8
0
 10
4.22542
 20
12.1591
 11
3.96167
 21
12.3304
  0
LINE
  8
0
 10
3.96167
 20
12.3304
 11
3.70404
 21
12.5108
  0
LINE
  8
0
 10
3.70404
 20
12.5108
 11
3.45288
 21
12.7
  0
LINE
  8
0
 10
3.45288
 20
12.7
 11
3.20848
 21
12.8979
  0
LINE
  8
0
 10
3.20848
 20
12.8979
 11
2.97113
 21
13.1043
  0
LINE
  8
0
 10
2.97113
 20
13.1043
 11
2.74112
 21
13.3187
  0
LINE
  8
0
 10
2.74112
 20
13.3187
 11
2.51874
 21
13.5411
  0
LINE
  8
0
 10
2.51874
 20
13.5411
 11
2.30426
 21
13.7711
  0
LINE
  8
0
 10
2.30426
 20
13.7711
 11
2.09793
 21
14.0085
  0
LINE
  8
0
 10
2.09793
 20
14.0085
 11
1.90001
 21
14.2529
  0
LINE
  8
0
 10
1.90001
 20
14.2529
 11
1.71075
 21
14.504
  0
LINE
  8
0
 10
1.71075
 20
14.504
 11
1.53036
 21
14.7617
  0
LINE
  8
0
 10
1.53036
 20
14.7617
 11
1.35909
 21
15.0254
  0
LINE
  8
0
 10
1.35909
 20
15.0254
 11
1.1971
 21
15.295
  0
LINE
  8
0
 10
1.1971
 20
15.295
 11
1.04463
 21
15.57
  0
LINE
  8
0
 10
1.04463
 20
15.57
 11
0.901855
 21
15.8503
  0
LINE
  8
0
 10
0.901855
 20
15.8503
 11
0.768951
 21
16.1353
  0
LINE
  8
0
 10
0.768951
 20
16.1353
 11
0.646072
 21
16.4248
  0
LINE
  8
0
 10
0.646072
 20
16.4248
 11
0.533356
 21
16.7184
  0
LINE
  8
0
 10
0.533356
 20
16.7184
 11
0.430969
 21
17.0157
  0
LINE
  8
0
 10
0.430969
 20
17.0157
 11
0.33902
 21
17.3165
  0
LINE
  8
0
 10
0.33902
 20
17.3165
 11
0.257629
 21
17.6203
  0
LINE
  8
0
 10
0.257629
 20
17.6203
 11
0.18689
 21
17.9267
  0
LINE
  8
0
 10
0.18689
 20
17.9267
 11
0.126877
 21
18.2354
  0
LINE
  8
0
 10
0.126877
 20
18.2354
 11
0.0776825
 21
18.546
  0
LINE
  8
0
 10
0.0776825
 20
18.546
 11
0.0393524
 21
18.8582
  0
LINE
  8
0
 10
0.0393524
 20
18.8582
 11
0.0225677
 21
19.05
  0
LINE
  8
0
 10
0.0225677
 20
19.05
 11
-0.0225677
 21
19.05
  0
LINE
  8
0
 10
-0.0225677
 20
19.05
 11
-0.0393524
 21
18.8582
  0
LINE
  8
0
 10
-0.0393524
 20
18.8582
 11
-0.0776825
 21
18.546
  0
LINE
  8
0
 10
-0.0776825
 20
18.546
 11
-0.126877
 21
18.2354
  0
LINE
  8
0
 10
-0.126877
 20
18.2354
 11
-0.18689
 21
17.9267
  0
LINE
  8
0
 10
-0.18689
 20
17.9267
 11
-0.257629
 21
17.6203
  0
LINE
  8
0
 10
-0.257629
 20
17.6203
 11
-0.33902
 21
17.3165
  0
LINE
  8
0
 10
-0.33902
 20
17.3165
 11
-0.430969
 21
17.0157
  0
LINE
  8
0
 10
-0.430969
 20
17.0157
 11
-0.533356
 21
16.7184
  0
LINE
  8
0
 10
-0.533356
 20
16.7184
 11
-0.646072
 21
16.4248
  0
LINE
  8
0
 10
-0.646072
 20
16.4248
 11
-0.768951
 21
16.1353
  0
LINE
  8
0
 10
-0.768951
 20
16.1353
 11
-0.901855
 21
15.8503
  0
LINE
  8
0
 10
-0.901855
 20
15.8503
 11
-1.04463
 21
15.57
  0
LINE
  8
0
 10
-1.04463
 20
15.57
 11
-1.1971
 21
15.295
  0
LINE
  8
0
 10
-1.1971
 20
15.295
 11
-1.35909
 21
15.0254
  0
LINE
  8
0
 10
-1.35909
 20
15.0254
 11
-1.53036
 21
14.7617
  0
LINE
  8
0
 10
-1.53036
 20
14.7617
 11
-1.71075
 21
14.504
  0
LINE
  8
0
 10
-1.71075
 20
14.504
 11
-1.90001
 21
14.2529
  0
LINE
  8
0
 10
-1.90001
 20
14.2529
 11
-2.09793
 21
14.0085
  0
LINE
  8
0
 10
-2.09793
 20
14.0085
 11
-2.30426
 21
13.7711
  0
LINE
  8
0
 10
-2.30426
 20
13.7711
 11
-2.51874
 21
13.5411
  0
LINE
  8
0
 10
-2.51874
 20
13.5411
 11
-2.74112
 21
13.3187
  0
LINE
  8
0
 10
-2.74112
 20
13.3187
 11
-2.97113
 21
13.1043
  0
LINE
  8
0
 10
-2.97113
 20
13.1043
 11
-3.20848
 21
12.8979
  0
LINE
  8
0
 10
-3.20848
 20
12.8979
 11
-3.45288
 21
12.7
  0
LINE
  8
0
 10
-3.45288
 20
12.7
 11
-3.70404
 21
12.5108
  0
LINE
  8
0
 10
-3.70404
 20
12.5108
 11
-3.96167
 21
12.3304
  0
LINE
  8
0
 10
-3.96167
 20
12.3304
 11
-4.22542
 21
12.1591
  0
LINE
  8
0
 10
-4.22542
 20
12.1591
 11
-4.495
 21
11.9971
  0
LINE
  8
0
 10
-4.495
 20
11.9971
 11
-4.77005
 21
11.8446
  0
LINE
  8
0
 10
-4.77005
 20
11.8446
 11
-5.05026
 21
11.7019
  0
LINE
  8
0
 10
-5.05026
 20
11.7019
 11
-5.3353
 21
11.569
  0
LINE
  8
0
 10
-5.3353
 20
11.569
 11
-5.62479
 21
11.4461
  0
LINE
  8
0
 10
-5.62479
 20
11.4461
 11
-5.9184
 21
11.3334
  0
LINE
  8
0
 10
-5.9184
 20
11.3334
 11
-6.21574
 21
11.231
  0
LINE
  8
0
 10
-6.21574
 20
11.231
 11
-6.51649
 21
11.139
  0
LINE
  8
0
 10
-6.51649
 20
11.139
 11
-6.82028
 21
11.0576
  0
LINE
  8
0
 10
-6.82028
 20
11.0576
 11
-7.12671
 21
10.9869
  0
LINE
  8
0
 10
-7.12671
 20
10.9869
 11
-7.43542
 21
10.9269
  0
LINE
  8
0
 10
-7.43542
 20
10.9269
 11
-7.74605
 21
10.8777
  0
LINE
  8
0
 10
-7.74605
 20
10.8777
 11
-8.0582
 21
10.8394
  0
LINE
  8
0
 10
-8.0582
 20
10.8394
 11
-8.37149
 21
10.812
  0
LINE
  8
0
 10
-8.37149
 20
10.812
 11
-8.68555
 21
10.7955
  0
LINE
  8
0
 10
-8.68555
 20
10.7955
 11
-9
 21
10.79
  0
LINE
  8
0
 10
-9
 20
10.79
 11
-9.31444
 21
10.7955
  0
LINE
  8
0
 10
-9.31444
 20
10.7955
 11
-9.62849
 21
10.812
  0
LINE
  8
0
 10
-9.62849
 20
10.812
 11
-9.94179
 21
10.8394
  0
LINE
  8
0
 10
-9.94179
 20
10.8394
 11
-10.2539
 21
10.8777
  0
LINE
  8
0
 10
-10.2539
 20
10.8777
 11
-10.5646
 21
10.9269
  0
LINE
  8
0
 10
-10.5646
 20
10.9269
 11
-10.8733
 21
10.9869
  0
LINE
  8
0
 10
-10.8733
 20
10.9869
 11
-11.1797
 21
11.0576
  0
LINE
  8
0
 10
-11.1797
 20
11.0576
 11
-11.4835
 21
11.139
  0
LINE
  8
0
 10
-11.4835
 20
11.139
 11
-11.7842
 21
11.231
  0
LINE
  8
0
 10
-11.7842
 20
11.231
 11
-12.0816
 21
11.3334
  0
LINE
  8
0
 10
-12.0816
 20
11.3334
 11
-12.3752
 21
11.4461
  0
LINE
  8
0
 10
-12.3752
 20
11.4461
 11
-12.6647
 21
11.569
  0
LINE
  8
0
 10
-12.6647
 20
11.569
 11
-12.9497
 21
11.7019
  0
LINE
  8
0
 10
-12.9497
 20
11.7019
 11
-13.2299
 21
11.8446
  0
LINE
  8
0
 10
-13.2299
 20
11.8446
 11
-13.505
 21
11.9971
  0
LINE
  8
0
 10
-13.505
 20
11.9971
 11
-13.7746
 21
12.1591
  0
LINE
  8
0
 10
-13.7746
 20
12.1591
 11
-14.0383
 21
12.3304
  0
LINE
  8
0
 10
-14.0383
 20
12.3304
 11
-14.2959
 21
12.5108
  0
LINE
  8
0
 10
-14.2959
 20
12.5108
 11
-14.5471
 21
12.7
  0
LINE
  8
0
 10
-14.5471
 20
12.7
 11
-14.7915
 21
12.8979
  0
LINE
  8
0
 10
-14.7915
 20
12.8979
 11
-15.0289
 21
13.1043
  0
LINE
  8
0
 10
-15.0289
 20
13.1043
 11
-15.2589
 21
13.3187
  0
LINE
  8
0
 10
-15.2589
 20
13.3187
 11
-15.4812
 21
13.5411
  0
LINE
  8
0
 10
-15.4812
 20
13.5411
 11
-15.6957
 21
13.7711
  0
LINE
  8
0
 10
-15.6957
 20
13.7711
 11
-15.9021
 21
14.0085
  0
LINE
  8
0
 10
-15.9021
 20
14.0085
 11
-16.1
 21
14.2529
  0
LINE
  8
0
 10
-16.1
 20
14.2529
 11
-16.2892
 21
14.504
  0
LINE
  8
0
 10
-16.2892
 20
14.504
 11
-16.4696
 21
14.7617
  0
LINE
  8
0
 10
-16.4696
 20
14.7617
 11
-16.6409
 21
15.0254
  0
LINE
  8
0
 10
-16.6409
 20
15.0254
 11
-16.8029
 21
15.295
  0
LINE
  8
0
 10
-16.8029
 20
15.295
 11
-16.9554
 21
15.57
  0
LINE
  8
0
 10
-16.9554
 20
15.57
 11
-17.0981
 21
15.8503
  0
LINE
  8
0
 10
-17.0981
 20
15.8503
 11
-17.231
 21
16.1353
  0
LINE
  8
0
 10
-17.231
 20
16.1353
 11
-17.3539
 21
16.4248
  0
LINE
  8
0
 10
-17.3539
 20
16.4248
 11
-17.4666
 21
16.7184
  0
LINE
  8
0
 10
-17.4666
 20
16.7184
 11
-17.569
 21
17.0157
  0
LINE
  8
0
 10
-17.569
 20
17.0157
 11
-17.661
 21
17.3165
  0
LINE
  8
0
 10
-17.661
 20
17.3165
 11
-17.7424
 21
17.6203
  0
LINE
  8
0
 10
-17.7424
 20
17.6203
 11
-17.8131
 21
17.9267
  0
LINE
  8
0
 10
-17.8131
 20
17.9267
 11
-17.8731
 21
18.2354
  0
LINE
  8
0
 10
-17.8731
 20
18.2354
 11
-17.9223
 21
18.546
  0
LINE
  8
0
 10
-17.9223
 20
18.546
 11
-17.9606
 21
18.8582
  0
LINE
  8
0
 10
-17.9606
 20
18.8582
 11
-17.9774
 21
19.05
  0
LINE
  8
0
 10
-17.9774
 20
19.05
 11
-21
 21
19.05
  0
LINE
  8
0
 10
-21
 20
19.05
 11
-21
 21
7.04999
  0
LINE
  8
0
 10
-21
 20
7.04999
 11
-18
 21
7.04999
  0
LINE
  8
0
 10
-18
 20
7.04999
 11
-18
 21
2.54999
  0
LINE
  8
0
 10
-18
 20
2.54999
 11
18
 21
2.54999
  0
LINE
  8
0
 10
18
 20
2.54999
 11
18
 21
7.04999
  0
LINE
  8
0
 10
18
 20
-10.05
 11
21
 21
-10.05
  0
LINE
  8
0
 10
21
 20
-10.05
 11
21
 21
1.95
  0
LINE
  8
0
 10
21
 20
1.95
 11
17.9774
 21
1.95
  0
LINE
  8
0
 10
17.9774
 20
1.95
 11
17.9606
 21
1.75819
  0
LINE
  8
0
 10
17.9606
 20
1.75819
 11
17.9223
 21
1.44604
  0
LINE
  8
0
 10
17.9223
 20
1.44604
 11
17.8731
 21
1.13542
  0
LINE
  8
0
 10
17.8731
 20
1.13542
 11
17.8131
 21
0.826706
  0
LINE
  8
0
 10
17.8131
 20
0.826706
 11
17.7424
 21
0.520279
  0
LINE
  8
0
 10
17.7424
 20
0.520279
 11
17.661
 21
0.216492
  0
LINE
  8
0
 10
17.661
 20
0.216492
 11
17.569
 21
-0.0842438
  0
LINE
  8
0
 10
17.569
 20
-0.0842438
 11
17.4666
 21
-0.381592
  0
LINE
  8
0
 10
17.4666
 20
-0.381592
 11
17.3539
 21
-0.675201
  0
LINE
  8
0
 10
17.3539
 20
-0.675201
 11
17.231
 21
-0.964691
  0
LINE
  8
0
 10
17.231
 20
-0.964691
 11
17.0981
 21
-1.24973
  0
LINE
  8
0
 10
17.0981
 20
-1.24973
 11
16.9554
 21
-1.52994
  0
LINE
  8
0
 10
16.9554
 20
-1.52994
 11
16.8029
 21
-1.80498
  0
LINE
  8
0
 10
16.8029
 20
-1.80498
 11
16.6409
 21
-2.07455
  0
LINE
  8
0
 10
16.6409
 20
-2.07455
 11
16.4696
 21
-2.3383
  0
LINE
  8
0
 10
16.4696
 20
-2.3383
 11
16.2892
 21
-2.59593
  0
LINE
  8
0
 10
16.2892
 20
-2.59593
 11
16.1
 21
-2.84709
  0
LINE
  8
0
 10
16.1
 20
-2.84709
 11
15.9021
 21
-3.09149
  0
LINE
  8
0
 10
15.9021
 20
-3.09149
 11
15.6957
 21
-3.32884
  0
LINE
  8
0
 10
15.6957
 20
-3.32884
 11
15.4812
 21
-3.55885
  0
LINE
  8
0
 10
15.4812
 20
-3.55885
 11
15.2589
 21
-3.78123
  0
LINE
  8
0
 10
15.2589
 20
-3.78123
 11
15.0289
 21
-3.99571
  0
LINE
  8
0
 10
15.0289
 20
-3.99571
 11
14.7915
 21
-4.20204
  0
LINE
  8
0
 10
14.7915
 20
-4.20204
 11
14.5471
 21
-4.39996
  0
LINE
  8
0
 10
14.5471
 20
-4.39996
 11
14.2959
 21
-4.58922
  0
LINE
  8
0
 10
14.2959
 20
-4.58922
 11
14.0383
 21
-4.76961
  0
LINE
  8
0
 10
14.0383
 20
-4.76961
 11
13.7746
 21
-4.94089
  0
LINE
  8
0
 10
13.7746
 20
-4.94089
 11
13.505
 21
-5.10287
  0
LINE
  8
0
 10
13.505
 20
-5.10287
 11
13.2299
 21
-5.25534
  0
LINE
  8
0
 10
13.2299
 20
-5.25534
 11
12.9497
 21
-5.39812
  0
LINE
  8
0
 10
12.9497
 20
-5.39812
 11
12.6647
 21
-5.53102
  0
LINE
  8
0
 10
12.6647
 20
-5.53102
 11
12.3752
 21
-5.6539
  0
LINE
  8
0
 10
12.3752
 20
-5.6539
 11
12.0816
 21
-5.76662
  0
LINE
  8
0
 10
12.0816
 20
-5.76662
 11
11.7842
 21
-5.869
  0
LINE
  8
0
 10
11.7842
 20
-5.869
 11
11.4835
 21
-5.96095
  0
LINE
  8
0
 10
11.4835
 20
-5.96095
 11
11.1797
 21
-6.04234
  0
LINE
  8
0
 10
11.1797
 20
-6.04234
 11
10.8733
 21
-6.11308
  0
LINE
  8
0
 10
10.8733
 20
-6.11308
 11
10.5646
 21
-6.1731
  0
LINE
  8
0
 10
10.5646
 20
-6.1731
 11
10.2539
 21
-6.22229
  0
LINE
  8
0
 10
10.2539
 20
-6.22229
 11
9.94179
 21
-6.26062
  0
LINE
  8
0
 10
9.94179
 20
-6.26062
 11
9.62849
 21
-6.28802
  0
LINE
  8
0
 10
9.62849
 20
-6.28802
 11
9.31444
 21
-6.30449
  0
LINE
  8
0
 10
9.31444
 20
-6.30449
 11
8.99998
 21
-6.30998
  0
LINE
  8
0
 10
8.99998
 20
-6.30998
 11
8.68555
 21
-6.30449
  0
LINE
  8
0
 10
8.68555
 20
-6.30449
 11
8.37149
 21
-6.28802
  0
LINE
  8
0
 10
8.37149
 20
-6.28802
 11
8.0582
 21
-6.26062
  0
LINE
  8
0
 10
8.0582
 20
-6.26062
 11
7.74605
 21
-6.22229
  0
LINE
  8
0
 10
7.74605
 20
-6.22229
 11
7.43542
 21
-6.1731
  0
LINE
  8
0
 10
7.43542
 20
-6.1731
 11
7.12671
 21
-6.11308
  0
LINE
  8
0
 10
7.12671
 20
-6.11308
 11
6.82028
 21
-6.04234
  0
LINE
  8
0
 10
6.82028
 20
-6.04234
 11
6.51649
 21
-5.96095
  0
LINE
  8
0
 10
6.51649
 20
-5.96095
 11
6.21574
 21
-5.869
  0
LINE
  8
0
 10
6.21574
 20
-5.869
 11
5.9184
 21
-5.76662
  0
LINE
  8
0
 10
5.9184
 20
-5.76662
 11
5.62479
 21
-5.6539
  0
LINE
  8
0
 10
5.62479
 20
-5.6539
 11
5.3353
 21
-5.53102
  0
LINE
  8
0
 10
5.3353
 20
-5.53102
 11
5.05026
 21
-5.39812
  0
LINE
  8
0
 10
5.05026
 20
-5.39812
 11
4.77005
 21
-5.25534
  0
LINE
  8
0
 10
4.77005
 20
-5.25534
 11
4.495
 21
-5.10287
  0
LINE
  8
0
 10
4.495
 20
-5.10287
 11
4.22542
 21
-4.94089
  0
LINE
  8
0
 10
4.22542
 20
-4.94089
 11
3.96167
 21
-4.76961
  0
LINE
  8
0
 10
3.96167
 20
-4.76961
 11
3.70404
 21
-4.58922
  0
LINE
  8
0
 10
3.70404
 20
-4.58922
 11
3.45288
 21
-4.39996
  0
LINE
  8
0
 10
3.45288
 20
-4.39996
 11
3.20848
 21
-4.20204
  0
LINE
  8
0
 10
3.20848
 20
-4.20204
 11
2.97113
 21
-3.99571
  0
LINE
  8
0
 10
2.97113
 20
-3.99571
 11
2.74112
 21
-3.78123
  0
LINE
  8
0
 10
2.74112
 20
-3.78123
 11
2.51874
 21
-3.55885
  0
LINE
  8
0
 10
2.51874
 20
-3.55885
 11
2.30426
 21
-3.32884
  0
LINE
  8
0
 10
2.30426
 20
-3.32884
 11
2.09793
 21
-3.09149
  0
LINE
  8
0
 10
2.09793
 20
-3.09149
 11
1.90001
 21
-2.84709
  0
LINE
  8
0
 10
1.90001
 20
-2.84709
 11
1.71075
 21
-2.59593
  0
LINE
  8
0
 10
1.71075
 20
-2.59593
 11
1.53036
 21
-2.3383
  0
LINE
  8
0
 10
1.53036
 20
-2.3383
 11
1.35909
 21
-2.07455
  0
LINE
  8
0
 10
1.35909
 20
-2.07455
 11
1.1971
 21
-1.80498
  0
LINE
  8
0
 10
1.1971
 20
-1.80498
 11
1.04463
 21
-1.52994
  0
LINE
  8
0
 10
1.04463
 20
-1.52994
 11
0.901855
 21
-1.24973
  0
LINE
  8
0
 10
0.901855
 20
-1.24973
 11
0.768951
 21
-0.964691
  0
LINE
  8
0
 10
0.768951
 20
-0.964691
 11
0.646072
 21
-0.675201
  0
LINE
  8
0
 10
0.646072
 20
-0.675201
 11
0.533356
 21
-0.381592
  0
LINE
  8
0
 10
0.533356
 20
-0.381592
 11
0.430969
 21
-0.0842438
  0
LINE
  8
0
 10
0.430969
 20
-0.0842438
 11
0.33902
 21
0.216492
  0
LINE
  8
0
 10
0.33902
 20
0.216492
 11
0.257629
 21
0.520279
  0
LINE
  8
0
 10
0.257629
 20
0.520279
 11
0.18689
 21
0.826706
  0
LINE
  8
0
 10
0.18689
 20
0.826706
 11
0.126877
 21
1.13542
  0
LINE
  8
0
 10
0.126877
 20
1.13542
 11
0.0776825
 21
1.44604
  0
LINE
  8
0
 10
0.0776825
 20
1.44604
 11
0.0393524
 21
1.75819
  0
LINE
  8
0
 10
0.0393524
 20
1.75819
 11
0.0225677
 21
1.95
  0
LINE
  8
0
 10
0.0225677
 20
1.95
 11
-0.0225677
 21
1.95
  0
LINE
  8
0
 10
-0.0225677
 20
1.95
 11
-0.0393524
 21
1.75819
  0
LINE
  8
0
 10
-0.0393524
 20
1.75819
 11
-0.0776825
 21
1.44604
  0
LINE
  8
0
 10
-0.0776825
 20
1.44604
 11
-0.126877
 21
1.13542
  0
LINE
  8
0
 10
-0.126877
 20
1.13542
 11
-0.18689
 21
0.826706
  0
LINE
  8
0
 10
-0.18689
 20
0.826706
 11
-0.257629
 21
0.520279
  0
LINE
  8
0
 10
-0.257629
 20
0.520279
 11
-0.33902
 21
0.216492
  0
LINE
  8
0
 10
-0.33902
 20
0.216492
 11
-0.430969
 21
-0.0842438
  0
LINE
  8
0
 10
-0.430969
 20
-0.0842438
 11
-0.533356
 21
-0.381592
  0
LINE
  8
0
 10
-0.533356
 20
-0.381592
 11
-0.646072
 21
-0.675201
  0
LINE
  8
0
 10
-0.646072
 20
-0.675201
 11
-0.768951
 21
-0.964691
  0
LINE
  8
0
 10
-0.768951
 20
-0.964691
 11
-0.901855
 21
-1.24973
  0
LINE
  8
0
 10
-0.901855
 20
-1.24973
 11
-1.04463
 21
-1.52994
  0
LINE
  8
0
 10
-1.04463
 20
-1.52994
 11
-1.1971
 21
-1.80498
  0
LINE
  8
0
 10
-1.1971
 20
-1.80498
 11
-1.35909
 21
-2.07455
  0
LINE
  8
0
 10
-1.35909
 20
-2.07455
 11
-1.53036
 21
-2.3383
  0
LINE
  8
0
 10
-1.53036
 20
-2.3383
 11
-1.71075
 21
-2.59593
  0
LINE
  8
0
 10
-1.71075
 20
-2.59593
 11
-1.90001
 21
-2.84709
  0
LINE
  8
0
 10
-1.90001
 20
-2.84709
 11
-2.09793
 21
-3.09149
  0
LINE
  8
0
 10
-2.09793
 20
-3.09149
 11
-2.30426
 21
-3.32884
  0
LINE
  8
0
 10
-2.30426
 20
-3.32884
 11
-2.51874
 21
-3.55885
  0
LINE
  8
0
 10
-2.51874
 20
-3.55885
 11
-2.74112
 21
-3.78123
  0
LINE
  8
0
 10
-2.74112
 20
-3.78123
 11
-2.97113
 21
-3.99571
  0
LINE
  8
0
 10
-2.97113
 20
-3.99571
 11
-3.20848
 21
-4.20204
  0
LINE
  8
0
 10
-3.20848
 20
-4.20204
 11
-3.45288
 21
-4.39996
  0
LINE
  8
0
 10
-3.45288
 20
-4.39996
 11
-3.70404
 21
-4.58922
  0
LINE
  8
0
 10
-3.70404
 20
-4.58922
 11
-3.96167
 21
-4.76961
  0
LINE
  8
0
 10
-3.96167
 20
-4.76961
 11
-4.22542
 21
-4.94089
  0
LINE
  8
0
 10
-4.22542
 20
-4.94089
 11
-4.495
 21
-5.10287
  0
LINE
  8
0
 10
-4.495
 20
-5.10287
 11
-4.77005
 21
-5.25534
  0
LINE
  8
0
 10
-4.77005
 20
-5.25534
 11
-5.05026
 21
-5.39812
  0
LINE
  8
0
 10
-5.05026
 20
-5.39812
 11
-5.3353
 21
-5.53102
  0
LINE
  8
0
 10
-5.3353
 20
-5.53102
 11
-5.62479
 21
-5.6539
  0
LINE
  8
0
 10
-5.62479
 20
-5.6539
 11
-5.9184
 21
-5.76662
  0
LINE
  8
0
 10
-5.9184
 20
-5.76662
 11
-6.21574
 21
-5.869
  0
LINE
  8
0
 10
-6.21574
 20
-5.869
 11
-6.51649
 21
-5.96095
  0
LINE
  8
0
 10
-6.51649
 20
-5.96095
 11
-6.82028
 21
-6.04234
  0
LINE
  8
0
 10
-6.82028
 20
-6.04234
 11
-7.12671
 21
-6.11308
  0
LINE
  8
0
 10
-7.12671
 20
-6.11308
 11
-7.43542
 21
-6.1731
  0
LINE
  8
0
 10
-7.43542
 20
-6.1731
 11
-7.74605
 21
-6.22229
  0
LINE
  8
0
 10
-7.74605
 20
-6.22229
 11
-8.0582
 21
-6.26062
  0
LINE
  8
0
 10
-8.0582
 20
-6.26062
 11
-8.37149
 21
-6.28802
  0
LINE
  8
0
 10
-8.37149
 20
-6.28802
 11
-8.68555
 21
-6.30449
  0
LINE
  8
0
 10
-8.68555
 20
-6.30449
 11
-9
 21
-6.30998
  0
LINE
  8
0
 10
-9
 20
-6.30998
 11
-9.31444
 21
-6.30449
  0
LINE
  8
0
 10
-9.31444
 20
-6.30449
 11
-9.62849
 21
-6.28802
  0
LINE
  8
0
 10
-9.62849
 20
-6.28802
 11
-9.94179
 21
-6.26062
  0
LINE
  8
0
 10
-9.94179
 20
-6.26062
 11
-10.2539
 21
-6.22229
  0
LINE
  8
0
 10
-10.2539
 20
-6.22229
 11
-10.5646
 21
-6.1731
  0
LINE
  8
0
 10
-10.5646
 20
-6.1731
 11
-10.8733
 21
-6.11308
  0
LINE
  8
0
 10
-10.8733
 20
-6.11308
 11
-11.1797
 21
-6.04234
  0
LINE
  8
0
 10
-11.1797
 20
-6.04234
 11
-11.4835
 21
-5.96095
  0
LINE
  8
0
 10
-11.4835
 20
-5.96095
 11
-11.7842
 21
-5.869
  0
LINE
  8
0
 10
-11.7842
 20
-5.869
 11
-12.0816
 21
-5.76662
  0
LINE
  8
0
 10
-12.0816
 20
-5.76662
 11
-12.3752
 21
-5.6539
  0
LINE
  8
0
 10
-12.3752
 20
-5.6539
 11
-12.6647
 21
-5.53102
  0
LINE
  8
0
 10
-12.6647
 20
-5.53102
 11
-12.9497
 21
-5.39812
  0
LINE
  8
0
 10
-12.9497
 20
-5.39812
 11
-13.2299
 21
-5.25534
  0
LINE
  8
0
 10
-13.2299
 20
-5.25534
 11
-13.505
 21
-5.10287
  0
LINE
  8
0
 10
-13.505
 20
-5.10287
 11
-13.7746
 21
-4.94089
  0
LINE
  8
0
 10
-13.7746
 20
-4.94089
 11
-14.0383
 21
-4.76961
  0
LINE
  8
0
 10
-14.0383
 20
-4.76961
 11
-14.2959
 21
-4.58922
  0
LINE
  8
0
 10
-14.2959
 20
-4.58922
 11
-14.5471
 21
-4.39996
  0
LINE
  8
0
 10
-14.5471
 20
-4.39996
 11
-14.7915
 21
-4.20204
  0
LINE
  8
0
 10
-14.7915
 20
-4.20204
 11
-15.0289
 21
-3.99571
  0
LINE
  8
0
 10
-15.0289
 20
-3.99571
 11
-15.2589
 21
-3.78123
  0
LINE
  8
0
 10
-15.2589
 20
-3.78123
 11
-15.4812
 21
-3.55885
  0
LINE
  8
0
 10
-15.4812
 20
-3.55885
 11
-15.6957
 21
-3.32884
  0
LINE
  8
0
 10
-15.6957
 20
-3.32884
 11
-15.9021
 21
-3.09149
  0
LINE
  8
0
 10
-15.9021
 20
-3.09149
 11
-16.1
 21
-2.84709
  0
LINE
  8
0
 10
-16.1
 20
-2.84709
 11
-16.2892
 21
-2.59593
  0
LINE
  8
0
 10
-16.2892
 20
-2.59593
 11
-16.4696
 21
-2.3383
  0
LINE
  8
0
 10
-16.4696
 20
-2.3383
 11
-16.6409
 21
-2.07455
  0
LINE
  8
0
 10
-16.6409
 20
-2.07455
 11
-16.8029
 21
-1.80498
  0
LINE
  8
0
 10
-16.8029
 20
-1.80498
 11
-16.9554
 21
-1.52994
  0
LINE
  8
0
 10
-16.9554
 20
-1.52994
 11
-17.0981
 21
-1.24973
  0
LINE
  8
0
 10
-17.0981
 20
-1.24973
 11
-17.231
 21
-0.964691
  0
LINE
  8
0
 10
-17.231
 20
-0.964691
 11
-17.3539
 21
-0.675201
  0
LINE
  8
0
 10
-17.3539
 20
-0.675201
 11
-17.4666
 21
-0.381592
  0
LINE
  8
0
 10
-17.4666
 20
-0.381592
 11
-17.569
 21
-0.0842438
  0
LINE
  8
0
 10
-17.569
 20
-0.0842438
 11
-17.661
 21
0.216492
  0
LINE
  8
0
 10
-17.661
 20
0.216492
 11
-17.7424
 21
0.520279
  0
LINE
  8
0
 10
-17.7424
 20
0.520279
 11
-17.8131
 21
0.826706
  0
LINE
  8
0
 10
-17.8131
 20
0.826706
 11
-17.8731
 21
1.13542
  0
LINE
  8
0
 10
-17.8731
 20
1.13542
 11
-17.9223
 21
1.44604
  0
LINE
  8
0
 10
-17.9223
 20
1.44604
 11
-17.9606
 21
1.75819
  0
LINE
  8
0
 10
-17.9606
 20
1.75819
 11
-17.9774
 21
1.95
  0
LINE
  8
0
 10
-17.9774
 20
1.95
 11
-21
 21
1.95
  0
LINE
  8
0
 10
-21
 20
1.95
 11
-21
 21
-10.05
  0
LINE
  8
0
 10
-21
 20
-10.05
 11
-18
 21
-10.05
  0
LINE
  8
0
 10
-18
 20
-10.05
 11
-18
 21
-14.55
  0
LINE
  8
0
 10
-18
 20
-14.55
 11
18
 21
-14.55
  0
LINE
  8
0
 10
18
 20
-14.55
 11
18
 21
-10.05
  0
LINE
  8
0
 10
18
 20
-27.15
 11
21
 21
-27.15
  0
LINE
  8
0
 10
21
 20
-27.15
 11
21
 21
-15.15
  0
LINE
  8
0
 10
21
 20
-15.15
 11
17.9774
 21
-15.15
  0
LINE
  8
0
 10
17.9774
 20
-15.15
 11
17.9606
 21
-15.3418
  0
LINE
  8
0
 10
17.9606
 20
-15.3418
 11
17.9223
 21
-15.6539
  0
LINE
  8
0
 10
17.9223
 20
-15.6539
 11
17.8731
 21
-15.9646
  0
LINE
  8
0
 10
17.8731
 20
-15.9646
 11
17.8131
 21
-16.2733
  0
LINE
  8
0
 10
17.8131
 20
-16.2733
 11
17.7424
 21
-16.5797
  0
LINE
  8
0
 10
17.7424
 20
-16.5797
 11
17.661
 21
-16.8835
  0
LINE
  8
0
 10
17.661
 20
-16.8835
 11
17.569
 21
-17.1842
  0
LINE
  8
0
 10
17.569
 20
-17.1842
 11
17.4666
 21
-17.4816
  0
LINE
  8
0
 10
17.4666
 20
-17.4816
 11
17.3539
 21
-17.7752
  0
LINE
  8
0
 10
17.3539
 20
-17.7752
 11
17.231
 21
-18.0647
  0
LINE
  8
0
 10
17.231
 20
-18.0647
 11
17.0981
 21
-18.3497
  0
LINE
  8
0
 10
17.0981
 20
-18.3497
 11
16.9554
 21
-18.6299
  0
LINE
  8
0
 10
16.9554
 20
-18.6299
 11
16.8029
 21
-18.905
  0
LINE
  8
0
 10
16.8029
 20
-18.905
 11
16.6409
 21
-19.1746
  0
LINE
  8
0
 10
16.6409
 20
-19.1746
 11
16.4696
 21
-19.4383
  0
LINE
  8
0
 10
16.4696
 20
-19.4383
 11
16.2892
 21
-19.6959
  0
LINE
  8
0
 10
16.2892
 20
-19.6959
 11
16.1
 21
-19.9471
  0
LINE
  8
0
 10
16.1
 20
-19.9471
 11
15.9021
 21
-20.1915
  0
LINE
  8
0
 10
15.9021
 20
-20.1915
 11
15.6957
 21
-20.4288
  0
LINE
  8
0
 10
15.6957
 20
-20.4288
 11
15.4812
 21
-20.6589
  0
LINE
  8
0
 10
15.4812
 20
-20.6589
 11
15.2589
 21
-20.8812
  0
LINE
  8
0
 10
15.2589
 20
-20.8812
 11
15.0289
 21
-21.0957
  0
LINE
  8
0
 10
15.0289
 20
-21.0957
 11
14.7915
 21
-21.302
  0
LINE
  8
0
 10
14.7915
 20
-21.302
 11
14.5471
 21
-21.5
  0
LINE
  8
0
 10
14.5471
 20
-21.5
 11
14.2959
 21
-21.6892
  0
LINE
  8
0
 10
14.2959
 20
-21.6892
 11
14.0383
 21
-21.8696
  0
LINE
  8
0
 10
14.0383
 20
-21.8696
 11
13.7746
 21
-22.0409
  0
LINE
  8
0
 10
13.7746
 20
-22.0409
 11
13.505
 21
-22.2029
  0
LINE
  8
0
 10
13.505
 20
-22.2029
 11
13.2299
 21
-22.3553
  0
LINE
  8
0
 10
13.2299
 20
-22.3553
 11
12.9497
 21
-22.4981
  0
LINE
  8
0
 10
12.9497
 20
-22.4981
 11
12.6647
 21
-22.631
  0
LINE
  8
0
 10
12.6647
 20
-22.631
 11
12.3752
 21
-22.7539
  0
LINE
  8
0
 10
12.3752
 20
-22.7539
 11
12.0816
 21
-22.8666
  0
LINE
  8
0
 10
12.0816
 20
-22.8666
 11
11.7842
 21
-22.969
  0
LINE
  8
0
 10
11.7842
 20
-22.969
 11
11.4835
 21
-23.061
  0
LINE
  8
0
 10
11.4835
 20
-23.061
 11
11.1797
 21
-23.1423
  0
LINE
  8
0
 10
11.1797
 20
-23.1423
 11
10.8733
 21
-23.2131
  0
LINE
  8
0
 10
10.8733
 20
-23.2131
 11
10.5646
 21
-23.2731
  0
LINE
  8
0
 10
10.5646
 20
-23.2731
 11
10.2539
 21
-23.3223
  0
LINE
  8
0
 10
10.2539
 20
-23.3223
 11
9.94179
 21
-23.3606
  0
LINE
  8
0
 10
9.94179
 20
-23.3606
 11
9.62849
 21
-23.388
  0
LINE
  8
0
 10
9.62849
 20
-23.388
 11
9.31444
 21
-23.4045
  0
LINE
  8
0
 10
9.31444
 20
-23.4045
 11
8.99998
 21
-23.41
  0
LINE
  8
0
 10
8.99998
 20
-23.41
 11
8.68555
 21
-23.4045
  0
LINE
  8
0
 10
8.68555
 20
-23.4045
 11
8.37149
 21
-23.388
  0
LINE
  8
0
 10
8.37149
 20
-23.388
 11
8.0582
 21
-23.3606
  0
LINE
  8
0
 10
8.0582
 20
-23.3606
 11
7.74605
 21
-23.3223
  0
LINE
  8
0
 10
7.74605
 20
-23.3223
 11
7.43542
 21
-23.2731
  0
LINE
  8
0
 10
7.43542
 20
-23.2731
 11
7.12671
 21
-23.2131
  0
LINE
  8
0
 10
7.12671
 20
-23.2131
 11
6.82028
 21
-23.1423
  0
LINE
  8
0
 10
6.82028
 20
-23.1423
 11
6.51649
 21
-23.061
  0
LINE
  8
0
 10
6.51649
 20
-23.061
 11
6.21574
 21
-22.969
  0
LINE
  8
0
 10
6.21574
 20
-22.969
 11
5.9184
 21
-22.8666
  0
LINE
  8
0
 10
5.9184
 20
-22.8666
 11
5.62479
 21
-22.7539
  0
LINE
  8
0
 10
5.62479
 20
-22.7539
 11
5.3353
 21
-22.631
  0
LINE
  8
0
 10
5.3353
 20
-22.631
 11
5.05026
 21
-22.4981
  0
LINE
  8
0
 10
5.05026
 20
-22.4981
 11
4.77005
 21
-22.3553
  0
LINE
  8
0
 10
4.77005
 20
-22.3553
 11
4.495
 21
-22.2029
  0
LINE
  8
0
 10
4.495
 20
-22.2029
 11
4.22542
 21
-22.0409
  0
LINE
  8
0
 10
4.22542
 20
-22.0409
 11
3.96167
 21
-21.8696
  0
LINE
  8
0
 10
3.96167
 20
-21.8696
 11
3.70404
 21
-21.6892
  0
LINE
  8
0
 10
3.70404
 20
-21.6892
 11
3.45288
 21
-21.5
  0
LINE
  8
0
 10
3.45288
 20
-21.5
 11
3.20848
 21
-21.302
  0
LINE
  8
0
 10
3.20848
 20
-21.302
 11
2.97113
 21
-21.0957
  0
LINE
  8
0
 10
2.97113
 20
-21.0957
 11
2.74112
 21
-20.8812
  0
LINE
  8
0
 10
2.74112
 20
-20.8812
 11
2.51874
 21
-20.6589
  0
LINE
  8
0
 10
2.51874
 20
-20.6589
 11
2.30426
 21
-20.4288
  0
LINE
  8
0
 10
2.30426
 20
-20.4288
 11
2.09793
 21
-20.1915
  0
LINE
  8
0
 10
2.09793
 20
-20.1915
 11
1.90001
 21
-19.9471
  0
LINE
  8
0
 10
1.90001
 20
-19.9471
 11
1.71075
 21
-19.6959
  0
LINE
  8
0
 10
1.71075
 20
-19.6959
 11
1.53036
 21
-19.4383
  0
LINE
  8
0
 10
1.53036
 20
-19.4383
 11
1.35909
 21
-19.1746
  0
LINE
  8
0
 10
1.35909
 20
-19.1746
 11
1.1971
 21
-18.905
  0
LINE
  8
0
 10
1.1971
 20
-18.905
 11
1.04463
 21
-18.6299
  0
LINE
  8
0
 10
1.04463
 20
-18.6299
 11
0.901855
 21
-18.3497
  0
LINE
  8
0
 10
0.901855
 20
-18.3497
 11
0.768951
 21
-18.0647
  0
LINE
  8
0
 10
0.768951
 20
-18.0647
 11
0.646072
 21
-17.7752
  0
LINE
  8
0
 10
0.646072
 20
-17.7752
 11
0.533356
 21
-17.4816
  0
LINE
  8
0
 10
0.533356
 20
-17.4816
 11
0.430969
 21
-17.1842
  0
LINE
  8
0
 10
0.430969
 20
-17.1842
 11
0.33902
 21
-16.8835
  0
LINE
  8
0
 10
0.33902
 20
-16.8835
 11
0.257629
 21
-16.5797
  0
LINE
  8
0
 10
0.257629
 20
-16.5797
 11
0.18689
 21
-16.2733
  0
LINE
  8
0
 10
0.18689
 20
-16.2733
 11
0.126877
 21
-15.9646
  0
LINE
  8
0
 10
0.126877
 20
-15.9646
 11
0.0776825
 21
-15.6539
  0
LINE
  8
0
 10
0.0776825
 20
-15.6539
 11
0.0393524
 21
-15.3418
  0
LINE
  8
0
 10
0.0393524
 20
-15.3418
 11
0.0225677
 21
-15.15
  0
LINE
  8
0
 10
0.0225677
 20
-15.15
 11
-0.0225677
 21
-15.15
  0
LINE
  8
0
 10
-0.0225677
 20
-15.15
 11
-0.0393524
 21
-15.3418
  0
LINE
  8
0
 10
-0.0393524
 20
-15.3418
 11
-0.0776825
 21
-15.6539
  0
LINE
  8
0
 10
-0.0776825
 20
-15.6539
 11
-0.126877
 21
-15.9646
  0
LINE
  8
0
 10
-0.126877
 20
-15.9646
 11
-0.18689
 21
-16.2733
  0
LINE
  8
0
 10
-0.18689
 20
-16.2733
 11
-0.257629
 21
-16.5797
  0
LINE
  8
0
 10
-0.257629
 20
-16.5797
 11
-0.33902
 21
-16.8835
  0
LINE
  8
0
 10
-0.33902
 20
-16.8835
 11
-0.430969
 21
-17.1842
  0
LINE
  8
0
 10
-0.430969
 20
-17.1842
 11
-0.533356
 21
-17.4816
  0
LINE
  8
0
 10
-0.533356
 20
-17.4816
 11
-0.646072
 21
-17.7752
  0
LINE
  8
0
 10
-0.646072
 20
-17.7752
 11
-0.768951
 21
-18.0647
  0
LINE
  8
0
 10
-0.768951
 20
-18.0647
 11
-0.901855
 21
-18.3497
  0
LINE
  8
0
 10
-0.901855
 20
-18.3497
 11
-1.04463
 21
-18.6299
  0
LINE
  8
0
 10
-1.04463
 20
-18.6299
 11
-1.1971
 21
-18.905
  0
LINE
  8
0
 10
-1.1971
 20
-18.905
 11
-1.35909
 21
-19.1746
  0
LINE
  8
0
 10
-1.35909
 20
-19.1746
 11
-1.53036
 21
-19.4383
  0
LINE
  8
0
 10
-1.53036
 20
-19.4383
 11
-1.71075
 21
-19.6959
  0
LINE
  8
0
 10
-1.71075
 20
-19.6959
 11
-1.90001
 21
-19.9471
  0
LINE
  8
0
 10
-1.90001
 20
-19.9471
 11
-2.09793
 21
-20.1915
  0
LINE
  8
0
 10
-2.09793
 20
-20.1915
 11
-2.30426
 21
-20.4288
  0
LINE
  8
0
 10
-2.30426
 20
-20.4288
 11
-2.51874
 21
-20.6589
  0
LINE
  8
0
 10
-2.51874
 20
-20.6589
 11
-2.74112
 21
-20.8812
  0
LINE
  8
0
 10
-2.74112
 20
-20.8812
 11
-2.97113
 21
-21.0957
  0
LINE
  8
0
 10
-2.97113
 20
-21.0957
 11
-3.20848
 21
-21.302
  0
LINE
  8
0
 10
-3.20848
 20
-21.302
 11
-3.45288
 21
-21.5
  0
LINE
  8
0
 10
-3.45288
 20
-21.5
 11
-3.70404
 21
-21.6892
  0
LINE
  8
0
 10
-3.70404
 20
-21.6892
 11
-3.96167
 21
-21.8696
  0
LINE
  8
0
 10
-3.96167
 20
-21.8696
 11
-4.22542
 21
-22.0409
  0
LINE
  8
0
 10
-4.22542
 20
-22.0409
 11
-4.495
 21
-22.2029
  0
LINE
  8
0
 10
-4.495
 20
-22.2029
 11
-4.77005
 21
-22.3553
  0
LINE
  8
0
 10
-4.77005
 20
-22.3553
 11
-5.05026
 21
-22.4981
  0
LINE
  8
0
 10
-5.05026
 20
-22.4981
 11
-5.3353
 21
-22.631
  0
LINE
  8
0
 10
-5.3353
 20
-22.631
 11
-5.62479
 21
-22.7539
  0
LINE
  8
0
 10
-5.62479
 20
-22.7539
 11
-5.9184
 21
-22.8666
  0
LINE
  8
0
 10
-5.9184
 20
-22.8666
 11
-6.21574
 21
-22.969
  0
LINE
  8
0
 10
-6.21574
 20
-22.969
 11
-6.51649
 21
-23.061
  0
LINE
  8
0
 10
-6.51649
 20
-23.061
 11
-6.82028
 21
-23.1423
  0
LINE
  8
0
 10
-6.82028
 20
-23.1423
 11
-7.12671
 21
-23.2131
  0
LINE
  8
0
 10
-7.12671
 20
-23.2131
 11
-7.43542
 21
-23.2731
  0
LINE
  8
0
 10
-7.43542
 20
-23.2731
 11
-7.74605
 21
-23.3223
  0
LINE
  8
0
 10
-7.74605
 20
-23.3223
 11
-8.0582
 21
-23.3606
  0
LINE
  8
0
 10
-8.0582
 20
-23.3606
 11
-8.37149
 21
-23.388
  0
LINE
  8
0
 10
-8.37149
 20
-23.388
 11
-8.68555
 21
-23.4045
  0
LINE
  8
0
 10
-8.68555
 20
-23.4045
 11
-9
 21
-23.41
  0
LINE
  8
0
 10
-9
 20
-23.41
 11
-9.31444
 21
-23.4045
  0
LINE
  8
0
 10
-9.31444
 20
-23.4045
 11
-9.62849
 21
-23.388
  0
LINE
  8
0
 10
-9.62849
 20
-23.388
 11
-9.94179
 21
-23.3606
  0
LINE
  8
0
 10
-9.94179
 20
-23.3606
 11
-10.2539
 21
-23.3223
  0
LINE
  8
0
 10
-10.2539
 20
-23.3223
 11
-10.5646
 21
-23.2731
  0
LINE
  8
0
 10
-10.5646
 20
-23.2731
 11
-10.8733
 21
-23.2131
  0
LINE
  8
0
 10
-10.8733
 20
-23.2131
 11
-11.1797
 21
-23.1423
  0
LINE
  8
0
 10
-11.1797
 20
-23.1423
 11
-11.4835
 21
-23.061
  0
LINE
  8
0
 10
-11.4835
 20
-23.061
 11
-11.7842
 21
-22.969
  0
LINE
  8
0
 10
-11.7842
 20
-22.969
 11
-12.0816
 21
-22.8666
  0
LINE
  8
0
 10
-12.0816
 20
-22.8666
 11
-12.3752
 21
-22.7539
  0
LINE
  8
0
 10
-12.3752
 20
-22.7539
 11
-12.6647
 21
-22.631
  0
LINE
  8
0
 10
-12.6647
 20
-22.631
 11
-12.9497
 21
-22.4981
  0
LINE
  8
0
 10
-12.9497
 20
-22.4981
 11
-13.2299
 21
-22.3553
  0
LINE
  8
0
 10
-13.2299
 20
-22.3553
 11
-13.505
 21
-22.2029
  0
LINE
  8
0
 10
-13.505
 20
-22.2029
 11
-13.7746
 21
-22.0409
  0
LINE
  8
0
 10
-13.7746
 20
-22.0409
 11
-14.0383
 21
-21.8696
  0
LINE
  8
0
 10
-14.0383
 20
-21.8696
 11
-14.2959
 21
-21.6892
  0
LINE
  8
0
 10
-14.2959
 20
-21.6892
 11
-14.5471
 21
-21.5
  0
LINE
  8
0
 10
-14.5471
 20
-21.5
 11
-14.7915
 21
-21.302
  0
LINE
  8
0
 10
-14.7915
 20
-21.302
 11
-15.0289
 21
-21.0957
  0
LINE
  8
0
 10
-15.0289
 20
-21.0957
 11
-15.2589
 21
-20.8812
  0
LINE
  8
0
 10
-15.2589
 20
-20.8812
 11
-15.4812
 21
-20.6589
  0
LINE
  8
0
 10
-15.4812
 20
-20.6589
 11
-15.6957
 21
-20.4288
  0
LINE
  8
0
 10
-15.6957
 20
-20.4288
 11
-15.9021
 21
-20.1915
  0
LINE
  8
0
 10
-15.9021
 20
-20.1915
 11
-16.1
 21
-19.9471
  0
LINE
  8
0
 10
-16.1
 20
-19.9471
 11
-16.2892
 21
-19.6959
  0
LINE
  8
0
 10
-16.2892
 20
-19.6959
 11
-16.4696
 21
-19.4383
  0
LINE
  8
0
 10
-16.4696
 20
-19.4383
 11
-16.6409
 21
-19.1746
  0
LINE
  8
0
 10
-16.6409
 20
-19.1746
 11
-16.8029
 21
-18.905
  0
LINE
  8
0
 10
-16.8029
 20
-18.905
 11
-16.9554
 21
-18.6299
  0
LINE
  8
0
 10
-16.9554
 20
-18.6299
 11
-17.0981
 21
-18.3497
  0
LINE
  8
0
 10
-17.0981
 20
-18.3497
 11
-17.231
 21
-18.0647
  0
LINE
  8
0
 10
-17.231
 20
-18.0647
 11
-17.3539
 21
-17.7752
  0
LINE
  8
0
 10
-17.3539
 20
-17.7752
 11
-17.4666
 21
-17.4816
  0
LINE
  8
0
 10
-17.4666
 20
-17.4816
 11
-17.569
 21
-17.1842
  0
LINE
  8
0
 10
-17.569
 20
-17.1842
 11
-17.661
 21
-16.8835
  0
LINE
  8
0
 10
-17.661
 20
-16.8835
 11
-17.7424
 21
-16.5797
  0
LINE
  8
0
 10
-17.7424
 20
-16.5797
 11
-17.8131
 21
-16.2733
  0
LINE
  8
0
 10
-17.8131
 20
-16.2733
 11
-17.8731
 21
-15.9646
  0
LINE
  8
0
 10
-17.8731
 20
-15.9646
 11
-17.9223
 21
-15.6539
  0
LINE
  8
0
 10
-17.9223
 20
-15.6539
 11
-17.9606
 21
-15.3418
  0
LINE
  8
0
 10
-17.9606
 20
-15.3418
 11
-17.9774
 21
-15.15
  0
LINE
  8
0
 10
-17.9774
 20
-15.15
 11
-21
 21
-15.15
  0
LINE
  8
0
 10
-21
 20
-15.15
 11
-21
 21
-27.15
  0
LINE
  8
0
 10
-21
 20
-27.15
 11
-18
 21
-27.15
  0
LINE
  8
0
 10
-18
 20
-27.15
 11
-18
 21
-31.65
  0
LINE
  8
0
 10
-18
 20
-31.65
 11
18
 21
-31.65
  0
LINE
  8
0
 10
18
 20
-31.65
 11
18
 21
-27.15
  0
LINE
  8
0
 10
18
 20
-44.25
 11
21
 21
-44.25
  0
LINE
  8
0
 10
21
 20
-44.25
 11
21
 21
-32.25
  0
LINE
  8
0
 10
21
 20
-32.25
 11
17.9774
 21
-32.25
  0
LINE
  8
0
 10
17.9774
 20
-32.25
 11
17.9606
 21
-32.4418
  0
LINE
  8
0
 10
17.9606
 20
-32.4418
 11
17.9223
 21
-32.754
  0
LINE
  8
0
 10
17.9223
 20
-32.754
 11
17.8731
 21
-33.0646
  0
LINE
  8
0
 10
17.8731
 20
-33.0646
 11
17.8131
 21
-33.3733
  0
LINE
  8
0
 10
17.8131
 20
-33.3733
 11
17.7424
 21
-33.6797
  0
LINE
  8
0
 10
17.7424
 20
-33.6797
 11
17.661
 21
-33.9835
  0
LINE
  8
0
 10
17.661
 20
-33.9835
 11
17.569
 21
-34.2843
  0
LINE
  8
0
 10
17.569
 20
-34.2843
 11
17.4666
 21
-34.5816
  0
LINE
  8
0
 10
17.4666
 20
-34.5816
 11
17.3539
 21
-34.8752
  0
LINE
  8
0
 10
17.3539
 20
-34.8752
 11
17.231
 21
-35.1647
  0
LINE
  8
0
 10
17.231
 20
-35.1647
 11
17.0981
 21
-35.4497
  0
LINE
  8
0
 10
17.0981
 20
-35.4497
 11
16.9554
 21
-35.7299
  0
LINE
  8
0
 10
16.9554
 20
-35.7299
 11
16.8029
 21
-36.005
  0
LINE
  8
0
 10
16.8029
 20
-36.005
 11
16.6409
 21
-36.2746
  0
LINE
  8
0
 10
16.6409
 20
-36.2746
 11
16.4696
 21
-36.5383
  0
LINE
  8
0
 10
16.4696
 20
-36.5383
 11
16.2892
 21
-36.7959
  0
LINE
  8
0
 10
16.2892
 20
-36.7959
 11
16.1
 21
-37.0471
  0
LINE
  8
0
 10
16.1
 20
-37.0471
 11
15.9021
 21
-37.2915
  0
LINE
  8
0
 10
15.9021
 20
-37.2915
 11
15.6957
 21
-37.5289
  0
LINE
  8
0
 10
15.6957
 20
-37.5289
 11
15.4812
 21
-37.7589
  0
LINE
  8
0
 10
15.4812
 20
-37.7589
 11
15.2589
 21
-37.9812
  0
LINE
  8
0
 10
15.2589
 20
-37.9812
 11
15.0289
 21
-38.1957
  0
LINE
  8
0
 10
15.0289
 20
-38.1957
 11
14.7915
 21
-38.4021
  0
LINE
  8
0
 10
14.7915
 20
-38.4021
 11
14.5471
 21
-38.6
  0
LINE
  8
0
 10
14.5471
 20
-38.6
 11
14.2959
 21
-38.7892
  0
LINE
  8
0
 10
14.2959
 20
-38.7892
 11
14.0383
 21
-38.9696
  0
LINE
  8
0
 10
14.0383
 20
-38.9696
 11
13.7746
 21
-39.1409
  0
LINE
  8
0
 10
13.7746
 20
-39.1409
 11
13.505
 21
-39.3029
  0
LINE
  8
0
 10
13.505
 20
-39.3029
 11
13.2299
 21
-39.4554
  0
LINE
  8
0
 10
13.2299
 20
-39.4554
 11
12.9497
 21
-39.5981
  0
LINE
  8
0
 10
12.9497
 20
-39.5981
 11
12.6647
 21
-39.731
  0
LINE
  8
0
 10
12.6647
 20
-39.731
 11
12.3752
 21
-39.8539
  0
LINE
  8
0
 10
12.3752
 20
-39.8539
 11
12.0816
 21
-39.9666
  0
LINE
  8
0
 10
12.0816
 20
-39.9666
 11
11.7842
 21
-40.069
  0
LINE
  8
0
 10
11.7842
 20
-40.069
 11
11.4835
 21
-40.161
  0
LINE
  8
0
 10
11.4835
 20
-40.161
 11
11.1797
 21
-40.2424
  0
LINE
  8
0
 10
11.1797
 20
-40.2424
 11
10.8733
 21
-40.3131
  0
LINE
  8
0
 10
10.8733
 20
-40.3131
 11
10.5646
 21
-40.3731
  0
LINE
  8
0
 10
10.5646
 20
-40.3731
 11
10.2539
 21
-40.4223
  0
LINE
  8
0
 10
10.2539
 20
-40.4223
 11
9.94179
 21
-40.4606
  0
LINE
  8
0
 10
9.94179
 20
-40.4606
 11
9.62849
 21
-40.488
  0
LINE
  8
0
 10
9.62849
 20
-40.488
 11
9.31444
 21
-40.5045
  0
LINE
  8
0
 10
9.31444
 20
-40.5045
 11
8.99998
 21
-40.51
  0
LINE
  8
0
 10
8.99998
 20
-40.51
 11
8.68555
 21
-40.5045
  0
LINE
  8
0
 10
8.68555
 20
-40.5045
 11
8.37149
 21
-40.488
  0
LINE
  8
0
 10
8.37149
 20
-40.488
 11
8.0582
 21
-40.4606
  0
LINE
  8
0
 10
8.0582
 20
-40.4606
 11
7.74605
 21
-40.4223
  0
LINE
  8
0
 10
7.74605
 20
-40.4223
 11
7.43542
 21
-40.3731
  0
LINE
  8
0
 10
7.43542
 20
-40.3731
 11
7.12671
 21
-40.3131
  0
LINE
  8
0
 10
7.12671
 20
-40.3131
 11
6.82028
 21
-40.2424
  0
LINE
  8
0
 10
6.82028
 20
-40.2424
 11
6.51649
 21
-40.161
  0
LINE
  8
0
 10
6.51649
 20
-40.161
 11
6.21574
 21
-40.069
  0
LINE
  8
0
 10
6.21574
 20
-40.069
 11
5.9184
 21
-39.9666
  0
LINE
  8
0
 10
5.9184
 20
-39.9666
 11
5.62479
 21
-39.8539
  0
LINE
  8
0
 10
5.62479
 20
-39.8539
 11
5.3353
 21
-39.731
  0
LINE
  8
0
 10
5.3353
 20
-39.731
 11
5.05026
 21
-39.5981
  0
LINE
  8
0
 10
5.05026
 20
-39.5981
 11
4.77005
 21
-39.4554
  0
LINE
  8
0
 10
4.77005
 20
-39.4554
 11
4.495
 21
-39.3029
  0
LINE
  8
0
 10
4.495
 20
-39.3029
 11
4.22542
 21
-39.1409
  0
LINE
  8
0
 10
4.22542
 20
-39.1409
 11
3.96167
 21
-38.9696
  0
LINE
  8
0
 10
3.96167
 20
-38.9696
 11
3.70404
 21
-38.7892
  0
LINE
  8
0
 10
3.70404
 20
-38.7892
 11
3.45288
 21
-38.6
  0
LINE
  8
0
 10
3.45288
 20
-38.6
 11
3.20848
 21
-38.4021
  0
LINE
  8
0
 10
3.20848
 20
-38.4021
 11
2.97113
 21
-38.1957
  0
LINE
  8
0
 10
2.97113
 20
-38.1957
 11
2.74112
 21
-37.9812
  0
LINE
  8
0
 10
2.74112
 20
-37.9812
 11
2.51874
 21
-37.7589
  0
LINE
  8
0
 10
2.51874
 20
-37.7589
 11
2.30426
 21
-37.5289
  0
LINE
  8
0
 10
2.30426
 20
-37.5289
 11
2.09793
 21
-37.2915
  0
LINE
  8
0
 10
2.09793
 20
-37.2915
 11
1.90001
 21
-37.0471
  0
LINE
  8
0
 10
1.90001
 20
-37.0471
 11
1.71075
 21
-36.7959
  0
LINE
  8
0
 10
1.71075
 20
-36.7959
 11
1.53036
 21
-36.5383
  0
LINE
  8
0
 10
1.53036
 20
-36.5383
 11
1.35909
 21
-36.2746
  0
LINE
  8
0
 10
1.35909
 20
-36.2746
 11
1.1971
 21
-36.005
  0
LINE
  8
0
 10
1.1971
 20
-36.005
 11
1.04463
 21
-35.7299
  0
LINE
  8
0
 10
1.04463
 20
-35.7299
 11
0.901855
 21
-35.4497
  0
LINE
  8
0
 10
0.901855
 20
-35.4497
 11
0.768951
 21
-35.1647
  0
LINE
  8
0
 10
0.768951
 20
-35.1647
 11
0.646072
 21
-34.8752
  0
LINE
  8
0
 10
0.646072
 20
-34.8752
 11
0.533356
 21
-34.5816
  0
LINE
  8
0
 10
0.533356
 20
-34.5816
 11
0.430969
 21
-34.2843
  0
LINE
  8
0
 10
0.430969
 20
-34.2843
 11
0.33902
 21
-33.9835
  0
LINE
  8
0
 10
0.33902
 20
-33.9835
 11
0.257629
 21
-33.6797
  0
LINE
  8
0
 10
0.257629
 20
-33.6797
 11
0.18689
 21
-33.3733
  0
LINE
  8
0
 10
0.18689
 20
-33.3733
 11
0.126877
 21
-33.0646
  0
LINE
  8
0
 10
0.126877
 20
-33.0646
 11
0.0776825
 21
-32.754
  0
LINE
  8
0
 10
0.0776825
 20
-32.754
 11
0.0393524
 21
-32.4418
  0
LINE
  8
0
 10
0.0393524
 20
-32.4418
 11
0.0225677
 21
-32.25
  0
LINE
  8
0
 10
0.0225677
 20
-32.25
 11
-0.0225677
 21
-32.25
  0
LINE
  8
0
 10
-0.0225677
 20
-32.25
 11
-0.0393524
 21
-32.4418
  0
LINE
  8
0
 10
-0.0393524
 20
-32.4418
 11
-0.0776825
 21
-32.754
  0
LINE
  8
0
 10
-0.0776825
 20
-32.754
 11
-0.126877
 21
-33.0646
  0
LINE
  8
0
 10
-0.126877
 20
-33.0646
 11
-0.18689
 21
-33.3733
  0
LINE
  8
0
 10
-0.18689
 20
-33.3733
 11
-0.257629
 21
-33.6797
  0
LINE
  8
0
 10
-0.257629
 20
-33.6797
 11
-0.33902
 21
-33.9835
  0
LINE
  8
0
 10
-0.33902
 20
-33.9835
 11
-0.430969
 21
-34.2843
  0
LINE
  8
0
 10
-0.430969
 20
-34.2843
 11
-0.533356
 21
-34.5816
  0
LINE
  8
0
 10
-0.533356
 20
-34.5816
 11
-0.646072
 21
-34.8752
  0
LINE
  8
0
 10
-0.646072
 20
-34.8752
 11
-0.768951
 21
-35.1647
  0
LINE
  8
0
 10
-0.768951
 20
-35.1647
 11
-0.901855
 21
-35.4497
  0
LINE
  8
0
 10
-0.901855
 20
-35.4497
 11
-1.04463
 21
-35.7299
  0
LINE
  8
0
 10
-1.04463
 20
-35.7299
 11
-1.1971
 21
-36.005
  0
LINE
  8
0
 10
-1.1971
 20
-36.005
 11
-1.35909
 21
-36.2746
  0
LINE
  8
0
 10
-1.35909
 20
-36.2746
 11
-1.53036
 21
-36.5383
  0
LINE
  8
0
 10
-1.53036
 20
-36.5383
 11
-1.71075
 21
-36.7959
  0
LINE
  8
0
 10
-1.71075
 20
-36.7959
 11
-1.90001
 21
-37.0471
  0
LINE
  8
0
 10
-1.90001
 20
-37.0471
 11
-2.09793
 21
-37.2915
  0
LINE
  8
0
 10
-2.09793
 20
-37.2915
 11
-2.30426
 21
-37.5289
  0
LINE
  8
0
 10
-2.30426
 20
-37.5289
 11
-2.51874
 21
-37.7589
  0
LINE
  8
0
 10
-2.51874
 20
-37.7589
 11
-2.74112
 21
-37.9812
  0
LINE
  8
0
 10
-2.74112
 20
-37.9812
 11
-2.97113
 21
-38.1957
  0
LINE
  8
0
 10
-2.97113
 20
-38.1957
 11
-3.20848
 21
-38.4021
  0
LINE
  8
0
 10
-3.20848
 20
-38.4021
 11
-3.45288
 21
-38.6
  0
LINE
  8
0
 10
-3.45288
 20
-38.6
 11
-3.70404
 21
-38.7892
  0
LINE
  8
0
 10
-3.70404
 20
-38.7892
 11
-3.96167
 21
-38.9696
  0
LINE
  8
0
 10
-3.96167
 20
-38.9696
 11
-4.22542
 21
-39.1409
  0
LINE
  8
0
 10
-4.22542
 20
-39.1409
 11
-4.495
 21
-39.3029
  0
LINE
  8
0
 10
-4.495
 20
-39.3029
 11
-4.77005
 21
-39.4554
  0
LINE
  8
0
 10
-4.77005
 20
-39.4554
 11
-5.05026
 21
-39.5981
  0
LINE
  8
0
 10
-5.05026
 20
-39.5981
 11
-5.3353
 21
-39.731
  0
LINE
  8
0
 10
-5.3353
 20
-39.731
 11
-5.62479
 21
-39.8539
  0
LINE
  8
0
 10
-5.62479
 20
-39.8539
 11
-5.9184
 21
-39.9666
  0
LINE
  8
0
 10
-5.9184
 20
-39.9666
 11
-6.21574
 21
-40.069
  0
LINE
  8
0
 10
-6.21574
 20
-40.069
 11
-6.51649
 21
-40.161
  0
LINE
  8
0
 10
-6.51649
 20
-40.161
 11
-6.82028
 21
-40.2424
  0
LINE
  8
0
 10
-6.82028
 20
-40.2424
 11
-7.12671
 21
-40.3131
  0
LINE
  8
0
 10
-7.12671
 20
-40.3131
 11
-7.43542
 21
-40.3731
  0
LINE
  8
0
 10
-7.43542
 20
-40.3731
 11
-7.74605
 21
-40.4223
  0
LINE
  8
0
 10
-7.74605
 20
-40.4223
 11
-8.0582
 21
-40.4606
  0
LINE
  8
0
 10
-8.0582
 20
-40.4606
 11
-8.37149
 21
-40.488
  0
LINE
  8
0
 10
-8.37149
 20
-40.488
 11
-8.68555
 21
-40.5045
  0
LINE
  8
0
 10
-8.68555
 20
-40.5045
 11
-9
 21
-40.51
  0
LINE
  8
0
 10
-9
 20
-40.51
 11
-9.31444
 21
-40.5045
  0
LINE
  8
0
 10
-9.31444
 20
-40.5045
 11
-9.62849
 21
-40.488
  0
LINE
  8
0
 10
-9.62849
 20
-40.488
 11
-9.94179
 21
-40.4606
  0
LINE
  8
0
 10
-9.94179
 20
-40.4606
 11
-10.2539
 21
-40.4223
  0
LINE
  8
0
 10
-10.2539
 20
-40.4223
 11
-10.5646
 21
-40.3731
  0
LINE
  8
0
 10
-10.5646
 20
-40.3731
 11
-10.8733
 21
-40.3131
  0
LINE
  8
0
 10
-10.8733
 20
-40.3131
 11
-11.1797
 21
-40.2424
  0
LINE
  8
0
 10
-11.1797
 20
-40.2424
 11
-11.4835
 21
-40.161
  0
LINE
  8
0
 10
-11.4835
 20
-40.161
 11
-11.7842
 21
-40.069
  0
LINE
  8
0
 10
-11.7842
 20
-40.069
 11
-12.0816
 21
-39.9666
  0
LINE
  8
0
 10
-12.0816
 20
-39.9666
 11
-12.3752
 21
-39.8539
  0
LINE
  8
0
 10
-12.3752
 20
-39.8539
 11
-12.6647
 21
-39.731
  0
LINE
  8
0
 10
-12.6647
 20
-39.731
 11
-12.9497
 21
-39.5981
  0
LINE
  8
0
 10
-12.9497
 20
-39.5981
 11
-13.2299
 21
-39.4554
  0
LINE
  8
0
 10
-13.2299
 20
-39.4554
 11
-13.505
 21
-39.3029
  0
LINE
  8
0
 10
-13.505
 20
-39.3029
 11
-13.7746
 21
-39.1409
  0
LINE
  8
0
 10
-13.7746
 20
-39.1409
 11
-14.0383
 21
-38.9696
  0
LINE
  8
0
 10
-14.0383
 20
-38.9696
 11
-14.2959
 21
-38.7892
  0
LINE
  8
0
 10
-14.2959
 20
-38.7892
 11
-14.5471
 21
-38.6
  0
LINE
  8
0
 10
-14.5471
 20
-38.6
 11
-14.7915
 21
-38.4021
  0
LINE
  8
0
 10
-14.7915
 20
-38.4021
 11
-15.0289
 21
-38.1957
  0
LINE
  8
0
 10
-15.0289
 20
-38.1957
 11
-15.2589
 21
-37.9812
  0
LINE
  8
0
 10
-15.2589
 20
-37.9812
 11
-15.4812
 21
-37.7589
  0
LINE
  8
0
 10
-15.4812
 20
-37.7589
 11
-15.6957
 21
-37.5289
  0
LINE
  8
0
 10
-15.6957
 20
-37.5289
 11
-15.9021
 21
-37.2915
  0
LINE
  8
0
 10
-15.9021
 20
-37.2915
 11
-16.1
 21
-37.0471
  0
LINE
  8
0
 10
-16.1
 20
-37.0471
 11
-16.2892
 21
-36.7959
  0
LINE
  8
0
 10
-16.2892
 20
-36.7959
 11
-16.4696
 21
-36.5383
  0
LINE
  8
0
 10
-16.4696
 20
-36.5383
 11
-16.6409
 21
-36.2746
  0
LINE
  8
0
 10
-16.6409
 20
-36.2746
 11
-16.8029
 21
-36.005
  0
LINE
  8
0
 10
-16.8029
 20
-36.005
 11
-16.9554
 21
-35.7299
  0
LINE
  8
0
 10
-16.9554
 20
-35.7299
 11
-17.0981
 21
-35.4497
  0
LINE
  8
0
 10
-17.0981
 20
-35.4497
 11
-17.231
 21
-35.1647
  0
LINE
  8
0
 10
-17.231
 20
-35.1647
 11
-17.3539
 21
-34.8752
  0
LINE
  8
0
 10
-17.3539
 20
-34.8752
 11
-17.4666
 21
-34.5816
  0
LINE
  8
0
 10
-17.4666
 20
-34.5816
 11
-17.569
 21
-34.2843
  0
LINE
  8
0
 10
-17.569
 20
-34.2843
 11
-17.661
 21
-33.9835
  0
LINE
  8
0
 10
-17.661
 20
-33.9835
 11
-17.7424
 21
-33.6797
  0
LINE
  8
0
 10
-17.7424
 20
-33.6797
 11
-17.8131
 21
-33.3733
  0
LINE
  8
0
 10
-17.8131
 20
-33.3733
 11
-17.8731
 21
-33.0646
  0
LINE
  8
0
 10
-17.8731
 20
-33.0646
 11
-17.9223
 21
-32.754
  0
LINE
  8
0
 10
-17.9223
 20
-32.754
 11
-17.9606
 21
-32.4418
  0
LINE
  8
0
 10
-17.9606
 20
-32.4418
 11
-17.9774
 21
-32.25
  0
LINE
  8
0
 10
-17.9774
 20
-32.25
 11
-21
 21
-32.25
  0
LINE
  8
0
 10
-21
 20
-32.25
 11
-21
 21
-44.25
  0
LINE
  8
0
 10
-21
 20
-44.25
 11
-18
 21
-44.25
  0
LINE
  8
0
 10
-18
 20
-44.25
 11
-18
 21
-48.75
  0
LINE
  8
0
 10
-18
 20
-48.75
 11
18
 21
-48.75
  0
LINE
  8
0
 10
18
 20
-48.75
 11
18
 21
-44.25
  0
ENDSEC
  0
SECTION
  2
OBJECTS
  0
DICTIONARY
  0
ENDSEC
  0
EOF
