  0
SECTION
  2
BLOCKS
  0
ENDSEC
  0
SECTION
  2
ENTITIES
  0
LINE
  8
0
 10
4.91957
 20
-93.8712
 11
9.82567
 21
-93.485
  0
LINE
  8
0
 10
9.82567
 20
-93.485
 11
14.7048
 21
-92.8427
  0
LINE
  8
0
 10
14.7048
 20
-92.8427
 11
19.5437
 21
-91.9459
  0
LINE
  8
0
 10
19.5437
 20
-91.9459
 11
24.329
 21
-90.797
  0
LINE
  8
0
 10
24.329
 20
-90.797
 11
29.0476
 21
-89.3993
  0
LINE
  8
0
 10
29.0476
 20
-89.3993
 11
33.6866
 21
-87.7565
  0
LINE
  8
0
 10
33.6866
 20
-87.7565
 11
38.2332
 21
-85.8733
  0
LINE
  8
0
 10
38.2332
 20
-85.8733
 11
42.6751
 21
-83.7546
  0
LINE
  8
0
 10
42.6751
 20
-83.7546
 11
47
 21
-81.4064
  0
LINE
  8
0
 10
47
 20
-81.4064
 11
51.1961
 21
-78.835
  0
LINE
  8
0
 10
51.1961
 20
-78.835
 11
55.2518
 21
-76.0476
  0
LINE
  8
0
 10
55.2518
 20
-76.0476
 11
59.1561
 21
-73.0517
  0
LINE
  8
0
 10
59.1561
 20
-73.0517
 11
62.8983
 21
-69.8556
  0
LINE
  8
0
 10
62.8983
 20
-69.8556
 11
66.468
 21
-66.468
  0
LINE
  8
0
 10
66.468
 20
-66.468
 11
69.8556
 21
-62.8983
  0
LINE
  8
0
 10
69.8556
 20
-62.8983
 11
73.0517
 21
-59.1561
  0
LINE
  8
0
 10
73.0517
 20
-59.1561
 11
76.0476
 21
-55.2518
  0
LINE
  8
0
 10
76.0476
 20
-55.2518
 11
78.835
 21
-51.1961
  0
LINE
  8
0
 10
78.835
 20
-51.1961
 11
81.4064
 21
-47
  0
LINE
  8
0
 10
81.4064
 20
-47
 11
83.7546
 21
-42.6751
  0
LINE
  8
0
 10
83.7546
 20
-42.6751
 11
85.8733
 21
-38.2332
  0
LINE
  8
0
 10
85.8733
 20
-38.2332
 11
87.7565
 21
-33.6866
  0
LINE
  8
0
 10
87.7565
 20
-33.6866
 11
89.3993
 21
-29.0476
  0
LINE
  8
0
 10
89.3993
 20
-29.0476
 11
90.797
 21
-24.329
  0
LINE
  8
0
 10
90.797
 20
-24.329
 11
91.9459
 21
-19.5437
  0
LINE
  8
0
 10
91.9459
 20
-19.5437
 11
92.8427
 21
-14.7048
  0
LINE
  8
0
 10
92.8427
 20
-14.7048
 11
93.485
 21
-9.82567
  0
LINE
  8
0
 10
93.485
 20
-9.82567
 11
93.8712
 21
-4.91957
  0
LINE
  8
0
 10
93.8712
 20
-4.91957
 11
94
 21
0
  0
LINE
  8
0
 10
94
 20
0
 11
93.8712
 21
4.91957
  0
LINE
  8
0
 10
93.8712
 20
4.91957
 11
93.485
 21
9.82567
  0
LINE
  8
0
 10
93.485
 20
9.82567
 11
92.8427
 21
14.7048
  0
LINE
  8
0
 10
92.8427
 20
14.7048
 11
91.9459
 21
19.5437
  0
LINE
  8
0
 10
91.9459
 20
19.5437
 11
90.797
 21
24.329
  0
LINE
  8
0
 10
90.797
 20
24.329
 11
89.3993
 21
29.0476
  0
LINE
  8
0
 10
89.3993
 20
29.0476
 11
87.7565
 21
33.6866
  0
LINE
  8
0
 10
87.7565
 20
33.6866
 11
85.8733
 21
38.2332
  0
LINE
  8
0
 10
85.8733
 20
38.2332
 11
83.7546
 21
42.6751
  0
LINE
  8
0
 10
83.7546
 20
42.6751
 11
81.4064
 21
47
  0
LINE
  8
0
 10
81.4064
 20
47
 11
78.835
 21
51.1961
  0
LINE
  8
0
 10
78.835
 20
51.1961
 11
76.0476
 21
55.2518
  0
LINE
  8
0
 10
76.0476
 20
55.2518
 11
73.0517
 21
59.1561
  0
LINE
  8
0
 10
73.0517
 20
59.1561
 11
69.8556
 21
62.8983
  0
LINE
  8
0
 10
69.8556
 20
62.8983
 11
66.468
 21
66.468
  0
LINE
  8
0
 10
66.468
 20
66.468
 11
62.8983
 21
69.8556
  0
LINE
  8
0
 10
62.8983
 20
69.8556
 11
59.1561
 21
73.0517
  0
LINE
  8
0
 10
59.1561
 20
73.0517
 11
55.2518
 21
76.0476
  0
LINE
  8
0
 10
55.2518
 20
76.0476
 11
51.1961
 21
78.835
  0
LINE
  8
0
 10
51.1961
 20
78.835
 11
47
 21
81.4064
  0
LINE
  8
0
 10
47
 20
81.4064
 11
42.6751
 21
83.7546
  0
LINE
  8
0
 10
42.6751
 20
83.7546
 11
38.2332
 21
85.8733
  0
LINE
  8
0
 10
38.2332
 20
85.8733
 11
33.6866
 21
87.7565
  0
LINE
  8
0
 10
33.6866
 20
87.7565
 11
29.0476
 21
89.3993
  0
LINE
  8
0
 10
29.0476
 20
89.3993
 11
24.329
 21
90.797
  0
LINE
  8
0
 10
24.329
 20
90.797
 11
19.5437
 21
91.9459
  0
LINE
  8
0
 10
19.5437
 20
91.9459
 11
14.7048
 21
92.8427
  0
LINE
  8
0
 10
14.7048
 20
92.8427
 11
9.82567
 21
93.485
  0
LINE
  8
0
 10
9.82567
 20
93.485
 11
4.91957
 21
93.8712
  0
LINE
  8
0
 10
4.91957
 20
93.8712
 11
0
 21
94
  0
LINE
  8
0
 10
0
 20
94
 11
-4.91957
 21
93.8712
  0
LINE
  8
0
 10
-4.91957
 20
93.8712
 11
-9.82567
 21
93.485
  0
LINE
  8
0
 10
-9.82567
 20
93.485
 11
-14.7048
 21
92.8427
  0
LINE
  8
0
 10
-14.7048
 20
92.8427
 11
-19.5437
 21
91.9459
  0
LINE
  8
0
 10
-19.5437
 20
91.9459
 11
-24.329
 21
90.797
  0
LINE
  8
0
 10
-24.329
 20
90.797
 11
-29.0476
 21
89.3993
  0
LINE
  8
0
 10
-29.0476
 20
89.3993
 11
-33.6866
 21
87.7565
  0
LINE
  8
0
 10
-33.6866
 20
87.7565
 11
-38.2332
 21
85.8733
  0
LINE
  8
0
 10
-38.2332
 20
85.8733
 11
-42.6751
 21
83.7546
  0
LINE
  8
0
 10
-42.6751
 20
83.7546
 11
-47
 21
81.4064
  0
LINE
  8
0
 10
-47
 20
81.4064
 11
-51.1961
 21
78.835
  0
LINE
  8
0
 10
-51.1961
 20
78.835
 11
-55.2518
 21
76.0476
  0
LINE
  8
0
 10
-55.2518
 20
76.0476
 11
-59.1561
 21
73.0517
  0
LINE
  8
0
 10
-59.1561
 20
73.0517
 11
-62.8983
 21
69.8556
  0
LINE
  8
0
 10
-62.8983
 20
69.8556
 11
-66.468
 21
66.468
  0
LINE
  8
0
 10
-66.468
 20
66.468
 11
-69.8556
 21
62.8983
  0
LINE
  8
0
 10
-69.8556
 20
62.8983
 11
-73.0517
 21
59.1561
  0
LINE
  8
0
 10
-73.0517
 20
59.1561
 11
-76.0476
 21
55.2518
  0
LINE
  8
0
 10
-76.0476
 20
55.2518
 11
-78.835
 21
51.1961
  0
LINE
  8
0
 10
-78.835
 20
51.1961
 11
-81.4064
 21
47
  0
LINE
  8
0
 10
-81.4064
 20
47
 11
-83.7546
 21
42.6751
  0
LINE
  8
0
 10
-83.7546
 20
42.6751
 11
-85.8733
 21
38.2332
  0
LINE
  8
0
 10
-85.8733
 20
38.2332
 11
-87.7565
 21
33.6866
  0
LINE
  8
0
 10
-87.7565
 20
33.6866
 11
-89.3993
 21
29.0476
  0
LINE
  8
0
 10
-89.3993
 20
29.0476
 11
-90.797
 21
24.329
  0
LINE
  8
0
 10
-90.797
 20
24.329
 11
-91.9459
 21
19.5437
  0
LINE
  8
0
 10
-91.9459
 20
19.5437
 11
-92.8427
 21
14.7048
  0
LINE
  8
0
 10
-92.8427
 20
14.7048
 11
-93.485
 21
9.82567
  0
LINE
  8
0
 10
-93.485
 20
9.82567
 11
-93.8712
 21
4.91957
  0
LINE
  8
0
 10
-93.8712
 20
4.91957
 11
-94
 21
0
  0
LINE
  8
0
 10
-94
 20
0
 11
-93.8712
 21
-4.91957
  0
LINE
  8
0
 10
-93.8712
 20
-4.91957
 11
-93.485
 21
-9.82567
  0
LINE
  8
0
 10
-93.485
 20
-9.82567
 11
-92.8427
 21
-14.7048
  0
LINE
  8
0
 10
-92.8427
 20
-14.7048
 11
-91.9459
 21
-19.5437
  0
LINE
  8
0
 10
-91.9459
 20
-19.5437
 11
-90.797
 21
-24.329
  0
LINE
  8
0
 10
-90.797
 20
-24.329
 11
-89.3993
 21
-29.0476
  0
LINE
  8
0
 10
-89.3993
 20
-29.0476
 11
-87.7565
 21
-33.6866
  0
LINE
  8
0
 10
-87.7565
 20
-33.6866
 11
-85.8733
 21
-38.2332
  0
LINE
  8
0
 10
-85.8733
 20
-38.2332
 11
-83.7546
 21
-42.6751
  0
LINE
  8
0
 10
-83.7546
 20
-42.6751
 11
-81.4064
 21
-47
  0
LINE
  8
0
 10
-81.4064
 20
-47
 11
-78.835
 21
-51.1961
  0
LINE
  8
0
 10
-78.835
 20
-51.1961
 11
-76.0476
 21
-55.2518
  0
LINE
  8
0
 10
-76.0476
 20
-55.2518
 11
-73.0517
 21
-59.1561
  0
LINE
  8
0
 10
-73.0517
 20
-59.1561
 11
-69.8556
 21
-62.8983
  0
LINE
  8
0
 10
-69.8556
 20
-62.8983
 11
-66.468
 21
-66.468
  0
LINE
  8
0
 10
-66.468
 20
-66.468
 11
-62.8983
 21
-69.8556
  0
LINE
  8
0
 10
-62.8983
 20
-69.8556
 11
-59.1561
 21
-73.0517
  0
LINE
  8
0
 10
-59.1561
 20
-73.0517
 11
-55.2518
 21
-76.0476
  0
LINE
  8
0
 10
-55.2518
 20
-76.0476
 11
-51.1961
 21
-78.835
  0
LINE
  8
0
 10
-51.1961
 20
-78.835
 11
-47
 21
-81.4064
  0
LINE
  8
0
 10
-47
 20
-81.4064
 11
-42.6751
 21
-83.7546
  0
LINE
  8
0
 10
-42.6751
 20
-83.7546
 11
-38.2332
 21
-85.8733
  0
LINE
  8
0
 10
-38.2332
 20
-85.8733
 11
-33.6866
 21
-87.7565
  0
LINE
  8
0
 10
-33.6866
 20
-87.7565
 11
-29.0476
 21
-89.3993
  0
LINE
  8
0
 10
-29.0476
 20
-89.3993
 11
-24.329
 21
-90.797
  0
LINE
  8
0
 10
-24.329
 20
-90.797
 11
-19.5437
 21
-91.9459
  0
LINE
  8
0
 10
-19.5437
 20
-91.9459
 11
-14.7048
 21
-92.8427
  0
LINE
  8
0
 10
-14.7048
 20
-92.8427
 11
-9.82567
 21
-93.485
  0
LINE
  8
0
 10
-9.82567
 20
-93.485
 11
-4.91957
 21
-93.8712
  0
LINE
  8
0
 10
-4.91957
 20
-93.8712
 11
0
 21
-94
  0
LINE
  8
0
 10
0
 20
-94
 11
4.91957
 21
-93.8712
  0
LINE
  8
0
 10
-14.5632
 20
82.8495
 11
-4.58661
 21
88.6095
  0
LINE
  8
0
 10
-4.58661
 20
88.6095
 11
-3.2066
 21
86.2192
  0
LINE
  8
0
 10
-3.2066
 20
86.2192
 11
-13.1832
 21
80.4592
  0
LINE
  8
0
 10
-13.1832
 20
80.4592
 11
-14.5632
 21
82.8495
  0
LINE
  8
0
 10
-5.8233
 20
83.9179
 11
4.70071
 21
88.6035
  0
LINE
  8
0
 10
4.70071
 20
88.6035
 11
5.8233
 21
86.0821
  0
LINE
  8
0
 10
5.8233
 20
86.0821
 11
-4.70071
 21
81.3965
  0
LINE
  8
0
 10
-4.70071
 20
81.3965
 11
-5.8233
 21
83.9179
  0
LINE
  8
0
 10
-23.1436
 20
80.8733
 11
-13.8237
 21
87.6446
  0
LINE
  8
0
 10
-13.8237
 20
87.6446
 11
-12.2014
 21
85.4117
  0
LINE
  8
0
 10
-12.2014
 20
85.4117
 11
-21.5213
 21
78.6405
  0
LINE
  8
0
 10
-21.5213
 20
78.6405
 11
-23.1436
 21
80.8733
  0
LINE
  8
0
 10
2.98038
 20
84.0669
 11
13.9366
 21
87.6268
  0
LINE
  8
0
 10
13.9366
 20
87.6268
 11
14.7894
 21
85.0018
  0
LINE
  8
0
 10
14.7894
 20
85.0018
 11
3.83327
 21
81.442
  0
LINE
  8
0
 10
3.83327
 20
81.442
 11
2.98038
 21
84.0669
  0
LINE
  8
0
 10
-31.4704
 20
78.0111
 11
-22.9093
 21
85.7195
  0
LINE
  8
0
 10
-22.9093
 20
85.7195
 11
-21.0625
 21
83.6684
  0
LINE
  8
0
 10
-21.0625
 20
83.6684
 11
-29.6236
 21
75.9601
  0
LINE
  8
0
 10
-29.6236
 20
75.9601
 11
-31.4704
 21
78.0111
  0
LINE
  8
0
 10
11.7514
 20
83.2948
 11
23.0197
 21
85.69
  0
LINE
  8
0
 10
23.0197
 20
85.69
 11
23.5935
 21
82.9903
  0
LINE
  8
0
 10
23.5935
 20
82.9903
 11
12.3253
 21
80.5951
  0
LINE
  8
0
 10
12.3253
 20
80.5951
 11
11.7514
 21
83.2948
  0
LINE
  8
0
 10
-39.4523
 20
74.2942
 11
-31.744
 21
82.8553
  0
LINE
  8
0
 10
-31.744
 20
82.8553
 11
-29.6929
 21
81.0085
  0
LINE
  8
0
 10
-29.6929
 20
81.0085
 11
-37.4013
 21
72.4474
  0
LINE
  8
0
 10
-37.4013
 20
72.4474
 11
-39.4523
 21
74.2942
  0
LINE
  8
0
 10
20.3937
 20
81.6102
 11
31.8506
 21
82.8143
  0
LINE
  8
0
 10
31.8506
 20
82.8143
 11
32.1391
 21
80.0694
  0
LINE
  8
0
 10
32.1391
 20
80.0694
 11
20.6822
 21
78.8653
  0
LINE
  8
0
 10
20.6822
 20
78.8653
 11
20.3937
 21
81.6102
  0
LINE
  8
0
 10
-47.0021
 20
69.7634
 11
-40.2308
 21
79.0832
  0
LINE
  8
0
 10
-40.2308
 20
79.0832
 11
-37.9979
 21
77.461
  0
LINE
  8
0
 10
-37.9979
 20
77.461
 11
-44.7692
 21
68.1411
  0
LINE
  8
0
 10
-44.7692
 20
68.1411
 11
-47.0021
 21
69.7634
  0
LINE
  8
0
 10
28.8126
 20
76.2714
 11
28.8126
 21
79.0314
  0
LINE
  8
0
 10
28.8126
 20
79.0314
 11
40.3326
 21
79.0314
  0
LINE
  8
0
 10
40.3326
 20
79.0314
 11
40.3326
 21
76.2714
  0
LINE
  8
0
 10
40.3326
 20
76.2714
 11
28.8126
 21
76.2714
  0
LINE
  8
0
 10
-0.156982
 20
45.5755
 11
-0.313568
 21
45.5879
  0
LINE
  8
0
 10
-0.313568
 20
45.5879
 11
-0.469284
 21
45.6084
  0
LINE
  8
0
 10
-0.469284
 20
45.6084
 11
-0.623718
 21
45.637
  0
LINE
  8
0
 10
-0.623718
 20
45.637
 11
-0.776428
 21
45.6736
  0
LINE
  8
0
 10
-0.776428
 20
45.6736
 11
-0.927032
 21
45.7182
  0
LINE
  8
0
 10
-0.927032
 20
45.7182
 11
-1.07509
 21
45.7707
  0
LINE
  8
0
 10
-1.07509
 20
45.7707
 11
-1.22018
 21
45.8308
  0
LINE
  8
0
 10
-1.22018
 20
45.8308
 11
-1.36195
 21
45.8984
  0
LINE
  8
0
 10
-1.36195
 20
45.8984
 11
-1.49997
 21
45.9733
  0
LINE
  8
0
 10
-1.49997
 20
45.9733
 11
-1.6339
 21
46.0554
  0
LINE
  8
0
 10
-1.6339
 20
46.0554
 11
-1.76334
 21
46.1444
  0
LINE
  8
0
 10
-1.76334
 20
46.1444
 11
-1.88794
 21
46.24
  0
LINE
  8
0
 10
-1.88794
 20
46.24
 11
-2.00737
 21
46.342
  0
LINE
  8
0
 10
-2.00737
 20
46.342
 11
-2.12129
 21
46.4501
  0
LINE
  8
0
 10
-2.12129
 20
46.4501
 11
-2.22942
 21
46.564
  0
LINE
  8
0
 10
-2.22942
 20
46.564
 11
-2.33142
 21
46.6835
  0
LINE
  8
0
 10
-2.33142
 20
46.6835
 11
-2.42703
 21
46.8081
  0
LINE
  8
0
 10
-2.42703
 20
46.8081
 11
-2.51599
 21
46.9375
  0
LINE
  8
0
 10
-2.51599
 20
46.9375
 11
-2.59805
 21
47.0714
  0
LINE
  8
0
 10
-2.59805
 20
47.0714
 11
-2.673
 21
47.2094
  0
LINE
  8
0
 10
-2.673
 20
47.2094
 11
-2.74062
 21
47.3512
  0
LINE
  8
0
 10
-2.74062
 20
47.3512
 11
-2.80072
 21
47.4963
  0
LINE
  8
0
 10
-2.80072
 20
47.4963
 11
-2.85315
 21
47.6444
  0
LINE
  8
0
 10
-2.85315
 20
47.6444
 11
-2.89775
 21
47.795
  0
LINE
  8
0
 10
-2.89775
 20
47.795
 11
-2.93442
 21
47.9477
  0
LINE
  8
0
 10
-2.93442
 20
47.9477
 11
-2.96304
 21
48.1021
  0
LINE
  8
0
 10
-2.96304
 20
48.1021
 11
-2.98354
 21
48.2578
  0
LINE
  8
0
 10
-2.98354
 20
48.2578
 11
-4.99586
 21
72.843
  0
LINE
  8
0
 10
-4.99586
 20
72.843
 11
-4.99998
 21
73
  0
LINE
  8
0
 10
-4.99998
 20
73
 11
-4.99586
 21
73.157
  0
LINE
  8
0
 10
-4.99586
 20
73.157
 11
-4.98354
 21
73.3136
  0
LINE
  8
0
 10
-4.98354
 20
73.3136
 11
-4.96304
 21
73.4693
  0
LINE
  8
0
 10
-4.96304
 20
73.4693
 11
-4.93442
 21
73.6237
  0
LINE
  8
0
 10
-4.93442
 20
73.6237
 11
-4.89775
 21
73.7764
  0
LINE
  8
0
 10
-4.89775
 20
73.7764
 11
-4.85315
 21
73.927
  0
LINE
  8
0
 10
-4.85315
 20
73.927
 11
-4.80072
 21
74.0751
  0
LINE
  8
0
 10
-4.80072
 20
74.0751
 11
-4.74062
 21
74.2202
  0
LINE
  8
0
 10
-4.74062
 20
74.2202
 11
-4.673
 21
74.362
  0
LINE
  8
0
 10
-4.673
 20
74.362
 11
-4.59805
 21
74.5
  0
LINE
  8
0
 10
-4.59805
 20
74.5
 11
-4.51599
 21
74.6339
  0
LINE
  8
0
 10
-4.51599
 20
74.6339
 11
-4.42703
 21
74.7634
  0
LINE
  8
0
 10
-4.42703
 20
74.7634
 11
-4.33142
 21
74.888
  0
LINE
  8
0
 10
-4.33142
 20
74.888
 11
-4.22942
 21
75.0074
  0
LINE
  8
0
 10
-4.22942
 20
75.0074
 11
-4.12129
 21
75.1213
  0
LINE
  8
0
 10
-4.12129
 20
75.1213
 11
-4.00737
 21
75.2294
  0
LINE
  8
0
 10
-4.00737
 20
75.2294
 11
-3.88794
 21
75.3314
  0
LINE
  8
0
 10
-3.88794
 20
75.3314
 11
-3.76334
 21
75.427
  0
LINE
  8
0
 10
-3.76334
 20
75.427
 11
-3.6339
 21
75.516
  0
LINE
  8
0
 10
-3.6339
 20
75.516
 11
-3.49998
 21
75.5981
  0
LINE
  8
0
 10
-3.49998
 20
75.5981
 11
-3.36195
 21
75.673
  0
LINE
  8
0
 10
-3.36195
 20
75.673
 11
-3.22018
 21
75.7406
  0
LINE
  8
0
 10
-3.22018
 20
75.7406
 11
-3.07509
 21
75.8007
  0
LINE
  8
0
 10
-3.07509
 20
75.8007
 11
-2.92703
 21
75.8532
  0
LINE
  8
0
 10
-2.92703
 20
75.8532
 11
-2.77643
 21
75.8978
  0
LINE
  8
0
 10
-2.77643
 20
75.8978
 11
-2.62372
 21
75.9344
  0
LINE
  8
0
 10
-2.62372
 20
75.9344
 11
-2.46928
 21
75.9631
  0
LINE
  8
0
 10
-2.46928
 20
75.9631
 11
-2.31357
 21
75.9836
  0
LINE
  8
0
 10
-2.31357
 20
75.9836
 11
-2.15698
 21
75.9959
  0
LINE
  8
0
 10
-2.15698
 20
75.9959
 11
-1.99998
 21
76
  0
LINE
  8
0
 10
-1.99998
 20
76
 11
2
 21
76
  0
LINE
  8
0
 10
2
 20
76
 11
2.157
 21
75.9959
  0
LINE
  8
0
 10
2.157
 20
75.9959
 11
2.31358
 21
75.9836
  0
LINE
  8
0
 10
2.31358
 20
75.9836
 11
2.4693
 21
75.9631
  0
LINE
  8
0
 10
2.4693
 20
75.9631
 11
2.62373
 21
75.9344
  0
LINE
  8
0
 10
2.62373
 20
75.9344
 11
2.77644
 21
75.8978
  0
LINE
  8
0
 10
2.77644
 20
75.8978
 11
2.92705
 21
75.8532
  0
LINE
  8
0
 10
2.92705
 20
75.8532
 11
3.0751
 21
75.8007
  0
LINE
  8
0
 10
3.0751
 20
75.8007
 11
3.2202
 21
75.7406
  0
LINE
  8
0
 10
3.2202
 20
75.7406
 11
3.36197
 21
75.673
  0
LINE
  8
0
 10
3.36197
 20
75.673
 11
3.49998
 21
75.5981
  0
LINE
  8
0
 10
3.49998
 20
75.5981
 11
3.63391
 21
75.516
  0
LINE
  8
0
 10
3.63391
 20
75.516
 11
3.76335
 21
75.427
  0
LINE
  8
0
 10
3.76335
 20
75.427
 11
3.88795
 21
75.3314
  0
LINE
  8
0
 10
3.88795
 20
75.3314
 11
4.00739
 21
75.2294
  0
LINE
  8
0
 10
4.00739
 20
75.2294
 11
4.12131
 21
75.1213
  0
LINE
  8
0
 10
4.12131
 20
75.1213
 11
4.22943
 21
75.0074
  0
LINE
  8
0
 10
4.22943
 20
75.0074
 11
4.33144
 21
74.888
  0
LINE
  8
0
 10
4.33144
 20
74.888
 11
4.42705
 21
74.7634
  0
LINE
  8
0
 10
4.42705
 20
74.7634
 11
4.51601
 21
74.6339
  0
LINE
  8
0
 10
4.51601
 20
74.6339
 11
4.59807
 21
74.5
  0
LINE
  8
0
 10
4.59807
 20
74.5
 11
4.67302
 21
74.362
  0
LINE
  8
0
 10
4.67302
 20
74.362
 11
4.74063
 21
74.2202
  0
LINE
  8
0
 10
4.74063
 20
74.2202
 11
4.80074
 21
74.0751
  0
LINE
  8
0
 10
4.80074
 20
74.0751
 11
4.85316
 21
73.927
  0
LINE
  8
0
 10
4.85316
 20
73.927
 11
4.89777
 21
73.7764
  0
LINE
  8
0
 10
4.89777
 20
73.7764
 11
4.93443
 21
73.6237
  0
LINE
  8
0
 10
4.93443
 20
73.6237
 11
4.96306
 21
73.4693
  0
LINE
  8
0
 10
4.96306
 20
73.4693
 11
4.98355
 21
73.3136
  0
LINE
  8
0
 10
4.98355
 20
73.3136
 11
4.99588
 21
73.157
  0
LINE
  8
0
 10
4.99588
 20
73.157
 11
5
 21
73
  0
LINE
  8
0
 10
5
 20
73
 11
4.99588
 21
72.843
  0
LINE
  8
0
 10
4.99588
 20
72.843
 11
2.98355
 21
48.2578
  0
LINE
  8
0
 10
2.98355
 20
48.2578
 11
2.96306
 21
48.1021
  0
LINE
  8
0
 10
2.96306
 20
48.1021
 11
2.93443
 21
47.9477
  0
LINE
  8
0
 10
2.93443
 20
47.9477
 11
2.89777
 21
47.795
  0
LINE
  8
0
 10
2.89777
 20
47.795
 11
2.85316
 21
47.6444
  0
LINE
  8
0
 10
2.85316
 20
47.6444
 11
2.80074
 21
47.4963
  0
LINE
  8
0
 10
2.80074
 20
47.4963
 11
2.74063
 21
47.3512
  0
LINE
  8
0
 10
2.74063
 20
47.3512
 11
2.67302
 21
47.2094
  0
LINE
  8
0
 10
2.67302
 20
47.2094
 11
2.59807
 21
47.0714
  0
LINE
  8
0
 10
2.59807
 20
47.0714
 11
2.51601
 21
46.9375
  0
LINE
  8
0
 10
2.51601
 20
46.9375
 11
2.42705
 21
46.8081
  0
LINE
  8
0
 10
2.42705
 20
46.8081
 11
2.33144
 21
46.6835
  0
LINE
  8
0
 10
2.33144
 20
46.6835
 11
2.22943
 21
46.564
  0
LINE
  8
0
 10
2.22943
 20
46.564
 11
2.12131
 21
46.4501
  0
LINE
  8
0
 10
2.12131
 20
46.4501
 11
2.00739
 21
46.342
  0
LINE
  8
0
 10
2.00739
 20
46.342
 11
1.88795
 21
46.24
  0
LINE
  8
0
 10
1.88795
 20
46.24
 11
1.76335
 21
46.1444
  0
LINE
  8
0
 10
1.76335
 20
46.1444
 11
1.63391
 21
46.0554
  0
LINE
  8
0
 10
1.63391
 20
46.0554
 11
1.49998
 21
45.9733
  0
LINE
  8
0
 10
1.49998
 20
45.9733
 11
1.36197
 21
45.8984
  0
LINE
  8
0
 10
1.36197
 20
45.8984
 11
1.2202
 21
45.8308
  0
LINE
  8
0
 10
1.2202
 20
45.8308
 11
1.0751
 21
45.7707
  0
LINE
  8
0
 10
1.0751
 20
45.7707
 11
0.927048
 21
45.7182
  0
LINE
  8
0
 10
0.927048
 20
45.7182
 11
0.776443
 21
45.6736
  0
LINE
  8
0
 10
0.776443
 20
45.6736
 11
0.623734
 21
45.637
  0
LINE
  8
0
 10
0.623734
 20
45.637
 11
0.469299
 21
45.6084
  0
LINE
  8
0
 10
0.469299
 20
45.6084
 11
0.313583
 21
45.5879
  0
LINE
  8
0
 10
0.313583
 20
45.5879
 11
0.156998
 21
45.5755
  0
LINE
  8
0
 10
0.156998
 20
45.5755
 11
0
 21
45.5714
  0
LINE
  8
0
 10
0
 20
45.5714
 11
-0.156982
 21
45.5755
  0
LINE
  8
0
 10
36.6273
 20
72.8418
 11
36.9158
 21
75.5867
  0
LINE
  8
0
 10
36.9158
 20
75.5867
 11
48.3727
 21
74.3825
  0
LINE
  8
0
 10
48.3727
 20
74.3825
 11
48.0842
 21
71.6376
  0
LINE
  8
0
 10
48.0842
 20
71.6376
 11
36.6273
 21
72.8418
  0
LINE
  8
0
 10
-54.0368
 20
64.4681
 11
-48.2769
 21
74.4447
  0
LINE
  8
0
 10
-48.2769
 20
74.4447
 11
-45.8866
 21
73.0647
  0
LINE
  8
0
 10
-45.8866
 20
73.0647
 11
-51.6466
 21
63.0881
  0
LINE
  8
0
 10
-51.6466
 20
63.0881
 11
-54.0368
 21
64.4681
  0
LINE
  8
0
 10
44.0407
 20
68.6142
 11
44.6145
 21
71.3139
  0
LINE
  8
0
 10
44.6145
 20
71.3139
 11
55.8828
 21
68.9187
  0
LINE
  8
0
 10
55.8828
 20
68.9187
 11
55.3089
 21
66.219
  0
LINE
  8
0
 10
55.3089
 20
66.219
 11
44.0407
 21
68.6142
  0
LINE
  8
0
 10
19.5988
 20
41.3763
 11
19.4422
 21
41.3886
  0
LINE
  8
0
 10
19.4422
 20
41.3886
 11
19.2865
 21
41.4091
  0
LINE
  8
0
 10
19.2865
 20
41.4091
 11
19.132
 21
41.4377
  0
LINE
  8
0
 10
19.132
 20
41.4377
 11
18.9793
 21
41.4744
  0
LINE
  8
0
 10
18.9793
 20
41.4744
 11
18.8287
 21
41.519
  0
LINE
  8
0
 10
18.8287
 20
41.519
 11
18.6806
 21
41.5715
  0
LINE
  8
0
 10
18.6806
 20
41.5715
 11
18.5356
 21
41.6316
  0
LINE
  8
0
 10
18.5356
 20
41.6316
 11
18.3938
 21
41.6992
  0
LINE
  8
0
 10
18.3938
 20
41.6992
 11
18.2558
 21
41.7741
  0
LINE
  8
0
 10
18.2558
 20
41.7741
 11
18.1219
 21
41.8562
  0
LINE
  8
0
 10
18.1219
 20
41.8562
 11
17.9924
 21
41.9451
  0
LINE
  8
0
 10
17.9924
 20
41.9451
 11
17.8678
 21
42.0408
  0
LINE
  8
0
 10
17.8678
 20
42.0408
 11
17.7484
 21
42.1427
  0
LINE
  8
0
 10
17.7484
 20
42.1427
 11
17.6344
 21
42.2509
  0
LINE
  8
0
 10
17.6344
 20
42.2509
 11
17.5263
 21
42.3648
  0
LINE
  8
0
 10
17.5263
 20
42.3648
 11
17.4243
 21
42.4842
  0
LINE
  8
0
 10
17.4243
 20
42.4842
 11
17.3287
 21
42.6088
  0
LINE
  8
0
 10
17.3287
 20
42.6088
 11
17.2398
 21
42.7383
  0
LINE
  8
0
 10
17.2398
 20
42.7383
 11
17.1577
 21
42.8722
  0
LINE
  8
0
 10
17.1577
 20
42.8722
 11
17.0828
 21
43.0102
  0
LINE
  8
0
 10
17.0828
 20
43.0102
 11
17.0151
 21
43.152
  0
LINE
  8
0
 10
17.0151
 20
43.152
 11
16.955
 21
43.2971
  0
LINE
  8
0
 10
16.955
 20
43.2971
 11
16.9026
 21
43.4451
  0
LINE
  8
0
 10
16.9026
 20
43.4451
 11
16.858
 21
43.5957
  0
LINE
  8
0
 10
16.858
 20
43.5957
 11
16.8213
 21
43.7485
  0
LINE
  8
0
 10
16.8213
 20
43.7485
 11
16.7927
 21
43.9029
  0
LINE
  8
0
 10
16.7927
 20
43.9029
 11
16.7722
 21
44.0586
  0
LINE
  8
0
 10
16.7722
 20
44.0586
 11
16.7599
 21
44.2152
  0
LINE
  8
0
 10
16.7599
 20
44.2152
 11
16.7558
 21
44.3722
  0
LINE
  8
0
 10
16.7558
 20
44.3722
 11
16.7599
 21
44.5292
  0
LINE
  8
0
 10
16.7599
 20
44.5292
 11
16.7722
 21
44.6858
  0
LINE
  8
0
 10
16.7722
 20
44.6858
 11
16.7927
 21
44.8415
  0
LINE
  8
0
 10
16.7927
 20
44.8415
 11
16.8213
 21
44.9959
  0
LINE
  8
0
 10
16.8213
 20
44.9959
 11
16.858
 21
45.1486
  0
LINE
  8
0
 10
16.858
 20
45.1486
 11
16.9026
 21
45.2992
  0
LINE
  8
0
 10
16.9026
 20
45.2992
 11
25.0639
 21
68.5774
  0
LINE
  8
0
 10
25.0639
 20
68.5774
 11
25.124
 21
68.7225
  0
LINE
  8
0
 10
25.124
 20
68.7225
 11
25.1917
 21
68.8642
  0
LINE
  8
0
 10
25.1917
 20
68.8642
 11
25.2666
 21
69.0023
  0
LINE
  8
0
 10
25.2666
 20
69.0023
 11
25.3487
 21
69.1362
  0
LINE
  8
0
 10
25.3487
 20
69.1362
 11
25.4376
 21
69.2656
  0
LINE
  8
0
 10
25.4376
 20
69.2656
 11
25.5332
 21
69.3902
  0
LINE
  8
0
 10
25.5332
 20
69.3902
 11
25.6352
 21
69.5097
  0
LINE
  8
0
 10
25.6352
 20
69.5097
 11
25.7434
 21
69.6236
  0
LINE
  8
0
 10
25.7434
 20
69.6236
 11
25.8573
 21
69.7317
  0
LINE
  8
0
 10
25.8573
 20
69.7317
 11
25.9767
 21
69.8337
  0
LINE
  8
0
 10
25.9767
 20
69.8337
 11
26.1013
 21
69.9293
  0
LINE
  8
0
 10
26.1013
 20
69.9293
 11
26.2308
 21
70.0183
  0
LINE
  8
0
 10
26.2308
 20
70.0183
 11
26.3647
 21
70.1004
  0
LINE
  8
0
 10
26.3647
 20
70.1004
 11
26.5027
 21
70.1753
  0
LINE
  8
0
 10
26.5027
 20
70.1753
 11
26.6445
 21
70.2429
  0
LINE
  8
0
 10
26.6445
 20
70.2429
 11
26.7896
 21
70.303
  0
LINE
  8
0
 10
26.7896
 20
70.303
 11
26.9376
 21
70.3555
  0
LINE
  8
0
 10
26.9376
 20
70.3555
 11
27.0882
 21
70.4001
  0
LINE
  8
0
 10
27.0882
 20
70.4001
 11
27.241
 21
70.4367
  0
LINE
  8
0
 10
27.241
 20
70.4367
 11
27.3954
 21
70.4653
  0
LINE
  8
0
 10
27.3954
 20
70.4653
 11
27.5511
 21
70.4858
  0
LINE
  8
0
 10
27.5511
 20
70.4858
 11
27.7077
 21
70.4982
  0
LINE
  8
0
 10
27.7077
 20
70.4982
 11
27.8647
 21
70.5023
  0
LINE
  8
0
 10
27.8647
 20
70.5023
 11
28.0217
 21
70.4982
  0
LINE
  8
0
 10
28.0217
 20
70.4982
 11
28.1783
 21
70.4858
  0
LINE
  8
0
 10
28.1783
 20
70.4858
 11
28.334
 21
70.4653
  0
LINE
  8
0
 10
28.334
 20
70.4653
 11
28.4884
 21
70.4367
  0
LINE
  8
0
 10
28.4884
 20
70.4367
 11
28.6411
 21
70.4001
  0
LINE
  8
0
 10
28.6411
 20
70.4001
 11
28.7917
 21
70.3554
  0
LINE
  8
0
 10
28.7917
 20
70.3554
 11
28.9398
 21
70.303
  0
LINE
  8
0
 10
28.9398
 20
70.303
 11
29.0849
 21
70.2429
  0
LINE
  8
0
 10
29.0849
 20
70.2429
 11
32.7391
 21
68.616
  0
LINE
  8
0
 10
32.7391
 20
68.616
 11
32.8808
 21
68.5484
  0
LINE
  8
0
 10
32.8808
 20
68.5484
 11
33.0188
 21
68.4734
  0
LINE
  8
0
 10
33.0188
 20
68.4734
 11
33.1528
 21
68.3913
  0
LINE
  8
0
 10
33.1528
 20
68.3913
 11
33.2822
 21
68.3024
  0
LINE
  8
0
 10
33.2822
 20
68.3024
 11
33.4068
 21
68.2068
  0
LINE
  8
0
 10
33.4068
 20
68.2068
 11
33.5262
 21
68.1048
  0
LINE
  8
0
 10
33.5262
 20
68.1048
 11
33.6402
 21
67.9967
  0
LINE
  8
0
 10
33.6402
 20
67.9967
 11
33.7483
 21
67.8827
  0
LINE
  8
0
 10
33.7483
 20
67.8827
 11
33.8503
 21
67.7633
  0
LINE
  8
0
 10
33.8503
 20
67.7633
 11
33.9459
 21
67.6387
  0
LINE
  8
0
 10
33.9459
 20
67.6387
 11
34.0349
 21
67.5092
  0
LINE
  8
0
 10
34.0349
 20
67.5092
 11
34.1169
 21
67.3753
  0
LINE
  8
0
 10
34.1169
 20
67.3753
 11
34.1919
 21
67.2373
  0
LINE
  8
0
 10
34.1919
 20
67.2373
 11
34.2595
 21
67.0956
  0
LINE
  8
0
 10
34.2595
 20
67.0956
 11
34.3196
 21
66.9504
  0
LINE
  8
0
 10
34.3196
 20
66.9504
 11
34.372
 21
66.8024
  0
LINE
  8
0
 10
34.372
 20
66.8024
 11
34.4166
 21
66.6518
  0
LINE
  8
0
 10
34.4166
 20
66.6518
 11
34.4533
 21
66.4991
  0
LINE
  8
0
 10
34.4533
 20
66.4991
 11
34.4819
 21
66.3446
  0
LINE
  8
0
 10
34.4819
 20
66.3446
 11
34.5024
 21
66.1889
  0
LINE
  8
0
 10
34.5024
 20
66.1889
 11
34.5147
 21
66.0323
  0
LINE
  8
0
 10
34.5147
 20
66.0323
 11
34.5188
 21
65.8753
  0
LINE
  8
0
 10
34.5188
 20
65.8753
 11
34.5147
 21
65.7183
  0
LINE
  8
0
 10
34.5147
 20
65.7183
 11
34.5024
 21
65.5618
  0
LINE
  8
0
 10
34.5024
 20
65.5618
 11
34.4819
 21
65.406
  0
LINE
  8
0
 10
34.4819
 20
65.406
 11
34.4533
 21
65.2516
  0
LINE
  8
0
 10
34.4533
 20
65.2516
 11
34.4166
 21
65.0989
  0
LINE
  8
0
 10
34.4166
 20
65.0989
 11
34.372
 21
64.9483
  0
LINE
  8
0
 10
34.372
 20
64.9483
 11
34.3196
 21
64.8002
  0
LINE
  8
0
 10
34.3196
 20
64.8002
 11
34.2595
 21
64.6551
  0
LINE
  8
0
 10
34.2595
 20
64.6551
 11
34.1919
 21
64.5134
  0
LINE
  8
0
 10
34.1919
 20
64.5134
 11
22.3538
 21
42.8722
  0
LINE
  8
0
 10
22.3538
 20
42.8722
 11
22.2718
 21
42.7383
  0
LINE
  8
0
 10
22.2718
 20
42.7383
 11
22.1828
 21
42.6088
  0
LINE
  8
0
 10
22.1828
 20
42.6088
 11
22.0872
 21
42.4842
  0
LINE
  8
0
 10
22.0872
 20
42.4842
 11
21.9852
 21
42.3648
  0
LINE
  8
0
 10
21.9852
 20
42.3648
 11
21.8771
 21
42.2509
  0
LINE
  8
0
 10
21.8771
 20
42.2509
 11
21.7632
 21
42.1428
  0
LINE
  8
0
 10
21.7632
 20
42.1428
 11
21.6437
 21
42.0408
  0
LINE
  8
0
 10
21.6437
 20
42.0408
 11
21.5191
 21
41.9451
  0
LINE
  8
0
 10
21.5191
 20
41.9451
 11
21.3897
 21
41.8562
  0
LINE
  8
0
 10
21.3897
 20
41.8562
 11
21.2558
 21
41.7741
  0
LINE
  8
0
 10
21.2558
 20
41.7741
 11
21.1177
 21
41.6992
  0
LINE
  8
0
 10
21.1177
 20
41.6992
 11
20.976
 21
41.6316
  0
LINE
  8
0
 10
20.976
 20
41.6316
 11
20.8309
 21
41.5715
  0
LINE
  8
0
 10
20.8309
 20
41.5715
 11
20.6828
 21
41.519
  0
LINE
  8
0
 10
20.6828
 20
41.519
 11
20.5322
 21
41.4744
  0
LINE
  8
0
 10
20.5322
 20
41.4744
 11
20.3795
 21
41.4377
  0
LINE
  8
0
 10
20.3795
 20
41.4377
 11
20.2251
 21
41.4091
  0
LINE
  8
0
 10
20.2251
 20
41.4091
 11
20.0693
 21
41.3886
  0
LINE
  8
0
 10
20.0693
 20
41.3886
 11
19.9128
 21
41.3763
  0
LINE
  8
0
 10
19.9128
 20
41.3763
 11
19.7558
 21
41.3722
  0
LINE
  8
0
 10
19.7558
 20
41.3722
 11
19.5988
 21
41.3763
  0
LINE
  8
0
 10
-19.9128
 20
41.3763
 11
-20.0693
 21
41.3886
  0
LINE
  8
0
 10
-20.0693
 20
41.3886
 11
-20.2251
 21
41.4091
  0
LINE
  8
0
 10
-20.2251
 20
41.4091
 11
-20.3795
 21
41.4377
  0
LINE
  8
0
 10
-20.3795
 20
41.4377
 11
-20.5322
 21
41.4744
  0
LINE
  8
0
 10
-20.5322
 20
41.4744
 11
-20.6828
 21
41.519
  0
LINE
  8
0
 10
-20.6828
 20
41.519
 11
-20.8309
 21
41.5715
  0
LINE
  8
0
 10
-20.8309
 20
41.5715
 11
-20.976
 21
41.6316
  0
LINE
  8
0
 10
-20.976
 20
41.6316
 11
-21.1177
 21
41.6992
  0
LINE
  8
0
 10
-21.1177
 20
41.6992
 11
-21.2558
 21
41.7741
  0
LINE
  8
0
 10
-21.2558
 20
41.7741
 11
-21.3897
 21
41.8562
  0
LINE
  8
0
 10
-21.3897
 20
41.8562
 11
-21.5191
 21
41.9451
  0
LINE
  8
0
 10
-21.5191
 20
41.9451
 11
-21.6437
 21
42.0408
  0
LINE
  8
0
 10
-21.6437
 20
42.0408
 11
-21.7632
 21
42.1428
  0
LINE
  8
0
 10
-21.7632
 20
42.1428
 11
-21.8771
 21
42.2509
  0
LINE
  8
0
 10
-21.8771
 20
42.2509
 11
-21.9852
 21
42.3648
  0
LINE
  8
0
 10
-21.9852
 20
42.3648
 11
-22.0872
 21
42.4842
  0
LINE
  8
0
 10
-22.0872
 20
42.4842
 11
-22.1828
 21
42.6088
  0
LINE
  8
0
 10
-22.1828
 20
42.6088
 11
-22.2718
 21
42.7383
  0
LINE
  8
0
 10
-22.2718
 20
42.7383
 11
-22.3538
 21
42.8722
  0
LINE
  8
0
 10
-22.3538
 20
42.8722
 11
-34.1919
 21
64.5134
  0
LINE
  8
0
 10
-34.1919
 20
64.5134
 11
-34.2595
 21
64.6551
  0
LINE
  8
0
 10
-34.2595
 20
64.6551
 11
-34.3196
 21
64.8002
  0
LINE
  8
0
 10
-34.3196
 20
64.8002
 11
-34.372
 21
64.9483
  0
LINE
  8
0
 10
-34.372
 20
64.9483
 11
-34.4166
 21
65.0989
  0
LINE
  8
0
 10
-34.4166
 20
65.0989
 11
-34.4533
 21
65.2516
  0
LINE
  8
0
 10
-34.4533
 20
65.2516
 11
-34.4819
 21
65.406
  0
LINE
  8
0
 10
-34.4819
 20
65.406
 11
-34.5024
 21
65.5618
  0
LINE
  8
0
 10
-34.5024
 20
65.5618
 11
-34.5147
 21
65.7183
  0
LINE
  8
0
 10
-34.5147
 20
65.7183
 11
-34.5188
 21
65.8753
  0
LINE
  8
0
 10
-34.5188
 20
65.8753
 11
-34.5147
 21
66.0323
  0
LINE
  8
0
 10
-34.5147
 20
66.0323
 11
-34.5024
 21
66.1889
  0
LINE
  8
0
 10
-34.5024
 20
66.1889
 11
-34.4819
 21
66.3446
  0
LINE
  8
0
 10
-34.4819
 20
66.3446
 11
-34.4533
 21
66.4991
  0
LINE
  8
0
 10
-34.4533
 20
66.4991
 11
-34.4166
 21
66.6518
  0
LINE
  8
0
 10
-34.4166
 20
66.6518
 11
-34.372
 21
66.8024
  0
LINE
  8
0
 10
-34.372
 20
66.8024
 11
-34.3196
 21
66.9504
  0
LINE
  8
0
 10
-34.3196
 20
66.9504
 11
-34.2595
 21
67.0956
  0
LINE
  8
0
 10
-34.2595
 20
67.0956
 11
-34.1919
 21
67.2373
  0
LINE
  8
0
 10
-34.1919
 20
67.2373
 11
-34.1169
 21
67.3753
  0
LINE
  8
0
 10
-34.1169
 20
67.3753
 11
-34.0349
 21
67.5092
  0
LINE
  8
0
 10
-34.0349
 20
67.5092
 11
-33.9459
 21
67.6387
  0
LINE
  8
0
 10
-33.9459
 20
67.6387
 11
-33.8503
 21
67.7633
  0
LINE
  8
0
 10
-33.8503
 20
67.7633
 11
-33.7483
 21
67.8827
  0
LINE
  8
0
 10
-33.7483
 20
67.8827
 11
-33.6402
 21
67.9967
  0
LINE
  8
0
 10
-33.6402
 20
67.9967
 11
-33.5262
 21
68.1048
  0
LINE
  8
0
 10
-33.5262
 20
68.1048
 11
-33.4068
 21
68.2068
  0
LINE
  8
0
 10
-33.4068
 20
68.2068
 11
-33.2822
 21
68.3024
  0
LINE
  8
0
 10
-33.2822
 20
68.3024
 11
-33.1528
 21
68.3913
  0
LINE
  8
0
 10
-33.1528
 20
68.3913
 11
-33.0188
 21
68.4734
  0
LINE
  8
0
 10
-33.0188
 20
68.4734
 11
-32.8808
 21
68.5484
  0
LINE
  8
0
 10
-32.8808
 20
68.5484
 11
-32.7391
 21
68.616
  0
LINE
  8
0
 10
-32.7391
 20
68.616
 11
-29.0849
 21
70.2429
  0
LINE
  8
0
 10
-29.0849
 20
70.2429
 11
-28.9398
 21
70.303
  0
LINE
  8
0
 10
-28.9398
 20
70.303
 11
-28.7917
 21
70.3554
  0
LINE
  8
0
 10
-28.7917
 20
70.3554
 11
-28.6411
 21
70.4001
  0
LINE
  8
0
 10
-28.6411
 20
70.4001
 11
-28.4884
 21
70.4367
  0
LINE
  8
0
 10
-28.4884
 20
70.4367
 11
-28.334
 21
70.4653
  0
LINE
  8
0
 10
-28.334
 20
70.4653
 11
-28.1783
 21
70.4858
  0
LINE
  8
0
 10
-28.1783
 20
70.4858
 11
-28.0217
 21
70.4982
  0
LINE
  8
0
 10
-28.0217
 20
70.4982
 11
-27.8647
 21
70.5023
  0
LINE
  8
0
 10
-27.8647
 20
70.5023
 11
-27.7077
 21
70.4982
  0
LINE
  8
0
 10
-27.7077
 20
70.4982
 11
-27.5511
 21
70.4858
  0
LINE
  8
0
 10
-27.5511
 20
70.4858
 11
-27.3954
 21
70.4653
  0
LINE
  8
0
 10
-27.3954
 20
70.4653
 11
-27.241
 21
70.4367
  0
LINE
  8
0
 10
-27.241
 20
70.4367
 11
-27.0882
 21
70.4001
  0
LINE
  8
0
 10
-27.0882
 20
70.4001
 11
-26.9376
 21
70.3555
  0
LINE
  8
0
 10
-26.9376
 20
70.3555
 11
-26.7896
 21
70.303
  0
LINE
  8
0
 10
-26.7896
 20
70.303
 11
-26.6445
 21
70.2429
  0
LINE
  8
0
 10
-26.6445
 20
70.2429
 11
-26.5027
 21
70.1753
  0
LINE
  8
0
 10
-26.5027
 20
70.1753
 11
-26.3647
 21
70.1004
  0
LINE
  8
0
 10
-26.3647
 20
70.1004
 11
-26.2308
 21
70.0183
  0
LINE
  8
0
 10
-26.2308
 20
70.0183
 11
-26.1013
 21
69.9293
  0
LINE
  8
0
 10
-26.1013
 20
69.9293
 11
-25.9767
 21
69.8337
  0
LINE
  8
0
 10
-25.9767
 20
69.8337
 11
-25.8573
 21
69.7317
  0
LINE
  8
0
 10
-25.8573
 20
69.7317
 11
-25.7434
 21
69.6236
  0
LINE
  8
0
 10
-25.7434
 20
69.6236
 11
-25.6352
 21
69.5097
  0
LINE
  8
0
 10
-25.6352
 20
69.5097
 11
-25.5332
 21
69.3902
  0
LINE
  8
0
 10
-25.5332
 20
69.3902
 11
-25.4376
 21
69.2656
  0
LINE
  8
0
 10
-25.4376
 20
69.2656
 11
-25.3487
 21
69.1362
  0
LINE
  8
0
 10
-25.3487
 20
69.1362
 11
-25.2666
 21
69.0023
  0
LINE
  8
0
 10
-25.2666
 20
69.0023
 11
-25.1917
 21
68.8642
  0
LINE
  8
0
 10
-25.1917
 20
68.8642
 11
-25.124
 21
68.7225
  0
LINE
  8
0
 10
-25.124
 20
68.7225
 11
-25.0639
 21
68.5774
  0
LINE
  8
0
 10
-25.0639
 20
68.5774
 11
-16.9026
 21
45.2992
  0
LINE
  8
0
 10
-16.9026
 20
45.2992
 11
-16.858
 21
45.1486
  0
LINE
  8
0
 10
-16.858
 20
45.1486
 11
-16.8213
 21
44.9959
  0
LINE
  8
0
 10
-16.8213
 20
44.9959
 11
-16.7927
 21
44.8415
  0
LINE
  8
0
 10
-16.7927
 20
44.8415
 11
-16.7722
 21
44.6858
  0
LINE
  8
0
 10
-16.7722
 20
44.6858
 11
-16.7599
 21
44.5292
  0
LINE
  8
0
 10
-16.7599
 20
44.5292
 11
-16.7558
 21
44.3722
  0
LINE
  8
0
 10
-16.7558
 20
44.3722
 11
-16.7599
 21
44.2152
  0
LINE
  8
0
 10
-16.7599
 20
44.2152
 11
-16.7722
 21
44.0586
  0
LINE
  8
0
 10
-16.7722
 20
44.0586
 11
-16.7927
 21
43.9029
  0
LINE
  8
0
 10
-16.7927
 20
43.9029
 11
-16.8213
 21
43.7485
  0
LINE
  8
0
 10
-16.8213
 20
43.7485
 11
-16.858
 21
43.5957
  0
LINE
  8
0
 10
-16.858
 20
43.5957
 11
-16.9026
 21
43.4451
  0
LINE
  8
0
 10
-16.9026
 20
43.4451
 11
-16.955
 21
43.2971
  0
LINE
  8
0
 10
-16.955
 20
43.2971
 11
-17.0151
 21
43.152
  0
LINE
  8
0
 10
-17.0151
 20
43.152
 11
-17.0828
 21
43.0102
  0
LINE
  8
0
 10
-17.0828
 20
43.0102
 11
-17.1577
 21
42.8722
  0
LINE
  8
0
 10
-17.1577
 20
42.8722
 11
-17.2398
 21
42.7383
  0
LINE
  8
0
 10
-17.2398
 20
42.7383
 11
-17.3287
 21
42.6088
  0
LINE
  8
0
 10
-17.3287
 20
42.6088
 11
-17.4243
 21
42.4842
  0
LINE
  8
0
 10
-17.4243
 20
42.4842
 11
-17.5263
 21
42.3648
  0
LINE
  8
0
 10
-17.5263
 20
42.3648
 11
-17.6344
 21
42.2509
  0
LINE
  8
0
 10
-17.6344
 20
42.2509
 11
-17.7484
 21
42.1427
  0
LINE
  8
0
 10
-17.7484
 20
42.1427
 11
-17.8678
 21
42.0408
  0
LINE
  8
0
 10
-17.8678
 20
42.0408
 11
-17.9924
 21
41.9451
  0
LINE
  8
0
 10
-17.9924
 20
41.9451
 11
-18.1219
 21
41.8562
  0
LINE
  8
0
 10
-18.1219
 20
41.8562
 11
-18.2558
 21
41.7741
  0
LINE
  8
0
 10
-18.2558
 20
41.7741
 11
-18.3938
 21
41.6992
  0
LINE
  8
0
 10
-18.3938
 20
41.6992
 11
-18.5356
 21
41.6316
  0
LINE
  8
0
 10
-18.5356
 20
41.6316
 11
-18.6806
 21
41.5715
  0
LINE
  8
0
 10
-18.6806
 20
41.5715
 11
-18.8287
 21
41.519
  0
LINE
  8
0
 10
-18.8287
 20
41.519
 11
-18.9793
 21
41.4744
  0
LINE
  8
0
 10
-18.9793
 20
41.4744
 11
-19.132
 21
41.4377
  0
LINE
  8
0
 10
-19.132
 20
41.4377
 11
-19.2865
 21
41.4091
  0
LINE
  8
0
 10
-19.2865
 20
41.4091
 11
-19.4422
 21
41.3886
  0
LINE
  8
0
 10
-19.4422
 20
41.3886
 11
-19.5988
 21
41.3763
  0
LINE
  8
0
 10
-19.5988
 20
41.3763
 11
-19.7558
 21
41.3722
  0
LINE
  8
0
 10
-19.7558
 20
41.3722
 11
-19.9128
 21
41.3763
  0
LINE
  8
0
 10
-60.4796
 20
58.4666
 11
-55.794
 21
68.9906
  0
LINE
  8
0
 10
-55.794
 20
68.9906
 11
-53.2726
 21
67.868
  0
LINE
  8
0
 10
-53.2726
 20
67.868
 11
-57.9582
 21
57.344
  0
LINE
  8
0
 10
-57.9582
 20
57.344
 11
-60.4796
 21
58.4666
  0
LINE
  8
0
 10
50.9716
 20
63.6348
 11
51.8244
 21
66.2597
  0
LINE
  8
0
 10
51.8244
 20
66.2597
 11
62.7806
 21
62.6998
  0
LINE
  8
0
 10
62.7806
 20
62.6998
 11
61.9277
 21
60.0749
  0
LINE
  8
0
 10
61.9277
 20
60.0749
 11
50.9716
 21
63.6348
  0
LINE
  8
0
 10
-66.2597
 20
51.8244
 11
-62.6998
 21
62.7806
  0
LINE
  8
0
 10
-62.6998
 20
62.7806
 11
-60.0749
 21
61.9277
  0
LINE
  8
0
 10
-60.0749
 20
61.9277
 11
-63.6348
 21
50.9716
  0
LINE
  8
0
 10
-63.6348
 20
50.9716
 11
-66.2597
 21
51.8244
  0
LINE
  8
0
 10
57.344
 20
57.9582
 11
58.4666
 21
60.4796
  0
LINE
  8
0
 10
58.4666
 20
60.4796
 11
68.9906
 21
55.794
  0
LINE
  8
0
 10
68.9906
 20
55.794
 11
67.868
 21
53.2726
  0
LINE
  8
0
 10
67.868
 20
53.2726
 11
57.344
 21
57.9582
  0
LINE
  8
0
 10
-71.3139
 20
44.6145
 11
-68.9187
 21
55.8828
  0
LINE
  8
0
 10
-68.9187
 20
55.8828
 11
-66.219
 21
55.3089
  0
LINE
  8
0
 10
-66.219
 20
55.3089
 11
-68.6142
 21
44.0407
  0
LINE
  8
0
 10
-68.6142
 20
44.0407
 11
-71.3139
 21
44.6145
  0
LINE
  8
0
 10
63.0881
 20
51.6466
 11
64.4681
 21
54.0368
  0
LINE
  8
0
 10
64.4681
 20
54.0368
 11
74.4447
 21
48.2769
  0
LINE
  8
0
 10
74.4447
 20
48.2769
 11
73.0647
 21
45.8866
  0
LINE
  8
0
 10
73.0647
 20
45.8866
 11
63.0881
 21
51.6466
  0
LINE
  8
0
 10
-36.2526
 20
29.5047
 11
-36.4092
 21
29.517
  0
LINE
  8
0
 10
-36.4092
 20
29.517
 11
-36.5649
 21
29.5376
  0
LINE
  8
0
 10
-36.5649
 20
29.5376
 11
-36.7193
 21
29.5662
  0
LINE
  8
0
 10
-36.7193
 20
29.5662
 11
-36.872
 21
29.6028
  0
LINE
  8
0
 10
-36.872
 20
29.6028
 11
-37.0226
 21
29.6474
  0
LINE
  8
0
 10
-37.0226
 20
29.6474
 11
-37.1707
 21
29.6999
  0
LINE
  8
0
 10
-37.1707
 20
29.6999
 11
-37.3158
 21
29.76
  0
LINE
  8
0
 10
-37.3158
 20
29.76
 11
-37.4576
 21
29.8276
  0
LINE
  8
0
 10
-37.4576
 20
29.8276
 11
-37.5956
 21
29.9026
  0
LINE
  8
0
 10
-37.5956
 20
29.9026
 11
-37.7295
 21
29.9846
  0
LINE
  8
0
 10
-37.7295
 20
29.9846
 11
-37.8589
 21
30.0736
  0
LINE
  8
0
 10
-37.8589
 20
30.0736
 11
-57.4758
 21
45.0288
  0
LINE
  8
0
 10
-57.4758
 20
45.0288
 11
-57.5952
 21
45.1308
  0
LINE
  8
0
 10
-57.5952
 20
45.1308
 11
-57.7091
 21
45.2389
  0
LINE
  8
0
 10
-57.7091
 20
45.2389
 11
-57.8172
 21
45.3529
  0
LINE
  8
0
 10
-57.8172
 20
45.3529
 11
-57.9193
 21
45.4723
  0
LINE
  8
0
 10
-57.9193
 20
45.4723
 11
-58.0149
 21
45.5969
  0
LINE
  8
0
 10
-58.0149
 20
45.5969
 11
-58.1038
 21
45.7263
  0
LINE
  8
0
 10
-58.1038
 20
45.7263
 11
-58.1859
 21
45.8602
  0
LINE
  8
0
 10
-58.1859
 20
45.8602
 11
-58.2608
 21
45.9983
  0
LINE
  8
0
 10
-58.2608
 20
45.9983
 11
-58.3284
 21
46.14
  0
LINE
  8
0
 10
-58.3284
 20
46.14
 11
-58.3886
 21
46.2851
  0
LINE
  8
0
 10
-58.3886
 20
46.2851
 11
-58.441
 21
46.4332
  0
LINE
  8
0
 10
-58.441
 20
46.4332
 11
-58.4856
 21
46.5838
  0
LINE
  8
0
 10
-58.4856
 20
46.5838
 11
-58.5223
 21
46.7365
  0
LINE
  8
0
 10
-58.5223
 20
46.7365
 11
-58.5509
 21
46.8909
  0
LINE
  8
0
 10
-58.5509
 20
46.8909
 11
-58.5714
 21
47.0466
  0
LINE
  8
0
 10
-58.5714
 20
47.0466
 11
-58.5837
 21
47.2032
  0
LINE
  8
0
 10
-58.5837
 20
47.2032
 11
-58.5878
 21
47.3602
  0
LINE
  8
0
 10
-58.5878
 20
47.3602
 11
-58.5837
 21
47.5172
  0
LINE
  8
0
 10
-58.5837
 20
47.5172
 11
-58.5714
 21
47.6738
  0
LINE
  8
0
 10
-58.5714
 20
47.6738
 11
-58.5509
 21
47.8295
  0
LINE
  8
0
 10
-58.5509
 20
47.8295
 11
-58.5223
 21
47.984
  0
LINE
  8
0
 10
-58.5223
 20
47.984
 11
-58.4856
 21
48.1367
  0
LINE
  8
0
 10
-58.4856
 20
48.1367
 11
-58.441
 21
48.2873
  0
LINE
  8
0
 10
-58.441
 20
48.2873
 11
-58.3886
 21
48.4353
  0
LINE
  8
0
 10
-58.3886
 20
48.4353
 11
-58.3285
 21
48.5804
  0
LINE
  8
0
 10
-58.3285
 20
48.5804
 11
-58.2608
 21
48.7222
  0
LINE
  8
0
 10
-58.2608
 20
48.7222
 11
-58.1859
 21
48.8602
  0
LINE
  8
0
 10
-58.1859
 20
48.8602
 11
-58.1038
 21
48.9942
  0
LINE
  8
0
 10
-58.1038
 20
48.9942
 11
-58.0149
 21
49.1236
  0
LINE
  8
0
 10
-58.0149
 20
49.1236
 11
-57.9193
 21
49.2482
  0
LINE
  8
0
 10
-57.9193
 20
49.2482
 11
-57.8173
 21
49.3676
  0
LINE
  8
0
 10
-57.8173
 20
49.3676
 11
-55.1407
 21
52.3402
  0
LINE
  8
0
 10
-55.1407
 20
52.3402
 11
-55.0326
 21
52.4541
  0
LINE
  8
0
 10
-55.0326
 20
52.4541
 11
-54.9187
 21
52.5622
  0
LINE
  8
0
 10
-54.9187
 20
52.5622
 11
-54.7993
 21
52.6642
  0
LINE
  8
0
 10
-54.7993
 20
52.6642
 11
-54.6747
 21
52.7599
  0
LINE
  8
0
 10
-54.6747
 20
52.7599
 11
-54.5452
 21
52.8488
  0
LINE
  8
0
 10
-54.5452
 20
52.8488
 11
-54.4113
 21
52.9309
  0
LINE
  8
0
 10
-54.4113
 20
52.9309
 11
-54.2733
 21
53.0058
  0
LINE
  8
0
 10
-54.2733
 20
53.0058
 11
-54.1315
 21
53.0734
  0
LINE
  8
0
 10
-54.1315
 20
53.0734
 11
-53.9864
 21
53.1336
  0
LINE
  8
0
 10
-53.9864
 20
53.1336
 11
-53.8384
 21
53.186
  0
LINE
  8
0
 10
-53.8384
 20
53.186
 11
-53.6878
 21
53.2306
  0
LINE
  8
0
 10
-53.6878
 20
53.2306
 11
-53.535
 21
53.2673
  0
LINE
  8
0
 10
-53.535
 20
53.2673
 11
-53.3806
 21
53.2959
  0
LINE
  8
0
 10
-53.3806
 20
53.2959
 11
-53.2249
 21
53.3164
  0
LINE
  8
0
 10
-53.2249
 20
53.3164
 11
-53.0683
 21
53.3287
  0
LINE
  8
0
 10
-53.0683
 20
53.3287
 11
-52.9113
 21
53.3328
  0
LINE
  8
0
 10
-52.9113
 20
53.3328
 11
-52.7543
 21
53.3287
  0
LINE
  8
0
 10
-52.7543
 20
53.3287
 11
-52.5977
 21
53.3164
  0
LINE
  8
0
 10
-52.5977
 20
53.3164
 11
-52.442
 21
53.2959
  0
LINE
  8
0
 10
-52.442
 20
53.2959
 11
-52.2876
 21
53.2673
  0
LINE
  8
0
 10
-52.2876
 20
53.2673
 11
-52.1348
 21
53.2306
  0
LINE
  8
0
 10
-52.1348
 20
53.2306
 11
-51.9843
 21
53.186
  0
LINE
  8
0
 10
-51.9843
 20
53.186
 11
-51.8362
 21
53.1336
  0
LINE
  8
0
 10
-51.8362
 20
53.1336
 11
-51.6911
 21
53.0734
  0
LINE
  8
0
 10
-51.6911
 20
53.0734
 11
-51.5493
 21
53.0058
  0
LINE
  8
0
 10
-51.5493
 20
53.0058
 11
-51.4113
 21
52.9309
  0
LINE
  8
0
 10
-51.4113
 20
52.9309
 11
-51.2774
 21
52.8488
  0
LINE
  8
0
 10
-51.2774
 20
52.8488
 11
-51.1479
 21
52.7599
  0
LINE
  8
0
 10
-51.1479
 20
52.7599
 11
-51.0233
 21
52.6642
  0
LINE
  8
0
 10
-51.0233
 20
52.6642
 11
-50.9039
 21
52.5623
  0
LINE
  8
0
 10
-50.9039
 20
52.5623
 11
-50.79
 21
52.4541
  0
LINE
  8
0
 10
-50.79
 20
52.4541
 11
-33.8662
 21
34.508
  0
LINE
  8
0
 10
-33.8662
 20
34.508
 11
-33.7642
 21
34.3886
  0
LINE
  8
0
 10
-33.7642
 20
34.3886
 11
-33.6685
 21
34.264
  0
LINE
  8
0
 10
-33.6685
 20
34.264
 11
-33.5796
 21
34.1345
  0
LINE
  8
0
 10
-33.5796
 20
34.1345
 11
-33.4975
 21
34.0006
  0
LINE
  8
0
 10
-33.4975
 20
34.0006
 11
-33.4226
 21
33.8626
  0
LINE
  8
0
 10
-33.4226
 20
33.8626
 11
-33.355
 21
33.7208
  0
LINE
  8
0
 10
-33.355
 20
33.7208
 11
-33.2948
 21
33.5757
  0
LINE
  8
0
 10
-33.2948
 20
33.5757
 11
-33.2424
 21
33.4277
  0
LINE
  8
0
 10
-33.2424
 20
33.4277
 11
-33.1978
 21
33.2771
  0
LINE
  8
0
 10
-33.1978
 20
33.2771
 11
-33.1611
 21
33.1243
  0
LINE
  8
0
 10
-33.1611
 20
33.1243
 11
-33.1325
 21
32.9699
  0
LINE
  8
0
 10
-33.1325
 20
32.9699
 11
-33.112
 21
32.8142
  0
LINE
  8
0
 10
-33.112
 20
32.8142
 11
-33.0997
 21
32.6576
  0
LINE
  8
0
 10
-33.0997
 20
32.6576
 11
-33.0956
 21
32.5006
  0
LINE
  8
0
 10
-33.0956
 20
32.5006
 11
-33.0997
 21
32.3436
  0
LINE
  8
0
 10
-33.0997
 20
32.3436
 11
-33.112
 21
32.187
  0
LINE
  8
0
 10
-33.112
 20
32.187
 11
-33.1325
 21
32.0313
  0
LINE
  8
0
 10
-33.1325
 20
32.0313
 11
-33.1612
 21
31.8769
  0
LINE
  8
0
 10
-33.1612
 20
31.8769
 11
-33.1978
 21
31.7242
  0
LINE
  8
0
 10
-33.1978
 20
31.7242
 11
-33.2424
 21
31.5736
  0
LINE
  8
0
 10
-33.2424
 20
31.5736
 11
-33.2948
 21
31.4255
  0
LINE
  8
0
 10
-33.2948
 20
31.4255
 11
-33.3549
 21
31.2804
  0
LINE
  8
0
 10
-33.3549
 20
31.2804
 11
-33.4226
 21
31.1386
  0
LINE
  8
0
 10
-33.4226
 20
31.1386
 11
-33.4975
 21
31.0006
  0
LINE
  8
0
 10
-33.4975
 20
31.0006
 11
-33.5796
 21
30.8667
  0
LINE
  8
0
 10
-33.5796
 20
30.8667
 11
-33.6685
 21
30.7373
  0
LINE
  8
0
 10
-33.6685
 20
30.7373
 11
-33.7642
 21
30.6126
  0
LINE
  8
0
 10
-33.7642
 20
30.6126
 11
-33.8662
 21
30.4932
  0
LINE
  8
0
 10
-33.8662
 20
30.4932
 11
-33.9743
 21
30.3793
  0
LINE
  8
0
 10
-33.9743
 20
30.3793
 11
-34.0882
 21
30.2712
  0
LINE
  8
0
 10
-34.0882
 20
30.2712
 11
-34.2076
 21
30.1692
  0
LINE
  8
0
 10
-34.2076
 20
30.1692
 11
-34.3322
 21
30.0736
  0
LINE
  8
0
 10
-34.3322
 20
30.0736
 11
-34.4617
 21
29.9846
  0
LINE
  8
0
 10
-34.4617
 20
29.9846
 11
-34.5956
 21
29.9025
  0
LINE
  8
0
 10
-34.5956
 20
29.9025
 11
-34.7336
 21
29.8276
  0
LINE
  8
0
 10
-34.7336
 20
29.8276
 11
-34.8754
 21
29.76
  0
LINE
  8
0
 10
-34.8754
 20
29.76
 11
-35.0205
 21
29.6999
  0
LINE
  8
0
 10
-35.0205
 20
29.6999
 11
-35.1685
 21
29.6475
  0
LINE
  8
0
 10
-35.1685
 20
29.6475
 11
-35.3191
 21
29.6028
  0
LINE
  8
0
 10
-35.3191
 20
29.6028
 11
-35.4718
 21
29.5662
  0
LINE
  8
0
 10
-35.4718
 20
29.5662
 11
-35.6263
 21
29.5376
  0
LINE
  8
0
 10
-35.6263
 20
29.5376
 11
-35.782
 21
29.517
  0
LINE
  8
0
 10
-35.782
 20
29.517
 11
-35.9386
 21
29.5047
  0
LINE
  8
0
 10
-35.9386
 20
29.5047
 11
-36.0956
 21
29.5006
  0
LINE
  8
0
 10
-36.0956
 20
29.5006
 11
-36.2526
 21
29.5047
  0
LINE
  8
0
 10
35.9386
 20
29.5047
 11
35.782
 21
29.517
  0
LINE
  8
0
 10
35.782
 20
29.517
 11
35.6263
 21
29.5376
  0
LINE
  8
0
 10
35.6263
 20
29.5376
 11
35.4718
 21
29.5662
  0
LINE
  8
0
 10
35.4718
 20
29.5662
 11
35.3191
 21
29.6028
  0
LINE
  8
0
 10
35.3191
 20
29.6028
 11
35.1685
 21
29.6475
  0
LINE
  8
0
 10
35.1685
 20
29.6475
 11
35.0205
 21
29.6999
  0
LINE
  8
0
 10
35.0205
 20
29.6999
 11
34.8754
 21
29.76
  0
LINE
  8
0
 10
34.8754
 20
29.76
 11
34.7336
 21
29.8276
  0
LINE
  8
0
 10
34.7336
 20
29.8276
 11
34.5956
 21
29.9025
  0
LINE
  8
0
 10
34.5956
 20
29.9025
 11
34.4617
 21
29.9846
  0
LINE
  8
0
 10
34.4617
 20
29.9846
 11
34.3322
 21
30.0736
  0
LINE
  8
0
 10
34.3322
 20
30.0736
 11
34.2076
 21
30.1692
  0
LINE
  8
0
 10
34.2076
 20
30.1692
 11
34.0882
 21
30.2712
  0
LINE
  8
0
 10
34.0882
 20
30.2712
 11
33.9743
 21
30.3793
  0
LINE
  8
0
 10
33.9743
 20
30.3793
 11
33.8662
 21
30.4932
  0
LINE
  8
0
 10
33.8662
 20
30.4932
 11
33.7642
 21
30.6126
  0
LINE
  8
0
 10
33.7642
 20
30.6126
 11
33.6685
 21
30.7373
  0
LINE
  8
0
 10
33.6685
 20
30.7373
 11
33.5796
 21
30.8667
  0
LINE
  8
0
 10
33.5796
 20
30.8667
 11
33.4975
 21
31.0006
  0
LINE
  8
0
 10
33.4975
 20
31.0006
 11
33.4226
 21
31.1386
  0
LINE
  8
0
 10
33.4226
 20
31.1386
 11
33.3549
 21
31.2804
  0
LINE
  8
0
 10
33.3549
 20
31.2804
 11
33.2948
 21
31.4255
  0
LINE
  8
0
 10
33.2948
 20
31.4255
 11
33.2424
 21
31.5736
  0
LINE
  8
0
 10
33.2424
 20
31.5736
 11
33.1978
 21
31.7242
  0
LINE
  8
0
 10
33.1978
 20
31.7242
 11
33.1612
 21
31.8769
  0
LINE
  8
0
 10
33.1612
 20
31.8769
 11
33.1325
 21
32.0313
  0
LINE
  8
0
 10
33.1325
 20
32.0313
 11
33.112
 21
32.187
  0
LINE
  8
0
 10
33.112
 20
32.187
 11
33.0997
 21
32.3436
  0
LINE
  8
0
 10
33.0997
 20
32.3436
 11
33.0956
 21
32.5006
  0
LINE
  8
0
 10
33.0956
 20
32.5006
 11
33.0997
 21
32.6576
  0
LINE
  8
0
 10
33.0997
 20
32.6576
 11
33.112
 21
32.8142
  0
LINE
  8
0
 10
33.112
 20
32.8142
 11
33.1325
 21
32.9699
  0
LINE
  8
0
 10
33.1325
 20
32.9699
 11
33.1611
 21
33.1243
  0
LINE
  8
0
 10
33.1611
 20
33.1243
 11
33.1978
 21
33.2771
  0
LINE
  8
0
 10
33.1978
 20
33.2771
 11
33.2424
 21
33.4277
  0
LINE
  8
0
 10
33.2424
 20
33.4277
 11
33.2948
 21
33.5757
  0
LINE
  8
0
 10
33.2948
 20
33.5757
 11
33.355
 21
33.7208
  0
LINE
  8
0
 10
33.355
 20
33.7208
 11
33.4226
 21
33.8626
  0
LINE
  8
0
 10
33.4226
 20
33.8626
 11
33.4975
 21
34.0006
  0
LINE
  8
0
 10
33.4975
 20
34.0006
 11
33.5796
 21
34.1345
  0
LINE
  8
0
 10
33.5796
 20
34.1345
 11
33.6685
 21
34.264
  0
LINE
  8
0
 10
33.6685
 20
34.264
 11
33.7642
 21
34.3886
  0
LINE
  8
0
 10
33.7642
 20
34.3886
 11
33.8662
 21
34.508
  0
LINE
  8
0
 10
33.8662
 20
34.508
 11
50.79
 21
52.4541
  0
LINE
  8
0
 10
50.79
 20
52.4541
 11
50.9039
 21
52.5623
  0
LINE
  8
0
 10
50.9039
 20
52.5623
 11
51.0233
 21
52.6642
  0
LINE
  8
0
 10
51.0233
 20
52.6642
 11
51.1479
 21
52.7599
  0
LINE
  8
0
 10
51.1479
 20
52.7599
 11
51.2774
 21
52.8488
  0
LINE
  8
0
 10
51.2774
 20
52.8488
 11
51.4113
 21
52.9309
  0
LINE
  8
0
 10
51.4113
 20
52.9309
 11
51.5493
 21
53.0058
  0
LINE
  8
0
 10
51.5493
 20
53.0058
 11
51.6911
 21
53.0734
  0
LINE
  8
0
 10
51.6911
 20
53.0734
 11
51.8362
 21
53.1336
  0
LINE
  8
0
 10
51.8362
 20
53.1336
 11
51.9843
 21
53.186
  0
LINE
  8
0
 10
51.9843
 20
53.186
 11
52.1348
 21
53.2306
  0
LINE
  8
0
 10
52.1348
 20
53.2306
 11
52.2876
 21
53.2673
  0
LINE
  8
0
 10
52.2876
 20
53.2673
 11
52.442
 21
53.2959
  0
LINE
  8
0
 10
52.442
 20
53.2959
 11
52.5977
 21
53.3164
  0
LINE
  8
0
 10
52.5977
 20
53.3164
 11
52.7543
 21
53.3287
  0
LINE
  8
0
 10
52.7543
 20
53.3287
 11
52.9113
 21
53.3328
  0
LINE
  8
0
 10
52.9113
 20
53.3328
 11
53.0683
 21
53.3287
  0
LINE
  8
0
 10
53.0683
 20
53.3287
 11
53.2249
 21
53.3164
  0
LINE
  8
0
 10
53.2249
 20
53.3164
 11
53.3806
 21
53.2959
  0
LINE
  8
0
 10
53.3806
 20
53.2959
 11
53.535
 21
53.2673
  0
LINE
  8
0
 10
53.535
 20
53.2673
 11
53.6878
 21
53.2306
  0
LINE
  8
0
 10
53.6878
 20
53.2306
 11
53.8383
 21
53.186
  0
LINE
  8
0
 10
53.8383
 20
53.186
 11
53.9864
 21
53.1336
  0
LINE
  8
0
 10
53.9864
 20
53.1336
 11
54.1315
 21
53.0734
  0
LINE
  8
0
 10
54.1315
 20
53.0734
 11
54.2733
 21
53.0058
  0
LINE
  8
0
 10
54.2733
 20
53.0058
 11
54.4113
 21
52.9309
  0
LINE
  8
0
 10
54.4113
 20
52.9309
 11
54.5452
 21
52.8488
  0
LINE
  8
0
 10
54.5452
 20
52.8488
 11
54.6747
 21
52.7599
  0
LINE
  8
0
 10
54.6747
 20
52.7599
 11
54.7993
 21
52.6642
  0
LINE
  8
0
 10
54.7993
 20
52.6642
 11
54.9187
 21
52.5622
  0
LINE
  8
0
 10
54.9187
 20
52.5622
 11
55.0326
 21
52.4541
  0
LINE
  8
0
 10
55.0326
 20
52.4541
 11
55.1407
 21
52.3402
  0
LINE
  8
0
 10
55.1407
 20
52.3402
 11
57.8173
 21
49.3676
  0
LINE
  8
0
 10
57.8173
 20
49.3676
 11
57.9193
 21
49.2482
  0
LINE
  8
0
 10
57.9193
 20
49.2482
 11
58.0149
 21
49.1236
  0
LINE
  8
0
 10
58.0149
 20
49.1236
 11
58.1038
 21
48.9942
  0
LINE
  8
0
 10
58.1038
 20
48.9942
 11
58.1859
 21
48.8602
  0
LINE
  8
0
 10
58.1859
 20
48.8602
 11
58.2608
 21
48.7222
  0
LINE
  8
0
 10
58.2608
 20
48.7222
 11
58.3285
 21
48.5804
  0
LINE
  8
0
 10
58.3285
 20
48.5804
 11
58.3886
 21
48.4353
  0
LINE
  8
0
 10
58.3886
 20
48.4353
 11
58.441
 21
48.2873
  0
LINE
  8
0
 10
58.441
 20
48.2873
 11
58.4856
 21
48.1367
  0
LINE
  8
0
 10
58.4856
 20
48.1367
 11
58.5222
 21
47.984
  0
LINE
  8
0
 10
58.5222
 20
47.984
 11
58.5509
 21
47.8295
  0
LINE
  8
0
 10
58.5509
 20
47.8295
 11
58.5714
 21
47.6738
  0
LINE
  8
0
 10
58.5714
 20
47.6738
 11
58.5837
 21
47.5172
  0
LINE
  8
0
 10
58.5837
 20
47.5172
 11
58.5878
 21
47.3602
  0
LINE
  8
0
 10
58.5878
 20
47.3602
 11
58.5837
 21
47.2032
  0
LINE
  8
0
 10
58.5837
 20
47.2032
 11
58.5714
 21
47.0466
  0
LINE
  8
0
 10
58.5714
 20
47.0466
 11
58.5509
 21
46.8909
  0
LINE
  8
0
 10
58.5509
 20
46.8909
 11
58.5223
 21
46.7365
  0
LINE
  8
0
 10
58.5223
 20
46.7365
 11
58.4856
 21
46.5838
  0
LINE
  8
0
 10
58.4856
 20
46.5838
 11
58.441
 21
46.4332
  0
LINE
  8
0
 10
58.441
 20
46.4332
 11
58.3886
 21
46.2851
  0
LINE
  8
0
 10
58.3886
 20
46.2851
 11
58.3284
 21
46.14
  0
LINE
  8
0
 10
58.3284
 20
46.14
 11
58.2608
 21
45.9983
  0
LINE
  8
0
 10
58.2608
 20
45.9983
 11
58.1859
 21
45.8602
  0
LINE
  8
0
 10
58.1859
 20
45.8602
 11
58.1038
 21
45.7263
  0
LINE
  8
0
 10
58.1038
 20
45.7263
 11
58.0149
 21
45.5969
  0
LINE
  8
0
 10
58.0149
 20
45.5969
 11
57.9193
 21
45.4723
  0
LINE
  8
0
 10
57.9193
 20
45.4723
 11
57.8172
 21
45.3529
  0
LINE
  8
0
 10
57.8172
 20
45.3529
 11
57.7091
 21
45.2389
  0
LINE
  8
0
 10
57.7091
 20
45.2389
 11
57.5952
 21
45.1308
  0
LINE
  8
0
 10
57.5952
 20
45.1308
 11
57.4758
 21
45.0288
  0
LINE
  8
0
 10
57.4758
 20
45.0288
 11
37.8589
 21
30.0736
  0
LINE
  8
0
 10
37.8589
 20
30.0736
 11
37.7295
 21
29.9846
  0
LINE
  8
0
 10
37.7295
 20
29.9846
 11
37.5956
 21
29.9026
  0
LINE
  8
0
 10
37.5956
 20
29.9026
 11
37.4576
 21
29.8276
  0
LINE
  8
0
 10
37.4576
 20
29.8276
 11
37.3158
 21
29.76
  0
LINE
  8
0
 10
37.3158
 20
29.76
 11
37.1707
 21
29.6999
  0
LINE
  8
0
 10
37.1707
 20
29.6999
 11
37.0226
 21
29.6474
  0
LINE
  8
0
 10
37.0226
 20
29.6474
 11
36.872
 21
29.6028
  0
LINE
  8
0
 10
36.872
 20
29.6028
 11
36.7193
 21
29.5662
  0
LINE
  8
0
 10
36.7193
 20
29.5662
 11
36.5649
 21
29.5376
  0
LINE
  8
0
 10
36.5649
 20
29.5376
 11
36.4092
 21
29.517
  0
LINE
  8
0
 10
36.4092
 20
29.517
 11
36.2526
 21
29.5047
  0
LINE
  8
0
 10
36.2526
 20
29.5047
 11
36.0956
 21
29.5006
  0
LINE
  8
0
 10
36.0956
 20
29.5006
 11
35.9386
 21
29.5047
  0
LINE
  8
0
 10
-75.5867
 20
36.9158
 11
-74.3825
 21
48.3727
  0
LINE
  8
0
 10
-74.3825
 20
48.3727
 11
-71.6376
 21
48.0842
  0
LINE
  8
0
 10
-71.6376
 20
48.0842
 11
-72.8418
 21
36.6273
  0
LINE
  8
0
 10
-72.8418
 20
36.6273
 11
-75.5867
 21
36.9158
  0
LINE
  8
0
 10
68.1411
 20
44.7692
 11
69.7634
 21
47.0021
  0
LINE
  8
0
 10
69.7634
 20
47.0021
 11
79.0832
 21
40.2308
  0
LINE
  8
0
 10
79.0832
 20
40.2308
 11
77.461
 21
37.9979
  0
LINE
  8
0
 10
77.461
 20
37.9979
 11
68.1411
 21
44.7692
  0
LINE
  8
0
 10
-79.0314
 20
28.8126
 11
-79.0314
 21
40.3326
  0
LINE
  8
0
 10
-79.0314
 20
40.3326
 11
-76.2714
 21
40.3326
  0
LINE
  8
0
 10
-76.2714
 20
40.3326
 11
-76.2714
 21
28.8126
  0
LINE
  8
0
 10
-76.2714
 20
28.8126
 11
-79.0314
 21
28.8126
  0
LINE
  8
0
 10
72.4474
 20
37.4013
 11
74.2942
 21
39.4523
  0
LINE
  8
0
 10
74.2942
 20
39.4523
 11
82.8553
 21
31.744
  0
LINE
  8
0
 10
82.8553
 20
31.744
 11
81.0085
 21
29.6929
  0
LINE
  8
0
 10
81.0085
 20
29.6929
 11
72.4474
 21
37.4013
  0
LINE
  8
0
 10
-82.8143
 20
31.8506
 11
-80.0694
 21
32.1391
  0
LINE
  8
0
 10
-80.0694
 20
32.1391
 11
-78.8653
 21
20.6822
  0
LINE
  8
0
 10
-78.8653
 20
20.6822
 11
-81.6102
 21
20.3937
  0
LINE
  8
0
 10
-81.6102
 20
20.3937
 11
-82.8143
 21
31.8506
  0
LINE
  8
0
 10
75.9601
 20
29.6236
 11
78.0111
 21
31.4704
  0
LINE
  8
0
 10
78.0111
 20
31.4704
 11
85.7195
 21
22.9093
  0
LINE
  8
0
 10
85.7195
 20
22.9093
 11
83.6684
 21
21.0625
  0
LINE
  8
0
 10
83.6684
 20
21.0625
 11
75.9601
 21
29.6236
  0
LINE
  8
0
 10
-46.3512
 20
12.0135
 11
-46.5078
 21
12.0258
  0
LINE
  8
0
 10
-46.5078
 20
12.0258
 11
-46.6635
 21
12.0463
  0
LINE
  8
0
 10
-46.6635
 20
12.0463
 11
-46.8179
 21
12.075
  0
LINE
  8
0
 10
-46.8179
 20
12.075
 11
-70.8216
 21
17.7583
  0
LINE
  8
0
 10
-70.8216
 20
17.7583
 11
-70.9722
 21
17.8029
  0
LINE
  8
0
 10
-70.9722
 20
17.8029
 11
-71.1202
 21
17.8554
  0
LINE
  8
0
 10
-71.1202
 20
17.8554
 11
-71.2654
 21
17.9155
  0
LINE
  8
0
 10
-71.2654
 20
17.9155
 11
-71.4071
 21
17.9831
  0
LINE
  8
0
 10
-71.4071
 20
17.9831
 11
-71.5452
 21
18.0581
  0
LINE
  8
0
 10
-71.5452
 20
18.0581
 11
-71.679
 21
18.1401
  0
LINE
  8
0
 10
-71.679
 20
18.1401
 11
-71.8085
 21
18.2291
  0
LINE
  8
0
 10
-71.8085
 20
18.2291
 11
-71.9331
 21
18.3247
  0
LINE
  8
0
 10
-71.9331
 20
18.3247
 11
-72.0525
 21
18.4267
  0
LINE
  8
0
 10
-72.0525
 20
18.4267
 11
-72.1665
 21
18.5348
  0
LINE
  8
0
 10
-72.1665
 20
18.5348
 11
-72.2746
 21
18.6487
  0
LINE
  8
0
 10
-72.2746
 20
18.6487
 11
-72.3766
 21
18.7682
  0
LINE
  8
0
 10
-72.3766
 20
18.7682
 11
-72.4722
 21
18.8928
  0
LINE
  8
0
 10
-72.4722
 20
18.8928
 11
-72.5612
 21
19.0222
  0
LINE
  8
0
 10
-72.5612
 20
19.0222
 11
-72.6432
 21
19.1561
  0
LINE
  8
0
 10
-72.6432
 20
19.1561
 11
-72.7182
 21
19.2942
  0
LINE
  8
0
 10
-72.7182
 20
19.2942
 11
-72.7858
 21
19.4359
  0
LINE
  8
0
 10
-72.7858
 20
19.4359
 11
-72.8459
 21
19.581
  0
LINE
  8
0
 10
-72.8459
 20
19.581
 11
-72.8983
 21
19.7291
  0
LINE
  8
0
 10
-72.8983
 20
19.7291
 11
-72.9429
 21
19.8797
  0
LINE
  8
0
 10
-72.9429
 20
19.8797
 11
-72.9796
 21
20.0324
  0
LINE
  8
0
 10
-72.9796
 20
20.0324
 11
-73.0082
 21
20.1868
  0
LINE
  8
0
 10
-73.0082
 20
20.1868
 11
-73.0287
 21
20.3425
  0
LINE
  8
0
 10
-73.0287
 20
20.3425
 11
-73.041
 21
20.4991
  0
LINE
  8
0
 10
-73.041
 20
20.4991
 11
-73.0452
 21
20.6561
  0
LINE
  8
0
 10
-73.0452
 20
20.6561
 11
-73.041
 21
20.8131
  0
LINE
  8
0
 10
-73.041
 20
20.8131
 11
-73.0287
 21
20.9697
  0
LINE
  8
0
 10
-73.0287
 20
20.9697
 11
-73.0082
 21
21.1254
  0
LINE
  8
0
 10
-73.0082
 20
21.1254
 11
-72.9796
 21
21.2798
  0
LINE
  8
0
 10
-72.9796
 20
21.2798
 11
-72.9429
 21
21.4326
  0
LINE
  8
0
 10
-72.9429
 20
21.4326
 11
-72.8983
 21
21.5832
  0
LINE
  8
0
 10
-72.8983
 20
21.5832
 11
-71.6622
 21
25.3874
  0
LINE
  8
0
 10
-71.6622
 20
25.3874
 11
-71.6098
 21
25.5354
  0
LINE
  8
0
 10
-71.6098
 20
25.5354
 11
-71.5497
 21
25.6805
  0
LINE
  8
0
 10
-71.5497
 20
25.6805
 11
-71.4821
 21
25.8223
  0
LINE
  8
0
 10
-71.4821
 20
25.8223
 11
-71.4072
 21
25.9603
  0
LINE
  8
0
 10
-71.4072
 20
25.9603
 11
-71.3251
 21
26.0943
  0
LINE
  8
0
 10
-71.3251
 20
26.0943
 11
-71.2361
 21
26.2237
  0
LINE
  8
0
 10
-71.2361
 20
26.2237
 11
-71.1405
 21
26.3483
  0
LINE
  8
0
 10
-71.1405
 20
26.3483
 11
-71.0385
 21
26.4677
  0
LINE
  8
0
 10
-71.0385
 20
26.4677
 11
-70.9304
 21
26.5817
  0
LINE
  8
0
 10
-70.9304
 20
26.5817
 11
-70.8165
 21
26.6898
  0
LINE
  8
0
 10
-70.8165
 20
26.6898
 11
-70.697
 21
26.7918
  0
LINE
  8
0
 10
-70.697
 20
26.7918
 11
-70.5724
 21
26.8874
  0
LINE
  8
0
 10
-70.5724
 20
26.8874
 11
-70.443
 21
26.9763
  0
LINE
  8
0
 10
-70.443
 20
26.9763
 11
-70.3091
 21
27.0584
  0
LINE
  8
0
 10
-70.3091
 20
27.0584
 11
-70.1711
 21
27.1333
  0
LINE
  8
0
 10
-70.1711
 20
27.1333
 11
-70.0293
 21
27.201
  0
LINE
  8
0
 10
-70.0293
 20
27.201
 11
-69.8842
 21
27.2611
  0
LINE
  8
0
 10
-69.8842
 20
27.2611
 11
-69.7361
 21
27.3135
  0
LINE
  8
0
 10
-69.7361
 20
27.3135
 11
-69.5855
 21
27.3581
  0
LINE
  8
0
 10
-69.5855
 20
27.3581
 11
-69.4328
 21
27.3948
  0
LINE
  8
0
 10
-69.4328
 20
27.3948
 11
-69.2784
 21
27.4234
  0
LINE
  8
0
 10
-69.2784
 20
27.4234
 11
-69.1227
 21
27.4439
  0
LINE
  8
0
 10
-69.1227
 20
27.4439
 11
-68.9661
 21
27.4562
  0
LINE
  8
0
 10
-68.9661
 20
27.4562
 11
-68.8091
 21
27.4603
  0
LINE
  8
0
 10
-68.8091
 20
27.4603
 11
-68.6521
 21
27.4562
  0
LINE
  8
0
 10
-68.6521
 20
27.4562
 11
-68.4955
 21
27.4439
  0
LINE
  8
0
 10
-68.4955
 20
27.4439
 11
-68.3398
 21
27.4234
  0
LINE
  8
0
 10
-68.3398
 20
27.4234
 11
-68.1853
 21
27.3948
  0
LINE
  8
0
 10
-68.1853
 20
27.3948
 11
-68.0326
 21
27.3581
  0
LINE
  8
0
 10
-68.0326
 20
27.3581
 11
-67.882
 21
27.3135
  0
LINE
  8
0
 10
-67.882
 20
27.3135
 11
-67.734
 21
27.2611
  0
LINE
  8
0
 10
-67.734
 20
27.2611
 11
-44.974
 21
17.75
  0
LINE
  8
0
 10
-44.974
 20
17.75
 11
-44.8322
 21
17.6824
  0
LINE
  8
0
 10
-44.8322
 20
17.6824
 11
-44.6942
 21
17.6075
  0
LINE
  8
0
 10
-44.6942
 20
17.6075
 11
-44.5602
 21
17.5254
  0
LINE
  8
0
 10
-44.5602
 20
17.5254
 11
-44.4308
 21
17.4364
  0
LINE
  8
0
 10
-44.4308
 20
17.4364
 11
-44.3062
 21
17.3408
  0
LINE
  8
0
 10
-44.3062
 20
17.3408
 11
-44.1868
 21
17.2388
  0
LINE
  8
0
 10
-44.1868
 20
17.2388
 11
-44.0728
 21
17.1307
  0
LINE
  8
0
 10
-44.0728
 20
17.1307
 11
-43.9647
 21
17.0168
  0
LINE
  8
0
 10
-43.9647
 20
17.0168
 11
-43.8627
 21
16.8973
  0
LINE
  8
0
 10
-43.8627
 20
16.8973
 11
-43.7671
 21
16.7727
  0
LINE
  8
0
 10
-43.7671
 20
16.7727
 11
-43.6781
 21
16.6433
  0
LINE
  8
0
 10
-43.6781
 20
16.6433
 11
-43.5961
 21
16.5094
  0
LINE
  8
0
 10
-43.5961
 20
16.5094
 11
-43.5211
 21
16.3714
  0
LINE
  8
0
 10
-43.5211
 20
16.3714
 11
-43.4535
 21
16.2296
  0
LINE
  8
0
 10
-43.4535
 20
16.2296
 11
-43.3934
 21
16.0845
  0
LINE
  8
0
 10
-43.3934
 20
16.0845
 11
-43.341
 21
15.9364
  0
LINE
  8
0
 10
-43.341
 20
15.9364
 11
-43.2964
 21
15.7858
  0
LINE
  8
0
 10
-43.2964
 20
15.7858
 11
-43.2597
 21
15.6331
  0
LINE
  8
0
 10
-43.2597
 20
15.6331
 11
-43.2311
 21
15.4787
  0
LINE
  8
0
 10
-43.2311
 20
15.4787
 11
-43.2106
 21
15.323
  0
LINE
  8
0
 10
-43.2106
 20
15.323
 11
-43.1983
 21
15.1664
  0
LINE
  8
0
 10
-43.1983
 20
15.1664
 11
-43.1942
 21
15.0094
  0
LINE
  8
0
 10
-43.1942
 20
15.0094
 11
-43.1983
 21
14.8524
  0
LINE
  8
0
 10
-43.1983
 20
14.8524
 11
-43.2106
 21
14.6958
  0
LINE
  8
0
 10
-43.2106
 20
14.6958
 11
-43.2311
 21
14.5401
  0
LINE
  8
0
 10
-43.2311
 20
14.5401
 11
-43.2597
 21
14.3857
  0
LINE
  8
0
 10
-43.2597
 20
14.3857
 11
-43.2964
 21
14.2329
  0
LINE
  8
0
 10
-43.2964
 20
14.2329
 11
-43.341
 21
14.0823
  0
LINE
  8
0
 10
-43.341
 20
14.0823
 11
-43.3934
 21
13.9343
  0
LINE
  8
0
 10
-43.3934
 20
13.9343
 11
-43.4535
 21
13.7892
  0
LINE
  8
0
 10
-43.4535
 20
13.7892
 11
-43.5211
 21
13.6474
  0
LINE
  8
0
 10
-43.5211
 20
13.6474
 11
-43.5961
 21
13.5094
  0
LINE
  8
0
 10
-43.5961
 20
13.5094
 11
-43.6781
 21
13.3755
  0
LINE
  8
0
 10
-43.6781
 20
13.3755
 11
-43.7671
 21
13.246
  0
LINE
  8
0
 10
-43.7671
 20
13.246
 11
-43.8627
 21
13.1214
  0
LINE
  8
0
 10
-43.8627
 20
13.1214
 11
-43.9647
 21
13.002
  0
LINE
  8
0
 10
-43.9647
 20
13.002
 11
-44.0728
 21
12.8881
  0
LINE
  8
0
 10
-44.0728
 20
12.8881
 11
-44.1868
 21
12.78
  0
LINE
  8
0
 10
-44.1868
 20
12.78
 11
-44.3062
 21
12.6779
  0
LINE
  8
0
 10
-44.3062
 20
12.6779
 11
-44.4308
 21
12.5823
  0
LINE
  8
0
 10
-44.4308
 20
12.5823
 11
-44.5602
 21
12.4934
  0
LINE
  8
0
 10
-44.5602
 20
12.4934
 11
-44.6942
 21
12.4113
  0
LINE
  8
0
 10
-44.6942
 20
12.4113
 11
-44.8322
 21
12.3364
  0
LINE
  8
0
 10
-44.8322
 20
12.3364
 11
-44.9739
 21
12.2688
  0
LINE
  8
0
 10
-44.9739
 20
12.2688
 11
-45.119
 21
12.2086
  0
LINE
  8
0
 10
-45.119
 20
12.2086
 11
-45.2671
 21
12.1562
  0
LINE
  8
0
 10
-45.2671
 20
12.1562
 11
-45.4177
 21
12.1116
  0
LINE
  8
0
 10
-45.4177
 20
12.1116
 11
-45.5704
 21
12.075
  0
LINE
  8
0
 10
-45.5704
 20
12.075
 11
-45.7249
 21
12.0463
  0
LINE
  8
0
 10
-45.7249
 20
12.0463
 11
-45.8806
 21
12.0258
  0
LINE
  8
0
 10
-45.8806
 20
12.0258
 11
-46.0372
 21
12.0135
  0
LINE
  8
0
 10
-46.0372
 20
12.0135
 11
-46.1942
 21
12.0094
  0
LINE
  8
0
 10
-46.1942
 20
12.0094
 11
-46.3512
 21
12.0135
  0
LINE
  8
0
 10
46.0372
 20
12.0135
 11
45.8806
 21
12.0258
  0
LINE
  8
0
 10
45.8806
 20
12.0258
 11
45.7249
 21
12.0463
  0
LINE
  8
0
 10
45.7249
 20
12.0463
 11
45.5704
 21
12.075
  0
LINE
  8
0
 10
45.5704
 20
12.075
 11
45.4177
 21
12.1116
  0
LINE
  8
0
 10
45.4177
 20
12.1116
 11
45.2671
 21
12.1562
  0
LINE
  8
0
 10
45.2671
 20
12.1562
 11
45.119
 21
12.2086
  0
LINE
  8
0
 10
45.119
 20
12.2086
 11
44.9739
 21
12.2688
  0
LINE
  8
0
 10
44.9739
 20
12.2688
 11
44.8322
 21
12.3364
  0
LINE
  8
0
 10
44.8322
 20
12.3364
 11
44.6942
 21
12.4113
  0
LINE
  8
0
 10
44.6942
 20
12.4113
 11
44.5602
 21
12.4934
  0
LINE
  8
0
 10
44.5602
 20
12.4934
 11
44.4308
 21
12.5823
  0
LINE
  8
0
 10
44.4308
 20
12.5823
 11
44.3062
 21
12.6779
  0
LINE
  8
0
 10
44.3062
 20
12.6779
 11
44.1868
 21
12.78
  0
LINE
  8
0
 10
44.1868
 20
12.78
 11
44.0728
 21
12.8881
  0
LINE
  8
0
 10
44.0728
 20
12.8881
 11
43.9647
 21
13.002
  0
LINE
  8
0
 10
43.9647
 20
13.002
 11
43.8627
 21
13.1214
  0
LINE
  8
0
 10
43.8627
 20
13.1214
 11
43.7671
 21
13.246
  0
LINE
  8
0
 10
43.7671
 20
13.246
 11
43.6781
 21
13.3755
  0
LINE
  8
0
 10
43.6781
 20
13.3755
 11
43.5961
 21
13.5094
  0
LINE
  8
0
 10
43.5961
 20
13.5094
 11
43.5211
 21
13.6474
  0
LINE
  8
0
 10
43.5211
 20
13.6474
 11
43.4535
 21
13.7892
  0
LINE
  8
0
 10
43.4535
 20
13.7892
 11
43.3934
 21
13.9343
  0
LINE
  8
0
 10
43.3934
 20
13.9343
 11
43.341
 21
14.0823
  0
LINE
  8
0
 10
43.341
 20
14.0823
 11
43.2964
 21
14.2329
  0
LINE
  8
0
 10
43.2964
 20
14.2329
 11
43.2597
 21
14.3857
  0
LINE
  8
0
 10
43.2597
 20
14.3857
 11
43.2311
 21
14.5401
  0
LINE
  8
0
 10
43.2311
 20
14.5401
 11
43.2106
 21
14.6958
  0
LINE
  8
0
 10
43.2106
 20
14.6958
 11
43.1983
 21
14.8524
  0
LINE
  8
0
 10
43.1983
 20
14.8524
 11
43.1942
 21
15.0094
  0
LINE
  8
0
 10
43.1942
 20
15.0094
 11
43.1983
 21
15.1664
  0
LINE
  8
0
 10
43.1983
 20
15.1664
 11
43.2106
 21
15.323
  0
LINE
  8
0
 10
43.2106
 20
15.323
 11
43.2311
 21
15.4787
  0
LINE
  8
0
 10
43.2311
 20
15.4787
 11
43.2597
 21
15.6331
  0
LINE
  8
0
 10
43.2597
 20
15.6331
 11
43.2964
 21
15.7858
  0
LINE
  8
0
 10
43.2964
 20
15.7858
 11
43.341
 21
15.9364
  0
LINE
  8
0
 10
43.341
 20
15.9364
 11
43.3934
 21
16.0845
  0
LINE
  8
0
 10
43.3934
 20
16.0845
 11
43.4535
 21
16.2296
  0
LINE
  8
0
 10
43.4535
 20
16.2296
 11
43.5211
 21
16.3714
  0
LINE
  8
0
 10
43.5211
 20
16.3714
 11
43.5961
 21
16.5094
  0
LINE
  8
0
 10
43.5961
 20
16.5094
 11
43.6781
 21
16.6433
  0
LINE
  8
0
 10
43.6781
 20
16.6433
 11
43.7671
 21
16.7727
  0
LINE
  8
0
 10
43.7671
 20
16.7727
 11
43.8627
 21
16.8973
  0
LINE
  8
0
 10
43.8627
 20
16.8973
 11
43.9647
 21
17.0168
  0
LINE
  8
0
 10
43.9647
 20
17.0168
 11
44.0728
 21
17.1307
  0
LINE
  8
0
 10
44.0728
 20
17.1307
 11
44.1868
 21
17.2388
  0
LINE
  8
0
 10
44.1868
 20
17.2388
 11
44.3062
 21
17.3408
  0
LINE
  8
0
 10
44.3062
 20
17.3408
 11
44.4308
 21
17.4364
  0
LINE
  8
0
 10
44.4308
 20
17.4364
 11
44.5602
 21
17.5254
  0
LINE
  8
0
 10
44.5602
 20
17.5254
 11
44.6942
 21
17.6075
  0
LINE
  8
0
 10
44.6942
 20
17.6075
 11
44.8322
 21
17.6824
  0
LINE
  8
0
 10
44.8322
 20
17.6824
 11
44.974
 21
17.75
  0
LINE
  8
0
 10
44.974
 20
17.75
 11
67.734
 21
27.2611
  0
LINE
  8
0
 10
67.734
 20
27.2611
 11
67.882
 21
27.3135
  0
LINE
  8
0
 10
67.882
 20
27.3135
 11
68.0326
 21
27.3581
  0
LINE
  8
0
 10
68.0326
 20
27.3581
 11
68.1853
 21
27.3948
  0
LINE
  8
0
 10
68.1853
 20
27.3948
 11
68.3398
 21
27.4234
  0
LINE
  8
0
 10
68.3398
 20
27.4234
 11
68.4955
 21
27.4439
  0
LINE
  8
0
 10
68.4955
 20
27.4439
 11
68.6521
 21
27.4562
  0
LINE
  8
0
 10
68.6521
 20
27.4562
 11
68.8091
 21
27.4603
  0
LINE
  8
0
 10
68.8091
 20
27.4603
 11
68.9661
 21
27.4562
  0
LINE
  8
0
 10
68.9661
 20
27.4562
 11
69.1227
 21
27.4439
  0
LINE
  8
0
 10
69.1227
 20
27.4439
 11
69.2784
 21
27.4234
  0
LINE
  8
0
 10
69.2784
 20
27.4234
 11
69.4328
 21
27.3948
  0
LINE
  8
0
 10
69.4328
 20
27.3948
 11
69.5855
 21
27.3581
  0
LINE
  8
0
 10
69.5855
 20
27.3581
 11
69.7361
 21
27.3135
  0
LINE
  8
0
 10
69.7361
 20
27.3135
 11
69.8842
 21
27.2611
  0
LINE
  8
0
 10
69.8842
 20
27.2611
 11
70.0293
 21
27.201
  0
LINE
  8
0
 10
70.0293
 20
27.201
 11
70.1711
 21
27.1333
  0
LINE
  8
0
 10
70.1711
 20
27.1333
 11
70.3091
 21
27.0584
  0
LINE
  8
0
 10
70.3091
 20
27.0584
 11
70.443
 21
26.9763
  0
LINE
  8
0
 10
70.443
 20
26.9763
 11
70.5724
 21
26.8874
  0
LINE
  8
0
 10
70.5724
 20
26.8874
 11
70.697
 21
26.7918
  0
LINE
  8
0
 10
70.697
 20
26.7918
 11
70.8165
 21
26.6898
  0
LINE
  8
0
 10
70.8165
 20
26.6898
 11
70.9304
 21
26.5817
  0
LINE
  8
0
 10
70.9304
 20
26.5817
 11
71.0385
 21
26.4677
  0
LINE
  8
0
 10
71.0385
 20
26.4677
 11
71.1405
 21
26.3483
  0
LINE
  8
0
 10
71.1405
 20
26.3483
 11
71.2361
 21
26.2237
  0
LINE
  8
0
 10
71.2361
 20
26.2237
 11
71.3251
 21
26.0943
  0
LINE
  8
0
 10
71.3251
 20
26.0943
 11
71.4072
 21
25.9603
  0
LINE
  8
0
 10
71.4072
 20
25.9603
 11
71.4821
 21
25.8223
  0
LINE
  8
0
 10
71.4821
 20
25.8223
 11
71.5497
 21
25.6805
  0
LINE
  8
0
 10
71.5497
 20
25.6805
 11
71.6098
 21
25.5354
  0
LINE
  8
0
 10
71.6098
 20
25.5354
 11
71.6622
 21
25.3874
  0
LINE
  8
0
 10
71.6622
 20
25.3874
 11
72.8983
 21
21.5832
  0
LINE
  8
0
 10
72.8983
 20
21.5832
 11
72.9429
 21
21.4326
  0
LINE
  8
0
 10
72.9429
 20
21.4326
 11
72.9796
 21
21.2798
  0
LINE
  8
0
 10
72.9796
 20
21.2798
 11
73.0082
 21
21.1254
  0
LINE
  8
0
 10
73.0082
 20
21.1254
 11
73.0287
 21
20.9697
  0
LINE
  8
0
 10
73.0287
 20
20.9697
 11
73.041
 21
20.8131
  0
LINE
  8
0
 10
73.041
 20
20.8131
 11
73.0452
 21
20.6561
  0
LINE
  8
0
 10
73.0452
 20
20.6561
 11
73.041
 21
20.4991
  0
LINE
  8
0
 10
73.041
 20
20.4991
 11
73.0287
 21
20.3425
  0
LINE
  8
0
 10
73.0287
 20
20.3425
 11
73.0082
 21
20.1868
  0
LINE
  8
0
 10
73.0082
 20
20.1868
 11
72.9796
 21
20.0324
  0
LINE
  8
0
 10
72.9796
 20
20.0324
 11
72.9429
 21
19.8797
  0
LINE
  8
0
 10
72.9429
 20
19.8797
 11
72.8983
 21
19.7291
  0
LINE
  8
0
 10
72.8983
 20
19.7291
 11
72.8459
 21
19.581
  0
LINE
  8
0
 10
72.8459
 20
19.581
 11
72.7858
 21
19.4359
  0
LINE
  8
0
 10
72.7858
 20
19.4359
 11
72.7182
 21
19.2942
  0
LINE
  8
0
 10
72.7182
 20
19.2942
 11
72.6432
 21
19.1561
  0
LINE
  8
0
 10
72.6432
 20
19.1561
 11
72.5612
 21
19.0222
  0
LINE
  8
0
 10
72.5612
 20
19.0222
 11
72.4722
 21
18.8928
  0
LINE
  8
0
 10
72.4722
 20
18.8928
 11
72.3766
 21
18.7682
  0
LINE
  8
0
 10
72.3766
 20
18.7682
 11
72.2746
 21
18.6487
  0
LINE
  8
0
 10
72.2746
 20
18.6487
 11
72.1665
 21
18.5348
  0
LINE
  8
0
 10
72.1665
 20
18.5348
 11
72.0525
 21
18.4267
  0
LINE
  8
0
 10
72.0525
 20
18.4267
 11
71.9331
 21
18.3247
  0
LINE
  8
0
 10
71.9331
 20
18.3247
 11
71.8085
 21
18.2291
  0
LINE
  8
0
 10
71.8085
 20
18.2291
 11
71.679
 21
18.1401
  0
LINE
  8
0
 10
71.679
 20
18.1401
 11
71.5452
 21
18.0581
  0
LINE
  8
0
 10
71.5452
 20
18.0581
 11
71.4071
 21
17.9831
  0
LINE
  8
0
 10
71.4071
 20
17.9831
 11
71.2654
 21
17.9155
  0
LINE
  8
0
 10
71.2654
 20
17.9155
 11
71.1202
 21
17.8554
  0
LINE
  8
0
 10
71.1202
 20
17.8554
 11
70.9722
 21
17.8029
  0
LINE
  8
0
 10
70.9722
 20
17.8029
 11
70.8216
 21
17.7583
  0
LINE
  8
0
 10
70.8216
 20
17.7583
 11
46.8179
 21
12.075
  0
LINE
  8
0
 10
46.8179
 20
12.075
 11
46.6635
 21
12.0463
  0
LINE
  8
0
 10
46.6635
 20
12.0463
 11
46.5078
 21
12.0258
  0
LINE
  8
0
 10
46.5078
 20
12.0258
 11
46.3512
 21
12.0135
  0
LINE
  8
0
 10
46.3512
 20
12.0135
 11
46.1942
 21
12.0094
  0
LINE
  8
0
 10
46.1942
 20
12.0094
 11
46.0372
 21
12.0135
  0
LINE
  8
0
 10
-85.69
 20
23.0197
 11
-82.9903
 21
23.5935
  0
LINE
  8
0
 10
-82.9903
 20
23.5935
 11
-80.5951
 21
12.3253
  0
LINE
  8
0
 10
-80.5951
 20
12.3253
 11
-83.2948
 21
11.7514
  0
LINE
  8
0
 10
-83.2948
 20
11.7514
 11
-85.69
 21
23.0197
  0
LINE
  8
0
 10
78.6405
 20
21.5213
 11
80.8733
 21
23.1436
  0
LINE
  8
0
 10
80.8733
 20
23.1436
 11
87.6446
 21
13.8237
  0
LINE
  8
0
 10
87.6446
 20
13.8237
 11
85.4117
 21
12.2014
  0
LINE
  8
0
 10
85.4117
 20
12.2014
 11
78.6405
 21
21.5213
  0
LINE
  8
0
 10
-87.6268
 20
13.9366
 11
-85.0018
 21
14.7894
  0
LINE
  8
0
 10
-85.0018
 20
14.7894
 11
-81.442
 21
3.83327
  0
LINE
  8
0
 10
-81.442
 20
3.83327
 11
-84.0669
 21
2.98038
  0
LINE
  8
0
 10
-84.0669
 20
2.98038
 11
-87.6268
 21
13.9366
  0
LINE
  8
0
 10
80.4592
 20
13.1832
 11
82.8495
 21
14.5632
  0
LINE
  8
0
 10
82.8495
 20
14.5632
 11
88.6095
 21
4.58661
  0
LINE
  8
0
 10
88.6095
 20
4.58661
 11
86.2192
 21
3.2066
  0
LINE
  8
0
 10
86.2192
 20
3.2066
 11
80.4592
 21
13.1832
  0
LINE
  8
0
 10
-88.6035
 20
4.70071
 11
-86.0821
 21
5.8233
  0
LINE
  8
0
 10
-86.0821
 20
5.8233
 11
-81.3965
 21
-4.70071
  0
LINE
  8
0
 10
-81.3965
 20
-4.70071
 11
-83.9179
 21
-5.8233
  0
LINE
  8
0
 10
-83.9179
 20
-5.8233
 11
-88.6035
 21
4.70071
  0
LINE
  8
0
 10
81.3965
 20
4.70071
 11
83.9179
 21
5.8233
  0
LINE
  8
0
 10
83.9179
 20
5.8233
 11
88.6035
 21
-4.70071
  0
LINE
  8
0
 10
88.6035
 20
-4.70071
 11
86.0821
 21
-5.8233
  0
LINE
  8
0
 10
86.0821
 20
-5.8233
 11
81.3965
 21
4.70071
  0
LINE
  8
0
 10
-0.234451
 20
-4.47385
 11
-0.468277
 21
-4.45544
  0
LINE
  8
0
 10
-0.468277
 20
-4.45544
 11
-0.700821
 21
-4.42484
  0
LINE
  8
0
 10
-0.700821
 20
-4.42484
 11
-0.931442
 21
-4.3821
  0
LINE
  8
0
 10
-0.931442
 20
-4.3821
 11
-1.1595
 21
-4.32735
  0
LINE
  8
0
 10
-1.1595
 20
-4.32735
 11
-1.38438
 21
-4.26073
  0
LINE
  8
0
 10
-1.38438
 20
-4.26073
 11
-1.60548
 21
-4.18243
  0
LINE
  8
0
 10
-1.60548
 20
-4.18243
 11
-1.82217
 21
-4.09268
  0
LINE
  8
0
 10
-1.82217
 20
-4.09268
 11
-2.03387
 21
-3.9917
  0
LINE
  8
0
 10
-2.03387
 20
-3.9917
 11
-2.23999
 21
-3.87979
  0
LINE
  8
0
 10
-2.23999
 20
-3.87979
 11
-2.43997
 21
-3.75723
  0
LINE
  8
0
 10
-2.43997
 20
-3.75723
 11
-2.63327
 21
-3.62439
  0
LINE
  8
0
 10
-2.63327
 20
-3.62439
 11
-2.81935
 21
-3.48161
  0
LINE
  8
0
 10
-2.81935
 20
-3.48161
 11
-2.9977
 21
-3.32928
  0
LINE
  8
0
 10
-2.9977
 20
-3.32928
 11
-3.16783
 21
-3.16783
  0
LINE
  8
0
 10
-3.16783
 20
-3.16783
 11
-3.32928
 21
-2.9977
  0
LINE
  8
0
 10
-3.32928
 20
-2.9977
 11
-3.48161
 21
-2.81935
  0
LINE
  8
0
 10
-3.48161
 20
-2.81935
 11
-3.62439
 21
-2.63327
  0
LINE
  8
0
 10
-3.62439
 20
-2.63327
 11
-3.75723
 21
-2.43997
  0
LINE
  8
0
 10
-3.75723
 20
-2.43997
 11
-3.87979
 21
-2.23999
  0
LINE
  8
0
 10
-3.87979
 20
-2.23999
 11
-3.9917
 21
-2.03387
  0
LINE
  8
0
 10
-3.9917
 20
-2.03387
 11
-4.09268
 21
-1.82217
  0
LINE
  8
0
 10
-4.09268
 20
-1.82217
 11
-4.18243
 21
-1.60548
  0
LINE
  8
0
 10
-4.18243
 20
-1.60548
 11
-4.26073
 21
-1.38438
  0
LINE
  8
0
 10
-4.26073
 20
-1.38438
 11
-4.32735
 21
-1.1595
  0
LINE
  8
0
 10
-4.32735
 20
-1.1595
 11
-4.3821
 21
-0.931442
  0
LINE
  8
0
 10
-4.3821
 20
-0.931442
 11
-4.42484
 21
-0.700821
  0
LINE
  8
0
 10
-4.42484
 20
-0.700821
 11
-4.45544
 21
-0.468277
  0
LINE
  8
0
 10
-4.45544
 20
-0.468277
 11
-4.47385
 21
-0.234451
  0
LINE
  8
0
 10
-4.47385
 20
-0.234451
 11
-4.48
 21
0
  0
LINE
  8
0
 10
-4.48
 20
0
 11
-4.47385
 21
0.234451
  0
LINE
  8
0
 10
-4.47385
 20
0.234451
 11
-4.45544
 21
0.468277
  0
LINE
  8
0
 10
-4.45544
 20
0.468277
 11
-4.42484
 21
0.700821
  0
LINE
  8
0
 10
-4.42484
 20
0.700821
 11
-4.3821
 21
0.931442
  0
LINE
  8
0
 10
-4.3821
 20
0.931442
 11
-4.32735
 21
1.1595
  0
LINE
  8
0
 10
-4.32735
 20
1.1595
 11
-4.26073
 21
1.38438
  0
LINE
  8
0
 10
-4.26073
 20
1.38438
 11
-4.18243
 21
1.60548
  0
LINE
  8
0
 10
-4.18243
 20
1.60548
 11
-4.09268
 21
1.82217
  0
LINE
  8
0
 10
-4.09268
 20
1.82217
 11
-3.9917
 21
2.03387
  0
LINE
  8
0
 10
-3.9917
 20
2.03387
 11
-3.87979
 21
2.23999
  0
LINE
  8
0
 10
-3.87979
 20
2.23999
 11
-3.75723
 21
2.43997
  0
LINE
  8
0
 10
-3.75723
 20
2.43997
 11
-3.62439
 21
2.63327
  0
LINE
  8
0
 10
-3.62439
 20
2.63327
 11
-3.48161
 21
2.81935
  0
LINE
  8
0
 10
-3.48161
 20
2.81935
 11
-3.32928
 21
2.9977
  0
LINE
  8
0
 10
-3.32928
 20
2.9977
 11
-3.16783
 21
3.16783
  0
LINE
  8
0
 10
-3.16783
 20
3.16783
 11
-2.9977
 21
3.32928
  0
LINE
  8
0
 10
-2.9977
 20
3.32928
 11
-2.81935
 21
3.48161
  0
LINE
  8
0
 10
-2.81935
 20
3.48161
 11
-2.63327
 21
3.62439
  0
LINE
  8
0
 10
-2.63327
 20
3.62439
 11
-2.43997
 21
3.75723
  0
LINE
  8
0
 10
-2.43997
 20
3.75723
 11
-2.23999
 21
3.87979
  0
LINE
  8
0
 10
-2.23999
 20
3.87979
 11
-2.03387
 21
3.9917
  0
LINE
  8
0
 10
-2.03387
 20
3.9917
 11
-1.82217
 21
4.09268
  0
LINE
  8
0
 10
-1.82217
 20
4.09268
 11
-1.60548
 21
4.18243
  0
LINE
  8
0
 10
-1.60548
 20
4.18243
 11
-1.38438
 21
4.26073
  0
LINE
  8
0
 10
-1.38438
 20
4.26073
 11
-1.1595
 21
4.32735
  0
LINE
  8
0
 10
-1.1595
 20
4.32735
 11
-0.931442
 21
4.3821
  0
LINE
  8
0
 10
-0.931442
 20
4.3821
 11
-0.700821
 21
4.42484
  0
LINE
  8
0
 10
-0.700821
 20
4.42484
 11
-0.468277
 21
4.45544
  0
LINE
  8
0
 10
-0.468277
 20
4.45544
 11
-0.234451
 21
4.47385
  0
LINE
  8
0
 10
-0.234451
 20
4.47385
 11
0
 21
4.48
  0
LINE
  8
0
 10
0
 20
4.48
 11
0.234451
 21
4.47385
  0
LINE
  8
0
 10
0.234451
 20
4.47385
 11
0.468277
 21
4.45544
  0
LINE
  8
0
 10
0.468277
 20
4.45544
 11
0.700821
 21
4.42484
  0
LINE
  8
0
 10
0.700821
 20
4.42484
 11
0.931442
 21
4.3821
  0
LINE
  8
0
 10
0.931442
 20
4.3821
 11
1.1595
 21
4.32735
  0
LINE
  8
0
 10
1.1595
 20
4.32735
 11
1.38438
 21
4.26073
  0
LINE
  8
0
 10
1.38438
 20
4.26073
 11
1.60548
 21
4.18243
  0
LINE
  8
0
 10
1.60548
 20
4.18243
 11
1.82217
 21
4.09268
  0
LINE
  8
0
 10
1.82217
 20
4.09268
 11
2.03387
 21
3.9917
  0
LINE
  8
0
 10
2.03387
 20
3.9917
 11
2.23999
 21
3.87979
  0
LINE
  8
0
 10
2.23999
 20
3.87979
 11
2.43997
 21
3.75723
  0
LINE
  8
0
 10
2.43997
 20
3.75723
 11
2.63327
 21
3.62439
  0
LINE
  8
0
 10
2.63327
 20
3.62439
 11
2.81935
 21
3.48161
  0
LINE
  8
0
 10
2.81935
 20
3.48161
 11
2.9977
 21
3.32928
  0
LINE
  8
0
 10
2.9977
 20
3.32928
 11
3.16783
 21
3.16783
  0
LINE
  8
0
 10
3.16783
 20
3.16783
 11
3.32928
 21
2.9977
  0
LINE
  8
0
 10
3.32928
 20
2.9977
 11
3.48161
 21
2.81935
  0
LINE
  8
0
 10
3.48161
 20
2.81935
 11
3.62439
 21
2.63327
  0
LINE
  8
0
 10
3.62439
 20
2.63327
 11
3.75723
 21
2.43997
  0
LINE
  8
0
 10
3.75723
 20
2.43997
 11
3.87979
 21
2.23999
  0
LINE
  8
0
 10
3.87979
 20
2.23999
 11
3.9917
 21
2.03387
  0
LINE
  8
0
 10
3.9917
 20
2.03387
 11
4.09268
 21
1.82217
  0
LINE
  8
0
 10
4.09268
 20
1.82217
 11
4.18243
 21
1.60548
  0
LINE
  8
0
 10
4.18243
 20
1.60548
 11
4.26073
 21
1.38438
  0
LINE
  8
0
 10
4.26073
 20
1.38438
 11
4.32735
 21
1.1595
  0
LINE
  8
0
 10
4.32735
 20
1.1595
 11
4.3821
 21
0.931442
  0
LINE
  8
0
 10
4.3821
 20
0.931442
 11
4.42484
 21
0.700821
  0
LINE
  8
0
 10
4.42484
 20
0.700821
 11
4.45544
 21
0.468277
  0
LINE
  8
0
 10
4.45544
 20
0.468277
 11
4.47385
 21
0.234451
  0
LINE
  8
0
 10
4.47385
 20
0.234451
 11
4.48
 21
0
  0
LINE
  8
0
 10
4.48
 20
0
 11
4.47385
 21
-0.234451
  0
LINE
  8
0
 10
4.47385
 20
-0.234451
 11
4.45544
 21
-0.468277
  0
LINE
  8
0
 10
4.45544
 20
-0.468277
 11
4.42484
 21
-0.700821
  0
LINE
  8
0
 10
4.42484
 20
-0.700821
 11
4.3821
 21
-0.931442
  0
LINE
  8
0
 10
4.3821
 20
-0.931442
 11
4.32735
 21
-1.1595
  0
LINE
  8
0
 10
4.32735
 20
-1.1595
 11
4.26073
 21
-1.38438
  0
LINE
  8
0
 10
4.26073
 20
-1.38438
 11
4.18243
 21
-1.60548
  0
LINE
  8
0
 10
4.18243
 20
-1.60548
 11
4.09268
 21
-1.82217
  0
LINE
  8
0
 10
4.09268
 20
-1.82217
 11
3.9917
 21
-2.03387
  0
LINE
  8
0
 10
3.9917
 20
-2.03387
 11
3.87979
 21
-2.23999
  0
LINE
  8
0
 10
3.87979
 20
-2.23999
 11
3.75723
 21
-2.43997
  0
LINE
  8
0
 10
3.75723
 20
-2.43997
 11
3.62439
 21
-2.63327
  0
LINE
  8
0
 10
3.62439
 20
-2.63327
 11
3.48161
 21
-2.81935
  0
LINE
  8
0
 10
3.48161
 20
-2.81935
 11
3.32928
 21
-2.9977
  0
LINE
  8
0
 10
3.32928
 20
-2.9977
 11
3.16783
 21
-3.16783
  0
LINE
  8
0
 10
3.16783
 20
-3.16783
 11
2.9977
 21
-3.32928
  0
LINE
  8
0
 10
2.9977
 20
-3.32928
 11
2.81935
 21
-3.48161
  0
LINE
  8
0
 10
2.81935
 20
-3.48161
 11
2.63327
 21
-3.62439
  0
LINE
  8
0
 10
2.63327
 20
-3.62439
 11
2.43997
 21
-3.75723
  0
LINE
  8
0
 10
2.43997
 20
-3.75723
 11
2.23999
 21
-3.87979
  0
LINE
  8
0
 10
2.23999
 20
-3.87979
 11
2.03387
 21
-3.9917
  0
LINE
  8
0
 10
2.03387
 20
-3.9917
 11
1.82217
 21
-4.09268
  0
LINE
  8
0
 10
1.82217
 20
-4.09268
 11
1.60548
 21
-4.18243
  0
LINE
  8
0
 10
1.60548
 20
-4.18243
 11
1.38438
 21
-4.26073
  0
LINE
  8
0
 10
1.38438
 20
-4.26073
 11
1.1595
 21
-4.32735
  0
LINE
  8
0
 10
1.1595
 20
-4.32735
 11
0.931442
 21
-4.3821
  0
LINE
  8
0
 10
0.931442
 20
-4.3821
 11
0.700821
 21
-4.42484
  0
LINE
  8
0
 10
0.700821
 20
-4.42484
 11
0.468277
 21
-4.45544
  0
LINE
  8
0
 10
0.468277
 20
-4.45544
 11
0.234451
 21
-4.47385
  0
LINE
  8
0
 10
0.234451
 20
-4.47385
 11
0
 21
-4.48
  0
LINE
  8
0
 10
0
 20
-4.48
 11
-0.234451
 21
-4.47385
  0
LINE
  8
0
 10
72.234
 20
-12.6155
 11
72.0775
 21
-12.6032
  0
LINE
  8
0
 10
72.0775
 20
-12.6032
 11
71.9217
 21
-12.5827
  0
LINE
  8
0
 10
71.9217
 20
-12.5827
 11
47.6816
 21
-8.01152
  0
LINE
  8
0
 10
47.6816
 20
-8.01152
 11
47.5289
 21
-7.97485
  0
LINE
  8
0
 10
47.5289
 20
-7.97485
 11
47.3783
 21
-7.93025
  0
LINE
  8
0
 10
47.3783
 20
-7.93025
 11
47.2302
 21
-7.87782
  0
LINE
  8
0
 10
47.2302
 20
-7.87782
 11
47.0851
 21
-7.81772
  0
LINE
  8
0
 10
47.0851
 20
-7.81772
 11
46.9434
 21
-7.75011
  0
LINE
  8
0
 10
46.9434
 20
-7.75011
 11
46.8053
 21
-7.67516
  0
LINE
  8
0
 10
46.8053
 20
-7.67516
 11
46.6714
 21
-7.59309
  0
LINE
  8
0
 10
46.6714
 20
-7.59309
 11
46.542
 21
-7.50414
  0
LINE
  8
0
 10
46.542
 20
-7.50414
 11
46.4174
 21
-7.40852
  0
LINE
  8
0
 10
46.4174
 20
-7.40852
 11
46.2979
 21
-7.30652
  0
LINE
  8
0
 10
46.2979
 20
-7.30652
 11
46.184
 21
-7.19841
  0
LINE
  8
0
 10
46.184
 20
-7.19841
 11
46.0759
 21
-7.08447
  0
LINE
  8
0
 10
46.0759
 20
-7.08447
 11
45.9739
 21
-6.96504
  0
LINE
  8
0
 10
45.9739
 20
-6.96504
 11
45.8783
 21
-6.84044
  0
LINE
  8
0
 10
45.8783
 20
-6.84044
 11
45.7893
 21
-6.711
  0
LINE
  8
0
 10
45.7893
 20
-6.711
 11
45.7072
 21
-6.57709
  0
LINE
  8
0
 10
45.7072
 20
-6.57709
 11
45.6323
 21
-6.43906
  0
LINE
  8
0
 10
45.6323
 20
-6.43906
 11
45.5647
 21
-6.29729
  0
LINE
  8
0
 10
45.5647
 20
-6.29729
 11
45.5046
 21
-6.15219
  0
LINE
  8
0
 10
45.5046
 20
-6.15219
 11
45.4522
 21
-6.00414
  0
LINE
  8
0
 10
45.4522
 20
-6.00414
 11
45.4075
 21
-5.85355
  0
LINE
  8
0
 10
45.4075
 20
-5.85355
 11
45.3709
 21
-5.70082
  0
LINE
  8
0
 10
45.3709
 20
-5.70082
 11
45.3423
 21
-5.54637
  0
LINE
  8
0
 10
45.3423
 20
-5.54637
 11
45.3218
 21
-5.39067
  0
LINE
  8
0
 10
45.3218
 20
-5.39067
 11
45.3094
 21
-5.23409
  0
LINE
  8
0
 10
45.3094
 20
-5.23409
 11
45.3053
 21
-5.07709
  0
LINE
  8
0
 10
45.3053
 20
-5.07709
 11
45.3094
 21
-4.92007
  0
LINE
  8
0
 10
45.3094
 20
-4.92007
 11
45.3218
 21
-4.7635
  0
LINE
  8
0
 10
45.3218
 20
-4.7635
 11
45.3423
 21
-4.60779
  0
LINE
  8
0
 10
45.3423
 20
-4.60779
 11
45.3709
 21
-4.45335
  0
LINE
  8
0
 10
45.3709
 20
-4.45335
 11
45.4075
 21
-4.30063
  0
LINE
  8
0
 10
45.4075
 20
-4.30063
 11
45.4522
 21
-4.15004
  0
LINE
  8
0
 10
45.4522
 20
-4.15004
 11
45.5046
 21
-4.002
  0
LINE
  8
0
 10
45.5046
 20
-4.002
 11
45.5647
 21
-3.85689
  0
LINE
  8
0
 10
45.5647
 20
-3.85689
 11
45.6323
 21
-3.71512
  0
LINE
  8
0
 10
45.6323
 20
-3.71512
 11
45.7072
 21
-3.5771
  0
LINE
  8
0
 10
45.7072
 20
-3.5771
 11
45.7893
 21
-3.44318
  0
LINE
  8
0
 10
45.7893
 20
-3.44318
 11
45.8783
 21
-3.31375
  0
LINE
  8
0
 10
45.8783
 20
-3.31375
 11
45.9739
 21
-3.18913
  0
LINE
  8
0
 10
45.9739
 20
-3.18913
 11
46.0759
 21
-3.0697
  0
LINE
  8
0
 10
46.0759
 20
-3.0697
 11
46.184
 21
-2.95578
  0
LINE
  8
0
 10
46.184
 20
-2.95578
 11
46.2979
 21
-2.84766
  0
LINE
  8
0
 10
46.2979
 20
-2.84766
 11
46.4174
 21
-2.74567
  0
LINE
  8
0
 10
46.4174
 20
-2.74567
 11
46.542
 21
-2.65004
  0
LINE
  8
0
 10
46.542
 20
-2.65004
 11
46.6714
 21
-2.56108
  0
LINE
  8
0
 10
46.6714
 20
-2.56108
 11
46.8053
 21
-2.47902
  0
LINE
  8
0
 10
46.8053
 20
-2.47902
 11
46.9434
 21
-2.40407
  0
LINE
  8
0
 10
46.9434
 20
-2.40407
 11
47.0851
 21
-2.33646
  0
LINE
  8
0
 10
47.0851
 20
-2.33646
 11
47.2302
 21
-2.27635
  0
LINE
  8
0
 10
47.2302
 20
-2.27635
 11
47.3783
 21
-2.22392
  0
LINE
  8
0
 10
47.3783
 20
-2.22392
 11
47.5289
 21
-2.17932
  0
LINE
  8
0
 10
47.5289
 20
-2.17932
 11
47.6816
 21
-2.14265
  0
LINE
  8
0
 10
47.6816
 20
-2.14265
 11
47.836
 21
-2.11403
  0
LINE
  8
0
 10
47.836
 20
-2.11403
 11
47.9918
 21
-2.09354
  0
LINE
  8
0
 10
47.9918
 20
-2.09354
 11
48.1483
 21
-2.08121
  0
LINE
  8
0
 10
48.1483
 20
-2.08121
 11
48.3053
 21
-2.0771
  0
LINE
  8
0
 10
48.3053
 20
-2.0771
 11
72.9662
 21
-2.64565
  0
LINE
  8
0
 10
72.9662
 20
-2.64565
 11
73.1227
 21
-2.65796
  0
LINE
  8
0
 10
73.1227
 20
-2.65796
 11
73.2784
 21
-2.67847
  0
LINE
  8
0
 10
73.2784
 20
-2.67847
 11
73.4329
 21
-2.70709
  0
LINE
  8
0
 10
73.4329
 20
-2.70709
 11
73.5856
 21
-2.74376
  0
LINE
  8
0
 10
73.5856
 20
-2.74376
 11
73.7362
 21
-2.78836
  0
LINE
  8
0
 10
73.7362
 20
-2.78836
 11
73.8842
 21
-2.84079
  0
LINE
  8
0
 10
73.8842
 20
-2.84079
 11
74.0294
 21
-2.90089
  0
LINE
  8
0
 10
74.0294
 20
-2.90089
 11
74.1711
 21
-2.96851
  0
LINE
  8
0
 10
74.1711
 20
-2.96851
 11
74.3091
 21
-3.04346
  0
LINE
  8
0
 10
74.3091
 20
-3.04346
 11
74.4431
 21
-3.12552
  0
LINE
  8
0
 10
74.4431
 20
-3.12552
 11
74.5725
 21
-3.21448
  0
LINE
  8
0
 10
74.5725
 20
-3.21448
 11
74.6971
 21
-3.31009
  0
LINE
  8
0
 10
74.6971
 20
-3.31009
 11
74.8165
 21
-3.41209
  0
LINE
  8
0
 10
74.8165
 20
-3.41209
 11
74.9305
 21
-3.5202
  0
LINE
  8
0
 10
74.9305
 20
-3.5202
 11
75.0386
 21
-3.63414
  0
LINE
  8
0
 10
75.0386
 20
-3.63414
 11
75.1406
 21
-3.75357
  0
LINE
  8
0
 10
75.1406
 20
-3.75357
 11
75.2362
 21
-3.87817
  0
LINE
  8
0
 10
75.2362
 20
-3.87817
 11
75.3251
 21
-4.00761
  0
LINE
  8
0
 10
75.3251
 20
-4.00761
 11
75.4072
 21
-4.14153
  0
LINE
  8
0
 10
75.4072
 20
-4.14153
 11
75.4822
 21
-4.27956
  0
LINE
  8
0
 10
75.4822
 20
-4.27956
 11
75.5498
 21
-4.42131
  0
LINE
  8
0
 10
75.5498
 20
-4.42131
 11
75.6099
 21
-4.56642
  0
LINE
  8
0
 10
75.6099
 20
-4.56642
 11
75.6623
 21
-4.71448
  0
LINE
  8
0
 10
75.6623
 20
-4.71448
 11
75.7069
 21
-4.86507
  0
LINE
  8
0
 10
75.7069
 20
-4.86507
 11
75.7436
 21
-5.01779
  0
LINE
  8
0
 10
75.7436
 20
-5.01779
 11
75.7722
 21
-5.17224
  0
LINE
  8
0
 10
75.7722
 20
-5.17224
 11
75.7927
 21
-5.32794
  0
LINE
  8
0
 10
75.7927
 20
-5.32794
 11
75.805
 21
-5.48453
  0
LINE
  8
0
 10
75.805
 20
-5.48453
 11
75.8091
 21
-5.64153
  0
LINE
  8
0
 10
75.8091
 20
-5.64153
 11
75.805
 21
-5.79854
  0
LINE
  8
0
 10
75.805
 20
-5.79854
 11
75.7927
 21
-5.95511
  0
LINE
  8
0
 10
75.7927
 20
-5.95511
 11
75.3746
 21
-9.9332
  0
LINE
  8
0
 10
75.3746
 20
-9.9332
 11
75.3541
 21
-10.0889
  0
LINE
  8
0
 10
75.3541
 20
-10.0889
 11
75.3255
 21
-10.2433
  0
LINE
  8
0
 10
75.3255
 20
-10.2433
 11
75.2888
 21
-10.3961
  0
LINE
  8
0
 10
75.2888
 20
-10.3961
 11
75.2442
 21
-10.5467
  0
LINE
  8
0
 10
75.2442
 20
-10.5467
 11
75.1918
 21
-10.6947
  0
LINE
  8
0
 10
75.1918
 20
-10.6947
 11
75.1317
 21
-10.8398
  0
LINE
  8
0
 10
75.1317
 20
-10.8398
 11
75.064
 21
-10.9816
  0
LINE
  8
0
 10
75.064
 20
-10.9816
 11
74.9891
 21
-11.1196
  0
LINE
  8
0
 10
74.9891
 20
-11.1196
 11
74.907
 21
-11.2535
  0
LINE
  8
0
 10
74.907
 20
-11.2535
 11
74.8181
 21
-11.3829
  0
LINE
  8
0
 10
74.8181
 20
-11.3829
 11
74.7225
 21
-11.5076
  0
LINE
  8
0
 10
74.7225
 20
-11.5076
 11
74.6205
 21
-11.627
  0
LINE
  8
0
 10
74.6205
 20
-11.627
 11
74.5124
 21
-11.7409
  0
LINE
  8
0
 10
74.5124
 20
-11.7409
 11
74.3984
 21
-11.849
  0
LINE
  8
0
 10
74.3984
 20
-11.849
 11
74.279
 21
-11.951
  0
LINE
  8
0
 10
74.279
 20
-11.951
 11
74.1544
 21
-12.0467
  0
LINE
  8
0
 10
74.1544
 20
-12.0467
 11
74.0249
 21
-12.1356
  0
LINE
  8
0
 10
74.0249
 20
-12.1356
 11
73.891
 21
-12.2177
  0
LINE
  8
0
 10
73.891
 20
-12.2177
 11
73.753
 21
-12.2926
  0
LINE
  8
0
 10
73.753
 20
-12.2926
 11
73.6113
 21
-12.3602
  0
LINE
  8
0
 10
73.6113
 20
-12.3602
 11
73.4661
 21
-12.4203
  0
LINE
  8
0
 10
73.4661
 20
-12.4203
 11
73.3181
 21
-12.4728
  0
LINE
  8
0
 10
73.3181
 20
-12.4728
 11
73.1675
 21
-12.5174
  0
LINE
  8
0
 10
73.1675
 20
-12.5174
 11
73.0148
 21
-12.554
  0
LINE
  8
0
 10
73.0148
 20
-12.554
 11
72.8603
 21
-12.5827
  0
LINE
  8
0
 10
72.8603
 20
-12.5827
 11
72.7046
 21
-12.6032
  0
LINE
  8
0
 10
72.7046
 20
-12.6032
 11
72.548
 21
-12.6155
  0
LINE
  8
0
 10
72.548
 20
-12.6155
 11
72.391
 21
-12.6196
  0
LINE
  8
0
 10
72.391
 20
-12.6196
 11
72.234
 21
-12.6155
  0
LINE
  8
0
 10
-72.548
 20
-12.6155
 11
-72.7046
 21
-12.6032
  0
LINE
  8
0
 10
-72.7046
 20
-12.6032
 11
-72.8603
 21
-12.5827
  0
LINE
  8
0
 10
-72.8603
 20
-12.5827
 11
-73.0148
 21
-12.554
  0
LINE
  8
0
 10
-73.0148
 20
-12.554
 11
-73.1675
 21
-12.5174
  0
LINE
  8
0
 10
-73.1675
 20
-12.5174
 11
-73.3181
 21
-12.4728
  0
LINE
  8
0
 10
-73.3181
 20
-12.4728
 11
-73.4661
 21
-12.4203
  0
LINE
  8
0
 10
-73.4661
 20
-12.4203
 11
-73.6113
 21
-12.3602
  0
LINE
  8
0
 10
-73.6113
 20
-12.3602
 11
-73.753
 21
-12.2926
  0
LINE
  8
0
 10
-73.753
 20
-12.2926
 11
-73.891
 21
-12.2177
  0
LINE
  8
0
 10
-73.891
 20
-12.2177
 11
-74.0249
 21
-12.1356
  0
LINE
  8
0
 10
-74.0249
 20
-12.1356
 11
-74.1544
 21
-12.0467
  0
LINE
  8
0
 10
-74.1544
 20
-12.0467
 11
-74.279
 21
-11.951
  0
LINE
  8
0
 10
-74.279
 20
-11.951
 11
-74.3984
 21
-11.849
  0
LINE
  8
0
 10
-74.3984
 20
-11.849
 11
-74.5124
 21
-11.7409
  0
LINE
  8
0
 10
-74.5124
 20
-11.7409
 11
-74.6205
 21
-11.627
  0
LINE
  8
0
 10
-74.6205
 20
-11.627
 11
-74.7225
 21
-11.5076
  0
LINE
  8
0
 10
-74.7225
 20
-11.5076
 11
-74.8181
 21
-11.383
  0
LINE
  8
0
 10
-74.8181
 20
-11.383
 11
-74.907
 21
-11.2535
  0
LINE
  8
0
 10
-74.907
 20
-11.2535
 11
-74.9891
 21
-11.1196
  0
LINE
  8
0
 10
-74.9891
 20
-11.1196
 11
-75.064
 21
-10.9816
  0
LINE
  8
0
 10
-75.064
 20
-10.9816
 11
-75.1317
 21
-10.8398
  0
LINE
  8
0
 10
-75.1317
 20
-10.8398
 11
-75.1918
 21
-10.6947
  0
LINE
  8
0
 10
-75.1918
 20
-10.6947
 11
-75.2442
 21
-10.5467
  0
LINE
  8
0
 10
-75.2442
 20
-10.5467
 11
-75.2888
 21
-10.3961
  0
LINE
  8
0
 10
-75.2888
 20
-10.3961
 11
-75.3255
 21
-10.2433
  0
LINE
  8
0
 10
-75.3255
 20
-10.2433
 11
-75.3541
 21
-10.0889
  0
LINE
  8
0
 10
-75.3541
 20
-10.0889
 11
-75.3746
 21
-9.9332
  0
LINE
  8
0
 10
-75.3746
 20
-9.9332
 11
-75.7927
 21
-5.95511
  0
LINE
  8
0
 10
-75.7927
 20
-5.95511
 11
-75.805
 21
-5.79854
  0
LINE
  8
0
 10
-75.805
 20
-5.79854
 11
-75.8091
 21
-5.64153
  0
LINE
  8
0
 10
-75.8091
 20
-5.64153
 11
-75.805
 21
-5.48453
  0
LINE
  8
0
 10
-75.805
 20
-5.48453
 11
-75.7927
 21
-5.32794
  0
LINE
  8
0
 10
-75.7927
 20
-5.32794
 11
-75.7722
 21
-5.17224
  0
LINE
  8
0
 10
-75.7722
 20
-5.17224
 11
-75.7436
 21
-5.01779
  0
LINE
  8
0
 10
-75.7436
 20
-5.01779
 11
-75.7069
 21
-4.86507
  0
LINE
  8
0
 10
-75.7069
 20
-4.86507
 11
-75.6623
 21
-4.71448
  0
LINE
  8
0
 10
-75.6623
 20
-4.71448
 11
-75.6099
 21
-4.56642
  0
LINE
  8
0
 10
-75.6099
 20
-4.56642
 11
-75.5498
 21
-4.42133
  0
LINE
  8
0
 10
-75.5498
 20
-4.42133
 11
-75.4822
 21
-4.27956
  0
LINE
  8
0
 10
-75.4822
 20
-4.27956
 11
-75.4072
 21
-4.14153
  0
LINE
  8
0
 10
-75.4072
 20
-4.14153
 11
-75.3251
 21
-4.00761
  0
LINE
  8
0
 10
-75.3251
 20
-4.00761
 11
-75.2362
 21
-3.87817
  0
LINE
  8
0
 10
-75.2362
 20
-3.87817
 11
-75.1406
 21
-3.75357
  0
LINE
  8
0
 10
-75.1406
 20
-3.75357
 11
-75.0386
 21
-3.63414
  0
LINE
  8
0
 10
-75.0386
 20
-3.63414
 11
-74.9305
 21
-3.5202
  0
LINE
  8
0
 10
-74.9305
 20
-3.5202
 11
-74.8165
 21
-3.41209
  0
LINE
  8
0
 10
-74.8165
 20
-3.41209
 11
-74.6971
 21
-3.31009
  0
LINE
  8
0
 10
-74.6971
 20
-3.31009
 11
-74.5725
 21
-3.21448
  0
LINE
  8
0
 10
-74.5725
 20
-3.21448
 11
-74.4431
 21
-3.12552
  0
LINE
  8
0
 10
-74.4431
 20
-3.12552
 11
-74.3091
 21
-3.04346
  0
LINE
  8
0
 10
-74.3091
 20
-3.04346
 11
-74.1711
 21
-2.96851
  0
LINE
  8
0
 10
-74.1711
 20
-2.96851
 11
-74.0294
 21
-2.90089
  0
LINE
  8
0
 10
-74.0294
 20
-2.90089
 11
-73.8842
 21
-2.84079
  0
LINE
  8
0
 10
-73.8842
 20
-2.84079
 11
-73.7362
 21
-2.78836
  0
LINE
  8
0
 10
-73.7362
 20
-2.78836
 11
-73.5856
 21
-2.74376
  0
LINE
  8
0
 10
-73.5856
 20
-2.74376
 11
-73.4329
 21
-2.70709
  0
LINE
  8
0
 10
-73.4329
 20
-2.70709
 11
-73.2784
 21
-2.67847
  0
LINE
  8
0
 10
-73.2784
 20
-2.67847
 11
-73.1227
 21
-2.65796
  0
LINE
  8
0
 10
-73.1227
 20
-2.65796
 11
-72.9662
 21
-2.64565
  0
LINE
  8
0
 10
-72.9662
 20
-2.64565
 11
-48.3053
 21
-2.0771
  0
LINE
  8
0
 10
-48.3053
 20
-2.0771
 11
-48.1483
 21
-2.08121
  0
LINE
  8
0
 10
-48.1483
 20
-2.08121
 11
-47.9918
 21
-2.09354
  0
LINE
  8
0
 10
-47.9918
 20
-2.09354
 11
-47.836
 21
-2.11403
  0
LINE
  8
0
 10
-47.836
 20
-2.11403
 11
-47.6816
 21
-2.14265
  0
LINE
  8
0
 10
-47.6816
 20
-2.14265
 11
-47.5289
 21
-2.17932
  0
LINE
  8
0
 10
-47.5289
 20
-2.17932
 11
-47.3783
 21
-2.22392
  0
LINE
  8
0
 10
-47.3783
 20
-2.22392
 11
-47.2302
 21
-2.27635
  0
LINE
  8
0
 10
-47.2302
 20
-2.27635
 11
-47.0851
 21
-2.33646
  0
LINE
  8
0
 10
-47.0851
 20
-2.33646
 11
-46.9434
 21
-2.40407
  0
LINE
  8
0
 10
-46.9434
 20
-2.40407
 11
-46.8053
 21
-2.47902
  0
LINE
  8
0
 10
-46.8053
 20
-2.47902
 11
-46.6714
 21
-2.56108
  0
LINE
  8
0
 10
-46.6714
 20
-2.56108
 11
-46.542
 21
-2.65004
  0
LINE
  8
0
 10
-46.542
 20
-2.65004
 11
-46.4174
 21
-2.74567
  0
LINE
  8
0
 10
-46.4174
 20
-2.74567
 11
-46.2979
 21
-2.84766
  0
LINE
  8
0
 10
-46.2979
 20
-2.84766
 11
-46.184
 21
-2.95578
  0
LINE
  8
0
 10
-46.184
 20
-2.95578
 11
-46.0759
 21
-3.0697
  0
LINE
  8
0
 10
-46.0759
 20
-3.0697
 11
-45.9739
 21
-3.18913
  0
LINE
  8
0
 10
-45.9739
 20
-3.18913
 11
-45.8783
 21
-3.31375
  0
LINE
  8
0
 10
-45.8783
 20
-3.31375
 11
-45.7893
 21
-3.44318
  0
LINE
  8
0
 10
-45.7893
 20
-3.44318
 11
-45.7072
 21
-3.5771
  0
LINE
  8
0
 10
-45.7072
 20
-3.5771
 11
-45.6323
 21
-3.71512
  0
LINE
  8
0
 10
-45.6323
 20
-3.71512
 11
-45.5647
 21
-3.85689
  0
LINE
  8
0
 10
-45.5647
 20
-3.85689
 11
-45.5046
 21
-4.002
  0
LINE
  8
0
 10
-45.5046
 20
-4.002
 11
-45.4522
 21
-4.15004
  0
LINE
  8
0
 10
-45.4522
 20
-4.15004
 11
-45.4075
 21
-4.30063
  0
LINE
  8
0
 10
-45.4075
 20
-4.30063
 11
-45.3709
 21
-4.45335
  0
LINE
  8
0
 10
-45.3709
 20
-4.45335
 11
-45.3423
 21
-4.60779
  0
LINE
  8
0
 10
-45.3423
 20
-4.60779
 11
-45.3218
 21
-4.7635
  0
LINE
  8
0
 10
-45.3218
 20
-4.7635
 11
-45.3094
 21
-4.92007
  0
LINE
  8
0
 10
-45.3094
 20
-4.92007
 11
-45.3053
 21
-5.07709
  0
LINE
  8
0
 10
-45.3053
 20
-5.07709
 11
-45.3094
 21
-5.23409
  0
LINE
  8
0
 10
-45.3094
 20
-5.23409
 11
-45.3218
 21
-5.39067
  0
LINE
  8
0
 10
-45.3218
 20
-5.39067
 11
-45.3423
 21
-5.54637
  0
LINE
  8
0
 10
-45.3423
 20
-5.54637
 11
-45.3709
 21
-5.70082
  0
LINE
  8
0
 10
-45.3709
 20
-5.70082
 11
-45.4075
 21
-5.85355
  0
LINE
  8
0
 10
-45.4075
 20
-5.85355
 11
-45.4522
 21
-6.00414
  0
LINE
  8
0
 10
-45.4522
 20
-6.00414
 11
-45.5046
 21
-6.15219
  0
LINE
  8
0
 10
-45.5046
 20
-6.15219
 11
-45.5647
 21
-6.29729
  0
LINE
  8
0
 10
-45.5647
 20
-6.29729
 11
-45.6323
 21
-6.43906
  0
LINE
  8
0
 10
-45.6323
 20
-6.43906
 11
-45.7072
 21
-6.57709
  0
LINE
  8
0
 10
-45.7072
 20
-6.57709
 11
-45.7893
 21
-6.711
  0
LINE
  8
0
 10
-45.7893
 20
-6.711
 11
-45.8783
 21
-6.84044
  0
LINE
  8
0
 10
-45.8783
 20
-6.84044
 11
-45.9739
 21
-6.96504
  0
LINE
  8
0
 10
-45.9739
 20
-6.96504
 11
-46.0759
 21
-7.08447
  0
LINE
  8
0
 10
-46.0759
 20
-7.08447
 11
-46.184
 21
-7.19841
  0
LINE
  8
0
 10
-46.184
 20
-7.19841
 11
-46.2979
 21
-7.30652
  0
LINE
  8
0
 10
-46.2979
 20
-7.30652
 11
-46.4174
 21
-7.40852
  0
LINE
  8
0
 10
-46.4174
 20
-7.40852
 11
-46.542
 21
-7.50414
  0
LINE
  8
0
 10
-46.542
 20
-7.50414
 11
-46.6714
 21
-7.59309
  0
LINE
  8
0
 10
-46.6714
 20
-7.59309
 11
-46.8053
 21
-7.67516
  0
LINE
  8
0
 10
-46.8053
 20
-7.67516
 11
-46.9434
 21
-7.75011
  0
LINE
  8
0
 10
-46.9434
 20
-7.75011
 11
-47.0851
 21
-7.81772
  0
LINE
  8
0
 10
-47.0851
 20
-7.81772
 11
-47.2302
 21
-7.87782
  0
LINE
  8
0
 10
-47.2302
 20
-7.87782
 11
-47.3783
 21
-7.93025
  0
LINE
  8
0
 10
-47.3783
 20
-7.93025
 11
-47.5289
 21
-7.97485
  0
LINE
  8
0
 10
-47.5289
 20
-7.97485
 11
-47.6816
 21
-8.01152
  0
LINE
  8
0
 10
-47.6816
 20
-8.01152
 11
-71.9217
 21
-12.5827
  0
LINE
  8
0
 10
-71.9217
 20
-12.5827
 11
-72.0775
 21
-12.6032
  0
LINE
  8
0
 10
-72.0775
 20
-12.6032
 11
-72.234
 21
-12.6155
  0
LINE
  8
0
 10
-72.234
 20
-12.6155
 11
-72.391
 21
-12.6196
  0
LINE
  8
0
 10
-72.391
 20
-12.6196
 11
-72.548
 21
-12.6155
  0
LINE
  8
0
 10
81.442
 20
-3.83327
 11
84.0669
 21
-2.98038
  0
LINE
  8
0
 10
84.0669
 20
-2.98038
 11
87.6268
 21
-13.9366
  0
LINE
  8
0
 10
87.6268
 20
-13.9366
 11
85.0018
 21
-14.7894
  0
LINE
  8
0
 10
85.0018
 20
-14.7894
 11
81.442
 21
-3.83327
  0
LINE
  8
0
 10
-88.6095
 20
-4.58661
 11
-86.2192
 21
-3.2066
  0
LINE
  8
0
 10
-86.2192
 20
-3.2066
 11
-80.4592
 21
-13.1832
  0
LINE
  8
0
 10
-80.4592
 20
-13.1832
 11
-82.8495
 21
-14.5632
  0
LINE
  8
0
 10
-82.8495
 20
-14.5632
 11
-88.6095
 21
-4.58661
  0
LINE
  8
0
 10
80.5951
 20
-12.3253
 11
83.2948
 21
-11.7514
  0
LINE
  8
0
 10
83.2948
 20
-11.7514
 11
85.69
 21
-23.0197
  0
LINE
  8
0
 10
85.69
 20
-23.0197
 11
82.9903
 21
-23.5935
  0
LINE
  8
0
 10
82.9903
 20
-23.5935
 11
80.5951
 21
-12.3253
  0
LINE
  8
0
 10
-87.6446
 20
-13.8237
 11
-85.4117
 21
-12.2014
  0
LINE
  8
0
 10
-85.4117
 20
-12.2014
 11
-78.6405
 21
-21.5213
  0
LINE
  8
0
 10
-78.6405
 20
-21.5213
 11
-80.8733
 21
-23.1436
  0
LINE
  8
0
 10
-80.8733
 20
-23.1436
 11
-87.6446
 21
-13.8237
  0
LINE
  8
0
 10
78.8653
 20
-20.6822
 11
81.6102
 21
-20.3937
  0
LINE
  8
0
 10
81.6102
 20
-20.3937
 11
82.8143
 21
-31.8506
  0
LINE
  8
0
 10
82.8143
 20
-31.8506
 11
80.0694
 21
-32.1391
  0
LINE
  8
0
 10
80.0694
 20
-32.1391
 11
78.8653
 21
-20.6822
  0
LINE
  8
0
 10
-85.7195
 20
-22.9093
 11
-83.6684
 21
-21.0625
  0
LINE
  8
0
 10
-83.6684
 20
-21.0625
 11
-75.9601
 21
-29.6236
  0
LINE
  8
0
 10
-75.9601
 20
-29.6236
 11
-78.0111
 21
-31.4704
  0
LINE
  8
0
 10
-78.0111
 20
-31.4704
 11
-85.7195
 21
-22.9093
  0
LINE
  8
0
 10
62.0628
 20
-41.2279
 11
61.9062
 21
-41.2156
  0
LINE
  8
0
 10
61.9062
 20
-41.2156
 11
61.7505
 21
-41.1951
  0
LINE
  8
0
 10
61.7505
 20
-41.1951
 11
61.5961
 21
-41.1665
  0
LINE
  8
0
 10
61.5961
 20
-41.1665
 11
61.4434
 21
-41.1298
  0
LINE
  8
0
 10
61.4434
 20
-41.1298
 11
61.2928
 21
-41.0852
  0
LINE
  8
0
 10
61.2928
 20
-41.0852
 11
61.1447
 21
-41.0328
  0
LINE
  8
0
 10
61.1447
 20
-41.0328
 11
60.9996
 21
-40.9727
  0
LINE
  8
0
 10
60.9996
 20
-40.9727
 11
60.8579
 21
-40.905
  0
LINE
  8
0
 10
60.8579
 20
-40.905
 11
60.7198
 21
-40.8301
  0
LINE
  8
0
 10
60.7198
 20
-40.8301
 11
60.5859
 21
-40.748
  0
LINE
  8
0
 10
60.5859
 20
-40.748
 11
40.3007
 21
-26.7127
  0
LINE
  8
0
 10
40.3007
 20
-26.7127
 11
40.1761
 21
-26.6171
  0
LINE
  8
0
 10
40.1761
 20
-26.6171
 11
40.0567
 21
-26.5151
  0
LINE
  8
0
 10
40.0567
 20
-26.5151
 11
39.9428
 21
-26.407
  0
LINE
  8
0
 10
39.9428
 20
-26.407
 11
39.8346
 21
-26.2931
  0
LINE
  8
0
 10
39.8346
 20
-26.2931
 11
39.7327
 21
-26.1737
  0
LINE
  8
0
 10
39.7327
 20
-26.1737
 11
39.637
 21
-26.0491
  0
LINE
  8
0
 10
39.637
 20
-26.0491
 11
39.5481
 21
-25.9196
  0
LINE
  8
0
 10
39.5481
 20
-25.9196
 11
39.466
 21
-25.7857
  0
LINE
  8
0
 10
39.466
 20
-25.7857
 11
39.3911
 21
-25.6477
  0
LINE
  8
0
 10
39.3911
 20
-25.6477
 11
39.3234
 21
-25.5059
  0
LINE
  8
0
 10
39.3234
 20
-25.5059
 11
39.2633
 21
-25.3608
  0
LINE
  8
0
 10
39.2633
 20
-25.3608
 11
39.2109
 21
-25.2128
  0
LINE
  8
0
 10
39.2109
 20
-25.2128
 11
39.1663
 21
-25.0621
  0
LINE
  8
0
 10
39.1663
 20
-25.0621
 11
39.1296
 21
-24.9094
  0
LINE
  8
0
 10
39.1296
 20
-24.9094
 11
39.101
 21
-24.755
  0
LINE
  8
0
 10
39.101
 20
-24.755
 11
39.0805
 21
-24.5993
  0
LINE
  8
0
 10
39.0805
 20
-24.5993
 11
39.0682
 21
-24.4427
  0
LINE
  8
0
 10
39.0682
 20
-24.4427
 11
39.0641
 21
-24.2857
  0
LINE
  8
0
 10
39.0641
 20
-24.2857
 11
39.0682
 21
-24.1287
  0
LINE
  8
0
 10
39.0682
 20
-24.1287
 11
39.0805
 21
-23.9721
  0
LINE
  8
0
 10
39.0805
 20
-23.9721
 11
39.101
 21
-23.8164
  0
LINE
  8
0
 10
39.101
 20
-23.8164
 11
39.1296
 21
-23.662
  0
LINE
  8
0
 10
39.1296
 20
-23.662
 11
39.1663
 21
-23.5092
  0
LINE
  8
0
 10
39.1663
 20
-23.5092
 11
39.2109
 21
-23.3587
  0
LINE
  8
0
 10
39.2109
 20
-23.3587
 11
39.2633
 21
-23.2106
  0
LINE
  8
0
 10
39.2633
 20
-23.2106
 11
39.3234
 21
-23.0655
  0
LINE
  8
0
 10
39.3234
 20
-23.0655
 11
39.3911
 21
-22.9237
  0
LINE
  8
0
 10
39.3911
 20
-22.9237
 11
39.466
 21
-22.7857
  0
LINE
  8
0
 10
39.466
 20
-22.7857
 11
39.5481
 21
-22.6518
  0
LINE
  8
0
 10
39.5481
 20
-22.6518
 11
39.637
 21
-22.5224
  0
LINE
  8
0
 10
39.637
 20
-22.5224
 11
39.7326
 21
-22.3978
  0
LINE
  8
0
 10
39.7326
 20
-22.3978
 11
39.8346
 21
-22.2783
  0
LINE
  8
0
 10
39.8346
 20
-22.2783
 11
39.9427
 21
-22.1644
  0
LINE
  8
0
 10
39.9427
 20
-22.1644
 11
40.0567
 21
-22.0563
  0
LINE
  8
0
 10
40.0567
 20
-22.0563
 11
40.1761
 21
-21.9543
  0
LINE
  8
0
 10
40.1761
 20
-21.9543
 11
40.3007
 21
-21.8587
  0
LINE
  8
0
 10
40.3007
 20
-21.8587
 11
40.4302
 21
-21.7697
  0
LINE
  8
0
 10
40.4302
 20
-21.7697
 11
40.5641
 21
-21.6876
  0
LINE
  8
0
 10
40.5641
 20
-21.6876
 11
40.7021
 21
-21.6127
  0
LINE
  8
0
 10
40.7021
 20
-21.6127
 11
40.8439
 21
-21.5451
  0
LINE
  8
0
 10
40.8439
 20
-21.5451
 11
40.989
 21
-21.485
  0
LINE
  8
0
 10
40.989
 20
-21.485
 11
41.137
 21
-21.4325
  0
LINE
  8
0
 10
41.137
 20
-21.4325
 11
41.2876
 21
-21.3879
  0
LINE
  8
0
 10
41.2876
 20
-21.3879
 11
41.4403
 21
-21.3513
  0
LINE
  8
0
 10
41.4403
 20
-21.3513
 11
41.5948
 21
-21.3226
  0
LINE
  8
0
 10
41.5948
 20
-21.3226
 11
41.7505
 21
-21.3021
  0
LINE
  8
0
 10
41.7505
 20
-21.3021
 11
41.9071
 21
-21.2898
  0
LINE
  8
0
 10
41.9071
 20
-21.2898
 11
42.0641
 21
-21.2857
  0
LINE
  8
0
 10
42.0641
 20
-21.2857
 11
42.2211
 21
-21.2898
  0
LINE
  8
0
 10
42.2211
 20
-21.2898
 11
42.3777
 21
-21.3021
  0
LINE
  8
0
 10
42.3777
 20
-21.3021
 11
42.5334
 21
-21.3226
  0
LINE
  8
0
 10
42.5334
 20
-21.3226
 11
42.6878
 21
-21.3513
  0
LINE
  8
0
 10
42.6878
 20
-21.3513
 11
42.8405
 21
-21.3879
  0
LINE
  8
0
 10
42.8405
 20
-21.3879
 11
42.9911
 21
-21.4325
  0
LINE
  8
0
 10
42.9911
 20
-21.4325
 11
43.1392
 21
-21.485
  0
LINE
  8
0
 10
43.1392
 20
-21.485
 11
43.2843
 21
-21.5451
  0
LINE
  8
0
 10
43.2843
 20
-21.5451
 11
65.5818
 21
-32.0949
  0
LINE
  8
0
 10
65.5818
 20
-32.0949
 11
65.7198
 21
-32.1699
  0
LINE
  8
0
 10
65.7198
 20
-32.1699
 11
65.8537
 21
-32.2519
  0
LINE
  8
0
 10
65.8537
 20
-32.2519
 11
65.9832
 21
-32.3409
  0
LINE
  8
0
 10
65.9832
 20
-32.3409
 11
66.1078
 21
-32.4365
  0
LINE
  8
0
 10
66.1078
 20
-32.4365
 11
66.2272
 21
-32.5385
  0
LINE
  8
0
 10
66.2272
 20
-32.5385
 11
66.3412
 21
-32.6466
  0
LINE
  8
0
 10
66.3412
 20
-32.6466
 11
66.4493
 21
-32.7606
  0
LINE
  8
0
 10
66.4493
 20
-32.7606
 11
66.5513
 21
-32.88
  0
LINE
  8
0
 10
66.5513
 20
-32.88
 11
66.6469
 21
-33.0046
  0
LINE
  8
0
 10
66.6469
 20
-33.0046
 11
66.7359
 21
-33.134
  0
LINE
  8
0
 10
66.7359
 20
-33.134
 11
66.8179
 21
-33.2679
  0
LINE
  8
0
 10
66.8179
 20
-33.2679
 11
66.8929
 21
-33.406
  0
LINE
  8
0
 10
66.8929
 20
-33.406
 11
66.9605
 21
-33.5477
  0
LINE
  8
0
 10
66.9605
 20
-33.5477
 11
67.0206
 21
-33.6928
  0
LINE
  8
0
 10
67.0206
 20
-33.6928
 11
67.073
 21
-33.8409
  0
LINE
  8
0
 10
67.073
 20
-33.8409
 11
67.1176
 21
-33.9915
  0
LINE
  8
0
 10
67.1176
 20
-33.9915
 11
67.1543
 21
-34.1442
  0
LINE
  8
0
 10
67.1543
 20
-34.1442
 11
67.1829
 21
-34.2986
  0
LINE
  8
0
 10
67.1829
 20
-34.2986
 11
67.2034
 21
-34.4544
  0
LINE
  8
0
 10
67.2034
 20
-34.4544
 11
67.2157
 21
-34.6109
  0
LINE
  8
0
 10
67.2157
 20
-34.6109
 11
67.2198
 21
-34.7679
  0
LINE
  8
0
 10
67.2198
 20
-34.7679
 11
67.2157
 21
-34.925
  0
LINE
  8
0
 10
67.2157
 20
-34.925
 11
67.2034
 21
-35.0815
  0
LINE
  8
0
 10
67.2034
 20
-35.0815
 11
67.1829
 21
-35.2372
  0
LINE
  8
0
 10
67.1829
 20
-35.2372
 11
67.1543
 21
-35.3917
  0
LINE
  8
0
 10
67.1543
 20
-35.3917
 11
67.1176
 21
-35.5444
  0
LINE
  8
0
 10
67.1176
 20
-35.5444
 11
67.073
 21
-35.695
  0
LINE
  8
0
 10
67.073
 20
-35.695
 11
67.0206
 21
-35.843
  0
LINE
  8
0
 10
67.0206
 20
-35.843
 11
66.9605
 21
-35.9881
  0
LINE
  8
0
 10
66.9605
 20
-35.9881
 11
66.8929
 21
-36.1299
  0
LINE
  8
0
 10
66.8929
 20
-36.1299
 11
66.8179
 21
-36.2679
  0
LINE
  8
0
 10
66.8179
 20
-36.2679
 11
64.8179
 21
-39.732
  0
LINE
  8
0
 10
64.8179
 20
-39.732
 11
64.7359
 21
-39.866
  0
LINE
  8
0
 10
64.7359
 20
-39.866
 11
64.6469
 21
-39.9954
  0
LINE
  8
0
 10
64.6469
 20
-39.9954
 11
64.5513
 21
-40.12
  0
LINE
  8
0
 10
64.5513
 20
-40.12
 11
64.4493
 21
-40.2394
  0
LINE
  8
0
 10
64.4493
 20
-40.2394
 11
64.3412
 21
-40.3533
  0
LINE
  8
0
 10
64.3412
 20
-40.3533
 11
64.2272
 21
-40.4615
  0
LINE
  8
0
 10
64.2272
 20
-40.4615
 11
64.1078
 21
-40.5635
  0
LINE
  8
0
 10
64.1078
 20
-40.5635
 11
63.9832
 21
-40.6591
  0
LINE
  8
0
 10
63.9832
 20
-40.6591
 11
63.8538
 21
-40.748
  0
LINE
  8
0
 10
63.8538
 20
-40.748
 11
63.7198
 21
-40.8301
  0
LINE
  8
0
 10
63.7198
 20
-40.8301
 11
63.5818
 21
-40.9051
  0
LINE
  8
0
 10
63.5818
 20
-40.9051
 11
63.4401
 21
-40.9727
  0
LINE
  8
0
 10
63.4401
 20
-40.9727
 11
63.295
 21
-41.0328
  0
LINE
  8
0
 10
63.295
 20
-41.0328
 11
63.1469
 21
-41.0852
  0
LINE
  8
0
 10
63.1469
 20
-41.0852
 11
62.9963
 21
-41.1298
  0
LINE
  8
0
 10
62.9963
 20
-41.1298
 11
62.8436
 21
-41.1665
  0
LINE
  8
0
 10
62.8436
 20
-41.1665
 11
62.6891
 21
-41.1951
  0
LINE
  8
0
 10
62.6891
 20
-41.1951
 11
62.5334
 21
-41.2156
  0
LINE
  8
0
 10
62.5334
 20
-41.2156
 11
62.3768
 21
-41.2279
  0
LINE
  8
0
 10
62.3768
 20
-41.2279
 11
62.2198
 21
-41.232
  0
LINE
  8
0
 10
62.2198
 20
-41.232
 11
62.0628
 21
-41.2279
  0
LINE
  8
0
 10
-62.3768
 20
-41.2279
 11
-62.5334
 21
-41.2156
  0
LINE
  8
0
 10
-62.5334
 20
-41.2156
 11
-62.6891
 21
-41.1951
  0
LINE
  8
0
 10
-62.6891
 20
-41.1951
 11
-62.8436
 21
-41.1665
  0
LINE
  8
0
 10
-62.8436
 20
-41.1665
 11
-62.9963
 21
-41.1298
  0
LINE
  8
0
 10
-62.9963
 20
-41.1298
 11
-63.1469
 21
-41.0852
  0
LINE
  8
0
 10
-63.1469
 20
-41.0852
 11
-63.295
 21
-41.0328
  0
LINE
  8
0
 10
-63.295
 20
-41.0328
 11
-63.4401
 21
-40.9727
  0
LINE
  8
0
 10
-63.4401
 20
-40.9727
 11
-63.5818
 21
-40.9051
  0
LINE
  8
0
 10
-63.5818
 20
-40.9051
 11
-63.7198
 21
-40.8301
  0
LINE
  8
0
 10
-63.7198
 20
-40.8301
 11
-63.8538
 21
-40.748
  0
LINE
  8
0
 10
-63.8538
 20
-40.748
 11
-63.9832
 21
-40.6591
  0
LINE
  8
0
 10
-63.9832
 20
-40.6591
 11
-64.1078
 21
-40.5635
  0
LINE
  8
0
 10
-64.1078
 20
-40.5635
 11
-64.2272
 21
-40.4615
  0
LINE
  8
0
 10
-64.2272
 20
-40.4615
 11
-64.3412
 21
-40.3533
  0
LINE
  8
0
 10
-64.3412
 20
-40.3533
 11
-64.4493
 21
-40.2394
  0
LINE
  8
0
 10
-64.4493
 20
-40.2394
 11
-64.5513
 21
-40.12
  0
LINE
  8
0
 10
-64.5513
 20
-40.12
 11
-64.6469
 21
-39.9954
  0
LINE
  8
0
 10
-64.6469
 20
-39.9954
 11
-64.7359
 21
-39.866
  0
LINE
  8
0
 10
-64.7359
 20
-39.866
 11
-64.8179
 21
-39.732
  0
LINE
  8
0
 10
-64.8179
 20
-39.732
 11
-66.8179
 21
-36.2679
  0
LINE
  8
0
 10
-66.8179
 20
-36.2679
 11
-66.8929
 21
-36.1299
  0
LINE
  8
0
 10
-66.8929
 20
-36.1299
 11
-66.9605
 21
-35.9881
  0
LINE
  8
0
 10
-66.9605
 20
-35.9881
 11
-67.0206
 21
-35.843
  0
LINE
  8
0
 10
-67.0206
 20
-35.843
 11
-67.073
 21
-35.695
  0
LINE
  8
0
 10
-67.073
 20
-35.695
 11
-67.1176
 21
-35.5444
  0
LINE
  8
0
 10
-67.1176
 20
-35.5444
 11
-67.1543
 21
-35.3917
  0
LINE
  8
0
 10
-67.1543
 20
-35.3917
 11
-67.1829
 21
-35.2372
  0
LINE
  8
0
 10
-67.1829
 20
-35.2372
 11
-67.2034
 21
-35.0815
  0
LINE
  8
0
 10
-67.2034
 20
-35.0815
 11
-67.2157
 21
-34.925
  0
LINE
  8
0
 10
-67.2157
 20
-34.925
 11
-67.2198
 21
-34.7679
  0
LINE
  8
0
 10
-67.2198
 20
-34.7679
 11
-67.2157
 21
-34.6109
  0
LINE
  8
0
 10
-67.2157
 20
-34.6109
 11
-67.2034
 21
-34.4544
  0
LINE
  8
0
 10
-67.2034
 20
-34.4544
 11
-67.1829
 21
-34.2986
  0
LINE
  8
0
 10
-67.1829
 20
-34.2986
 11
-67.1543
 21
-34.1442
  0
LINE
  8
0
 10
-67.1543
 20
-34.1442
 11
-67.1176
 21
-33.9915
  0
LINE
  8
0
 10
-67.1176
 20
-33.9915
 11
-67.073
 21
-33.8409
  0
LINE
  8
0
 10
-67.073
 20
-33.8409
 11
-67.0206
 21
-33.6928
  0
LINE
  8
0
 10
-67.0206
 20
-33.6928
 11
-66.9605
 21
-33.5477
  0
LINE
  8
0
 10
-66.9605
 20
-33.5477
 11
-66.8929
 21
-33.406
  0
LINE
  8
0
 10
-66.8929
 20
-33.406
 11
-66.8179
 21
-33.2679
  0
LINE
  8
0
 10
-66.8179
 20
-33.2679
 11
-66.7359
 21
-33.134
  0
LINE
  8
0
 10
-66.7359
 20
-33.134
 11
-66.6469
 21
-33.0046
  0
LINE
  8
0
 10
-66.6469
 20
-33.0046
 11
-66.5513
 21
-32.88
  0
LINE
  8
0
 10
-66.5513
 20
-32.88
 11
-66.4493
 21
-32.7606
  0
LINE
  8
0
 10
-66.4493
 20
-32.7606
 11
-66.3412
 21
-32.6466
  0
LINE
  8
0
 10
-66.3412
 20
-32.6466
 11
-66.2272
 21
-32.5385
  0
LINE
  8
0
 10
-66.2272
 20
-32.5385
 11
-66.1078
 21
-32.4365
  0
LINE
  8
0
 10
-66.1078
 20
-32.4365
 11
-65.9832
 21
-32.3409
  0
LINE
  8
0
 10
-65.9832
 20
-32.3409
 11
-65.8537
 21
-32.2519
  0
LINE
  8
0
 10
-65.8537
 20
-32.2519
 11
-65.7198
 21
-32.1699
  0
LINE
  8
0
 10
-65.7198
 20
-32.1699
 11
-65.5818
 21
-32.0949
  0
LINE
  8
0
 10
-65.5818
 20
-32.0949
 11
-43.2843
 21
-21.5451
  0
LINE
  8
0
 10
-43.2843
 20
-21.5451
 11
-43.1392
 21
-21.485
  0
LINE
  8
0
 10
-43.1392
 20
-21.485
 11
-42.9911
 21
-21.4325
  0
LINE
  8
0
 10
-42.9911
 20
-21.4325
 11
-42.8405
 21
-21.3879
  0
LINE
  8
0
 10
-42.8405
 20
-21.3879
 11
-42.6878
 21
-21.3513
  0
LINE
  8
0
 10
-42.6878
 20
-21.3513
 11
-42.5334
 21
-21.3226
  0
LINE
  8
0
 10
-42.5334
 20
-21.3226
 11
-42.3777
 21
-21.3021
  0
LINE
  8
0
 10
-42.3777
 20
-21.3021
 11
-42.2211
 21
-21.2898
  0
LINE
  8
0
 10
-42.2211
 20
-21.2898
 11
-42.0641
 21
-21.2857
  0
LINE
  8
0
 10
-42.0641
 20
-21.2857
 11
-41.9071
 21
-21.2898
  0
LINE
  8
0
 10
-41.9071
 20
-21.2898
 11
-41.7505
 21
-21.3021
  0
LINE
  8
0
 10
-41.7505
 20
-21.3021
 11
-41.5948
 21
-21.3226
  0
LINE
  8
0
 10
-41.5948
 20
-21.3226
 11
-41.4403
 21
-21.3513
  0
LINE
  8
0
 10
-41.4403
 20
-21.3513
 11
-41.2876
 21
-21.3879
  0
LINE
  8
0
 10
-41.2876
 20
-21.3879
 11
-41.137
 21
-21.4325
  0
LINE
  8
0
 10
-41.137
 20
-21.4325
 11
-40.989
 21
-21.485
  0
LINE
  8
0
 10
-40.989
 20
-21.485
 11
-40.8439
 21
-21.5451
  0
LINE
  8
0
 10
-40.8439
 20
-21.5451
 11
-40.7021
 21
-21.6127
  0
LINE
  8
0
 10
-40.7021
 20
-21.6127
 11
-40.5641
 21
-21.6876
  0
LINE
  8
0
 10
-40.5641
 20
-21.6876
 11
-40.4302
 21
-21.7697
  0
LINE
  8
0
 10
-40.4302
 20
-21.7697
 11
-40.3007
 21
-21.8587
  0
LINE
  8
0
 10
-40.3007
 20
-21.8587
 11
-40.1761
 21
-21.9543
  0
LINE
  8
0
 10
-40.1761
 20
-21.9543
 11
-40.0567
 21
-22.0563
  0
LINE
  8
0
 10
-40.0567
 20
-22.0563
 11
-39.9427
 21
-22.1644
  0
LINE
  8
0
 10
-39.9427
 20
-22.1644
 11
-39.8346
 21
-22.2783
  0
LINE
  8
0
 10
-39.8346
 20
-22.2783
 11
-39.7326
 21
-22.3978
  0
LINE
  8
0
 10
-39.7326
 20
-22.3978
 11
-39.637
 21
-22.5224
  0
LINE
  8
0
 10
-39.637
 20
-22.5224
 11
-39.5481
 21
-22.6518
  0
LINE
  8
0
 10
-39.5481
 20
-22.6518
 11
-39.466
 21
-22.7857
  0
LINE
  8
0
 10
-39.466
 20
-22.7857
 11
-39.3911
 21
-22.9237
  0
LINE
  8
0
 10
-39.3911
 20
-22.9237
 11
-39.3234
 21
-23.0655
  0
LINE
  8
0
 10
-39.3234
 20
-23.0655
 11
-39.2633
 21
-23.2106
  0
LINE
  8
0
 10
-39.2633
 20
-23.2106
 11
-39.2109
 21
-23.3587
  0
LINE
  8
0
 10
-39.2109
 20
-23.3587
 11
-39.1663
 21
-23.5092
  0
LINE
  8
0
 10
-39.1663
 20
-23.5092
 11
-39.1296
 21
-23.662
  0
LINE
  8
0
 10
-39.1296
 20
-23.662
 11
-39.101
 21
-23.8164
  0
LINE
  8
0
 10
-39.101
 20
-23.8164
 11
-39.0805
 21
-23.9721
  0
LINE
  8
0
 10
-39.0805
 20
-23.9721
 11
-39.0682
 21
-24.1287
  0
LINE
  8
0
 10
-39.0682
 20
-24.1287
 11
-39.0641
 21
-24.2857
  0
LINE
  8
0
 10
-39.0641
 20
-24.2857
 11
-39.0682
 21
-24.4427
  0
LINE
  8
0
 10
-39.0682
 20
-24.4427
 11
-39.0805
 21
-24.5993
  0
LINE
  8
0
 10
-39.0805
 20
-24.5993
 11
-39.101
 21
-24.755
  0
LINE
  8
0
 10
-39.101
 20
-24.755
 11
-39.1296
 21
-24.9094
  0
LINE
  8
0
 10
-39.1296
 20
-24.9094
 11
-39.1663
 21
-25.0621
  0
LINE
  8
0
 10
-39.1663
 20
-25.0621
 11
-39.2109
 21
-25.2128
  0
LINE
  8
0
 10
-39.2109
 20
-25.2128
 11
-39.2633
 21
-25.3608
  0
LINE
  8
0
 10
-39.2633
 20
-25.3608
 11
-39.3234
 21
-25.5059
  0
LINE
  8
0
 10
-39.3234
 20
-25.5059
 11
-39.3911
 21
-25.6477
  0
LINE
  8
0
 10
-39.3911
 20
-25.6477
 11
-39.466
 21
-25.7857
  0
LINE
  8
0
 10
-39.466
 20
-25.7857
 11
-39.5481
 21
-25.9196
  0
LINE
  8
0
 10
-39.5481
 20
-25.9196
 11
-39.637
 21
-26.0491
  0
LINE
  8
0
 10
-39.637
 20
-26.0491
 11
-39.7327
 21
-26.1737
  0
LINE
  8
0
 10
-39.7327
 20
-26.1737
 11
-39.8346
 21
-26.2931
  0
LINE
  8
0
 10
-39.8346
 20
-26.2931
 11
-39.9428
 21
-26.407
  0
LINE
  8
0
 10
-39.9428
 20
-26.407
 11
-40.0567
 21
-26.5151
  0
LINE
  8
0
 10
-40.0567
 20
-26.5151
 11
-40.1761
 21
-26.6171
  0
LINE
  8
0
 10
-40.1761
 20
-26.6171
 11
-40.3007
 21
-26.7127
  0
LINE
  8
0
 10
-40.3007
 20
-26.7127
 11
-60.5859
 21
-40.748
  0
LINE
  8
0
 10
-60.5859
 20
-40.748
 11
-60.7198
 21
-40.8301
  0
LINE
  8
0
 10
-60.7198
 20
-40.8301
 11
-60.8579
 21
-40.905
  0
LINE
  8
0
 10
-60.8579
 20
-40.905
 11
-60.9996
 21
-40.9727
  0
LINE
  8
0
 10
-60.9996
 20
-40.9727
 11
-61.1447
 21
-41.0328
  0
LINE
  8
0
 10
-61.1447
 20
-41.0328
 11
-61.2928
 21
-41.0852
  0
LINE
  8
0
 10
-61.2928
 20
-41.0852
 11
-61.4434
 21
-41.1298
  0
LINE
  8
0
 10
-61.4434
 20
-41.1298
 11
-61.5961
 21
-41.1665
  0
LINE
  8
0
 10
-61.5961
 20
-41.1665
 11
-61.7505
 21
-41.1951
  0
LINE
  8
0
 10
-61.7505
 20
-41.1951
 11
-61.9062
 21
-41.2156
  0
LINE
  8
0
 10
-61.9062
 20
-41.2156
 11
-62.0628
 21
-41.2279
  0
LINE
  8
0
 10
-62.0628
 20
-41.2279
 11
-62.2198
 21
-41.232
  0
LINE
  8
0
 10
-62.2198
 20
-41.232
 11
-62.3768
 21
-41.2279
  0
LINE
  8
0
 10
76.2714
 20
-40.3326
 11
76.2714
 21
-28.8126
  0
LINE
  8
0
 10
76.2714
 20
-28.8126
 11
79.0314
 21
-28.8126
  0
LINE
  8
0
 10
79.0314
 20
-28.8126
 11
79.0314
 21
-40.3326
  0
LINE
  8
0
 10
79.0314
 20
-40.3326
 11
76.2714
 21
-40.3326
  0
LINE
  8
0
 10
-82.8553
 20
-31.744
 11
-81.0085
 21
-29.6929
  0
LINE
  8
0
 10
-81.0085
 20
-29.6929
 11
-72.4474
 21
-37.4013
  0
LINE
  8
0
 10
-72.4474
 20
-37.4013
 11
-74.2942
 21
-39.4523
  0
LINE
  8
0
 10
-74.2942
 20
-39.4523
 11
-82.8553
 21
-31.744
  0
LINE
  8
0
 10
41.1333
 20
-63.2297
 11
40.9767
 21
-63.2174
  0
LINE
  8
0
 10
40.9767
 20
-63.2174
 11
40.821
 21
-63.1969
  0
LINE
  8
0
 10
40.821
 20
-63.1969
 11
40.6665
 21
-63.1682
  0
LINE
  8
0
 10
40.6665
 20
-63.1682
 11
40.5138
 21
-63.1316
  0
LINE
  8
0
 10
40.5138
 20
-63.1316
 11
40.3632
 21
-63.087
  0
LINE
  8
0
 10
40.3632
 20
-63.087
 11
40.2152
 21
-63.0345
  0
LINE
  8
0
 10
40.2152
 20
-63.0345
 11
40.0701
 21
-62.9744
  0
LINE
  8
0
 10
40.0701
 20
-62.9744
 11
39.9283
 21
-62.9068
  0
LINE
  8
0
 10
39.9283
 20
-62.9068
 11
39.7903
 21
-62.8319
  0
LINE
  8
0
 10
39.7903
 20
-62.8319
 11
39.6564
 21
-62.7498
  0
LINE
  8
0
 10
39.6564
 20
-62.7498
 11
39.5269
 21
-62.6608
  0
LINE
  8
0
 10
39.5269
 20
-62.6608
 11
39.4023
 21
-62.5652
  0
LINE
  8
0
 10
39.4023
 20
-62.5652
 11
39.2829
 21
-62.4632
  0
LINE
  8
0
 10
39.2829
 20
-62.4632
 11
39.169
 21
-62.3551
  0
LINE
  8
0
 10
39.169
 20
-62.3551
 11
39.0609
 21
-62.2412
  0
LINE
  8
0
 10
39.0609
 20
-62.2412
 11
38.9588
 21
-62.1217
  0
LINE
  8
0
 10
38.9588
 20
-62.1217
 11
38.8632
 21
-61.9972
  0
LINE
  8
0
 10
38.8632
 20
-61.9972
 11
38.7743
 21
-61.8677
  0
LINE
  8
0
 10
38.7743
 20
-61.8677
 11
25.9515
 21
-40.7951
  0
LINE
  8
0
 10
25.9515
 20
-40.7951
 11
25.8765
 21
-40.6571
  0
LINE
  8
0
 10
25.8765
 20
-40.6571
 11
25.8089
 21
-40.5153
  0
LINE
  8
0
 10
25.8089
 20
-40.5153
 11
25.7488
 21
-40.3702
  0
LINE
  8
0
 10
25.7488
 20
-40.3702
 11
25.6964
 21
-40.2221
  0
LINE
  8
0
 10
25.6964
 20
-40.2221
 11
25.6518
 21
-40.0715
  0
LINE
  8
0
 10
25.6518
 20
-40.0715
 11
25.6151
 21
-39.9188
  0
LINE
  8
0
 10
25.6151
 20
-39.9188
 11
25.5865
 21
-39.7644
  0
LINE
  8
0
 10
25.5865
 20
-39.7644
 11
25.566
 21
-39.6087
  0
LINE
  8
0
 10
25.566
 20
-39.6087
 11
25.5537
 21
-39.4521
  0
LINE
  8
0
 10
25.5537
 20
-39.4521
 11
25.5496
 21
-39.2951
  0
LINE
  8
0
 10
25.5496
 20
-39.2951
 11
25.5537
 21
-39.1381
  0
LINE
  8
0
 10
25.5537
 20
-39.1381
 11
25.566
 21
-38.9815
  0
LINE
  8
0
 10
25.566
 20
-38.9815
 11
25.5865
 21
-38.8258
  0
LINE
  8
0
 10
25.5865
 20
-38.8258
 11
25.6151
 21
-38.6714
  0
LINE
  8
0
 10
25.6151
 20
-38.6714
 11
25.6518
 21
-38.5186
  0
LINE
  8
0
 10
25.6518
 20
-38.5186
 11
25.6964
 21
-38.368
  0
LINE
  8
0
 10
25.6964
 20
-38.368
 11
25.7488
 21
-38.22
  0
LINE
  8
0
 10
25.7488
 20
-38.22
 11
25.8089
 21
-38.0749
  0
LINE
  8
0
 10
25.8089
 20
-38.0749
 11
25.8765
 21
-37.9331
  0
LINE
  8
0
 10
25.8765
 20
-37.9331
 11
25.9515
 21
-37.7951
  0
LINE
  8
0
 10
25.9515
 20
-37.7951
 11
26.0335
 21
-37.6612
  0
LINE
  8
0
 10
26.0335
 20
-37.6612
 11
26.1225
 21
-37.5317
  0
LINE
  8
0
 10
26.1225
 20
-37.5317
 11
26.2181
 21
-37.4071
  0
LINE
  8
0
 10
26.2181
 20
-37.4071
 11
26.3201
 21
-37.2877
  0
LINE
  8
0
 10
26.3201
 20
-37.2877
 11
26.4282
 21
-37.1738
  0
LINE
  8
0
 10
26.4282
 20
-37.1738
 11
26.5422
 21
-37.0657
  0
LINE
  8
0
 10
26.5422
 20
-37.0657
 11
26.6616
 21
-36.9637
  0
LINE
  8
0
 10
26.6616
 20
-36.9637
 11
26.7862
 21
-36.8681
  0
LINE
  8
0
 10
26.7862
 20
-36.8681
 11
26.9156
 21
-36.7791
  0
LINE
  8
0
 10
26.9156
 20
-36.7791
 11
27.0496
 21
-36.697
  0
LINE
  8
0
 10
27.0496
 20
-36.697
 11
27.1876
 21
-36.6221
  0
LINE
  8
0
 10
27.1876
 20
-36.6221
 11
27.3293
 21
-36.5545
  0
LINE
  8
0
 10
27.3293
 20
-36.5545
 11
27.4744
 21
-36.4944
  0
LINE
  8
0
 10
27.4744
 20
-36.4944
 11
27.6225
 21
-36.4419
  0
LINE
  8
0
 10
27.6225
 20
-36.4419
 11
27.7731
 21
-36.3973
  0
LINE
  8
0
 10
27.7731
 20
-36.3973
 11
27.9258
 21
-36.3607
  0
LINE
  8
0
 10
27.9258
 20
-36.3607
 11
28.0803
 21
-36.332
  0
LINE
  8
0
 10
28.0803
 20
-36.332
 11
28.236
 21
-36.3115
  0
LINE
  8
0
 10
28.236
 20
-36.3115
 11
28.3925
 21
-36.2992
  0
LINE
  8
0
 10
28.3925
 20
-36.2992
 11
28.5495
 21
-36.2951
  0
LINE
  8
0
 10
28.5495
 20
-36.2951
 11
28.7066
 21
-36.2992
  0
LINE
  8
0
 10
28.7066
 20
-36.2992
 11
28.8631
 21
-36.3115
  0
LINE
  8
0
 10
28.8631
 20
-36.3115
 11
29.0188
 21
-36.332
  0
LINE
  8
0
 10
29.0188
 20
-36.332
 11
29.1733
 21
-36.3607
  0
LINE
  8
0
 10
29.1733
 20
-36.3607
 11
29.326
 21
-36.3973
  0
LINE
  8
0
 10
29.326
 20
-36.3973
 11
29.4766
 21
-36.4419
  0
LINE
  8
0
 10
29.4766
 20
-36.4419
 11
29.6246
 21
-36.4944
  0
LINE
  8
0
 10
29.6246
 20
-36.4944
 11
29.7698
 21
-36.5545
  0
LINE
  8
0
 10
29.7698
 20
-36.5545
 11
29.9115
 21
-36.6221
  0
LINE
  8
0
 10
29.9115
 20
-36.6221
 11
30.0496
 21
-36.697
  0
LINE
  8
0
 10
30.0496
 20
-36.697
 11
30.1835
 21
-36.7791
  0
LINE
  8
0
 10
30.1835
 20
-36.7791
 11
30.3129
 21
-36.868
  0
LINE
  8
0
 10
30.3129
 20
-36.868
 11
30.4375
 21
-36.9637
  0
LINE
  8
0
 10
30.4375
 20
-36.9637
 11
30.5569
 21
-37.0657
  0
LINE
  8
0
 10
30.5569
 20
-37.0657
 11
30.6709
 21
-37.1738
  0
LINE
  8
0
 10
30.6709
 20
-37.1738
 11
30.779
 21
-37.2877
  0
LINE
  8
0
 10
30.779
 20
-37.2877
 11
46.8578
 21
-55.9947
  0
LINE
  8
0
 10
46.8578
 20
-55.9947
 11
46.9534
 21
-56.1193
  0
LINE
  8
0
 10
46.9534
 20
-56.1193
 11
47.0423
 21
-56.2487
  0
LINE
  8
0
 10
47.0423
 20
-56.2487
 11
47.1244
 21
-56.3827
  0
LINE
  8
0
 10
47.1244
 20
-56.3827
 11
47.1994
 21
-56.5207
  0
LINE
  8
0
 10
47.1994
 20
-56.5207
 11
47.267
 21
-56.6625
  0
LINE
  8
0
 10
47.267
 20
-56.6625
 11
47.3271
 21
-56.8076
  0
LINE
  8
0
 10
47.3271
 20
-56.8076
 11
47.3795
 21
-56.9556
  0
LINE
  8
0
 10
47.3795
 20
-56.9556
 11
47.4241
 21
-57.1062
  0
LINE
  8
0
 10
47.4241
 20
-57.1062
 11
47.4608
 21
-57.2589
  0
LINE
  8
0
 10
47.4608
 20
-57.2589
 11
47.4894
 21
-57.4134
  0
LINE
  8
0
 10
47.4894
 20
-57.4134
 11
47.5099
 21
-57.5691
  0
LINE
  8
0
 10
47.5099
 20
-57.5691
 11
47.5222
 21
-57.7256
  0
LINE
  8
0
 10
47.5222
 20
-57.7256
 11
47.5264
 21
-57.8827
  0
LINE
  8
0
 10
47.5264
 20
-57.8827
 11
47.5222
 21
-58.0397
  0
LINE
  8
0
 10
47.5222
 20
-58.0397
 11
47.5099
 21
-58.1962
  0
LINE
  8
0
 10
47.5099
 20
-58.1962
 11
47.4894
 21
-58.352
  0
LINE
  8
0
 10
47.4894
 20
-58.352
 11
47.4608
 21
-58.5064
  0
LINE
  8
0
 10
47.4608
 20
-58.5064
 11
47.4241
 21
-58.6591
  0
LINE
  8
0
 10
47.4241
 20
-58.6591
 11
47.3795
 21
-58.8097
  0
LINE
  8
0
 10
47.3795
 20
-58.8097
 11
47.3271
 21
-58.9578
  0
LINE
  8
0
 10
47.3271
 20
-58.9578
 11
47.267
 21
-59.1029
  0
LINE
  8
0
 10
47.267
 20
-59.1029
 11
47.1994
 21
-59.2446
  0
LINE
  8
0
 10
47.1994
 20
-59.2446
 11
47.1244
 21
-59.3827
  0
LINE
  8
0
 10
47.1244
 20
-59.3827
 11
47.0424
 21
-59.5166
  0
LINE
  8
0
 10
47.0424
 20
-59.5166
 11
46.9534
 21
-59.646
  0
LINE
  8
0
 10
46.9534
 20
-59.646
 11
46.8578
 21
-59.7706
  0
LINE
  8
0
 10
46.8578
 20
-59.7706
 11
46.7558
 21
-59.89
  0
LINE
  8
0
 10
46.7558
 20
-59.89
 11
46.6477
 21
-60.004
  0
LINE
  8
0
 10
46.6477
 20
-60.004
 11
46.5337
 21
-60.1121
  0
LINE
  8
0
 10
46.5337
 20
-60.1121
 11
46.4143
 21
-60.2141
  0
LINE
  8
0
 10
46.4143
 20
-60.2141
 11
46.2897
 21
-60.3097
  0
LINE
  8
0
 10
46.2897
 20
-60.3097
 11
43.0536
 21
-62.6609
  0
LINE
  8
0
 10
43.0536
 20
-62.6609
 11
42.9242
 21
-62.7498
  0
LINE
  8
0
 10
42.9242
 20
-62.7498
 11
42.7903
 21
-62.8319
  0
LINE
  8
0
 10
42.7903
 20
-62.8319
 11
42.6523
 21
-62.9068
  0
LINE
  8
0
 10
42.6523
 20
-62.9068
 11
42.5105
 21
-62.9744
  0
LINE
  8
0
 10
42.5105
 20
-62.9744
 11
42.3654
 21
-63.0345
  0
LINE
  8
0
 10
42.3654
 20
-63.0345
 11
42.2173
 21
-63.087
  0
LINE
  8
0
 10
42.2173
 20
-63.087
 11
42.0667
 21
-63.1316
  0
LINE
  8
0
 10
42.0667
 20
-63.1316
 11
41.914
 21
-63.1682
  0
LINE
  8
0
 10
41.914
 20
-63.1682
 11
41.7596
 21
-63.1969
  0
LINE
  8
0
 10
41.7596
 20
-63.1969
 11
41.6039
 21
-63.2173
  0
LINE
  8
0
 10
41.6039
 20
-63.2173
 11
41.4473
 21
-63.2297
  0
LINE
  8
0
 10
41.4473
 20
-63.2297
 11
41.2903
 21
-63.2338
  0
LINE
  8
0
 10
41.2903
 20
-63.2338
 11
41.1333
 21
-63.2297
  0
LINE
  8
0
 10
-41.4473
 20
-63.2297
 11
-41.6039
 21
-63.2174
  0
LINE
  8
0
 10
-41.6039
 20
-63.2174
 11
-41.7596
 21
-63.1969
  0
LINE
  8
0
 10
-41.7596
 20
-63.1969
 11
-41.914
 21
-63.1682
  0
LINE
  8
0
 10
-41.914
 20
-63.1682
 11
-42.0667
 21
-63.1316
  0
LINE
  8
0
 10
-42.0667
 20
-63.1316
 11
-42.2173
 21
-63.087
  0
LINE
  8
0
 10
-42.2173
 20
-63.087
 11
-42.3654
 21
-63.0345
  0
LINE
  8
0
 10
-42.3654
 20
-63.0345
 11
-42.5105
 21
-62.9744
  0
LINE
  8
0
 10
-42.5105
 20
-62.9744
 11
-42.6523
 21
-62.9068
  0
LINE
  8
0
 10
-42.6523
 20
-62.9068
 11
-42.7903
 21
-62.8319
  0
LINE
  8
0
 10
-42.7903
 20
-62.8319
 11
-42.9242
 21
-62.7498
  0
LINE
  8
0
 10
-42.9242
 20
-62.7498
 11
-43.0536
 21
-62.6609
  0
LINE
  8
0
 10
-43.0536
 20
-62.6609
 11
-46.2897
 21
-60.3097
  0
LINE
  8
0
 10
-46.2897
 20
-60.3097
 11
-46.4143
 21
-60.2141
  0
LINE
  8
0
 10
-46.4143
 20
-60.2141
 11
-46.5337
 21
-60.1121
  0
LINE
  8
0
 10
-46.5337
 20
-60.1121
 11
-46.6477
 21
-60.004
  0
LINE
  8
0
 10
-46.6477
 20
-60.004
 11
-46.7558
 21
-59.89
  0
LINE
  8
0
 10
-46.7558
 20
-59.89
 11
-46.8578
 21
-59.7706
  0
LINE
  8
0
 10
-46.8578
 20
-59.7706
 11
-46.9534
 21
-59.646
  0
LINE
  8
0
 10
-46.9534
 20
-59.646
 11
-47.0424
 21
-59.5166
  0
LINE
  8
0
 10
-47.0424
 20
-59.5166
 11
-47.1244
 21
-59.3827
  0
LINE
  8
0
 10
-47.1244
 20
-59.3827
 11
-47.1994
 21
-59.2446
  0
LINE
  8
0
 10
-47.1994
 20
-59.2446
 11
-47.267
 21
-59.1029
  0
LINE
  8
0
 10
-47.267
 20
-59.1029
 11
-47.3271
 21
-58.9578
  0
LINE
  8
0
 10
-47.3271
 20
-58.9578
 11
-47.3795
 21
-58.8097
  0
LINE
  8
0
 10
-47.3795
 20
-58.8097
 11
-47.4241
 21
-58.6591
  0
LINE
  8
0
 10
-47.4241
 20
-58.6591
 11
-47.4608
 21
-58.5064
  0
LINE
  8
0
 10
-47.4608
 20
-58.5064
 11
-47.4894
 21
-58.352
  0
LINE
  8
0
 10
-47.4894
 20
-58.352
 11
-47.5099
 21
-58.1962
  0
LINE
  8
0
 10
-47.5099
 20
-58.1962
 11
-47.5222
 21
-58.0397
  0
LINE
  8
0
 10
-47.5222
 20
-58.0397
 11
-47.5264
 21
-57.8827
  0
LINE
  8
0
 10
-47.5264
 20
-57.8827
 11
-47.5222
 21
-57.7256
  0
LINE
  8
0
 10
-47.5222
 20
-57.7256
 11
-47.5099
 21
-57.5691
  0
LINE
  8
0
 10
-47.5099
 20
-57.5691
 11
-47.4894
 21
-57.4134
  0
LINE
  8
0
 10
-47.4894
 20
-57.4134
 11
-47.4608
 21
-57.2589
  0
LINE
  8
0
 10
-47.4608
 20
-57.2589
 11
-47.4241
 21
-57.1062
  0
LINE
  8
0
 10
-47.4241
 20
-57.1062
 11
-47.3795
 21
-56.9556
  0
LINE
  8
0
 10
-47.3795
 20
-56.9556
 11
-47.3271
 21
-56.8076
  0
LINE
  8
0
 10
-47.3271
 20
-56.8076
 11
-47.267
 21
-56.6625
  0
LINE
  8
0
 10
-47.267
 20
-56.6625
 11
-47.1994
 21
-56.5207
  0
LINE
  8
0
 10
-47.1994
 20
-56.5207
 11
-47.1244
 21
-56.3827
  0
LINE
  8
0
 10
-47.1244
 20
-56.3827
 11
-47.0423
 21
-56.2487
  0
LINE
  8
0
 10
-47.0423
 20
-56.2487
 11
-46.9534
 21
-56.1193
  0
LINE
  8
0
 10
-46.9534
 20
-56.1193
 11
-46.8578
 21
-55.9947
  0
LINE
  8
0
 10
-46.8578
 20
-55.9947
 11
-30.779
 21
-37.2877
  0
LINE
  8
0
 10
-30.779
 20
-37.2877
 11
-30.6709
 21
-37.1738
  0
LINE
  8
0
 10
-30.6709
 20
-37.1738
 11
-30.5569
 21
-37.0657
  0
LINE
  8
0
 10
-30.5569
 20
-37.0657
 11
-30.4375
 21
-36.9637
  0
LINE
  8
0
 10
-30.4375
 20
-36.9637
 11
-30.3129
 21
-36.868
  0
LINE
  8
0
 10
-30.3129
 20
-36.868
 11
-30.1835
 21
-36.7791
  0
LINE
  8
0
 10
-30.1835
 20
-36.7791
 11
-30.0496
 21
-36.697
  0
LINE
  8
0
 10
-30.0496
 20
-36.697
 11
-29.9115
 21
-36.6221
  0
LINE
  8
0
 10
-29.9115
 20
-36.6221
 11
-29.7698
 21
-36.5545
  0
LINE
  8
0
 10
-29.7698
 20
-36.5545
 11
-29.6246
 21
-36.4944
  0
LINE
  8
0
 10
-29.6246
 20
-36.4944
 11
-29.4766
 21
-36.4419
  0
LINE
  8
0
 10
-29.4766
 20
-36.4419
 11
-29.326
 21
-36.3973
  0
LINE
  8
0
 10
-29.326
 20
-36.3973
 11
-29.1733
 21
-36.3607
  0
LINE
  8
0
 10
-29.1733
 20
-36.3607
 11
-29.0188
 21
-36.332
  0
LINE
  8
0
 10
-29.0188
 20
-36.332
 11
-28.8631
 21
-36.3115
  0
LINE
  8
0
 10
-28.8631
 20
-36.3115
 11
-28.7066
 21
-36.2992
  0
LINE
  8
0
 10
-28.7066
 20
-36.2992
 11
-28.5495
 21
-36.2951
  0
LINE
  8
0
 10
-28.5495
 20
-36.2951
 11
-28.3925
 21
-36.2992
  0
LINE
  8
0
 10
-28.3925
 20
-36.2992
 11
-28.236
 21
-36.3115
  0
LINE
  8
0
 10
-28.236
 20
-36.3115
 11
-28.0803
 21
-36.332
  0
LINE
  8
0
 10
-28.0803
 20
-36.332
 11
-27.9258
 21
-36.3607
  0
LINE
  8
0
 10
-27.9258
 20
-36.3607
 11
-27.7731
 21
-36.3973
  0
LINE
  8
0
 10
-27.7731
 20
-36.3973
 11
-27.6225
 21
-36.4419
  0
LINE
  8
0
 10
-27.6225
 20
-36.4419
 11
-27.4744
 21
-36.4944
  0
LINE
  8
0
 10
-27.4744
 20
-36.4944
 11
-27.3293
 21
-36.5545
  0
LINE
  8
0
 10
-27.3293
 20
-36.5545
 11
-27.1876
 21
-36.6221
  0
LINE
  8
0
 10
-27.1876
 20
-36.6221
 11
-27.0496
 21
-36.697
  0
LINE
  8
0
 10
-27.0496
 20
-36.697
 11
-26.9156
 21
-36.7791
  0
LINE
  8
0
 10
-26.9156
 20
-36.7791
 11
-26.7862
 21
-36.8681
  0
LINE
  8
0
 10
-26.7862
 20
-36.8681
 11
-26.6616
 21
-36.9637
  0
LINE
  8
0
 10
-26.6616
 20
-36.9637
 11
-26.5422
 21
-37.0657
  0
LINE
  8
0
 10
-26.5422
 20
-37.0657
 11
-26.4282
 21
-37.1738
  0
LINE
  8
0
 10
-26.4282
 20
-37.1738
 11
-26.3201
 21
-37.2877
  0
LINE
  8
0
 10
-26.3201
 20
-37.2877
 11
-26.2181
 21
-37.4071
  0
LINE
  8
0
 10
-26.2181
 20
-37.4071
 11
-26.1225
 21
-37.5317
  0
LINE
  8
0
 10
-26.1225
 20
-37.5317
 11
-26.0335
 21
-37.6612
  0
LINE
  8
0
 10
-26.0335
 20
-37.6612
 11
-25.9515
 21
-37.7951
  0
LINE
  8
0
 10
-25.9515
 20
-37.7951
 11
-25.8765
 21
-37.9331
  0
LINE
  8
0
 10
-25.8765
 20
-37.9331
 11
-25.8089
 21
-38.0749
  0
LINE
  8
0
 10
-25.8089
 20
-38.0749
 11
-25.7488
 21
-38.22
  0
LINE
  8
0
 10
-25.7488
 20
-38.22
 11
-25.6964
 21
-38.368
  0
LINE
  8
0
 10
-25.6964
 20
-38.368
 11
-25.6518
 21
-38.5186
  0
LINE
  8
0
 10
-25.6518
 20
-38.5186
 11
-25.6151
 21
-38.6714
  0
LINE
  8
0
 10
-25.6151
 20
-38.6714
 11
-25.5865
 21
-38.8258
  0
LINE
  8
0
 10
-25.5865
 20
-38.8258
 11
-25.566
 21
-38.9815
  0
LINE
  8
0
 10
-25.566
 20
-38.9815
 11
-25.5537
 21
-39.1381
  0
LINE
  8
0
 10
-25.5537
 20
-39.1381
 11
-25.5496
 21
-39.2951
  0
LINE
  8
0
 10
-25.5496
 20
-39.2951
 11
-25.5537
 21
-39.4521
  0
LINE
  8
0
 10
-25.5537
 20
-39.4521
 11
-25.566
 21
-39.6087
  0
LINE
  8
0
 10
-25.566
 20
-39.6087
 11
-25.5865
 21
-39.7644
  0
LINE
  8
0
 10
-25.5865
 20
-39.7644
 11
-25.6151
 21
-39.9188
  0
LINE
  8
0
 10
-25.6151
 20
-39.9188
 11
-25.6518
 21
-40.0715
  0
LINE
  8
0
 10
-25.6518
 20
-40.0715
 11
-25.6964
 21
-40.2221
  0
LINE
  8
0
 10
-25.6964
 20
-40.2221
 11
-25.7488
 21
-40.3702
  0
LINE
  8
0
 10
-25.7488
 20
-40.3702
 11
-25.8089
 21
-40.5153
  0
LINE
  8
0
 10
-25.8089
 20
-40.5153
 11
-25.8765
 21
-40.6571
  0
LINE
  8
0
 10
-25.8765
 20
-40.6571
 11
-25.9515
 21
-40.7951
  0
LINE
  8
0
 10
-25.9515
 20
-40.7951
 11
-38.7743
 21
-61.8677
  0
LINE
  8
0
 10
-38.7743
 20
-61.8677
 11
-38.8632
 21
-61.9972
  0
LINE
  8
0
 10
-38.8632
 20
-61.9972
 11
-38.9588
 21
-62.1217
  0
LINE
  8
0
 10
-38.9588
 20
-62.1217
 11
-39.0609
 21
-62.2412
  0
LINE
  8
0
 10
-39.0609
 20
-62.2412
 11
-39.169
 21
-62.3551
  0
LINE
  8
0
 10
-39.169
 20
-62.3551
 11
-39.2829
 21
-62.4632
  0
LINE
  8
0
 10
-39.2829
 20
-62.4632
 11
-39.4023
 21
-62.5652
  0
LINE
  8
0
 10
-39.4023
 20
-62.5652
 11
-39.5269
 21
-62.6608
  0
LINE
  8
0
 10
-39.5269
 20
-62.6608
 11
-39.6564
 21
-62.7498
  0
LINE
  8
0
 10
-39.6564
 20
-62.7498
 11
-39.7903
 21
-62.8319
  0
LINE
  8
0
 10
-39.7903
 20
-62.8319
 11
-39.9283
 21
-62.9068
  0
LINE
  8
0
 10
-39.9283
 20
-62.9068
 11
-40.0701
 21
-62.9744
  0
LINE
  8
0
 10
-40.0701
 20
-62.9744
 11
-40.2152
 21
-63.0345
  0
LINE
  8
0
 10
-40.2152
 20
-63.0345
 11
-40.3632
 21
-63.087
  0
LINE
  8
0
 10
-40.3632
 20
-63.087
 11
-40.5138
 21
-63.1316
  0
LINE
  8
0
 10
-40.5138
 20
-63.1316
 11
-40.6665
 21
-63.1682
  0
LINE
  8
0
 10
-40.6665
 20
-63.1682
 11
-40.821
 21
-63.1969
  0
LINE
  8
0
 10
-40.821
 20
-63.1969
 11
-40.9767
 21
-63.2174
  0
LINE
  8
0
 10
-40.9767
 20
-63.2174
 11
-41.1333
 21
-63.2297
  0
LINE
  8
0
 10
-41.1333
 20
-63.2297
 11
-41.2903
 21
-63.2338
  0
LINE
  8
0
 10
-41.2903
 20
-63.2338
 11
-41.4473
 21
-63.2297
  0
LINE
  8
0
 10
71.6376
 20
-48.0842
 11
72.8418
 21
-36.6273
  0
LINE
  8
0
 10
72.8418
 20
-36.6273
 11
75.5867
 21
-36.9158
  0
LINE
  8
0
 10
75.5867
 20
-36.9158
 11
74.3825
 21
-48.3727
  0
LINE
  8
0
 10
74.3825
 20
-48.3727
 11
71.6376
 21
-48.0842
  0
LINE
  8
0
 10
-79.0832
 20
-40.2308
 11
-77.461
 21
-37.9979
  0
LINE
  8
0
 10
-77.461
 20
-37.9979
 11
-68.1411
 21
-44.7692
  0
LINE
  8
0
 10
-68.1411
 20
-44.7692
 11
-69.7634
 21
-47.0021
  0
LINE
  8
0
 10
-69.7634
 20
-47.0021
 11
-79.0832
 21
-40.2308
  0
LINE
  8
0
 10
66.219
 20
-55.3089
 11
68.6142
 21
-44.0407
  0
LINE
  8
0
 10
68.6142
 20
-44.0407
 11
71.3139
 21
-44.6145
  0
LINE
  8
0
 10
71.3139
 20
-44.6145
 11
68.9187
 21
-55.8828
  0
LINE
  8
0
 10
68.9187
 20
-55.8828
 11
66.219
 21
-55.3089
  0
LINE
  8
0
 10
13.0643
 20
-74.8165
 11
12.9077
 21
-74.8042
  0
LINE
  8
0
 10
12.9077
 20
-74.8042
 11
12.752
 21
-74.7836
  0
LINE
  8
0
 10
12.752
 20
-74.7836
 11
12.5975
 21
-74.755
  0
LINE
  8
0
 10
12.5975
 20
-74.755
 11
12.4448
 21
-74.7184
  0
LINE
  8
0
 10
12.4448
 20
-74.7184
 11
12.2942
 21
-74.6738
  0
LINE
  8
0
 10
12.2942
 20
-74.6738
 11
12.1461
 21
-74.6213
  0
LINE
  8
0
 10
12.1461
 20
-74.6213
 11
12.001
 21
-74.5612
  0
LINE
  8
0
 10
12.001
 20
-74.5612
 11
11.8593
 21
-74.4936
  0
LINE
  8
0
 10
11.8593
 20
-74.4936
 11
11.7213
 21
-74.4187
  0
LINE
  8
0
 10
11.7213
 20
-74.4187
 11
11.5873
 21
-74.3366
  0
LINE
  8
0
 10
11.5873
 20
-74.3366
 11
11.4579
 21
-74.2476
  0
LINE
  8
0
 10
11.4579
 20
-74.2476
 11
11.3333
 21
-74.152
  0
LINE
  8
0
 10
11.3333
 20
-74.152
 11
11.2139
 21
-74.05
  0
LINE
  8
0
 10
11.2139
 20
-74.05
 11
11.0999
 21
-73.9419
  0
LINE
  8
0
 10
11.0999
 20
-73.9419
 11
10.9918
 21
-73.828
  0
LINE
  8
0
 10
10.9918
 20
-73.828
 11
10.8898
 21
-73.7085
  0
LINE
  8
0
 10
10.8898
 20
-73.7085
 11
10.7942
 21
-73.5839
  0
LINE
  8
0
 10
10.7942
 20
-73.5839
 11
10.7052
 21
-73.4545
  0
LINE
  8
0
 10
10.7052
 20
-73.4545
 11
10.6232
 21
-73.3206
  0
LINE
  8
0
 10
10.6232
 20
-73.3206
 11
10.5482
 21
-73.1825
  0
LINE
  8
0
 10
10.5482
 20
-73.1825
 11
10.4806
 21
-73.0408
  0
LINE
  8
0
 10
10.4806
 20
-73.0408
 11
10.4205
 21
-72.8957
  0
LINE
  8
0
 10
10.4205
 20
-72.8957
 11
10.3681
 21
-72.7476
  0
LINE
  8
0
 10
10.3681
 20
-72.7476
 11
10.3235
 21
-72.597
  0
LINE
  8
0
 10
10.3235
 20
-72.597
 11
10.2868
 21
-72.4443
  0
LINE
  8
0
 10
10.2868
 20
-72.4443
 11
10.2582
 21
-72.2899
  0
LINE
  8
0
 10
10.2582
 20
-72.2899
 11
7.11501
 21
-47.8236
  0
LINE
  8
0
 10
7.11501
 20
-47.8236
 11
7.10268
 21
-47.667
  0
LINE
  8
0
 10
7.10268
 20
-47.667
 11
7.09857
 21
-47.51
  0
LINE
  8
0
 10
7.09857
 20
-47.51
 11
7.10268
 21
-47.353
  0
LINE
  8
0
 10
7.10268
 20
-47.353
 11
7.11499
 21
-47.1964
  0
LINE
  8
0
 10
7.11499
 20
-47.1964
 11
7.1355
 21
-47.0407
  0
LINE
  8
0
 10
7.1355
 20
-47.0407
 11
7.16412
 21
-46.8863
  0
LINE
  8
0
 10
7.16412
 20
-46.8863
 11
7.20078
 21
-46.7336
  0
LINE
  8
0
 10
7.20078
 20
-46.7336
 11
7.24539
 21
-46.583
  0
LINE
  8
0
 10
7.24539
 20
-46.583
 11
7.29782
 21
-46.4349
  0
LINE
  8
0
 10
7.29782
 20
-46.4349
 11
7.35793
 21
-46.2898
  0
LINE
  8
0
 10
7.35793
 20
-46.2898
 11
7.42554
 21
-46.148
  0
LINE
  8
0
 10
7.42554
 20
-46.148
 11
7.50049
 21
-46.01
  0
LINE
  8
0
 10
7.50049
 20
-46.01
 11
7.58257
 21
-45.8761
  0
LINE
  8
0
 10
7.58257
 20
-45.8761
 11
7.67151
 21
-45.7466
  0
LINE
  8
0
 10
7.67151
 20
-45.7466
 11
7.76714
 21
-45.6221
  0
LINE
  8
0
 10
7.76714
 20
-45.6221
 11
7.86913
 21
-45.5026
  0
LINE
  8
0
 10
7.86913
 20
-45.5026
 11
7.97725
 21
-45.3887
  0
LINE
  8
0
 10
7.97725
 20
-45.3887
 11
8.09119
 21
-45.2806
  0
LINE
  8
0
 10
8.09119
 20
-45.2806
 11
8.2106
 21
-45.1786
  0
LINE
  8
0
 10
8.2106
 20
-45.1786
 11
8.33521
 21
-45.0829
  0
LINE
  8
0
 10
8.33521
 20
-45.0829
 11
8.46465
 21
-44.994
  0
LINE
  8
0
 10
8.46465
 20
-44.994
 11
8.59856
 21
-44.9119
  0
LINE
  8
0
 10
8.59856
 20
-44.9119
 11
8.7366
 21
-44.837
  0
LINE
  8
0
 10
8.7366
 20
-44.837
 11
8.87836
 21
-44.7694
  0
LINE
  8
0
 10
8.87836
 20
-44.7694
 11
9.02345
 21
-44.7093
  0
LINE
  8
0
 10
9.02345
 20
-44.7093
 11
9.17151
 21
-44.6568
  0
LINE
  8
0
 10
9.17151
 20
-44.6568
 11
9.32211
 21
-44.6122
  0
LINE
  8
0
 10
9.32211
 20
-44.6122
 11
9.47482
 21
-44.5756
  0
LINE
  8
0
 10
9.47482
 20
-44.5756
 11
9.62924
 21
-44.547
  0
LINE
  8
0
 10
9.62924
 20
-44.547
 11
9.78497
 21
-44.5264
  0
LINE
  8
0
 10
9.78497
 20
-44.5264
 11
9.94154
 21
-44.5141
  0
LINE
  8
0
 10
9.94154
 20
-44.5141
 11
10.0986
 21
-44.51
  0
LINE
  8
0
 10
10.0986
 20
-44.51
 11
10.2556
 21
-44.5141
  0
LINE
  8
0
 10
10.2556
 20
-44.5141
 11
10.4121
 21
-44.5264
  0
LINE
  8
0
 10
10.4121
 20
-44.5264
 11
10.5679
 21
-44.5469
  0
LINE
  8
0
 10
10.5679
 20
-44.5469
 11
10.7223
 21
-44.5756
  0
LINE
  8
0
 10
10.7223
 20
-44.5756
 11
10.875
 21
-44.6122
  0
LINE
  8
0
 10
10.875
 20
-44.6122
 11
11.0256
 21
-44.6568
  0
LINE
  8
0
 10
11.0256
 20
-44.6568
 11
11.1737
 21
-44.7093
  0
LINE
  8
0
 10
11.1737
 20
-44.7093
 11
11.3188
 21
-44.7694
  0
LINE
  8
0
 10
11.3188
 20
-44.7694
 11
11.4605
 21
-44.837
  0
LINE
  8
0
 10
11.4605
 20
-44.837
 11
11.5986
 21
-44.9119
  0
LINE
  8
0
 10
11.5986
 20
-44.9119
 11
11.7325
 21
-44.994
  0
LINE
  8
0
 10
11.7325
 20
-44.994
 11
11.8619
 21
-45.083
  0
LINE
  8
0
 10
11.8619
 20
-45.083
 11
11.9865
 21
-45.1786
  0
LINE
  8
0
 10
11.9865
 20
-45.1786
 11
12.1059
 21
-45.2806
  0
LINE
  8
0
 10
12.1059
 20
-45.2806
 11
12.2199
 21
-45.3887
  0
LINE
  8
0
 10
12.2199
 20
-45.3887
 11
12.328
 21
-45.5026
  0
LINE
  8
0
 10
12.328
 20
-45.5026
 11
12.43
 21
-45.622
  0
LINE
  8
0
 10
12.43
 20
-45.622
 11
12.5256
 21
-45.7467
  0
LINE
  8
0
 10
12.5256
 20
-45.7467
 11
12.6146
 21
-45.8761
  0
LINE
  8
0
 10
12.6146
 20
-45.8761
 11
12.6966
 21
-46.01
  0
LINE
  8
0
 10
12.6966
 20
-46.01
 11
12.7716
 21
-46.148
  0
LINE
  8
0
 10
12.7716
 20
-46.148
 11
12.8392
 21
-46.2898
  0
LINE
  8
0
 10
12.8392
 20
-46.2898
 11
12.8993
 21
-46.4349
  0
LINE
  8
0
 10
12.8993
 20
-46.4349
 11
12.9517
 21
-46.583
  0
LINE
  8
0
 10
12.9517
 20
-46.583
 11
20.0316
 21
-70.2125
  0
LINE
  8
0
 10
20.0316
 20
-70.2125
 11
20.0683
 21
-70.3652
  0
LINE
  8
0
 10
20.0683
 20
-70.3652
 11
20.0969
 21
-70.5196
  0
LINE
  8
0
 10
20.0969
 20
-70.5196
 11
20.1174
 21
-70.6754
  0
LINE
  8
0
 10
20.1174
 20
-70.6754
 11
20.1297
 21
-70.8319
  0
LINE
  8
0
 10
20.1297
 20
-70.8319
 11
20.1338
 21
-70.9889
  0
LINE
  8
0
 10
20.1338
 20
-70.9889
 11
20.1297
 21
-71.1459
  0
LINE
  8
0
 10
20.1297
 20
-71.1459
 11
20.1174
 21
-71.3025
  0
LINE
  8
0
 10
20.1174
 20
-71.3025
 11
20.0969
 21
-71.4583
  0
LINE
  8
0
 10
20.0969
 20
-71.4583
 11
20.0683
 21
-71.6127
  0
LINE
  8
0
 10
20.0683
 20
-71.6127
 11
20.0316
 21
-71.7654
  0
LINE
  8
0
 10
20.0316
 20
-71.7654
 11
19.987
 21
-71.916
  0
LINE
  8
0
 10
19.987
 20
-71.916
 11
19.9346
 21
-72.064
  0
LINE
  8
0
 10
19.9346
 20
-72.064
 11
19.8745
 21
-72.2092
  0
LINE
  8
0
 10
19.8745
 20
-72.2092
 11
19.8069
 21
-72.3509
  0
LINE
  8
0
 10
19.8069
 20
-72.3509
 11
19.7319
 21
-72.4889
  0
LINE
  8
0
 10
19.7319
 20
-72.4889
 11
19.6498
 21
-72.6228
  0
LINE
  8
0
 10
19.6498
 20
-72.6228
 11
19.5609
 21
-72.7523
  0
LINE
  8
0
 10
19.5609
 20
-72.7523
 11
19.4653
 21
-72.8769
  0
LINE
  8
0
 10
19.4653
 20
-72.8769
 11
19.3633
 21
-72.9963
  0
LINE
  8
0
 10
19.3633
 20
-72.9963
 11
19.2552
 21
-73.1103
  0
LINE
  8
0
 10
19.2552
 20
-73.1103
 11
19.1412
 21
-73.2184
  0
LINE
  8
0
 10
19.1412
 20
-73.2184
 11
19.0218
 21
-73.3204
  0
LINE
  8
0
 10
19.0218
 20
-73.3204
 11
18.8972
 21
-73.416
  0
LINE
  8
0
 10
18.8972
 20
-73.416
 11
18.7678
 21
-73.5049
  0
LINE
  8
0
 10
18.7678
 20
-73.5049
 11
18.6338
 21
-73.587
  0
LINE
  8
0
 10
18.6338
 20
-73.587
 11
18.4958
 21
-73.662
  0
LINE
  8
0
 10
18.4958
 20
-73.662
 11
18.354
 21
-73.7296
  0
LINE
  8
0
 10
18.354
 20
-73.7296
 11
18.2089
 21
-73.7897
  0
LINE
  8
0
 10
18.2089
 20
-73.7897
 11
18.0609
 21
-73.8421
  0
LINE
  8
0
 10
18.0609
 20
-73.8421
 11
17.9103
 21
-73.8867
  0
LINE
  8
0
 10
17.9103
 20
-73.8867
 11
17.7576
 21
-73.9234
  0
LINE
  8
0
 10
17.7576
 20
-73.9234
 11
13.845
 21
-74.755
  0
LINE
  8
0
 10
13.845
 20
-74.755
 11
13.6906
 21
-74.7836
  0
LINE
  8
0
 10
13.6906
 20
-74.7836
 11
13.5348
 21
-74.8041
  0
LINE
  8
0
 10
13.5348
 20
-74.8041
 11
13.3783
 21
-74.8165
  0
LINE
  8
0
 10
13.3783
 20
-74.8165
 11
13.2213
 21
-74.8206
  0
LINE
  8
0
 10
13.2213
 20
-74.8206
 11
13.0643
 21
-74.8165
  0
LINE
  8
0
 10
-13.3783
 20
-74.8165
 11
-13.5348
 21
-74.8041
  0
LINE
  8
0
 10
-13.5348
 20
-74.8041
 11
-13.6906
 21
-74.7836
  0
LINE
  8
0
 10
-13.6906
 20
-74.7836
 11
-13.845
 21
-74.755
  0
LINE
  8
0
 10
-13.845
 20
-74.755
 11
-17.7576
 21
-73.9234
  0
LINE
  8
0
 10
-17.7576
 20
-73.9234
 11
-17.9103
 21
-73.8867
  0
LINE
  8
0
 10
-17.9103
 20
-73.8867
 11
-18.0609
 21
-73.8421
  0
LINE
  8
0
 10
-18.0609
 20
-73.8421
 11
-18.2089
 21
-73.7897
  0
LINE
  8
0
 10
-18.2089
 20
-73.7897
 11
-18.354
 21
-73.7296
  0
LINE
  8
0
 10
-18.354
 20
-73.7296
 11
-18.4958
 21
-73.662
  0
LINE
  8
0
 10
-18.4958
 20
-73.662
 11
-18.6338
 21
-73.587
  0
LINE
  8
0
 10
-18.6338
 20
-73.587
 11
-18.7678
 21
-73.5049
  0
LINE
  8
0
 10
-18.7678
 20
-73.5049
 11
-18.8972
 21
-73.416
  0
LINE
  8
0
 10
-18.8972
 20
-73.416
 11
-19.0218
 21
-73.3204
  0
LINE
  8
0
 10
-19.0218
 20
-73.3204
 11
-19.1412
 21
-73.2184
  0
LINE
  8
0
 10
-19.1412
 20
-73.2184
 11
-19.2552
 21
-73.1103
  0
LINE
  8
0
 10
-19.2552
 20
-73.1103
 11
-19.3633
 21
-72.9963
  0
LINE
  8
0
 10
-19.3633
 20
-72.9963
 11
-19.4653
 21
-72.8769
  0
LINE
  8
0
 10
-19.4653
 20
-72.8769
 11
-19.5609
 21
-72.7523
  0
LINE
  8
0
 10
-19.5609
 20
-72.7523
 11
-19.6498
 21
-72.6228
  0
LINE
  8
0
 10
-19.6498
 20
-72.6228
 11
-19.7319
 21
-72.4889
  0
LINE
  8
0
 10
-19.7319
 20
-72.4889
 11
-19.8069
 21
-72.3509
  0
LINE
  8
0
 10
-19.8069
 20
-72.3509
 11
-19.8745
 21
-72.2092
  0
LINE
  8
0
 10
-19.8745
 20
-72.2092
 11
-19.9346
 21
-72.064
  0
LINE
  8
0
 10
-19.9346
 20
-72.064
 11
-19.987
 21
-71.916
  0
LINE
  8
0
 10
-19.987
 20
-71.916
 11
-20.0316
 21
-71.7654
  0
LINE
  8
0
 10
-20.0316
 20
-71.7654
 11
-20.0683
 21
-71.6127
  0
LINE
  8
0
 10
-20.0683
 20
-71.6127
 11
-20.0969
 21
-71.4583
  0
LINE
  8
0
 10
-20.0969
 20
-71.4583
 11
-20.1174
 21
-71.3025
  0
LINE
  8
0
 10
-20.1174
 20
-71.3025
 11
-20.1297
 21
-71.1459
  0
LINE
  8
0
 10
-20.1297
 20
-71.1459
 11
-20.1338
 21
-70.9889
  0
LINE
  8
0
 10
-20.1338
 20
-70.9889
 11
-20.1297
 21
-70.8319
  0
LINE
  8
0
 10
-20.1297
 20
-70.8319
 11
-20.1174
 21
-70.6754
  0
LINE
  8
0
 10
-20.1174
 20
-70.6754
 11
-20.0969
 21
-70.5196
  0
LINE
  8
0
 10
-20.0969
 20
-70.5196
 11
-20.0683
 21
-70.3652
  0
LINE
  8
0
 10
-20.0683
 20
-70.3652
 11
-20.0316
 21
-70.2125
  0
LINE
  8
0
 10
-20.0316
 20
-70.2125
 11
-12.9517
 21
-46.583
  0
LINE
  8
0
 10
-12.9517
 20
-46.583
 11
-12.8993
 21
-46.4349
  0
LINE
  8
0
 10
-12.8993
 20
-46.4349
 11
-12.8392
 21
-46.2898
  0
LINE
  8
0
 10
-12.8392
 20
-46.2898
 11
-12.7716
 21
-46.148
  0
LINE
  8
0
 10
-12.7716
 20
-46.148
 11
-12.6966
 21
-46.01
  0
LINE
  8
0
 10
-12.6966
 20
-46.01
 11
-12.6146
 21
-45.8761
  0
LINE
  8
0
 10
-12.6146
 20
-45.8761
 11
-12.5256
 21
-45.7467
  0
LINE
  8
0
 10
-12.5256
 20
-45.7467
 11
-12.43
 21
-45.622
  0
LINE
  8
0
 10
-12.43
 20
-45.622
 11
-12.328
 21
-45.5026
  0
LINE
  8
0
 10
-12.328
 20
-45.5026
 11
-12.2199
 21
-45.3887
  0
LINE
  8
0
 10
-12.2199
 20
-45.3887
 11
-12.1059
 21
-45.2806
  0
LINE
  8
0
 10
-12.1059
 20
-45.2806
 11
-11.9865
 21
-45.1786
  0
LINE
  8
0
 10
-11.9865
 20
-45.1786
 11
-11.8619
 21
-45.083
  0
LINE
  8
0
 10
-11.8619
 20
-45.083
 11
-11.7325
 21
-44.994
  0
LINE
  8
0
 10
-11.7325
 20
-44.994
 11
-11.5986
 21
-44.9119
  0
LINE
  8
0
 10
-11.5986
 20
-44.9119
 11
-11.4605
 21
-44.837
  0
LINE
  8
0
 10
-11.4605
 20
-44.837
 11
-11.3188
 21
-44.7694
  0
LINE
  8
0
 10
-11.3188
 20
-44.7694
 11
-11.1737
 21
-44.7093
  0
LINE
  8
0
 10
-11.1737
 20
-44.7093
 11
-11.0256
 21
-44.6568
  0
LINE
  8
0
 10
-11.0256
 20
-44.6568
 11
-10.875
 21
-44.6122
  0
LINE
  8
0
 10
-10.875
 20
-44.6122
 11
-10.7223
 21
-44.5756
  0
LINE
  8
0
 10
-10.7223
 20
-44.5756
 11
-10.5679
 21
-44.5469
  0
LINE
  8
0
 10
-10.5679
 20
-44.5469
 11
-10.4121
 21
-44.5264
  0
LINE
  8
0
 10
-10.4121
 20
-44.5264
 11
-10.2556
 21
-44.5141
  0
LINE
  8
0
 10
-10.2556
 20
-44.5141
 11
-10.0986
 21
-44.51
  0
LINE
  8
0
 10
-10.0986
 20
-44.51
 11
-9.94154
 21
-44.5141
  0
LINE
  8
0
 10
-9.94154
 20
-44.5141
 11
-9.78497
 21
-44.5264
  0
LINE
  8
0
 10
-9.78497
 20
-44.5264
 11
-9.62924
 21
-44.547
  0
LINE
  8
0
 10
-9.62924
 20
-44.547
 11
-9.47482
 21
-44.5756
  0
LINE
  8
0
 10
-9.47482
 20
-44.5756
 11
-9.32211
 21
-44.6122
  0
LINE
  8
0
 10
-9.32211
 20
-44.6122
 11
-9.17151
 21
-44.6568
  0
LINE
  8
0
 10
-9.17151
 20
-44.6568
 11
-9.02345
 21
-44.7093
  0
LINE
  8
0
 10
-9.02345
 20
-44.7093
 11
-8.87836
 21
-44.7694
  0
LINE
  8
0
 10
-8.87836
 20
-44.7694
 11
-8.7366
 21
-44.837
  0
LINE
  8
0
 10
-8.7366
 20
-44.837
 11
-8.59856
 21
-44.9119
  0
LINE
  8
0
 10
-8.59856
 20
-44.9119
 11
-8.46465
 21
-44.994
  0
LINE
  8
0
 10
-8.46465
 20
-44.994
 11
-8.33521
 21
-45.0829
  0
LINE
  8
0
 10
-8.33521
 20
-45.0829
 11
-8.2106
 21
-45.1786
  0
LINE
  8
0
 10
-8.2106
 20
-45.1786
 11
-8.09119
 21
-45.2806
  0
LINE
  8
0
 10
-8.09119
 20
-45.2806
 11
-7.97725
 21
-45.3887
  0
LINE
  8
0
 10
-7.97725
 20
-45.3887
 11
-7.86913
 21
-45.5026
  0
LINE
  8
0
 10
-7.86913
 20
-45.5026
 11
-7.76714
 21
-45.6221
  0
LINE
  8
0
 10
-7.76714
 20
-45.6221
 11
-7.67151
 21
-45.7466
  0
LINE
  8
0
 10
-7.67151
 20
-45.7466
 11
-7.58257
 21
-45.8761
  0
LINE
  8
0
 10
-7.58257
 20
-45.8761
 11
-7.50049
 21
-46.01
  0
LINE
  8
0
 10
-7.50049
 20
-46.01
 11
-7.42554
 21
-46.148
  0
LINE
  8
0
 10
-7.42554
 20
-46.148
 11
-7.35793
 21
-46.2898
  0
LINE
  8
0
 10
-7.35793
 20
-46.2898
 11
-7.29782
 21
-46.4349
  0
LINE
  8
0
 10
-7.29782
 20
-46.4349
 11
-7.24539
 21
-46.583
  0
LINE
  8
0
 10
-7.24539
 20
-46.583
 11
-7.20078
 21
-46.7336
  0
LINE
  8
0
 10
-7.20078
 20
-46.7336
 11
-7.16412
 21
-46.8863
  0
LINE
  8
0
 10
-7.16412
 20
-46.8863
 11
-7.1355
 21
-47.0407
  0
LINE
  8
0
 10
-7.1355
 20
-47.0407
 11
-7.11499
 21
-47.1964
  0
LINE
  8
0
 10
-7.11499
 20
-47.1964
 11
-7.10268
 21
-47.353
  0
LINE
  8
0
 10
-7.10268
 20
-47.353
 11
-7.09857
 21
-47.51
  0
LINE
  8
0
 10
-7.09857
 20
-47.51
 11
-7.10268
 21
-47.667
  0
LINE
  8
0
 10
-7.10268
 20
-47.667
 11
-7.11501
 21
-47.8236
  0
LINE
  8
0
 10
-7.11501
 20
-47.8236
 11
-10.2582
 21
-72.2899
  0
LINE
  8
0
 10
-10.2582
 20
-72.2899
 11
-10.2868
 21
-72.4443
  0
LINE
  8
0
 10
-10.2868
 20
-72.4443
 11
-10.3235
 21
-72.597
  0
LINE
  8
0
 10
-10.3235
 20
-72.597
 11
-10.3681
 21
-72.7476
  0
LINE
  8
0
 10
-10.3681
 20
-72.7476
 11
-10.4205
 21
-72.8957
  0
LINE
  8
0
 10
-10.4205
 20
-72.8957
 11
-10.4806
 21
-73.0408
  0
LINE
  8
0
 10
-10.4806
 20
-73.0408
 11
-10.5482
 21
-73.1825
  0
LINE
  8
0
 10
-10.5482
 20
-73.1825
 11
-10.6232
 21
-73.3206
  0
LINE
  8
0
 10
-10.6232
 20
-73.3206
 11
-10.7052
 21
-73.4545
  0
LINE
  8
0
 10
-10.7052
 20
-73.4545
 11
-10.7942
 21
-73.5839
  0
LINE
  8
0
 10
-10.7942
 20
-73.5839
 11
-10.8898
 21
-73.7085
  0
LINE
  8
0
 10
-10.8898
 20
-73.7085
 11
-10.9918
 21
-73.828
  0
LINE
  8
0
 10
-10.9918
 20
-73.828
 11
-11.0999
 21
-73.9419
  0
LINE
  8
0
 10
-11.0999
 20
-73.9419
 11
-11.2139
 21
-74.05
  0
LINE
  8
0
 10
-11.2139
 20
-74.05
 11
-11.3333
 21
-74.152
  0
LINE
  8
0
 10
-11.3333
 20
-74.152
 11
-11.4579
 21
-74.2476
  0
LINE
  8
0
 10
-11.4579
 20
-74.2476
 11
-11.5873
 21
-74.3366
  0
LINE
  8
0
 10
-11.5873
 20
-74.3366
 11
-11.7213
 21
-74.4187
  0
LINE
  8
0
 10
-11.7213
 20
-74.4187
 11
-11.8593
 21
-74.4936
  0
LINE
  8
0
 10
-11.8593
 20
-74.4936
 11
-12.001
 21
-74.5612
  0
LINE
  8
0
 10
-12.001
 20
-74.5612
 11
-12.1461
 21
-74.6213
  0
LINE
  8
0
 10
-12.1461
 20
-74.6213
 11
-12.2942
 21
-74.6738
  0
LINE
  8
0
 10
-12.2942
 20
-74.6738
 11
-12.4448
 21
-74.7184
  0
LINE
  8
0
 10
-12.4448
 20
-74.7184
 11
-12.5975
 21
-74.755
  0
LINE
  8
0
 10
-12.5975
 20
-74.755
 11
-12.752
 21
-74.7836
  0
LINE
  8
0
 10
-12.752
 20
-74.7836
 11
-12.9077
 21
-74.8042
  0
LINE
  8
0
 10
-12.9077
 20
-74.8042
 11
-13.0643
 21
-74.8165
  0
LINE
  8
0
 10
-13.0643
 20
-74.8165
 11
-13.2213
 21
-74.8206
  0
LINE
  8
0
 10
-13.2213
 20
-74.8206
 11
-13.3783
 21
-74.8165
  0
LINE
  8
0
 10
-74.4447
 20
-48.2769
 11
-73.0647
 21
-45.8866
  0
LINE
  8
0
 10
-73.0647
 20
-45.8866
 11
-63.0881
 21
-51.6466
  0
LINE
  8
0
 10
-63.0881
 20
-51.6466
 11
-64.4681
 21
-54.0368
  0
LINE
  8
0
 10
-64.4681
 20
-54.0368
 11
-74.4447
 21
-48.2769
  0
LINE
  8
0
 10
60.0749
 20
-61.9277
 11
63.6348
 21
-50.9716
  0
LINE
  8
0
 10
63.6348
 20
-50.9716
 11
66.2597
 21
-51.8244
  0
LINE
  8
0
 10
66.2597
 20
-51.8244
 11
62.6998
 21
-62.7806
  0
LINE
  8
0
 10
62.6998
 20
-62.7806
 11
60.0749
 21
-61.9277
  0
LINE
  8
0
 10
-68.9906
 20
-55.794
 11
-67.868
 21
-53.2726
  0
LINE
  8
0
 10
-67.868
 20
-53.2726
 11
-57.344
 21
-57.9582
  0
LINE
  8
0
 10
-57.344
 20
-57.9582
 11
-58.4666
 21
-60.4796
  0
LINE
  8
0
 10
-58.4666
 20
-60.4796
 11
-68.9906
 21
-55.794
  0
LINE
  8
0
 10
53.2726
 20
-67.868
 11
57.9582
 21
-57.344
  0
LINE
  8
0
 10
57.9582
 20
-57.344
 11
60.4796
 21
-58.4666
  0
LINE
  8
0
 10
60.4796
 20
-58.4666
 11
55.794
 21
-68.9906
  0
LINE
  8
0
 10
55.794
 20
-68.9906
 11
53.2726
 21
-67.868
  0
LINE
  8
0
 10
-62.7806
 20
-62.6998
 11
-61.9277
 21
-60.0749
  0
LINE
  8
0
 10
-61.9277
 20
-60.0749
 11
-50.9716
 21
-63.6348
  0
LINE
  8
0
 10
-50.9716
 20
-63.6348
 11
-51.8244
 21
-66.2597
  0
LINE
  8
0
 10
-51.8244
 20
-66.2597
 11
-62.7806
 21
-62.6998
  0
LINE
  8
0
 10
45.8866
 20
-73.0647
 11
51.6466
 21
-63.0881
  0
LINE
  8
0
 10
51.6466
 20
-63.0881
 11
54.0368
 21
-64.4681
  0
LINE
  8
0
 10
54.0368
 20
-64.4681
 11
48.2769
 21
-74.4447
  0
LINE
  8
0
 10
48.2769
 20
-74.4447
 11
45.8866
 21
-73.0647
  0
LINE
  8
0
 10
-55.8828
 20
-68.9187
 11
-55.3089
 21
-66.219
  0
LINE
  8
0
 10
-55.3089
 20
-66.219
 11
-44.0407
 21
-68.6142
  0
LINE
  8
0
 10
-44.0407
 20
-68.6142
 11
-44.6145
 21
-71.3139
  0
LINE
  8
0
 10
-44.6145
 20
-71.3139
 11
-55.8828
 21
-68.9187
  0
LINE
  8
0
 10
37.9979
 20
-77.461
 11
44.7692
 21
-68.1411
  0
LINE
  8
0
 10
44.7692
 20
-68.1411
 11
47.0021
 21
-69.7634
  0
LINE
  8
0
 10
47.0021
 20
-69.7634
 11
40.2308
 21
-79.0832
  0
LINE
  8
0
 10
40.2308
 20
-79.0832
 11
37.9979
 21
-77.461
  0
LINE
  8
0
 10
-48.3727
 20
-74.3825
 11
-48.0842
 21
-71.6376
  0
LINE
  8
0
 10
-48.0842
 20
-71.6376
 11
-36.6273
 21
-72.8418
  0
LINE
  8
0
 10
-36.6273
 20
-72.8418
 11
-36.9158
 21
-75.5867
  0
LINE
  8
0
 10
-36.9158
 20
-75.5867
 11
-48.3727
 21
-74.3825
  0
LINE
  8
0
 10
29.6929
 20
-81.0085
 11
37.4013
 21
-72.4474
  0
LINE
  8
0
 10
37.4013
 20
-72.4474
 11
39.4523
 21
-74.2942
  0
LINE
  8
0
 10
39.4523
 20
-74.2942
 11
31.744
 21
-82.8553
  0
LINE
  8
0
 10
31.744
 20
-82.8553
 11
29.6929
 21
-81.0085
  0
LINE
  8
0
 10
21.0625
 20
-83.6684
 11
29.6236
 21
-75.9601
  0
LINE
  8
0
 10
29.6236
 20
-75.9601
 11
31.4704
 21
-78.0111
  0
LINE
  8
0
 10
31.4704
 20
-78.0111
 11
22.9093
 21
-85.7195
  0
LINE
  8
0
 10
22.9093
 20
-85.7195
 11
21.0625
 21
-83.6684
  0
LINE
  8
0
 10
-40.3326
 20
-79.0314
 11
-40.3326
 21
-76.2714
  0
LINE
  8
0
 10
-40.3326
 20
-76.2714
 11
-28.8126
 21
-76.2714
  0
LINE
  8
0
 10
-28.8126
 20
-76.2714
 11
-28.8126
 21
-79.0314
  0
LINE
  8
0
 10
-28.8126
 20
-79.0314
 11
-40.3326
 21
-79.0314
  0
LINE
  8
0
 10
12.2014
 20
-85.4117
 11
21.5213
 21
-78.6405
  0
LINE
  8
0
 10
21.5213
 20
-78.6405
 11
23.1436
 21
-80.8733
  0
LINE
  8
0
 10
23.1436
 20
-80.8733
 11
13.8237
 21
-87.6446
  0
LINE
  8
0
 10
13.8237
 20
-87.6446
 11
12.2014
 21
-85.4117
  0
LINE
  8
0
 10
-32.1391
 20
-80.0694
 11
-20.6822
 21
-78.8653
  0
LINE
  8
0
 10
-20.6822
 20
-78.8653
 11
-20.3937
 21
-81.6102
  0
LINE
  8
0
 10
-20.3937
 20
-81.6102
 11
-31.8506
 21
-82.8143
  0
LINE
  8
0
 10
-31.8506
 20
-82.8143
 11
-32.1391
 21
-80.0694
  0
LINE
  8
0
 10
3.2066
 20
-86.2192
 11
13.1832
 21
-80.4592
  0
LINE
  8
0
 10
13.1832
 20
-80.4592
 11
14.5632
 21
-82.8495
  0
LINE
  8
0
 10
14.5632
 20
-82.8495
 11
4.58661
 21
-88.6095
  0
LINE
  8
0
 10
4.58661
 20
-88.6095
 11
3.2066
 21
-86.2192
  0
LINE
  8
0
 10
-23.5935
 20
-82.9903
 11
-12.3253
 21
-80.5951
  0
LINE
  8
0
 10
-12.3253
 20
-80.5951
 11
-11.7514
 21
-83.2948
  0
LINE
  8
0
 10
-11.7514
 20
-83.2948
 11
-23.0197
 21
-85.69
  0
LINE
  8
0
 10
-23.0197
 20
-85.69
 11
-23.5935
 21
-82.9903
  0
LINE
  8
0
 10
-5.8233
 20
-86.0821
 11
4.70071
 21
-81.3965
  0
LINE
  8
0
 10
4.70071
 20
-81.3965
 11
5.8233
 21
-83.9179
  0
LINE
  8
0
 10
5.8233
 20
-83.9179
 11
-4.70071
 21
-88.6035
  0
LINE
  8
0
 10
-4.70071
 20
-88.6035
 11
-5.8233
 21
-86.0821
  0
LINE
  8
0
 10
-14.7894
 20
-85.0018
 11
-3.83327
 21
-81.442
  0
LINE
  8
0
 10
-3.83327
 20
-81.442
 11
-2.98038
 21
-84.0669
  0
LINE
  8
0
 10
-2.98038
 20
-84.0669
 11
-13.9366
 21
-87.6268
  0
LINE
  8
0
 10
-13.9366
 20
-87.6268
 11
-14.7894
 21
-85.0018
  0
ENDSEC
  0
SECTION
  2
OBJECTS
  0
DICTIONARY
  0
ENDSEC
  0
EOF
