  0
SECTION
  2
BLOCKS
  0
ENDSEC
  0
SECTION
  2
ENTITIES
  0
LINE
  8
0
 10
18
 20
-8.25
 11
21
 21
-8.25
  0
LINE
  8
0
 10
21
 20
-8.25
 11
21
 21
3.75
  0
LINE
  8
0
 10
21
 20
3.75
 11
17.9757
 21
3.75
  0
LINE
  8
0
 10
17.9757
 20
3.75
 11
17.9606
 21
3.5582
  0
LINE
  8
0
 10
17.9606
 20
3.5582
 11
17.8991
 21
3.09052
  0
LINE
  8
0
 10
17.8991
 20
3.09052
 11
17.8131
 21
2.62671
  0
LINE
  8
0
 10
17.8131
 20
2.62671
 11
17.703
 21
2.16803
  0
LINE
  8
0
 10
17.703
 20
2.16803
 11
17.569
 21
1.71574
  0
LINE
  8
0
 10
17.569
 20
1.71574
 11
17.4115
 21
1.2711
  0
LINE
  8
0
 10
17.4115
 20
1.2711
 11
17.231
 21
0.835297
  0
LINE
  8
0
 10
17.231
 20
0.835297
 11
17.028
 21
0.409531
  0
LINE
  8
0
 10
17.028
 20
0.409531
 11
16.8029
 21
-0.00498962
  0
LINE
  8
0
 10
16.8029
 20
-0.00498962
 11
16.5564
 21
-0.407196
  0
LINE
  8
0
 10
16.5564
 20
-0.407196
 11
16.2892
 21
-0.795944
  0
LINE
  8
0
 10
16.2892
 20
-0.795944
 11
16.0021
 21
-1.17017
  0
LINE
  8
0
 10
16.0021
 20
-1.17017
 11
15.6957
 21
-1.52885
  0
LINE
  8
0
 10
15.6957
 20
-1.52885
 11
15.371
 21
-1.87102
  0
LINE
  8
0
 10
15.371
 20
-1.87102
 11
15.0289
 21
-2.19572
  0
LINE
  8
0
 10
15.0289
 20
-2.19572
 11
14.6702
 21
-2.50208
  0
LINE
  8
0
 10
14.6702
 20
-2.50208
 11
14.2959
 21
-2.78923
  0
LINE
  8
0
 10
14.2959
 20
-2.78923
 11
13.9072
 21
-3.05641
  0
LINE
  8
0
 10
13.9072
 20
-3.05641
 11
13.505
 21
-3.30289
  0
LINE
  8
0
 10
13.505
 20
-3.30289
 11
13.0905
 21
-3.52795
  0
LINE
  8
0
 10
13.0905
 20
-3.52795
 11
12.6647
 21
-3.73103
  0
LINE
  8
0
 10
12.6647
 20
-3.73103
 11
12.2289
 21
-3.91154
  0
LINE
  8
0
 10
12.2289
 20
-3.91154
 11
11.7842
 21
-4.06902
  0
LINE
  8
0
 10
11.7842
 20
-4.06902
 11
11.332
 21
-4.20299
  0
LINE
  8
0
 10
11.332
 20
-4.20299
 11
10.8733
 21
-4.3131
  0
LINE
  8
0
 10
10.8733
 20
-4.3131
 11
10.4095
 21
-4.39906
  0
LINE
  8
0
 10
10.4095
 20
-4.39906
 11
9.94179
 21
-4.46063
  0
LINE
  8
0
 10
9.94179
 20
-4.46063
 11
9.47154
 21
-4.49765
  0
LINE
  8
0
 10
9.47154
 20
-4.49765
 11
8.99998
 21
-4.50999
  0
LINE
  8
0
 10
8.99998
 20
-4.50999
 11
8.52844
 21
-4.49765
  0
LINE
  8
0
 10
8.52844
 20
-4.49765
 11
8.0582
 21
-4.46063
  0
LINE
  8
0
 10
8.0582
 20
-4.46063
 11
7.59052
 21
-4.39906
  0
LINE
  8
0
 10
7.59052
 20
-4.39906
 11
7.12671
 21
-4.3131
  0
LINE
  8
0
 10
7.12671
 20
-4.3131
 11
6.66803
 21
-4.20299
  0
LINE
  8
0
 10
6.66803
 20
-4.20299
 11
6.21574
 21
-4.06902
  0
LINE
  8
0
 10
6.21574
 20
-4.06902
 11
5.7711
 21
-3.91154
  0
LINE
  8
0
 10
5.7711
 20
-3.91154
 11
5.3353
 21
-3.73103
  0
LINE
  8
0
 10
5.3353
 20
-3.73103
 11
4.90953
 21
-3.52795
  0
LINE
  8
0
 10
4.90953
 20
-3.52795
 11
4.495
 21
-3.30289
  0
LINE
  8
0
 10
4.495
 20
-3.30289
 11
4.09279
 21
-3.05641
  0
LINE
  8
0
 10
4.09279
 20
-3.05641
 11
3.70404
 21
-2.78923
  0
LINE
  8
0
 10
3.70404
 20
-2.78923
 11
3.32982
 21
-2.50208
  0
LINE
  8
0
 10
3.32982
 20
-2.50208
 11
2.97113
 21
-2.19572
  0
LINE
  8
0
 10
2.97113
 20
-2.19572
 11
2.62897
 21
-1.87102
  0
LINE
  8
0
 10
2.62897
 20
-1.87102
 11
2.30426
 21
-1.52885
  0
LINE
  8
0
 10
2.30426
 20
-1.52885
 11
1.99791
 21
-1.17017
  0
LINE
  8
0
 10
1.99791
 20
-1.17017
 11
1.71075
 21
-0.795944
  0
LINE
  8
0
 10
1.71075
 20
-0.795944
 11
1.44357
 21
-0.407196
  0
LINE
  8
0
 10
1.44357
 20
-0.407196
 11
1.1971
 21
-0.00498962
  0
LINE
  8
0
 10
1.1971
 20
-0.00498962
 11
0.972031
 21
0.409531
  0
LINE
  8
0
 10
0.972031
 20
0.409531
 11
0.768951
 21
0.835297
  0
LINE
  8
0
 10
0.768951
 20
0.835297
 11
0.58844
 21
1.2711
  0
LINE
  8
0
 10
0.58844
 20
1.2711
 11
0.430969
 21
1.71574
  0
LINE
  8
0
 10
0.430969
 20
1.71574
 11
0.296997
 21
2.16803
  0
LINE
  8
0
 10
0.296997
 20
2.16803
 11
0.18689
 21
2.62671
  0
LINE
  8
0
 10
0.18689
 20
2.62671
 11
0.100922
 21
3.09052
  0
LINE
  8
0
 10
0.100922
 20
3.09052
 11
0.0393524
 21
3.5582
  0
LINE
  8
0
 10
0.0393524
 20
3.5582
 11
0.0242462
 21
3.75
  0
LINE
  8
0
 10
0.0242462
 20
3.75
 11
-0.0242462
 21
3.75
  0
LINE
  8
0
 10
-0.0242462
 20
3.75
 11
-0.0393524
 21
3.5582
  0
LINE
  8
0
 10
-0.0393524
 20
3.5582
 11
-0.100922
 21
3.09052
  0
LINE
  8
0
 10
-0.100922
 20
3.09052
 11
-0.18689
 21
2.62671
  0
LINE
  8
0
 10
-0.18689
 20
2.62671
 11
-0.296997
 21
2.16803
  0
LINE
  8
0
 10
-0.296997
 20
2.16803
 11
-0.430969
 21
1.71574
  0
LINE
  8
0
 10
-0.430969
 20
1.71574
 11
-0.58844
 21
1.2711
  0
LINE
  8
0
 10
-0.58844
 20
1.2711
 11
-0.768951
 21
0.835297
  0
LINE
  8
0
 10
-0.768951
 20
0.835297
 11
-0.972031
 21
0.409531
  0
LINE
  8
0
 10
-0.972031
 20
0.409531
 11
-1.1971
 21
-0.00498962
  0
LINE
  8
0
 10
-1.1971
 20
-0.00498962
 11
-1.44357
 21
-0.407196
  0
LINE
  8
0
 10
-1.44357
 20
-0.407196
 11
-1.71075
 21
-0.795944
  0
LINE
  8
0
 10
-1.71075
 20
-0.795944
 11
-1.99791
 21
-1.17017
  0
LINE
  8
0
 10
-1.99791
 20
-1.17017
 11
-2.30426
 21
-1.52885
  0
LINE
  8
0
 10
-2.30426
 20
-1.52885
 11
-2.62897
 21
-1.87102
  0
LINE
  8
0
 10
-2.62897
 20
-1.87102
 11
-2.97113
 21
-2.19572
  0
LINE
  8
0
 10
-2.97113
 20
-2.19572
 11
-3.32982
 21
-2.50208
  0
LINE
  8
0
 10
-3.32982
 20
-2.50208
 11
-3.70404
 21
-2.78923
  0
LINE
  8
0
 10
-3.70404
 20
-2.78923
 11
-4.09279
 21
-3.05641
  0
LINE
  8
0
 10
-4.09279
 20
-3.05641
 11
-4.495
 21
-3.30289
  0
LINE
  8
0
 10
-4.495
 20
-3.30289
 11
-4.90953
 21
-3.52795
  0
LINE
  8
0
 10
-4.90953
 20
-3.52795
 11
-5.3353
 21
-3.73103
  0
LINE
  8
0
 10
-5.3353
 20
-3.73103
 11
-5.7711
 21
-3.91154
  0
LINE
  8
0
 10
-5.7711
 20
-3.91154
 11
-6.21574
 21
-4.06902
  0
LINE
  8
0
 10
-6.21574
 20
-4.06902
 11
-6.66803
 21
-4.20299
  0
LINE
  8
0
 10
-6.66803
 20
-4.20299
 11
-7.12671
 21
-4.3131
  0
LINE
  8
0
 10
-7.12671
 20
-4.3131
 11
-7.59052
 21
-4.39906
  0
LINE
  8
0
 10
-7.59052
 20
-4.39906
 11
-8.0582
 21
-4.46063
  0
LINE
  8
0
 10
-8.0582
 20
-4.46063
 11
-8.52844
 21
-4.49765
  0
LINE
  8
0
 10
-8.52844
 20
-4.49765
 11
-9
 21
-4.50999
  0
LINE
  8
0
 10
-9
 20
-4.50999
 11
-9.47154
 21
-4.49765
  0
LINE
  8
0
 10
-9.47154
 20
-4.49765
 11
-9.94179
 21
-4.46063
  0
LINE
  8
0
 10
-9.94179
 20
-4.46063
 11
-10.4095
 21
-4.39906
  0
LINE
  8
0
 10
-10.4095
 20
-4.39906
 11
-10.8733
 21
-4.3131
  0
LINE
  8
0
 10
-10.8733
 20
-4.3131
 11
-11.332
 21
-4.20299
  0
LINE
  8
0
 10
-11.332
 20
-4.20299
 11
-11.7842
 21
-4.06902
  0
LINE
  8
0
 10
-11.7842
 20
-4.06902
 11
-12.2289
 21
-3.91154
  0
LINE
  8
0
 10
-12.2289
 20
-3.91154
 11
-12.6647
 21
-3.73103
  0
LINE
  8
0
 10
-12.6647
 20
-3.73103
 11
-13.0905
 21
-3.52795
  0
LINE
  8
0
 10
-13.0905
 20
-3.52795
 11
-13.505
 21
-3.30289
  0
LINE
  8
0
 10
-13.505
 20
-3.30289
 11
-13.9072
 21
-3.05641
  0
LINE
  8
0
 10
-13.9072
 20
-3.05641
 11
-14.2959
 21
-2.78923
  0
LINE
  8
0
 10
-14.2959
 20
-2.78923
 11
-14.6702
 21
-2.50208
  0
LINE
  8
0
 10
-14.6702
 20
-2.50208
 11
-15.0289
 21
-2.19572
  0
LINE
  8
0
 10
-15.0289
 20
-2.19572
 11
-15.371
 21
-1.87102
  0
LINE
  8
0
 10
-15.371
 20
-1.87102
 11
-15.6957
 21
-1.52885
  0
LINE
  8
0
 10
-15.6957
 20
-1.52885
 11
-16.0021
 21
-1.17017
  0
LINE
  8
0
 10
-16.0021
 20
-1.17017
 11
-16.2892
 21
-0.795944
  0
LINE
  8
0
 10
-16.2892
 20
-0.795944
 11
-16.5564
 21
-0.407196
  0
LINE
  8
0
 10
-16.5564
 20
-0.407196
 11
-16.8029
 21
-0.00498962
  0
LINE
  8
0
 10
-16.8029
 20
-0.00498962
 11
-17.028
 21
0.409531
  0
LINE
  8
0
 10
-17.028
 20
0.409531
 11
-17.231
 21
0.835297
  0
LINE
  8
0
 10
-17.231
 20
0.835297
 11
-17.4115
 21
1.2711
  0
LINE
  8
0
 10
-17.4115
 20
1.2711
 11
-17.569
 21
1.71574
  0
LINE
  8
0
 10
-17.569
 20
1.71574
 11
-17.703
 21
2.16803
  0
LINE
  8
0
 10
-17.703
 20
2.16803
 11
-17.8131
 21
2.62671
  0
LINE
  8
0
 10
-17.8131
 20
2.62671
 11
-17.8991
 21
3.09052
  0
LINE
  8
0
 10
-17.8991
 20
3.09052
 11
-17.9606
 21
3.5582
  0
LINE
  8
0
 10
-17.9606
 20
3.5582
 11
-17.9757
 21
3.75
  0
LINE
  8
0
 10
-17.9757
 20
3.75
 11
-21
 21
3.75
  0
LINE
  8
0
 10
-21
 20
3.75
 11
-21
 21
-8.25
  0
LINE
  8
0
 10
-21
 20
-8.25
 11
-18
 21
-8.25
  0
LINE
  8
0
 10
-18
 20
-8.25
 11
-18
 21
-12.75
  0
LINE
  8
0
 10
-18
 20
-12.75
 11
18
 21
-12.75
  0
LINE
  8
0
 10
18
 20
-12.75
 11
18
 21
-8.25
  0
ENDSEC
  0
SECTION
  2
OBJECTS
  0
DICTIONARY
  0
ENDSEC
  0
EOF
