  0
SECTION
  2
BLOCKS
  0
ENDSEC
  0
SECTION
  2
ENTITIES
  0
LINE
  8
0
 10
3.45505
 20
-98.9397
 11
6.90588
 21
-98.7588
  0
LINE
  8
0
 10
6.90588
 20
-98.7588
 11
10.3483
 21
-98.4577
  0
LINE
  8
0
 10
10.3483
 20
-98.4577
 11
13.7781
 21
-98.0365
  0
LINE
  8
0
 10
13.7781
 20
-98.0365
 11
17.1912
 21
-97.496
  0
LINE
  8
0
 10
17.1912
 20
-97.496
 11
20.5833
 21
-96.8366
  0
LINE
  8
0
 10
20.5833
 20
-96.8366
 11
23.9503
 21
-96.0593
  0
LINE
  8
0
 10
23.9503
 20
-96.0593
 11
27.2881
 21
-95.1649
  0
LINE
  8
0
 10
27.2881
 20
-95.1649
 11
30.5927
 21
-94.1546
  0
LINE
  8
0
 10
30.5927
 20
-94.1546
 11
33.86
 21
-93.0296
  0
LINE
  8
0
 10
33.86
 20
-93.0296
 11
37.086
 21
-91.7912
  0
LINE
  8
0
 10
37.086
 20
-91.7912
 11
40.2669
 21
-90.441
  0
LINE
  8
0
 10
40.2669
 20
-90.441
 11
43.3987
 21
-88.9806
  0
LINE
  8
0
 10
43.3987
 20
-88.9806
 11
46.4777
 21
-87.4118
  0
LINE
  8
0
 10
46.4777
 20
-87.4118
 11
49.5
 21
-85.7365
  0
LINE
  8
0
 10
49.5
 20
-85.7365
 11
52.462
 21
-83.9568
  0
LINE
  8
0
 10
52.462
 20
-83.9568
 11
55.3601
 21
-82.0747
  0
LINE
  8
0
 10
55.3601
 20
-82.0747
 11
58.1907
 21
-80.0927
  0
LINE
  8
0
 10
58.1907
 20
-80.0927
 11
60.9505
 21
-78.0131
  0
LINE
  8
0
 10
60.9505
 20
-78.0131
 11
63.636
 21
-75.8384
  0
LINE
  8
0
 10
63.636
 20
-75.8384
 11
66.2439
 21
-73.5713
  0
LINE
  8
0
 10
66.2439
 20
-73.5713
 11
68.7712
 21
-71.2146
  0
LINE
  8
0
 10
68.7712
 20
-71.2146
 11
71.2146
 21
-68.7712
  0
LINE
  8
0
 10
71.2146
 20
-68.7712
 11
73.5713
 21
-66.2439
  0
LINE
  8
0
 10
73.5713
 20
-66.2439
 11
75.8384
 21
-63.636
  0
LINE
  8
0
 10
75.8384
 20
-63.636
 11
78.0131
 21
-60.9505
  0
LINE
  8
0
 10
78.0131
 20
-60.9505
 11
80.0927
 21
-58.1907
  0
LINE
  8
0
 10
80.0927
 20
-58.1907
 11
82.0747
 21
-55.3601
  0
LINE
  8
0
 10
82.0747
 20
-55.3601
 11
83.9568
 21
-52.462
  0
LINE
  8
0
 10
83.9568
 20
-52.462
 11
85.7365
 21
-49.5
  0
LINE
  8
0
 10
85.7365
 20
-49.5
 11
87.4118
 21
-46.4777
  0
LINE
  8
0
 10
87.4118
 20
-46.4777
 11
88.9806
 21
-43.3987
  0
LINE
  8
0
 10
88.9806
 20
-43.3987
 11
90.441
 21
-40.2669
  0
LINE
  8
0
 10
90.441
 20
-40.2669
 11
91.7912
 21
-37.086
  0
LINE
  8
0
 10
91.7912
 20
-37.086
 11
93.0296
 21
-33.86
  0
LINE
  8
0
 10
93.0296
 20
-33.86
 11
94.1546
 21
-30.5927
  0
LINE
  8
0
 10
94.1546
 20
-30.5927
 11
95.1649
 21
-27.2881
  0
LINE
  8
0
 10
95.1649
 20
-27.2881
 11
96.0593
 21
-23.9503
  0
LINE
  8
0
 10
96.0593
 20
-23.9503
 11
96.8366
 21
-20.5833
  0
LINE
  8
0
 10
96.8366
 20
-20.5833
 11
97.496
 21
-17.1912
  0
LINE
  8
0
 10
97.496
 20
-17.1912
 11
98.0365
 21
-13.7781
  0
LINE
  8
0
 10
98.0365
 20
-13.7781
 11
98.4577
 21
-10.3483
  0
LINE
  8
0
 10
98.4577
 20
-10.3483
 11
98.7588
 21
-6.90588
  0
LINE
  8
0
 10
98.7588
 20
-6.90588
 11
98.9397
 21
-3.45505
  0
LINE
  8
0
 10
98.9397
 20
-3.45505
 11
99
 21
0
  0
LINE
  8
0
 10
99
 20
0
 11
98.9397
 21
3.45505
  0
LINE
  8
0
 10
98.9397
 20
3.45505
 11
98.7588
 21
6.90588
  0
LINE
  8
0
 10
98.7588
 20
6.90588
 11
98.4577
 21
10.3483
  0
LINE
  8
0
 10
98.4577
 20
10.3483
 11
98.0365
 21
13.7781
  0
LINE
  8
0
 10
98.0365
 20
13.7781
 11
97.496
 21
17.1912
  0
LINE
  8
0
 10
97.496
 20
17.1912
 11
96.8366
 21
20.5833
  0
LINE
  8
0
 10
96.8366
 20
20.5833
 11
96.0593
 21
23.9503
  0
LINE
  8
0
 10
96.0593
 20
23.9503
 11
95.1649
 21
27.2881
  0
LINE
  8
0
 10
95.1649
 20
27.2881
 11
94.1546
 21
30.5927
  0
LINE
  8
0
 10
94.1546
 20
30.5927
 11
93.0296
 21
33.86
  0
LINE
  8
0
 10
93.0296
 20
33.86
 11
91.7912
 21
37.086
  0
LINE
  8
0
 10
91.7912
 20
37.086
 11
90.441
 21
40.2669
  0
LINE
  8
0
 10
90.441
 20
40.2669
 11
88.9806
 21
43.3987
  0
LINE
  8
0
 10
88.9806
 20
43.3987
 11
87.4118
 21
46.4777
  0
LINE
  8
0
 10
87.4118
 20
46.4777
 11
85.7365
 21
49.5
  0
LINE
  8
0
 10
85.7365
 20
49.5
 11
83.9568
 21
52.462
  0
LINE
  8
0
 10
83.9568
 20
52.462
 11
82.0747
 21
55.3601
  0
LINE
  8
0
 10
82.0747
 20
55.3601
 11
80.0927
 21
58.1907
  0
LINE
  8
0
 10
80.0927
 20
58.1907
 11
78.0131
 21
60.9505
  0
LINE
  8
0
 10
78.0131
 20
60.9505
 11
75.8384
 21
63.636
  0
LINE
  8
0
 10
75.8384
 20
63.636
 11
73.5713
 21
66.2439
  0
LINE
  8
0
 10
73.5713
 20
66.2439
 11
71.2146
 21
68.7712
  0
LINE
  8
0
 10
71.2146
 20
68.7712
 11
68.7712
 21
71.2146
  0
LINE
  8
0
 10
68.7712
 20
71.2146
 11
66.2439
 21
73.5713
  0
LINE
  8
0
 10
66.2439
 20
73.5713
 11
63.636
 21
75.8384
  0
LINE
  8
0
 10
63.636
 20
75.8384
 11
60.9505
 21
78.0131
  0
LINE
  8
0
 10
60.9505
 20
78.0131
 11
58.1907
 21
80.0927
  0
LINE
  8
0
 10
58.1907
 20
80.0927
 11
55.3601
 21
82.0747
  0
LINE
  8
0
 10
55.3601
 20
82.0747
 11
52.462
 21
83.9568
  0
LINE
  8
0
 10
52.462
 20
83.9568
 11
49.5
 21
85.7365
  0
LINE
  8
0
 10
49.5
 20
85.7365
 11
46.4777
 21
87.4118
  0
LINE
  8
0
 10
46.4777
 20
87.4118
 11
43.3987
 21
88.9806
  0
LINE
  8
0
 10
43.3987
 20
88.9806
 11
40.2669
 21
90.441
  0
LINE
  8
0
 10
40.2669
 20
90.441
 11
37.086
 21
91.7912
  0
LINE
  8
0
 10
37.086
 20
91.7912
 11
33.86
 21
93.0296
  0
LINE
  8
0
 10
33.86
 20
93.0296
 11
30.5927
 21
94.1546
  0
LINE
  8
0
 10
30.5927
 20
94.1546
 11
27.2881
 21
95.1649
  0
LINE
  8
0
 10
27.2881
 20
95.1649
 11
23.9503
 21
96.0593
  0
LINE
  8
0
 10
23.9503
 20
96.0593
 11
20.5833
 21
96.8366
  0
LINE
  8
0
 10
20.5833
 20
96.8366
 11
17.1912
 21
97.496
  0
LINE
  8
0
 10
17.1912
 20
97.496
 11
13.7781
 21
98.0365
  0
LINE
  8
0
 10
13.7781
 20
98.0365
 11
10.3483
 21
98.4577
  0
LINE
  8
0
 10
10.3483
 20
98.4577
 11
6.90588
 21
98.7588
  0
LINE
  8
0
 10
6.90588
 20
98.7588
 11
3.45505
 21
98.9397
  0
LINE
  8
0
 10
3.45505
 20
98.9397
 11
0
 21
99
  0
LINE
  8
0
 10
0
 20
99
 11
-3.45505
 21
98.9397
  0
LINE
  8
0
 10
-3.45505
 20
98.9397
 11
-6.90588
 21
98.7588
  0
LINE
  8
0
 10
-6.90588
 20
98.7588
 11
-10.3483
 21
98.4577
  0
LINE
  8
0
 10
-10.3483
 20
98.4577
 11
-13.7781
 21
98.0365
  0
LINE
  8
0
 10
-13.7781
 20
98.0365
 11
-17.1912
 21
97.496
  0
LINE
  8
0
 10
-17.1912
 20
97.496
 11
-20.5833
 21
96.8366
  0
LINE
  8
0
 10
-20.5833
 20
96.8366
 11
-23.9503
 21
96.0593
  0
LINE
  8
0
 10
-23.9503
 20
96.0593
 11
-27.2881
 21
95.1649
  0
LINE
  8
0
 10
-27.2881
 20
95.1649
 11
-30.5927
 21
94.1546
  0
LINE
  8
0
 10
-30.5927
 20
94.1546
 11
-33.86
 21
93.0296
  0
LINE
  8
0
 10
-33.86
 20
93.0296
 11
-37.086
 21
91.7912
  0
LINE
  8
0
 10
-37.086
 20
91.7912
 11
-40.2669
 21
90.441
  0
LINE
  8
0
 10
-40.2669
 20
90.441
 11
-43.3987
 21
88.9806
  0
LINE
  8
0
 10
-43.3987
 20
88.9806
 11
-46.4777
 21
87.4118
  0
LINE
  8
0
 10
-46.4777
 20
87.4118
 11
-49.5
 21
85.7365
  0
LINE
  8
0
 10
-49.5
 20
85.7365
 11
-52.462
 21
83.9568
  0
LINE
  8
0
 10
-52.462
 20
83.9568
 11
-55.3601
 21
82.0747
  0
LINE
  8
0
 10
-55.3601
 20
82.0747
 11
-58.1907
 21
80.0927
  0
LINE
  8
0
 10
-58.1907
 20
80.0927
 11
-60.9505
 21
78.0131
  0
LINE
  8
0
 10
-60.9505
 20
78.0131
 11
-63.636
 21
75.8384
  0
LINE
  8
0
 10
-63.636
 20
75.8384
 11
-66.2439
 21
73.5713
  0
LINE
  8
0
 10
-66.2439
 20
73.5713
 11
-68.7712
 21
71.2146
  0
LINE
  8
0
 10
-68.7712
 20
71.2146
 11
-71.2146
 21
68.7712
  0
LINE
  8
0
 10
-71.2146
 20
68.7712
 11
-73.5713
 21
66.2439
  0
LINE
  8
0
 10
-73.5713
 20
66.2439
 11
-75.8384
 21
63.636
  0
LINE
  8
0
 10
-75.8384
 20
63.636
 11
-78.0131
 21
60.9505
  0
LINE
  8
0
 10
-78.0131
 20
60.9505
 11
-80.0927
 21
58.1907
  0
LINE
  8
0
 10
-80.0927
 20
58.1907
 11
-82.0747
 21
55.3601
  0
LINE
  8
0
 10
-82.0747
 20
55.3601
 11
-83.9568
 21
52.462
  0
LINE
  8
0
 10
-83.9568
 20
52.462
 11
-85.7365
 21
49.5
  0
LINE
  8
0
 10
-85.7365
 20
49.5
 11
-87.4118
 21
46.4777
  0
LINE
  8
0
 10
-87.4118
 20
46.4777
 11
-88.9806
 21
43.3987
  0
LINE
  8
0
 10
-88.9806
 20
43.3987
 11
-90.441
 21
40.2669
  0
LINE
  8
0
 10
-90.441
 20
40.2669
 11
-91.7912
 21
37.086
  0
LINE
  8
0
 10
-91.7912
 20
37.086
 11
-93.0296
 21
33.86
  0
LINE
  8
0
 10
-93.0296
 20
33.86
 11
-94.1546
 21
30.5927
  0
LINE
  8
0
 10
-94.1546
 20
30.5927
 11
-95.1649
 21
27.2881
  0
LINE
  8
0
 10
-95.1649
 20
27.2881
 11
-96.0593
 21
23.9503
  0
LINE
  8
0
 10
-96.0593
 20
23.9503
 11
-96.8366
 21
20.5833
  0
LINE
  8
0
 10
-96.8366
 20
20.5833
 11
-97.496
 21
17.1912
  0
LINE
  8
0
 10
-97.496
 20
17.1912
 11
-98.0365
 21
13.7781
  0
LINE
  8
0
 10
-98.0365
 20
13.7781
 11
-98.4577
 21
10.3483
  0
LINE
  8
0
 10
-98.4577
 20
10.3483
 11
-98.7588
 21
6.90588
  0
LINE
  8
0
 10
-98.7588
 20
6.90588
 11
-98.9397
 21
3.45505
  0
LINE
  8
0
 10
-98.9397
 20
3.45505
 11
-99
 21
0
  0
LINE
  8
0
 10
-99
 20
0
 11
-98.9397
 21
-3.45505
  0
LINE
  8
0
 10
-98.9397
 20
-3.45505
 11
-98.7588
 21
-6.90588
  0
LINE
  8
0
 10
-98.7588
 20
-6.90588
 11
-98.4577
 21
-10.3483
  0
LINE
  8
0
 10
-98.4577
 20
-10.3483
 11
-98.0365
 21
-13.7781
  0
LINE
  8
0
 10
-98.0365
 20
-13.7781
 11
-97.496
 21
-17.1912
  0
LINE
  8
0
 10
-97.496
 20
-17.1912
 11
-96.8366
 21
-20.5833
  0
LINE
  8
0
 10
-96.8366
 20
-20.5833
 11
-96.0593
 21
-23.9503
  0
LINE
  8
0
 10
-96.0593
 20
-23.9503
 11
-95.1649
 21
-27.2881
  0
LINE
  8
0
 10
-95.1649
 20
-27.2881
 11
-94.1546
 21
-30.5927
  0
LINE
  8
0
 10
-94.1546
 20
-30.5927
 11
-93.0296
 21
-33.86
  0
LINE
  8
0
 10
-93.0296
 20
-33.86
 11
-91.7912
 21
-37.086
  0
LINE
  8
0
 10
-91.7912
 20
-37.086
 11
-90.441
 21
-40.2669
  0
LINE
  8
0
 10
-90.441
 20
-40.2669
 11
-88.9806
 21
-43.3987
  0
LINE
  8
0
 10
-88.9806
 20
-43.3987
 11
-87.4118
 21
-46.4777
  0
LINE
  8
0
 10
-87.4118
 20
-46.4777
 11
-85.7365
 21
-49.5
  0
LINE
  8
0
 10
-85.7365
 20
-49.5
 11
-83.9568
 21
-52.462
  0
LINE
  8
0
 10
-83.9568
 20
-52.462
 11
-82.0747
 21
-55.3601
  0
LINE
  8
0
 10
-82.0747
 20
-55.3601
 11
-80.0927
 21
-58.1907
  0
LINE
  8
0
 10
-80.0927
 20
-58.1907
 11
-78.0131
 21
-60.9505
  0
LINE
  8
0
 10
-78.0131
 20
-60.9505
 11
-75.8384
 21
-63.636
  0
LINE
  8
0
 10
-75.8384
 20
-63.636
 11
-73.5713
 21
-66.2439
  0
LINE
  8
0
 10
-73.5713
 20
-66.2439
 11
-71.2146
 21
-68.7712
  0
LINE
  8
0
 10
-71.2146
 20
-68.7712
 11
-68.7712
 21
-71.2146
  0
LINE
  8
0
 10
-68.7712
 20
-71.2146
 11
-66.2439
 21
-73.5713
  0
LINE
  8
0
 10
-66.2439
 20
-73.5713
 11
-63.636
 21
-75.8384
  0
LINE
  8
0
 10
-63.636
 20
-75.8384
 11
-60.9505
 21
-78.0131
  0
LINE
  8
0
 10
-60.9505
 20
-78.0131
 11
-58.1907
 21
-80.0927
  0
LINE
  8
0
 10
-58.1907
 20
-80.0927
 11
-55.3601
 21
-82.0747
  0
LINE
  8
0
 10
-55.3601
 20
-82.0747
 11
-52.462
 21
-83.9568
  0
LINE
  8
0
 10
-52.462
 20
-83.9568
 11
-49.5
 21
-85.7365
  0
LINE
  8
0
 10
-49.5
 20
-85.7365
 11
-46.4777
 21
-87.4118
  0
LINE
  8
0
 10
-46.4777
 20
-87.4118
 11
-43.3987
 21
-88.9806
  0
LINE
  8
0
 10
-43.3987
 20
-88.9806
 11
-40.2669
 21
-90.441
  0
LINE
  8
0
 10
-40.2669
 20
-90.441
 11
-37.086
 21
-91.7912
  0
LINE
  8
0
 10
-37.086
 20
-91.7912
 11
-33.86
 21
-93.0296
  0
LINE
  8
0
 10
-33.86
 20
-93.0296
 11
-30.5927
 21
-94.1546
  0
LINE
  8
0
 10
-30.5927
 20
-94.1546
 11
-27.2881
 21
-95.1649
  0
LINE
  8
0
 10
-27.2881
 20
-95.1649
 11
-23.9503
 21
-96.0593
  0
LINE
  8
0
 10
-23.9503
 20
-96.0593
 11
-20.5833
 21
-96.8366
  0
LINE
  8
0
 10
-20.5833
 20
-96.8366
 11
-17.1912
 21
-97.496
  0
LINE
  8
0
 10
-17.1912
 20
-97.496
 11
-13.7781
 21
-98.0365
  0
LINE
  8
0
 10
-13.7781
 20
-98.0365
 11
-10.3483
 21
-98.4577
  0
LINE
  8
0
 10
-10.3483
 20
-98.4577
 11
-6.90588
 21
-98.7588
  0
LINE
  8
0
 10
-6.90588
 20
-98.7588
 11
-3.45505
 21
-98.9397
  0
LINE
  8
0
 10
-3.45505
 20
-98.9397
 11
0
 21
-99
  0
LINE
  8
0
 10
0
 20
-99
 11
3.45505
 21
-98.9397
  0
LINE
  8
0
 10
-5.78981
 20
88.9164
 11
4.67941
 21
93.5776
  0
LINE
  8
0
 10
4.67941
 20
93.5776
 11
5.78981
 21
91.0836
  0
LINE
  8
0
 10
5.78981
 20
91.0836
 11
-4.67941
 21
86.4224
  0
LINE
  8
0
 10
-4.67941
 20
86.4224
 11
-5.78981
 21
88.9164
  0
LINE
  8
0
 10
-15.0524
 20
87.8241
 11
-5.12773
 21
93.5541
  0
LINE
  8
0
 10
-5.12773
 20
93.5541
 11
-3.76273
 21
91.1898
  0
LINE
  8
0
 10
-3.76273
 20
91.1898
 11
-13.6874
 21
85.4598
  0
LINE
  8
0
 10
-13.6874
 20
85.4598
 11
-15.0524
 21
87.8241
  0
LINE
  8
0
 10
3.53619
 20
89.0345
 11
14.4353
 21
92.5758
  0
LINE
  8
0
 10
14.4353
 20
92.5758
 11
15.2789
 21
89.9794
  0
LINE
  8
0
 10
15.2789
 20
89.9794
 11
4.37981
 21
86.4381
  0
LINE
  8
0
 10
4.37981
 20
86.4381
 11
3.53619
 21
89.0345
  0
LINE
  8
0
 10
-24.15
 20
85.7696
 11
-14.8787
 21
92.5056
  0
LINE
  8
0
 10
-14.8787
 20
92.5056
 11
-13.274
 21
90.297
  0
LINE
  8
0
 10
-13.274
 20
90.297
 11
-22.5454
 21
83.561
  0
LINE
  8
0
 10
-22.5454
 20
83.561
 11
-24.15
 21
85.7696
  0
LINE
  8
0
 10
12.8235
 20
88.1771
 11
24.033
 21
90.5598
  0
LINE
  8
0
 10
24.033
 20
90.5598
 11
24.6006
 21
87.8894
  0
LINE
  8
0
 10
24.6006
 20
87.8894
 11
13.3911
 21
85.5068
  0
LINE
  8
0
 10
13.3911
 20
85.5068
 11
12.8235
 21
88.1771
  0
LINE
  8
0
 10
-32.9831
 20
82.7754
 11
-24.4667
 21
90.4436
  0
LINE
  8
0
 10
-24.4667
 20
90.4436
 11
-22.6399
 21
88.4148
  0
LINE
  8
0
 10
-22.6399
 20
88.4148
 11
-31.1564
 21
80.7466
  0
LINE
  8
0
 10
-31.1564
 20
80.7466
 11
-32.9831
 21
82.7754
  0
LINE
  8
0
 10
21.9702
 20
86.3537
 11
33.3674
 21
87.5515
  0
LINE
  8
0
 10
33.3674
 20
87.5515
 11
33.6528
 21
84.8365
  0
LINE
  8
0
 10
33.6528
 20
84.8365
 11
22.2556
 21
83.6386
  0
LINE
  8
0
 10
22.2556
 20
83.6386
 11
21.9702
 21
86.3537
  0
LINE
  8
0
 10
-41.4548
 20
78.8742
 11
-33.7866
 21
87.3907
  0
LINE
  8
0
 10
-33.7866
 20
87.3907
 11
-31.7578
 21
85.5639
  0
LINE
  8
0
 10
-31.7578
 20
85.5639
 11
-39.426
 21
77.0475
  0
LINE
  8
0
 10
-39.426
 20
77.0475
 11
-41.4548
 21
78.8742
  0
LINE
  8
0
 10
30.8763
 20
80.8541
 11
30.8763
 21
83.5841
  0
LINE
  8
0
 10
30.8763
 20
83.5841
 11
42.3363
 21
83.5841
  0
LINE
  8
0
 10
42.3363
 20
83.5841
 11
42.3363
 21
80.8541
  0
LINE
  8
0
 10
42.3363
 20
80.8541
 11
30.8763
 21
80.8541
  0
LINE
  8
0
 10
-49.4723
 20
74.1089
 11
-42.7363
 21
83.3803
  0
LINE
  8
0
 10
-42.7363
 20
83.3803
 11
-40.5277
 21
81.7756
  0
LINE
  8
0
 10
-40.5277
 20
81.7756
 11
-47.2637
 21
72.5043
  0
LINE
  8
0
 10
-47.2637
 20
72.5043
 11
-49.4723
 21
74.1089
  0
LINE
  8
0
 10
5.65027
 20
80.8027
 11
8.4668
 21
80.5563
  0
LINE
  8
0
 10
8.4668
 20
80.5563
 11
11.273
 21
80.2117
  0
LINE
  8
0
 10
11.273
 20
80.2117
 11
14.0655
 21
79.7694
  0
LINE
  8
0
 10
14.0655
 20
79.7694
 11
16.8408
 21
79.2299
  0
LINE
  8
0
 10
16.8408
 20
79.2299
 11
19.5957
 21
78.5939
  0
LINE
  8
0
 10
19.5957
 20
78.5939
 11
22.3266
 21
77.8622
  0
LINE
  8
0
 10
22.3266
 20
77.8622
 11
25.0304
 21
77.0356
  0
LINE
  8
0
 10
25.0304
 20
77.0356
 11
27.7036
 21
76.1151
  0
LINE
  8
0
 10
27.7036
 20
76.1151
 11
30.3431
 21
75.1019
  0
LINE
  8
0
 10
30.3431
 20
75.1019
 11
32.9457
 21
73.9972
  0
LINE
  8
0
 10
32.9457
 20
73.9972
 11
35.5081
 21
72.8023
  0
LINE
  8
0
 10
35.5081
 20
72.8023
 11
36.3714
 21
72.3624
  0
LINE
  8
0
 10
36.3714
 20
72.3624
 11
36.4909
 21
72.3092
  0
LINE
  8
0
 10
36.4909
 20
72.3092
 11
36.7732
 21
72.1715
  0
LINE
  8
0
 10
36.7732
 20
72.1715
 11
37.0506
 21
72.024
  0
LINE
  8
0
 10
37.0506
 20
72.024
 11
37.1638
 21
71.9587
  0
LINE
  8
0
 10
37.1638
 20
71.9587
 11
38.0272
 21
71.5188
  0
LINE
  8
0
 10
38.0272
 20
71.5188
 11
40.5
 21
70.1481
  0
LINE
  8
0
 10
40.5
 20
70.1481
 11
42.9234
 21
68.6919
  0
LINE
  8
0
 10
42.9234
 20
68.6919
 11
45.2946
 21
67.152
  0
LINE
  8
0
 10
45.2946
 20
67.152
 11
47.6106
 21
65.5304
  0
LINE
  8
0
 10
47.6106
 20
65.5304
 11
49.8686
 21
63.8289
  0
LINE
  8
0
 10
49.8686
 20
63.8289
 11
52.0658
 21
62.0496
  0
LINE
  8
0
 10
52.0658
 20
62.0496
 11
54.1996
 21
60.1947
  0
LINE
  8
0
 10
54.1996
 20
60.1947
 11
56.2673
 21
58.2665
  0
LINE
  8
0
 10
56.2673
 20
58.2665
 11
58.2665
 21
56.2673
  0
LINE
  8
0
 10
58.2665
 20
56.2673
 11
60.1947
 21
54.1996
  0
LINE
  8
0
 10
60.1947
 20
54.1996
 11
62.0496
 21
52.0658
  0
LINE
  8
0
 10
62.0496
 20
52.0658
 11
63.8289
 21
49.8686
  0
LINE
  8
0
 10
63.8289
 20
49.8686
 11
65.5304
 21
47.6106
  0
LINE
  8
0
 10
65.5304
 20
47.6106
 11
67.152
 21
45.2946
  0
LINE
  8
0
 10
67.152
 20
45.2946
 11
68.6919
 21
42.9234
  0
LINE
  8
0
 10
68.6919
 20
42.9234
 11
70.1481
 21
40.5
  0
LINE
  8
0
 10
70.1481
 20
40.5
 11
71.5188
 21
38.0272
  0
LINE
  8
0
 10
71.5188
 20
38.0272
 11
71.9587
 21
37.1638
  0
LINE
  8
0
 10
71.9587
 20
37.1638
 11
72.024
 21
37.0506
  0
LINE
  8
0
 10
72.024
 20
37.0506
 11
72.1715
 21
36.7732
  0
LINE
  8
0
 10
72.1715
 20
36.7732
 11
72.3092
 21
36.4909
  0
LINE
  8
0
 10
72.3092
 20
36.4909
 11
72.3624
 21
36.3714
  0
LINE
  8
0
 10
72.3624
 20
36.3714
 11
72.8023
 21
35.5081
  0
LINE
  8
0
 10
72.8023
 20
35.5081
 11
73.9972
 21
32.9457
  0
LINE
  8
0
 10
73.9972
 20
32.9457
 11
75.1019
 21
30.3431
  0
LINE
  8
0
 10
75.1019
 20
30.3431
 11
76.1151
 21
27.7036
  0
LINE
  8
0
 10
76.1151
 20
27.7036
 11
77.0356
 21
25.0304
  0
LINE
  8
0
 10
77.0356
 20
25.0304
 11
77.8622
 21
22.3266
  0
LINE
  8
0
 10
77.8622
 20
22.3266
 11
78.5939
 21
19.5957
  0
LINE
  8
0
 10
78.5939
 20
19.5957
 11
79.2299
 21
16.8408
  0
LINE
  8
0
 10
79.2299
 20
16.8408
 11
79.7694
 21
14.0655
  0
LINE
  8
0
 10
79.7694
 20
14.0655
 11
80.2117
 21
11.273
  0
LINE
  8
0
 10
80.2117
 20
11.273
 11
80.5563
 21
8.4668
  0
LINE
  8
0
 10
80.5563
 20
8.4668
 11
80.8027
 21
5.65027
  0
LINE
  8
0
 10
80.8027
 20
5.65027
 11
80.9507
 21
2.82686
  0
LINE
  8
0
 10
80.9507
 20
2.82686
 11
81
 21
0
  0
LINE
  8
0
 10
81
 20
0
 11
80.9507
 21
-2.82686
  0
LINE
  8
0
 10
80.9507
 20
-2.82686
 11
80.8027
 21
-5.65027
  0
LINE
  8
0
 10
80.8027
 20
-5.65027
 11
80.5563
 21
-8.4668
  0
LINE
  8
0
 10
80.5563
 20
-8.4668
 11
80.2117
 21
-11.273
  0
LINE
  8
0
 10
80.2117
 20
-11.273
 11
80.0602
 21
-12.2299
  0
LINE
  8
0
 10
80.0602
 20
-12.2299
 11
80.0465
 21
-12.3601
  0
LINE
  8
0
 10
80.0465
 20
-12.3601
 11
80.0027
 21
-12.6712
  0
LINE
  8
0
 10
80.0027
 20
-12.6712
 11
79.9482
 21
-12.9805
  0
LINE
  8
0
 10
79.9482
 20
-12.9805
 11
79.921
 21
-13.1084
  0
LINE
  8
0
 10
79.921
 20
-13.1084
 11
79.7694
 21
-14.0655
  0
LINE
  8
0
 10
79.7694
 20
-14.0655
 11
79.2299
 21
-16.8408
  0
LINE
  8
0
 10
79.2299
 20
-16.8408
 11
78.5939
 21
-19.5957
  0
LINE
  8
0
 10
78.5939
 20
-19.5957
 11
77.8622
 21
-22.3266
  0
LINE
  8
0
 10
77.8622
 20
-22.3266
 11
77.0356
 21
-25.0304
  0
LINE
  8
0
 10
77.0356
 20
-25.0304
 11
76.1151
 21
-27.7036
  0
LINE
  8
0
 10
76.1151
 20
-27.7036
 11
75.1019
 21
-30.3431
  0
LINE
  8
0
 10
75.1019
 20
-30.3431
 11
73.9972
 21
-32.9457
  0
LINE
  8
0
 10
73.9972
 20
-32.9457
 11
72.8023
 21
-35.5081
  0
LINE
  8
0
 10
72.8023
 20
-35.5081
 11
71.5188
 21
-38.0272
  0
LINE
  8
0
 10
71.5188
 20
-38.0272
 11
70.1481
 21
-40.5
  0
LINE
  8
0
 10
70.1481
 20
-40.5
 11
68.6919
 21
-42.9234
  0
LINE
  8
0
 10
68.6919
 20
-42.9234
 11
67.152
 21
-45.2946
  0
LINE
  8
0
 10
67.152
 20
-45.2946
 11
65.5304
 21
-47.6106
  0
LINE
  8
0
 10
65.5304
 20
-47.6106
 11
63.8289
 21
-49.8686
  0
LINE
  8
0
 10
63.8289
 20
-49.8686
 11
62.0496
 21
-52.0658
  0
LINE
  8
0
 10
62.0496
 20
-52.0658
 11
60.1947
 21
-54.1996
  0
LINE
  8
0
 10
60.1947
 20
-54.1996
 11
58.2665
 21
-56.2673
  0
LINE
  8
0
 10
58.2665
 20
-56.2673
 11
57.5815
 21
-56.9523
  0
LINE
  8
0
 10
57.5815
 20
-56.9523
 11
57.4939
 21
-57.0497
  0
LINE
  8
0
 10
57.4939
 20
-57.0497
 11
57.2756
 21
-57.2756
  0
LINE
  8
0
 10
57.2756
 20
-57.2756
 11
57.0497
 21
-57.4939
  0
LINE
  8
0
 10
57.0497
 20
-57.4939
 11
56.9523
 21
-57.5815
  0
LINE
  8
0
 10
56.9523
 20
-57.5815
 11
56.2673
 21
-58.2665
  0
LINE
  8
0
 10
56.2673
 20
-58.2665
 11
54.1996
 21
-60.1947
  0
LINE
  8
0
 10
54.1996
 20
-60.1947
 11
52.0658
 21
-62.0496
  0
LINE
  8
0
 10
52.0658
 20
-62.0496
 11
49.8686
 21
-63.8289
  0
LINE
  8
0
 10
49.8686
 20
-63.8289
 11
47.6106
 21
-65.5304
  0
LINE
  8
0
 10
47.6106
 20
-65.5304
 11
45.2946
 21
-67.152
  0
LINE
  8
0
 10
45.2946
 20
-67.152
 11
42.9234
 21
-68.6919
  0
LINE
  8
0
 10
42.9234
 20
-68.6919
 11
40.5
 21
-70.1481
  0
LINE
  8
0
 10
40.5
 20
-70.1481
 11
38.0272
 21
-71.5188
  0
LINE
  8
0
 10
38.0272
 20
-71.5188
 11
35.5081
 21
-72.8023
  0
LINE
  8
0
 10
35.5081
 20
-72.8023
 11
32.9457
 21
-73.9972
  0
LINE
  8
0
 10
32.9457
 20
-73.9972
 11
30.3431
 21
-75.1019
  0
LINE
  8
0
 10
30.3431
 20
-75.1019
 11
27.7036
 21
-76.1151
  0
LINE
  8
0
 10
27.7036
 20
-76.1151
 11
25.0304
 21
-77.0356
  0
LINE
  8
0
 10
25.0304
 20
-77.0356
 11
22.3266
 21
-77.8622
  0
LINE
  8
0
 10
22.3266
 20
-77.8622
 11
19.5957
 21
-78.5939
  0
LINE
  8
0
 10
19.5957
 20
-78.5939
 11
16.8408
 21
-79.2299
  0
LINE
  8
0
 10
16.8408
 20
-79.2299
 11
14.0655
 21
-79.7694
  0
LINE
  8
0
 10
14.0655
 20
-79.7694
 11
13.1084
 21
-79.921
  0
LINE
  8
0
 10
13.1084
 20
-79.921
 11
12.9805
 21
-79.9482
  0
LINE
  8
0
 10
12.9805
 20
-79.9482
 11
12.6712
 21
-80.0027
  0
LINE
  8
0
 10
12.6712
 20
-80.0027
 11
12.3601
 21
-80.0465
  0
LINE
  8
0
 10
12.3601
 20
-80.0465
 11
12.2299
 21
-80.0602
  0
LINE
  8
0
 10
12.2299
 20
-80.0602
 11
11.273
 21
-80.2117
  0
LINE
  8
0
 10
11.273
 20
-80.2117
 11
8.4668
 21
-80.5563
  0
LINE
  8
0
 10
8.4668
 20
-80.5563
 11
5.65027
 21
-80.8027
  0
LINE
  8
0
 10
5.65027
 20
-80.8027
 11
2.82686
 21
-80.9507
  0
LINE
  8
0
 10
2.82686
 20
-80.9507
 11
0
 21
-81
  0
LINE
  8
0
 10
0
 20
-81
 11
-2.82686
 21
-80.9507
  0
LINE
  8
0
 10
-2.82686
 20
-80.9507
 11
-5.65027
 21
-80.8027
  0
LINE
  8
0
 10
-5.65027
 20
-80.8027
 11
-8.4668
 21
-80.5563
  0
LINE
  8
0
 10
-8.4668
 20
-80.5563
 11
-11.273
 21
-80.2117
  0
LINE
  8
0
 10
-11.273
 20
-80.2117
 11
-14.0655
 21
-79.7694
  0
LINE
  8
0
 10
-14.0655
 20
-79.7694
 11
-16.8408
 21
-79.2299
  0
LINE
  8
0
 10
-16.8408
 20
-79.2299
 11
-19.5957
 21
-78.5939
  0
LINE
  8
0
 10
-19.5957
 20
-78.5939
 11
-22.3266
 21
-77.8622
  0
LINE
  8
0
 10
-22.3266
 20
-77.8622
 11
-25.0304
 21
-77.0356
  0
LINE
  8
0
 10
-25.0304
 20
-77.0356
 11
-27.7036
 21
-76.1151
  0
LINE
  8
0
 10
-27.7036
 20
-76.1151
 11
-30.3431
 21
-75.1019
  0
LINE
  8
0
 10
-30.3431
 20
-75.1019
 11
-32.9457
 21
-73.9972
  0
LINE
  8
0
 10
-32.9457
 20
-73.9972
 11
-35.5081
 21
-72.8023
  0
LINE
  8
0
 10
-35.5081
 20
-72.8023
 11
-36.3714
 21
-72.3624
  0
LINE
  8
0
 10
-36.3714
 20
-72.3624
 11
-36.4909
 21
-72.3092
  0
LINE
  8
0
 10
-36.4909
 20
-72.3092
 11
-36.7732
 21
-72.1715
  0
LINE
  8
0
 10
-36.7732
 20
-72.1715
 11
-37.0506
 21
-72.024
  0
LINE
  8
0
 10
-37.0506
 20
-72.024
 11
-37.1638
 21
-71.9587
  0
LINE
  8
0
 10
-37.1638
 20
-71.9587
 11
-38.0272
 21
-71.5188
  0
LINE
  8
0
 10
-38.0272
 20
-71.5188
 11
-40.5
 21
-70.1481
  0
LINE
  8
0
 10
-40.5
 20
-70.1481
 11
-42.9234
 21
-68.6919
  0
LINE
  8
0
 10
-42.9234
 20
-68.6919
 11
-45.2946
 21
-67.152
  0
LINE
  8
0
 10
-45.2946
 20
-67.152
 11
-47.6106
 21
-65.5304
  0
LINE
  8
0
 10
-47.6106
 20
-65.5304
 11
-49.8686
 21
-63.8289
  0
LINE
  8
0
 10
-49.8686
 20
-63.8289
 11
-52.0658
 21
-62.0496
  0
LINE
  8
0
 10
-52.0658
 20
-62.0496
 11
-54.1996
 21
-60.1947
  0
LINE
  8
0
 10
-54.1996
 20
-60.1947
 11
-56.2673
 21
-58.2665
  0
LINE
  8
0
 10
-56.2673
 20
-58.2665
 11
-58.2665
 21
-56.2673
  0
LINE
  8
0
 10
-58.2665
 20
-56.2673
 11
-60.1947
 21
-54.1996
  0
LINE
  8
0
 10
-60.1947
 20
-54.1996
 11
-62.0496
 21
-52.0658
  0
LINE
  8
0
 10
-62.0496
 20
-52.0658
 11
-63.8289
 21
-49.8686
  0
LINE
  8
0
 10
-63.8289
 20
-49.8686
 11
-65.5304
 21
-47.6106
  0
LINE
  8
0
 10
-65.5304
 20
-47.6106
 11
-67.152
 21
-45.2946
  0
LINE
  8
0
 10
-67.152
 20
-45.2946
 11
-68.6919
 21
-42.9234
  0
LINE
  8
0
 10
-68.6919
 20
-42.9234
 11
-70.1481
 21
-40.5
  0
LINE
  8
0
 10
-70.1481
 20
-40.5
 11
-71.5188
 21
-38.0272
  0
LINE
  8
0
 10
-71.5188
 20
-38.0272
 11
-71.9587
 21
-37.1638
  0
LINE
  8
0
 10
-71.9587
 20
-37.1638
 11
-72.024
 21
-37.0506
  0
LINE
  8
0
 10
-72.024
 20
-37.0506
 11
-72.1715
 21
-36.7732
  0
LINE
  8
0
 10
-72.1715
 20
-36.7732
 11
-72.3092
 21
-36.4909
  0
LINE
  8
0
 10
-72.3092
 20
-36.4909
 11
-72.3624
 21
-36.3714
  0
LINE
  8
0
 10
-72.3624
 20
-36.3714
 11
-72.8023
 21
-35.5081
  0
LINE
  8
0
 10
-72.8023
 20
-35.5081
 11
-73.9972
 21
-32.9457
  0
LINE
  8
0
 10
-73.9972
 20
-32.9457
 11
-75.1019
 21
-30.3431
  0
LINE
  8
0
 10
-75.1019
 20
-30.3431
 11
-76.1151
 21
-27.7036
  0
LINE
  8
0
 10
-76.1151
 20
-27.7036
 11
-77.0356
 21
-25.0304
  0
LINE
  8
0
 10
-77.0356
 20
-25.0304
 11
-77.8622
 21
-22.3266
  0
LINE
  8
0
 10
-77.8622
 20
-22.3266
 11
-78.5939
 21
-19.5957
  0
LINE
  8
0
 10
-78.5939
 20
-19.5957
 11
-79.2299
 21
-16.8408
  0
LINE
  8
0
 10
-79.2299
 20
-16.8408
 11
-79.7694
 21
-14.0655
  0
LINE
  8
0
 10
-79.7694
 20
-14.0655
 11
-80.2117
 21
-11.273
  0
LINE
  8
0
 10
-80.2117
 20
-11.273
 11
-80.5563
 21
-8.4668
  0
LINE
  8
0
 10
-80.5563
 20
-8.4668
 11
-80.8027
 21
-5.65027
  0
LINE
  8
0
 10
-80.8027
 20
-5.65027
 11
-80.9507
 21
-2.82686
  0
LINE
  8
0
 10
-80.9507
 20
-2.82686
 11
-81
 21
0
  0
LINE
  8
0
 10
-81
 20
0
 11
-80.9507
 21
2.82686
  0
LINE
  8
0
 10
-80.9507
 20
2.82686
 11
-80.8027
 21
5.65027
  0
LINE
  8
0
 10
-80.8027
 20
5.65027
 11
-80.5563
 21
8.4668
  0
LINE
  8
0
 10
-80.5563
 20
8.4668
 11
-80.2117
 21
11.273
  0
LINE
  8
0
 10
-80.2117
 20
11.273
 11
-80.0602
 21
12.2299
  0
LINE
  8
0
 10
-80.0602
 20
12.2299
 11
-80.0465
 21
12.3601
  0
LINE
  8
0
 10
-80.0465
 20
12.3601
 11
-80.0027
 21
12.6712
  0
LINE
  8
0
 10
-80.0027
 20
12.6712
 11
-79.9482
 21
12.9805
  0
LINE
  8
0
 10
-79.9482
 20
12.9805
 11
-79.921
 21
13.1084
  0
LINE
  8
0
 10
-79.921
 20
13.1084
 11
-79.7694
 21
14.0655
  0
LINE
  8
0
 10
-79.7694
 20
14.0655
 11
-79.2299
 21
16.8408
  0
LINE
  8
0
 10
-79.2299
 20
16.8408
 11
-78.5939
 21
19.5957
  0
LINE
  8
0
 10
-78.5939
 20
19.5957
 11
-77.8622
 21
22.3266
  0
LINE
  8
0
 10
-77.8622
 20
22.3266
 11
-77.0356
 21
25.0304
  0
LINE
  8
0
 10
-77.0356
 20
25.0304
 11
-76.1151
 21
27.7036
  0
LINE
  8
0
 10
-76.1151
 20
27.7036
 11
-75.1019
 21
30.3431
  0
LINE
  8
0
 10
-75.1019
 20
30.3431
 11
-73.9972
 21
32.9457
  0
LINE
  8
0
 10
-73.9972
 20
32.9457
 11
-72.8023
 21
35.5081
  0
LINE
  8
0
 10
-72.8023
 20
35.5081
 11
-71.5188
 21
38.0272
  0
LINE
  8
0
 10
-71.5188
 20
38.0272
 11
-70.1481
 21
40.5
  0
LINE
  8
0
 10
-70.1481
 20
40.5
 11
-68.6919
 21
42.9234
  0
LINE
  8
0
 10
-68.6919
 20
42.9234
 11
-67.152
 21
45.2946
  0
LINE
  8
0
 10
-67.152
 20
45.2946
 11
-65.5304
 21
47.6106
  0
LINE
  8
0
 10
-65.5304
 20
47.6106
 11
-63.8289
 21
49.8686
  0
LINE
  8
0
 10
-63.8289
 20
49.8686
 11
-62.0496
 21
52.0658
  0
LINE
  8
0
 10
-62.0496
 20
52.0658
 11
-60.1947
 21
54.1996
  0
LINE
  8
0
 10
-60.1947
 20
54.1996
 11
-58.2665
 21
56.2673
  0
LINE
  8
0
 10
-58.2665
 20
56.2673
 11
-57.5815
 21
56.9523
  0
LINE
  8
0
 10
-57.5815
 20
56.9523
 11
-57.4939
 21
57.0497
  0
LINE
  8
0
 10
-57.4939
 20
57.0497
 11
-57.2756
 21
57.2756
  0
LINE
  8
0
 10
-57.2756
 20
57.2756
 11
-57.0497
 21
57.4939
  0
LINE
  8
0
 10
-57.0497
 20
57.4939
 11
-56.9523
 21
57.5815
  0
LINE
  8
0
 10
-56.9523
 20
57.5815
 11
-56.2673
 21
58.2665
  0
LINE
  8
0
 10
-56.2673
 20
58.2665
 11
-54.1996
 21
60.1947
  0
LINE
  8
0
 10
-54.1996
 20
60.1947
 11
-52.0658
 21
62.0496
  0
LINE
  8
0
 10
-52.0658
 20
62.0496
 11
-49.8686
 21
63.8289
  0
LINE
  8
0
 10
-49.8686
 20
63.8289
 11
-47.6106
 21
65.5304
  0
LINE
  8
0
 10
-47.6106
 20
65.5304
 11
-45.2946
 21
67.152
  0
LINE
  8
0
 10
-45.2946
 20
67.152
 11
-42.9234
 21
68.6919
  0
LINE
  8
0
 10
-42.9234
 20
68.6919
 11
-40.5
 21
70.1481
  0
LINE
  8
0
 10
-40.5
 20
70.1481
 11
-38.0272
 21
71.5188
  0
LINE
  8
0
 10
-38.0272
 20
71.5188
 11
-35.5081
 21
72.8023
  0
LINE
  8
0
 10
-35.5081
 20
72.8023
 11
-32.9457
 21
73.9972
  0
LINE
  8
0
 10
-32.9457
 20
73.9972
 11
-30.3431
 21
75.1019
  0
LINE
  8
0
 10
-30.3431
 20
75.1019
 11
-27.7036
 21
76.1151
  0
LINE
  8
0
 10
-27.7036
 20
76.1151
 11
-25.0304
 21
77.0356
  0
LINE
  8
0
 10
-25.0304
 20
77.0356
 11
-22.3266
 21
77.8622
  0
LINE
  8
0
 10
-22.3266
 20
77.8622
 11
-19.5957
 21
78.5939
  0
LINE
  8
0
 10
-19.5957
 20
78.5939
 11
-16.8408
 21
79.2299
  0
LINE
  8
0
 10
-16.8408
 20
79.2299
 11
-14.0655
 21
79.7694
  0
LINE
  8
0
 10
-14.0655
 20
79.7694
 11
-13.1084
 21
79.921
  0
LINE
  8
0
 10
-13.1084
 20
79.921
 11
-12.9805
 21
79.9482
  0
LINE
  8
0
 10
-12.9805
 20
79.9482
 11
-12.6712
 21
80.0027
  0
LINE
  8
0
 10
-12.6712
 20
80.0027
 11
-12.3601
 21
80.0465
  0
LINE
  8
0
 10
-12.3601
 20
80.0465
 11
-12.2299
 21
80.0602
  0
LINE
  8
0
 10
-12.2299
 20
80.0602
 11
-11.273
 21
80.2117
  0
LINE
  8
0
 10
-11.273
 20
80.2117
 11
-8.4668
 21
80.5563
  0
LINE
  8
0
 10
-8.4668
 20
80.5563
 11
-5.65027
 21
80.8027
  0
LINE
  8
0
 10
-5.65027
 20
80.8027
 11
-2.82686
 21
80.9507
  0
LINE
  8
0
 10
-2.82686
 20
80.9507
 11
0
 21
81
  0
LINE
  8
0
 10
0
 20
81
 11
2.82686
 21
80.9507
  0
LINE
  8
0
 10
2.82686
 20
80.9507
 11
5.65027
 21
80.8027
  0
LINE
  8
0
 10
39.1587
 20
77.1837
 11
39.4441
 21
79.8987
  0
LINE
  8
0
 10
39.4441
 20
79.8987
 11
50.8413
 21
78.7009
  0
LINE
  8
0
 10
50.8413
 20
78.7009
 11
50.5559
 21
75.9858
  0
LINE
  8
0
 10
50.5559
 20
75.9858
 11
39.1587
 21
77.1837
  0
LINE
  8
0
 10
-56.9478
 20
68.5317
 11
-51.2178
 21
78.4563
  0
LINE
  8
0
 10
-51.2178
 20
78.4563
 11
-48.8535
 21
77.0914
  0
LINE
  8
0
 10
-48.8535
 20
77.0914
 11
-54.5835
 21
67.1667
  0
LINE
  8
0
 10
-54.5835
 20
67.1667
 11
-56.9478
 21
68.5317
  0
LINE
  8
0
 10
47.0121
 20
72.6677
 11
47.5797
 21
75.338
  0
LINE
  8
0
 10
47.5797
 20
75.338
 11
58.7892
 21
72.9554
  0
LINE
  8
0
 10
58.7892
 20
72.9554
 11
58.2216
 21
70.285
  0
LINE
  8
0
 10
58.2216
 20
70.285
 11
47.0121
 21
72.6677
  0
LINE
  8
0
 10
-63.7993
 20
62.2036
 11
-59.1381
 21
72.6728
  0
LINE
  8
0
 10
-59.1381
 20
72.6728
 11
-56.6441
 21
71.5625
  0
LINE
  8
0
 10
-56.6441
 20
71.5625
 11
-61.3054
 21
61.0932
  0
LINE
  8
0
 10
-61.3054
 20
61.0932
 11
-63.7993
 21
62.2036
  0
LINE
  8
0
 10
54.3504
 20
67.3555
 11
55.194
 21
69.9519
  0
LINE
  8
0
 10
55.194
 20
69.9519
 11
66.0931
 21
66.4106
  0
LINE
  8
0
 10
66.0931
 20
66.4106
 11
65.2495
 21
63.8142
  0
LINE
  8
0
 10
65.2495
 20
63.8142
 11
54.3504
 21
67.3555
  0
LINE
  8
0
 10
-69.9519
 20
55.194
 11
-66.4106
 21
66.0931
  0
LINE
  8
0
 10
-66.4106
 20
66.0931
 11
-63.8142
 21
65.2495
  0
LINE
  8
0
 10
-63.8142
 20
65.2495
 11
-67.3555
 21
54.3504
  0
LINE
  8
0
 10
-67.3555
 20
54.3504
 11
-69.9519
 21
55.194
  0
LINE
  8
0
 10
61.0932
 20
61.3054
 11
62.2036
 21
63.7993
  0
LINE
  8
0
 10
62.2036
 20
63.7993
 11
72.6728
 21
59.1381
  0
LINE
  8
0
 10
72.6728
 20
59.1381
 11
71.5625
 21
56.6441
  0
LINE
  8
0
 10
71.5625
 20
56.6441
 11
61.0932
 21
61.3054
  0
LINE
  8
0
 10
-75.338
 20
47.5797
 11
-72.9554
 21
58.7892
  0
LINE
  8
0
 10
-72.9554
 20
58.7892
 11
-70.285
 21
58.2216
  0
LINE
  8
0
 10
-70.285
 20
58.2216
 11
-72.6677
 21
47.0121
  0
LINE
  8
0
 10
-72.6677
 20
47.0121
 11
-75.338
 21
47.5797
  0
LINE
  8
0
 10
67.1667
 20
54.5835
 11
68.5317
 21
56.9478
  0
LINE
  8
0
 10
68.5317
 20
56.9478
 11
78.4563
 21
51.2178
  0
LINE
  8
0
 10
78.4563
 20
51.2178
 11
77.0914
 21
48.8535
  0
LINE
  8
0
 10
77.0914
 20
48.8535
 11
67.1667
 21
54.5835
  0
LINE
  8
0
 10
-79.8987
 20
39.4441
 11
-78.7009
 21
50.8413
  0
LINE
  8
0
 10
-78.7009
 20
50.8413
 11
-75.9858
 21
50.5559
  0
LINE
  8
0
 10
-75.9858
 20
50.5559
 11
-77.1837
 21
39.1587
  0
LINE
  8
0
 10
-77.1837
 20
39.1587
 11
-79.8987
 21
39.4441
  0
LINE
  8
0
 10
72.5043
 20
47.2637
 11
74.1089
 21
49.4723
  0
LINE
  8
0
 10
74.1089
 20
49.4723
 11
83.3803
 21
42.7363
  0
LINE
  8
0
 10
83.3803
 20
42.7363
 11
81.7756
 21
40.5277
  0
LINE
  8
0
 10
81.7756
 20
40.5277
 11
72.5043
 21
47.2637
  0
LINE
  8
0
 10
-83.5841
 20
30.8763
 11
-83.5841
 21
42.3363
  0
LINE
  8
0
 10
-83.5841
 20
42.3363
 11
-80.8541
 21
42.3363
  0
LINE
  8
0
 10
-80.8541
 20
42.3363
 11
-80.8541
 21
30.8763
  0
LINE
  8
0
 10
-80.8541
 20
30.8763
 11
-83.5841
 21
30.8763
  0
LINE
  8
0
 10
77.0475
 20
39.426
 11
78.8742
 21
41.4548
  0
LINE
  8
0
 10
78.8742
 20
41.4548
 11
87.3907
 21
33.7866
  0
LINE
  8
0
 10
87.3907
 20
33.7866
 11
85.5639
 21
31.7578
  0
LINE
  8
0
 10
85.5639
 20
31.7578
 11
77.0475
 21
39.426
  0
LINE
  8
0
 10
-87.5515
 20
33.3674
 11
-84.8365
 21
33.6528
  0
LINE
  8
0
 10
-84.8365
 20
33.6528
 11
-83.6386
 21
22.2556
  0
LINE
  8
0
 10
-83.6386
 20
22.2556
 11
-86.3537
 21
21.9702
  0
LINE
  8
0
 10
-86.3537
 20
21.9702
 11
-87.5515
 21
33.3674
  0
LINE
  8
0
 10
80.7466
 20
31.1564
 11
82.7754
 21
32.9831
  0
LINE
  8
0
 10
82.7754
 20
32.9831
 11
90.4436
 21
24.4667
  0
LINE
  8
0
 10
90.4436
 20
24.4667
 11
88.4148
 21
22.6399
  0
LINE
  8
0
 10
88.4148
 20
22.6399
 11
80.7466
 21
31.1564
  0
LINE
  8
0
 10
-90.5598
 20
24.033
 11
-87.8894
 21
24.6006
  0
LINE
  8
0
 10
-87.8894
 20
24.6006
 11
-85.5068
 21
13.3911
  0
LINE
  8
0
 10
-85.5068
 20
13.3911
 11
-88.1771
 21
12.8235
  0
LINE
  8
0
 10
-88.1771
 20
12.8235
 11
-90.5598
 21
24.033
  0
LINE
  8
0
 10
83.561
 20
22.5454
 11
85.7696
 21
24.15
  0
LINE
  8
0
 10
85.7696
 20
24.15
 11
92.5056
 21
14.8787
  0
LINE
  8
0
 10
92.5056
 20
14.8787
 11
90.297
 21
13.274
  0
LINE
  8
0
 10
90.297
 20
13.274
 11
83.561
 21
22.5454
  0
LINE
  8
0
 10
-92.5758
 20
14.4353
 11
-89.9794
 21
15.2789
  0
LINE
  8
0
 10
-89.9794
 20
15.2789
 11
-86.4381
 21
4.37981
  0
LINE
  8
0
 10
-86.4381
 20
4.37981
 11
-89.0345
 21
3.53619
  0
LINE
  8
0
 10
-89.0345
 20
3.53619
 11
-92.5758
 21
14.4353
  0
LINE
  8
0
 10
85.4598
 20
13.6874
 11
87.8241
 21
15.0524
  0
LINE
  8
0
 10
87.8241
 20
15.0524
 11
93.5541
 21
5.12773
  0
LINE
  8
0
 10
93.5541
 20
5.12773
 11
91.1898
 21
3.76273
  0
LINE
  8
0
 10
91.1898
 20
3.76273
 11
85.4598
 21
13.6874
  0
LINE
  8
0
 10
86.4224
 20
4.67941
 11
88.9164
 21
5.78981
  0
LINE
  8
0
 10
88.9164
 20
5.78981
 11
93.5776
 21
-4.67941
  0
LINE
  8
0
 10
93.5776
 20
-4.67941
 11
91.0836
 21
-5.78981
  0
LINE
  8
0
 10
91.0836
 20
-5.78981
 11
86.4224
 21
4.67941
  0
LINE
  8
0
 10
-93.5776
 20
4.67941
 11
-91.0836
 21
5.78981
  0
LINE
  8
0
 10
-91.0836
 20
5.78981
 11
-86.4224
 21
-4.67941
  0
LINE
  8
0
 10
-86.4224
 20
-4.67941
 11
-88.9164
 21
-5.78981
  0
LINE
  8
0
 10
-88.9164
 20
-5.78981
 11
-93.5776
 21
4.67941
  0
LINE
  8
0
 10
86.4381
 20
-4.37981
 11
89.0345
 21
-3.53619
  0
LINE
  8
0
 10
89.0345
 20
-3.53619
 11
92.5758
 21
-14.4353
  0
LINE
  8
0
 10
92.5758
 20
-14.4353
 11
89.9794
 21
-15.2789
  0
LINE
  8
0
 10
89.9794
 20
-15.2789
 11
86.4381
 21
-4.37981
  0
LINE
  8
0
 10
-93.5541
 20
-5.12773
 11
-91.1898
 21
-3.76273
  0
LINE
  8
0
 10
-91.1898
 20
-3.76273
 11
-85.4598
 21
-13.6874
  0
LINE
  8
0
 10
-85.4598
 20
-13.6874
 11
-87.8241
 21
-15.0524
  0
LINE
  8
0
 10
-87.8241
 20
-15.0524
 11
-93.5541
 21
-5.12773
  0
LINE
  8
0
 10
85.5068
 20
-13.3911
 11
88.1771
 21
-12.8235
  0
LINE
  8
0
 10
88.1771
 20
-12.8235
 11
90.5598
 21
-24.033
  0
LINE
  8
0
 10
90.5598
 20
-24.033
 11
87.8894
 21
-24.6006
  0
LINE
  8
0
 10
87.8894
 20
-24.6006
 11
85.5068
 21
-13.3911
  0
LINE
  8
0
 10
-92.5056
 20
-14.8787
 11
-90.297
 21
-13.274
  0
LINE
  8
0
 10
-90.297
 20
-13.274
 11
-83.561
 21
-22.5454
  0
LINE
  8
0
 10
-83.561
 20
-22.5454
 11
-85.7696
 21
-24.15
  0
LINE
  8
0
 10
-85.7696
 20
-24.15
 11
-92.5056
 21
-14.8787
  0
LINE
  8
0
 10
83.6386
 20
-22.2556
 11
86.3537
 21
-21.9702
  0
LINE
  8
0
 10
86.3537
 20
-21.9702
 11
87.5515
 21
-33.3674
  0
LINE
  8
0
 10
87.5515
 20
-33.3674
 11
84.8365
 21
-33.6528
  0
LINE
  8
0
 10
84.8365
 20
-33.6528
 11
83.6386
 21
-22.2556
  0
LINE
  8
0
 10
-90.4436
 20
-24.4667
 11
-88.4148
 21
-22.6399
  0
LINE
  8
0
 10
-88.4148
 20
-22.6399
 11
-80.7466
 21
-31.1564
  0
LINE
  8
0
 10
-80.7466
 20
-31.1564
 11
-82.7754
 21
-32.9831
  0
LINE
  8
0
 10
-82.7754
 20
-32.9831
 11
-90.4436
 21
-24.4667
  0
LINE
  8
0
 10
80.8541
 20
-42.3363
 11
80.8541
 21
-30.8763
  0
LINE
  8
0
 10
80.8541
 20
-30.8763
 11
83.5841
 21
-30.8763
  0
LINE
  8
0
 10
83.5841
 20
-30.8763
 11
83.5841
 21
-42.3363
  0
LINE
  8
0
 10
83.5841
 20
-42.3363
 11
80.8541
 21
-42.3363
  0
LINE
  8
0
 10
-87.3907
 20
-33.7866
 11
-85.5639
 21
-31.7578
  0
LINE
  8
0
 10
-85.5639
 20
-31.7578
 11
-77.0475
 21
-39.426
  0
LINE
  8
0
 10
-77.0475
 20
-39.426
 11
-78.8742
 21
-41.4548
  0
LINE
  8
0
 10
-78.8742
 20
-41.4548
 11
-87.3907
 21
-33.7866
  0
LINE
  8
0
 10
75.9858
 20
-50.5559
 11
77.1837
 21
-39.1587
  0
LINE
  8
0
 10
77.1837
 20
-39.1587
 11
79.8987
 21
-39.4441
  0
LINE
  8
0
 10
79.8987
 20
-39.4441
 11
78.7009
 21
-50.8413
  0
LINE
  8
0
 10
78.7009
 20
-50.8413
 11
75.9858
 21
-50.5559
  0
LINE
  8
0
 10
-83.3803
 20
-42.7363
 11
-81.7756
 21
-40.5277
  0
LINE
  8
0
 10
-81.7756
 20
-40.5277
 11
-72.5043
 21
-47.2637
  0
LINE
  8
0
 10
-72.5043
 20
-47.2637
 11
-74.1089
 21
-49.4723
  0
LINE
  8
0
 10
-74.1089
 20
-49.4723
 11
-83.3803
 21
-42.7363
  0
LINE
  8
0
 10
70.285
 20
-58.2216
 11
72.6677
 21
-47.0121
  0
LINE
  8
0
 10
72.6677
 20
-47.0121
 11
75.338
 21
-47.5797
  0
LINE
  8
0
 10
75.338
 20
-47.5797
 11
72.9554
 21
-58.7892
  0
LINE
  8
0
 10
72.9554
 20
-58.7892
 11
70.285
 21
-58.2216
  0
LINE
  8
0
 10
-78.4563
 20
-51.2178
 11
-77.0914
 21
-48.8535
  0
LINE
  8
0
 10
-77.0914
 20
-48.8535
 11
-67.1667
 21
-54.5835
  0
LINE
  8
0
 10
-67.1667
 20
-54.5835
 11
-68.5317
 21
-56.9478
  0
LINE
  8
0
 10
-68.5317
 20
-56.9478
 11
-78.4563
 21
-51.2178
  0
LINE
  8
0
 10
63.8142
 20
-65.2495
 11
67.3555
 21
-54.3504
  0
LINE
  8
0
 10
67.3555
 20
-54.3504
 11
69.9519
 21
-55.194
  0
LINE
  8
0
 10
69.9519
 20
-55.194
 11
66.4106
 21
-66.0931
  0
LINE
  8
0
 10
66.4106
 20
-66.0931
 11
63.8142
 21
-65.2495
  0
LINE
  8
0
 10
-72.6728
 20
-59.1381
 11
-71.5625
 21
-56.6441
  0
LINE
  8
0
 10
-71.5625
 20
-56.6441
 11
-61.0932
 21
-61.3054
  0
LINE
  8
0
 10
-61.0932
 20
-61.3054
 11
-62.2036
 21
-63.7993
  0
LINE
  8
0
 10
-62.2036
 20
-63.7993
 11
-72.6728
 21
-59.1381
  0
LINE
  8
0
 10
56.6441
 20
-71.5625
 11
61.3054
 21
-61.0932
  0
LINE
  8
0
 10
61.3054
 20
-61.0932
 11
63.7993
 21
-62.2036
  0
LINE
  8
0
 10
63.7993
 20
-62.2036
 11
59.1381
 21
-72.6728
  0
LINE
  8
0
 10
59.1381
 20
-72.6728
 11
56.6441
 21
-71.5625
  0
LINE
  8
0
 10
-66.0931
 20
-66.4106
 11
-65.2495
 21
-63.8142
  0
LINE
  8
0
 10
-65.2495
 20
-63.8142
 11
-54.3504
 21
-67.3555
  0
LINE
  8
0
 10
-54.3504
 20
-67.3555
 11
-55.194
 21
-69.9519
  0
LINE
  8
0
 10
-55.194
 20
-69.9519
 11
-66.0931
 21
-66.4106
  0
LINE
  8
0
 10
48.8535
 20
-77.0914
 11
54.5835
 21
-67.1667
  0
LINE
  8
0
 10
54.5835
 20
-67.1667
 11
56.9478
 21
-68.5317
  0
LINE
  8
0
 10
56.9478
 20
-68.5317
 11
51.2178
 21
-78.4563
  0
LINE
  8
0
 10
51.2178
 20
-78.4563
 11
48.8535
 21
-77.0914
  0
LINE
  8
0
 10
-58.7892
 20
-72.9554
 11
-58.2216
 21
-70.285
  0
LINE
  8
0
 10
-58.2216
 20
-70.285
 11
-47.0121
 21
-72.6677
  0
LINE
  8
0
 10
-47.0121
 20
-72.6677
 11
-47.5797
 21
-75.338
  0
LINE
  8
0
 10
-47.5797
 20
-75.338
 11
-58.7892
 21
-72.9554
  0
LINE
  8
0
 10
40.5277
 20
-81.7756
 11
47.2637
 21
-72.5043
  0
LINE
  8
0
 10
47.2637
 20
-72.5043
 11
49.4723
 21
-74.1089
  0
LINE
  8
0
 10
49.4723
 20
-74.1089
 11
42.7363
 21
-83.3803
  0
LINE
  8
0
 10
42.7363
 20
-83.3803
 11
40.5277
 21
-81.7756
  0
LINE
  8
0
 10
-50.8413
 20
-78.7009
 11
-50.5559
 21
-75.9858
  0
LINE
  8
0
 10
-50.5559
 20
-75.9858
 11
-39.1587
 21
-77.1837
  0
LINE
  8
0
 10
-39.1587
 20
-77.1837
 11
-39.4441
 21
-79.8987
  0
LINE
  8
0
 10
-39.4441
 20
-79.8987
 11
-50.8413
 21
-78.7009
  0
LINE
  8
0
 10
31.7578
 20
-85.5639
 11
39.426
 21
-77.0475
  0
LINE
  8
0
 10
39.426
 20
-77.0475
 11
41.4548
 21
-78.8742
  0
LINE
  8
0
 10
41.4548
 20
-78.8742
 11
33.7866
 21
-87.3907
  0
LINE
  8
0
 10
33.7866
 20
-87.3907
 11
31.7578
 21
-85.5639
  0
LINE
  8
0
 10
22.6399
 20
-88.4148
 11
31.1564
 21
-80.7466
  0
LINE
  8
0
 10
31.1564
 20
-80.7466
 11
32.9831
 21
-82.7754
  0
LINE
  8
0
 10
32.9831
 20
-82.7754
 11
24.4667
 21
-90.4436
  0
LINE
  8
0
 10
24.4667
 20
-90.4436
 11
22.6399
 21
-88.4148
  0
LINE
  8
0
 10
-42.3363
 20
-83.5841
 11
-42.3363
 21
-80.8541
  0
LINE
  8
0
 10
-42.3363
 20
-80.8541
 11
-30.8763
 21
-80.8541
  0
LINE
  8
0
 10
-30.8763
 20
-80.8541
 11
-30.8763
 21
-83.5841
  0
LINE
  8
0
 10
-30.8763
 20
-83.5841
 11
-42.3363
 21
-83.5841
  0
LINE
  8
0
 10
13.274
 20
-90.297
 11
22.5454
 21
-83.561
  0
LINE
  8
0
 10
22.5454
 20
-83.561
 11
24.15
 21
-85.7696
  0
LINE
  8
0
 10
24.15
 20
-85.7696
 11
14.8787
 21
-92.5056
  0
LINE
  8
0
 10
14.8787
 20
-92.5056
 11
13.274
 21
-90.297
  0
LINE
  8
0
 10
-33.6528
 20
-84.8365
 11
-22.2556
 21
-83.6386
  0
LINE
  8
0
 10
-22.2556
 20
-83.6386
 11
-21.9702
 21
-86.3537
  0
LINE
  8
0
 10
-21.9702
 20
-86.3537
 11
-33.3674
 21
-87.5515
  0
LINE
  8
0
 10
-33.3674
 20
-87.5515
 11
-33.6528
 21
-84.8365
  0
LINE
  8
0
 10
3.76273
 20
-91.1898
 11
13.6874
 21
-85.4598
  0
LINE
  8
0
 10
13.6874
 20
-85.4598
 11
15.0524
 21
-87.8241
  0
LINE
  8
0
 10
15.0524
 20
-87.8241
 11
5.12773
 21
-93.5541
  0
LINE
  8
0
 10
5.12773
 20
-93.5541
 11
3.76273
 21
-91.1898
  0
LINE
  8
0
 10
-24.6006
 20
-87.8894
 11
-13.3911
 21
-85.5068
  0
LINE
  8
0
 10
-13.3911
 20
-85.5068
 11
-12.8235
 21
-88.1771
  0
LINE
  8
0
 10
-12.8235
 20
-88.1771
 11
-24.033
 21
-90.5598
  0
LINE
  8
0
 10
-24.033
 20
-90.5598
 11
-24.6006
 21
-87.8894
  0
LINE
  8
0
 10
-5.78981
 20
-91.0836
 11
4.67941
 21
-86.4224
  0
LINE
  8
0
 10
4.67941
 20
-86.4224
 11
5.78981
 21
-88.9164
  0
LINE
  8
0
 10
5.78981
 20
-88.9164
 11
-4.67941
 21
-93.5776
  0
LINE
  8
0
 10
-4.67941
 20
-93.5776
 11
-5.78981
 21
-91.0836
  0
LINE
  8
0
 10
-15.2789
 20
-89.9794
 11
-4.37981
 21
-86.4381
  0
LINE
  8
0
 10
-4.37981
 20
-86.4381
 11
-3.53619
 21
-89.0345
  0
LINE
  8
0
 10
-3.53619
 20
-89.0345
 11
-14.4353
 21
-92.5758
  0
LINE
  8
0
 10
-14.4353
 20
-92.5758
 11
-15.2789
 21
-89.9794
  0
ENDSEC
  0
SECTION
  2
OBJECTS
  0
DICTIONARY
  0
ENDSEC
  0
EOF
