  0
SECTION
  2
BLOCKS
  0
ENDSEC
  0
SECTION
  2
ENTITIES
  0
LINE
  8
0
 10
3.45505
 20
-98.9397
 11
6.90588
 21
-98.7588
  0
LINE
  8
0
 10
6.90588
 20
-98.7588
 11
10.3483
 21
-98.4577
  0
LINE
  8
0
 10
10.3483
 20
-98.4577
 11
13.7781
 21
-98.0365
  0
LINE
  8
0
 10
13.7781
 20
-98.0365
 11
17.1912
 21
-97.496
  0
LINE
  8
0
 10
17.1912
 20
-97.496
 11
20.5833
 21
-96.8366
  0
LINE
  8
0
 10
20.5833
 20
-96.8366
 11
23.9503
 21
-96.0593
  0
LINE
  8
0
 10
23.9503
 20
-96.0593
 11
27.2881
 21
-95.1649
  0
LINE
  8
0
 10
27.2881
 20
-95.1649
 11
30.5927
 21
-94.1546
  0
LINE
  8
0
 10
30.5927
 20
-94.1546
 11
33.86
 21
-93.0296
  0
LINE
  8
0
 10
33.86
 20
-93.0296
 11
37.086
 21
-91.7912
  0
LINE
  8
0
 10
37.086
 20
-91.7912
 11
40.2669
 21
-90.441
  0
LINE
  8
0
 10
40.2669
 20
-90.441
 11
43.3987
 21
-88.9806
  0
LINE
  8
0
 10
43.3987
 20
-88.9806
 11
46.4777
 21
-87.4118
  0
LINE
  8
0
 10
46.4777
 20
-87.4118
 11
49.5
 21
-85.7365
  0
LINE
  8
0
 10
49.5
 20
-85.7365
 11
52.462
 21
-83.9568
  0
LINE
  8
0
 10
52.462
 20
-83.9568
 11
55.3601
 21
-82.0747
  0
LINE
  8
0
 10
55.3601
 20
-82.0747
 11
58.1907
 21
-80.0927
  0
LINE
  8
0
 10
58.1907
 20
-80.0927
 11
60.9505
 21
-78.0131
  0
LINE
  8
0
 10
60.9505
 20
-78.0131
 11
63.636
 21
-75.8384
  0
LINE
  8
0
 10
63.636
 20
-75.8384
 11
66.2439
 21
-73.5713
  0
LINE
  8
0
 10
66.2439
 20
-73.5713
 11
68.7712
 21
-71.2146
  0
LINE
  8
0
 10
68.7712
 20
-71.2146
 11
71.2146
 21
-68.7712
  0
LINE
  8
0
 10
71.2146
 20
-68.7712
 11
73.5713
 21
-66.2439
  0
LINE
  8
0
 10
73.5713
 20
-66.2439
 11
75.8384
 21
-63.636
  0
LINE
  8
0
 10
75.8384
 20
-63.636
 11
78.0131
 21
-60.9505
  0
LINE
  8
0
 10
78.0131
 20
-60.9505
 11
80.0927
 21
-58.1907
  0
LINE
  8
0
 10
80.0927
 20
-58.1907
 11
82.0747
 21
-55.3601
  0
LINE
  8
0
 10
82.0747
 20
-55.3601
 11
83.9568
 21
-52.462
  0
LINE
  8
0
 10
83.9568
 20
-52.462
 11
85.7365
 21
-49.5
  0
LINE
  8
0
 10
85.7365
 20
-49.5
 11
87.4118
 21
-46.4777
  0
LINE
  8
0
 10
87.4118
 20
-46.4777
 11
88.9806
 21
-43.3987
  0
LINE
  8
0
 10
88.9806
 20
-43.3987
 11
90.441
 21
-40.2669
  0
LINE
  8
0
 10
90.441
 20
-40.2669
 11
91.7912
 21
-37.086
  0
LINE
  8
0
 10
91.7912
 20
-37.086
 11
93.0296
 21
-33.86
  0
LINE
  8
0
 10
93.0296
 20
-33.86
 11
94.1546
 21
-30.5927
  0
LINE
  8
0
 10
94.1546
 20
-30.5927
 11
95.1649
 21
-27.2881
  0
LINE
  8
0
 10
95.1649
 20
-27.2881
 11
96.0593
 21
-23.9503
  0
LINE
  8
0
 10
96.0593
 20
-23.9503
 11
96.8366
 21
-20.5833
  0
LINE
  8
0
 10
96.8366
 20
-20.5833
 11
97.496
 21
-17.1912
  0
LINE
  8
0
 10
97.496
 20
-17.1912
 11
98.0365
 21
-13.7781
  0
LINE
  8
0
 10
98.0365
 20
-13.7781
 11
98.4577
 21
-10.3483
  0
LINE
  8
0
 10
98.4577
 20
-10.3483
 11
98.7588
 21
-6.90588
  0
LINE
  8
0
 10
98.7588
 20
-6.90588
 11
98.9397
 21
-3.45505
  0
LINE
  8
0
 10
98.9397
 20
-3.45505
 11
99
 21
0
  0
LINE
  8
0
 10
99
 20
0
 11
98.9397
 21
3.45505
  0
LINE
  8
0
 10
98.9397
 20
3.45505
 11
98.7588
 21
6.90588
  0
LINE
  8
0
 10
98.7588
 20
6.90588
 11
98.4577
 21
10.3483
  0
LINE
  8
0
 10
98.4577
 20
10.3483
 11
98.0365
 21
13.7781
  0
LINE
  8
0
 10
98.0365
 20
13.7781
 11
97.496
 21
17.1912
  0
LINE
  8
0
 10
97.496
 20
17.1912
 11
96.8366
 21
20.5833
  0
LINE
  8
0
 10
96.8366
 20
20.5833
 11
96.0593
 21
23.9503
  0
LINE
  8
0
 10
96.0593
 20
23.9503
 11
95.1649
 21
27.2881
  0
LINE
  8
0
 10
95.1649
 20
27.2881
 11
94.1546
 21
30.5927
  0
LINE
  8
0
 10
94.1546
 20
30.5927
 11
93.0296
 21
33.86
  0
LINE
  8
0
 10
93.0296
 20
33.86
 11
91.7912
 21
37.086
  0
LINE
  8
0
 10
91.7912
 20
37.086
 11
90.441
 21
40.2669
  0
LINE
  8
0
 10
90.441
 20
40.2669
 11
88.9806
 21
43.3987
  0
LINE
  8
0
 10
88.9806
 20
43.3987
 11
87.4118
 21
46.4777
  0
LINE
  8
0
 10
87.4118
 20
46.4777
 11
85.7365
 21
49.5
  0
LINE
  8
0
 10
85.7365
 20
49.5
 11
83.9568
 21
52.462
  0
LINE
  8
0
 10
83.9568
 20
52.462
 11
82.0747
 21
55.3601
  0
LINE
  8
0
 10
82.0747
 20
55.3601
 11
80.0927
 21
58.1907
  0
LINE
  8
0
 10
80.0927
 20
58.1907
 11
78.0131
 21
60.9505
  0
LINE
  8
0
 10
78.0131
 20
60.9505
 11
75.8384
 21
63.636
  0
LINE
  8
0
 10
75.8384
 20
63.636
 11
73.5713
 21
66.2439
  0
LINE
  8
0
 10
73.5713
 20
66.2439
 11
71.2146
 21
68.7712
  0
LINE
  8
0
 10
71.2146
 20
68.7712
 11
68.7712
 21
71.2146
  0
LINE
  8
0
 10
68.7712
 20
71.2146
 11
66.2439
 21
73.5713
  0
LINE
  8
0
 10
66.2439
 20
73.5713
 11
63.636
 21
75.8384
  0
LINE
  8
0
 10
63.636
 20
75.8384
 11
60.9505
 21
78.0131
  0
LINE
  8
0
 10
60.9505
 20
78.0131
 11
58.1907
 21
80.0927
  0
LINE
  8
0
 10
58.1907
 20
80.0927
 11
55.3601
 21
82.0747
  0
LINE
  8
0
 10
55.3601
 20
82.0747
 11
52.462
 21
83.9568
  0
LINE
  8
0
 10
52.462
 20
83.9568
 11
49.5
 21
85.7365
  0
LINE
  8
0
 10
49.5
 20
85.7365
 11
46.4777
 21
87.4118
  0
LINE
  8
0
 10
46.4777
 20
87.4118
 11
43.3987
 21
88.9806
  0
LINE
  8
0
 10
43.3987
 20
88.9806
 11
40.2669
 21
90.441
  0
LINE
  8
0
 10
40.2669
 20
90.441
 11
37.086
 21
91.7912
  0
LINE
  8
0
 10
37.086
 20
91.7912
 11
33.86
 21
93.0296
  0
LINE
  8
0
 10
33.86
 20
93.0296
 11
30.5927
 21
94.1546
  0
LINE
  8
0
 10
30.5927
 20
94.1546
 11
27.2881
 21
95.1649
  0
LINE
  8
0
 10
27.2881
 20
95.1649
 11
23.9503
 21
96.0593
  0
LINE
  8
0
 10
23.9503
 20
96.0593
 11
20.5833
 21
96.8366
  0
LINE
  8
0
 10
20.5833
 20
96.8366
 11
17.1912
 21
97.496
  0
LINE
  8
0
 10
17.1912
 20
97.496
 11
13.7781
 21
98.0365
  0
LINE
  8
0
 10
13.7781
 20
98.0365
 11
10.3483
 21
98.4577
  0
LINE
  8
0
 10
10.3483
 20
98.4577
 11
6.90588
 21
98.7588
  0
LINE
  8
0
 10
6.90588
 20
98.7588
 11
3.45505
 21
98.9397
  0
LINE
  8
0
 10
3.45505
 20
98.9397
 11
0
 21
99
  0
LINE
  8
0
 10
0
 20
99
 11
-3.45505
 21
98.9397
  0
LINE
  8
0
 10
-3.45505
 20
98.9397
 11
-6.90588
 21
98.7588
  0
LINE
  8
0
 10
-6.90588
 20
98.7588
 11
-10.3483
 21
98.4577
  0
LINE
  8
0
 10
-10.3483
 20
98.4577
 11
-13.7781
 21
98.0365
  0
LINE
  8
0
 10
-13.7781
 20
98.0365
 11
-17.1912
 21
97.496
  0
LINE
  8
0
 10
-17.1912
 20
97.496
 11
-20.5833
 21
96.8366
  0
LINE
  8
0
 10
-20.5833
 20
96.8366
 11
-23.9503
 21
96.0593
  0
LINE
  8
0
 10
-23.9503
 20
96.0593
 11
-27.2881
 21
95.1649
  0
LINE
  8
0
 10
-27.2881
 20
95.1649
 11
-30.5927
 21
94.1546
  0
LINE
  8
0
 10
-30.5927
 20
94.1546
 11
-33.86
 21
93.0296
  0
LINE
  8
0
 10
-33.86
 20
93.0296
 11
-37.086
 21
91.7912
  0
LINE
  8
0
 10
-37.086
 20
91.7912
 11
-40.2669
 21
90.441
  0
LINE
  8
0
 10
-40.2669
 20
90.441
 11
-43.3987
 21
88.9806
  0
LINE
  8
0
 10
-43.3987
 20
88.9806
 11
-46.4777
 21
87.4118
  0
LINE
  8
0
 10
-46.4777
 20
87.4118
 11
-49.5
 21
85.7365
  0
LINE
  8
0
 10
-49.5
 20
85.7365
 11
-52.462
 21
83.9568
  0
LINE
  8
0
 10
-52.462
 20
83.9568
 11
-55.3601
 21
82.0747
  0
LINE
  8
0
 10
-55.3601
 20
82.0747
 11
-58.1907
 21
80.0927
  0
LINE
  8
0
 10
-58.1907
 20
80.0927
 11
-60.9505
 21
78.0131
  0
LINE
  8
0
 10
-60.9505
 20
78.0131
 11
-63.636
 21
75.8384
  0
LINE
  8
0
 10
-63.636
 20
75.8384
 11
-66.2439
 21
73.5713
  0
LINE
  8
0
 10
-66.2439
 20
73.5713
 11
-68.7712
 21
71.2146
  0
LINE
  8
0
 10
-68.7712
 20
71.2146
 11
-71.2146
 21
68.7712
  0
LINE
  8
0
 10
-71.2146
 20
68.7712
 11
-73.5713
 21
66.2439
  0
LINE
  8
0
 10
-73.5713
 20
66.2439
 11
-75.8384
 21
63.636
  0
LINE
  8
0
 10
-75.8384
 20
63.636
 11
-78.0131
 21
60.9505
  0
LINE
  8
0
 10
-78.0131
 20
60.9505
 11
-80.0927
 21
58.1907
  0
LINE
  8
0
 10
-80.0927
 20
58.1907
 11
-82.0747
 21
55.3601
  0
LINE
  8
0
 10
-82.0747
 20
55.3601
 11
-83.9568
 21
52.462
  0
LINE
  8
0
 10
-83.9568
 20
52.462
 11
-85.7365
 21
49.5
  0
LINE
  8
0
 10
-85.7365
 20
49.5
 11
-87.4118
 21
46.4777
  0
LINE
  8
0
 10
-87.4118
 20
46.4777
 11
-88.9806
 21
43.3987
  0
LINE
  8
0
 10
-88.9806
 20
43.3987
 11
-90.441
 21
40.2669
  0
LINE
  8
0
 10
-90.441
 20
40.2669
 11
-91.7912
 21
37.086
  0
LINE
  8
0
 10
-91.7912
 20
37.086
 11
-93.0296
 21
33.86
  0
LINE
  8
0
 10
-93.0296
 20
33.86
 11
-94.1546
 21
30.5927
  0
LINE
  8
0
 10
-94.1546
 20
30.5927
 11
-95.1649
 21
27.2881
  0
LINE
  8
0
 10
-95.1649
 20
27.2881
 11
-96.0593
 21
23.9503
  0
LINE
  8
0
 10
-96.0593
 20
23.9503
 11
-96.8366
 21
20.5833
  0
LINE
  8
0
 10
-96.8366
 20
20.5833
 11
-97.496
 21
17.1912
  0
LINE
  8
0
 10
-97.496
 20
17.1912
 11
-98.0365
 21
13.7781
  0
LINE
  8
0
 10
-98.0365
 20
13.7781
 11
-98.4577
 21
10.3483
  0
LINE
  8
0
 10
-98.4577
 20
10.3483
 11
-98.7588
 21
6.90588
  0
LINE
  8
0
 10
-98.7588
 20
6.90588
 11
-98.9397
 21
3.45505
  0
LINE
  8
0
 10
-98.9397
 20
3.45505
 11
-99
 21
0
  0
LINE
  8
0
 10
-99
 20
0
 11
-98.9397
 21
-3.45505
  0
LINE
  8
0
 10
-98.9397
 20
-3.45505
 11
-98.7588
 21
-6.90588
  0
LINE
  8
0
 10
-98.7588
 20
-6.90588
 11
-98.4577
 21
-10.3483
  0
LINE
  8
0
 10
-98.4577
 20
-10.3483
 11
-98.0365
 21
-13.7781
  0
LINE
  8
0
 10
-98.0365
 20
-13.7781
 11
-97.496
 21
-17.1912
  0
LINE
  8
0
 10
-97.496
 20
-17.1912
 11
-96.8366
 21
-20.5833
  0
LINE
  8
0
 10
-96.8366
 20
-20.5833
 11
-96.0593
 21
-23.9503
  0
LINE
  8
0
 10
-96.0593
 20
-23.9503
 11
-95.1649
 21
-27.2881
  0
LINE
  8
0
 10
-95.1649
 20
-27.2881
 11
-94.1546
 21
-30.5927
  0
LINE
  8
0
 10
-94.1546
 20
-30.5927
 11
-93.0296
 21
-33.86
  0
LINE
  8
0
 10
-93.0296
 20
-33.86
 11
-91.7912
 21
-37.086
  0
LINE
  8
0
 10
-91.7912
 20
-37.086
 11
-90.441
 21
-40.2669
  0
LINE
  8
0
 10
-90.441
 20
-40.2669
 11
-88.9806
 21
-43.3987
  0
LINE
  8
0
 10
-88.9806
 20
-43.3987
 11
-87.4118
 21
-46.4777
  0
LINE
  8
0
 10
-87.4118
 20
-46.4777
 11
-85.7365
 21
-49.5
  0
LINE
  8
0
 10
-85.7365
 20
-49.5
 11
-83.9568
 21
-52.462
  0
LINE
  8
0
 10
-83.9568
 20
-52.462
 11
-82.0747
 21
-55.3601
  0
LINE
  8
0
 10
-82.0747
 20
-55.3601
 11
-80.0927
 21
-58.1907
  0
LINE
  8
0
 10
-80.0927
 20
-58.1907
 11
-78.0131
 21
-60.9505
  0
LINE
  8
0
 10
-78.0131
 20
-60.9505
 11
-75.8384
 21
-63.636
  0
LINE
  8
0
 10
-75.8384
 20
-63.636
 11
-73.5713
 21
-66.2439
  0
LINE
  8
0
 10
-73.5713
 20
-66.2439
 11
-71.2146
 21
-68.7712
  0
LINE
  8
0
 10
-71.2146
 20
-68.7712
 11
-68.7712
 21
-71.2146
  0
LINE
  8
0
 10
-68.7712
 20
-71.2146
 11
-66.2439
 21
-73.5713
  0
LINE
  8
0
 10
-66.2439
 20
-73.5713
 11
-63.636
 21
-75.8384
  0
LINE
  8
0
 10
-63.636
 20
-75.8384
 11
-60.9505
 21
-78.0131
  0
LINE
  8
0
 10
-60.9505
 20
-78.0131
 11
-58.1907
 21
-80.0927
  0
LINE
  8
0
 10
-58.1907
 20
-80.0927
 11
-55.3601
 21
-82.0747
  0
LINE
  8
0
 10
-55.3601
 20
-82.0747
 11
-52.462
 21
-83.9568
  0
LINE
  8
0
 10
-52.462
 20
-83.9568
 11
-49.5
 21
-85.7365
  0
LINE
  8
0
 10
-49.5
 20
-85.7365
 11
-46.4777
 21
-87.4118
  0
LINE
  8
0
 10
-46.4777
 20
-87.4118
 11
-43.3987
 21
-88.9806
  0
LINE
  8
0
 10
-43.3987
 20
-88.9806
 11
-40.2669
 21
-90.441
  0
LINE
  8
0
 10
-40.2669
 20
-90.441
 11
-37.086
 21
-91.7912
  0
LINE
  8
0
 10
-37.086
 20
-91.7912
 11
-33.86
 21
-93.0296
  0
LINE
  8
0
 10
-33.86
 20
-93.0296
 11
-30.5927
 21
-94.1546
  0
LINE
  8
0
 10
-30.5927
 20
-94.1546
 11
-27.2881
 21
-95.1649
  0
LINE
  8
0
 10
-27.2881
 20
-95.1649
 11
-23.9503
 21
-96.0593
  0
LINE
  8
0
 10
-23.9503
 20
-96.0593
 11
-20.5833
 21
-96.8366
  0
LINE
  8
0
 10
-20.5833
 20
-96.8366
 11
-17.1912
 21
-97.496
  0
LINE
  8
0
 10
-17.1912
 20
-97.496
 11
-13.7781
 21
-98.0365
  0
LINE
  8
0
 10
-13.7781
 20
-98.0365
 11
-10.3483
 21
-98.4577
  0
LINE
  8
0
 10
-10.3483
 20
-98.4577
 11
-6.90588
 21
-98.7588
  0
LINE
  8
0
 10
-6.90588
 20
-98.7588
 11
-3.45505
 21
-98.9397
  0
LINE
  8
0
 10
-3.45505
 20
-98.9397
 11
0
 21
-99
  0
LINE
  8
0
 10
0
 20
-99
 11
3.45505
 21
-98.9397
  0
LINE
  8
0
 10
-5.78981
 20
88.9164
 11
4.67941
 21
93.5776
  0
LINE
  8
0
 10
4.67941
 20
93.5776
 11
5.78981
 21
91.0836
  0
LINE
  8
0
 10
5.78981
 20
91.0836
 11
-4.67941
 21
86.4224
  0
LINE
  8
0
 10
-4.67941
 20
86.4224
 11
-5.78981
 21
88.9164
  0
LINE
  8
0
 10
-15.0524
 20
87.8241
 11
-5.12773
 21
93.5541
  0
LINE
  8
0
 10
-5.12773
 20
93.5541
 11
-3.76273
 21
91.1898
  0
LINE
  8
0
 10
-3.76273
 20
91.1898
 11
-13.6874
 21
85.4598
  0
LINE
  8
0
 10
-13.6874
 20
85.4598
 11
-15.0524
 21
87.8241
  0
LINE
  8
0
 10
3.53619
 20
89.0345
 11
14.4353
 21
92.5758
  0
LINE
  8
0
 10
14.4353
 20
92.5758
 11
15.2789
 21
89.9794
  0
LINE
  8
0
 10
15.2789
 20
89.9794
 11
4.37981
 21
86.4381
  0
LINE
  8
0
 10
4.37981
 20
86.4381
 11
3.53619
 21
89.0345
  0
LINE
  8
0
 10
-24.15
 20
85.7696
 11
-14.8787
 21
92.5056
  0
LINE
  8
0
 10
-14.8787
 20
92.5056
 11
-13.274
 21
90.297
  0
LINE
  8
0
 10
-13.274
 20
90.297
 11
-22.5454
 21
83.561
  0
LINE
  8
0
 10
-22.5454
 20
83.561
 11
-24.15
 21
85.7696
  0
LINE
  8
0
 10
12.8235
 20
88.1771
 11
24.033
 21
90.5598
  0
LINE
  8
0
 10
24.033
 20
90.5598
 11
24.6006
 21
87.8894
  0
LINE
  8
0
 10
24.6006
 20
87.8894
 11
13.3911
 21
85.5068
  0
LINE
  8
0
 10
13.3911
 20
85.5068
 11
12.8235
 21
88.1771
  0
LINE
  8
0
 10
-32.9831
 20
82.7754
 11
-24.4667
 21
90.4436
  0
LINE
  8
0
 10
-24.4667
 20
90.4436
 11
-22.6399
 21
88.4148
  0
LINE
  8
0
 10
-22.6399
 20
88.4148
 11
-31.1564
 21
80.7466
  0
LINE
  8
0
 10
-31.1564
 20
80.7466
 11
-32.9831
 21
82.7754
  0
LINE
  8
0
 10
21.9702
 20
86.3537
 11
33.3674
 21
87.5515
  0
LINE
  8
0
 10
33.3674
 20
87.5515
 11
33.6528
 21
84.8365
  0
LINE
  8
0
 10
33.6528
 20
84.8365
 11
22.2556
 21
83.6386
  0
LINE
  8
0
 10
22.2556
 20
83.6386
 11
21.9702
 21
86.3537
  0
LINE
  8
0
 10
-41.4548
 20
78.8742
 11
-33.7866
 21
87.3907
  0
LINE
  8
0
 10
-33.7866
 20
87.3907
 11
-31.7578
 21
85.5639
  0
LINE
  8
0
 10
-31.7578
 20
85.5639
 11
-39.426
 21
77.0475
  0
LINE
  8
0
 10
-39.426
 20
77.0475
 11
-41.4548
 21
78.8742
  0
LINE
  8
0
 10
30.8763
 20
80.8541
 11
30.8763
 21
83.5841
  0
LINE
  8
0
 10
30.8763
 20
83.5841
 11
42.3363
 21
83.5841
  0
LINE
  8
0
 10
42.3363
 20
83.5841
 11
42.3363
 21
80.8541
  0
LINE
  8
0
 10
42.3363
 20
80.8541
 11
30.8763
 21
80.8541
  0
LINE
  8
0
 10
-49.4723
 20
74.1089
 11
-42.7363
 21
83.3803
  0
LINE
  8
0
 10
-42.7363
 20
83.3803
 11
-40.5277
 21
81.7756
  0
LINE
  8
0
 10
-40.5277
 20
81.7756
 11
-47.2637
 21
72.5043
  0
LINE
  8
0
 10
-47.2637
 20
72.5043
 11
-49.4723
 21
74.1089
  0
LINE
  8
0
 10
-7.19655
 20
41.4501
 11
-7.30099
 21
41.4574
  0
LINE
  8
0
 10
-7.30099
 20
41.4574
 11
-7.40514
 21
41.4683
  0
LINE
  8
0
 10
-7.40514
 20
41.4683
 11
-7.50883
 21
41.4829
  0
LINE
  8
0
 10
-7.50883
 20
41.4829
 11
-7.61195
 21
41.5011
  0
LINE
  8
0
 10
-7.61195
 20
41.5011
 11
-7.71439
 21
41.5229
  0
LINE
  8
0
 10
-7.71439
 20
41.5229
 11
-7.81599
 21
41.5482
  0
LINE
  8
0
 10
-7.81599
 20
41.5482
 11
-7.91666
 21
41.577
  0
LINE
  8
0
 10
-7.91666
 20
41.577
 11
-8.01624
 21
41.6094
  0
LINE
  8
0
 10
-8.01624
 20
41.6094
 11
-8.11462
 21
41.6452
  0
LINE
  8
0
 10
-8.11462
 20
41.6452
 11
-8.21173
 21
41.6844
  0
LINE
  8
0
 10
-8.21173
 20
41.6844
 11
-8.30739
 21
41.727
  0
LINE
  8
0
 10
-8.30739
 20
41.727
 11
-8.4015
 21
41.7729
  0
LINE
  8
0
 10
-8.4015
 20
41.7729
 11
-8.49396
 21
41.8221
  0
LINE
  8
0
 10
-8.49396
 20
41.8221
 11
-8.58466
 21
41.8745
  0
LINE
  8
0
 10
-8.58466
 20
41.8745
 11
-8.67345
 21
41.9299
  0
LINE
  8
0
 10
-8.67345
 20
41.9299
 11
-8.76027
 21
41.9885
  0
LINE
  8
0
 10
-8.76027
 20
41.9885
 11
-8.84497
 21
42.05
  0
LINE
  8
0
 10
-8.84497
 20
42.05
 11
-8.92751
 21
42.1145
  0
LINE
  8
0
 10
-8.92751
 20
42.1145
 11
-9.00771
 21
42.1818
  0
LINE
  8
0
 10
-9.00771
 20
42.1818
 11
-9.08554
 21
42.2519
  0
LINE
  8
0
 10
-9.08554
 20
42.2519
 11
-9.16086
 21
42.3246
  0
LINE
  8
0
 10
-9.16086
 20
42.3246
 11
-9.2336
 21
42.4
  0
LINE
  8
0
 10
-9.2336
 20
42.4
 11
-9.30367
 21
42.4778
  0
LINE
  8
0
 10
-9.30367
 20
42.4778
 11
-9.37097
 21
42.558
  0
LINE
  8
0
 10
-9.37097
 20
42.558
 11
-9.43544
 21
42.6405
  0
LINE
  8
0
 10
-9.43544
 20
42.6405
 11
-9.49699
 21
42.7252
  0
LINE
  8
0
 10
-9.49699
 20
42.7252
 11
-9.55554
 21
42.812
  0
LINE
  8
0
 10
-9.55554
 20
42.812
 11
-9.61104
 21
42.9008
  0
LINE
  8
0
 10
-9.61104
 20
42.9008
 11
-9.66341
 21
42.9915
  0
LINE
  8
0
 10
-9.66341
 20
42.9915
 11
-9.71255
 21
43.084
  0
LINE
  8
0
 10
-9.71255
 20
43.084
 11
-9.75845
 21
43.1781
  0
LINE
  8
0
 10
-9.75845
 20
43.1781
 11
-9.80104
 21
43.2738
  0
LINE
  8
0
 10
-9.80104
 20
43.2738
 11
-19.6655
 21
67.8882
  0
LINE
  8
0
 10
-19.6655
 20
67.8882
 11
-19.7729
 21
68.1834
  0
LINE
  8
0
 10
-19.7729
 20
68.1834
 11
-19.87
 21
68.4822
  0
LINE
  8
0
 10
-19.87
 20
68.4822
 11
-19.9566
 21
68.7842
  0
LINE
  8
0
 10
-19.9566
 20
68.7842
 11
-20.0326
 21
69.089
  0
LINE
  8
0
 10
-20.0326
 20
69.089
 11
-20.0979
 21
69.3963
  0
LINE
  8
0
 10
-20.0979
 20
69.3963
 11
-20.1525
 21
69.7056
  0
LINE
  8
0
 10
-20.1525
 20
69.7056
 11
-20.1962
 21
70.0167
  0
LINE
  8
0
 10
-20.1962
 20
70.0167
 11
-20.229
 21
70.3291
  0
LINE
  8
0
 10
-20.229
 20
70.3291
 11
-20.2509
 21
70.6425
  0
LINE
  8
0
 10
-20.2509
 20
70.6425
 11
-20.2619
 21
70.9565
  0
LINE
  8
0
 10
-20.2619
 20
70.9565
 11
-20.2619
 21
71.2706
  0
LINE
  8
0
 10
-20.2619
 20
71.2706
 11
-20.2509
 21
71.5846
  0
LINE
  8
0
 10
-20.2509
 20
71.5846
 11
-20.229
 21
71.8979
  0
LINE
  8
0
 10
-20.229
 20
71.8979
 11
-20.1962
 21
72.2104
  0
LINE
  8
0
 10
-20.1962
 20
72.2104
 11
-20.1525
 21
72.5215
  0
LINE
  8
0
 10
-20.1525
 20
72.5215
 11
-20.0979
 21
72.8308
  0
LINE
  8
0
 10
-20.0979
 20
72.8308
 11
-20.0326
 21
73.1381
  0
LINE
  8
0
 10
-20.0326
 20
73.1381
 11
-19.9566
 21
73.4429
  0
LINE
  8
0
 10
-19.9566
 20
73.4429
 11
-19.87
 21
73.7449
  0
LINE
  8
0
 10
-19.87
 20
73.7449
 11
-19.7729
 21
74.0437
  0
LINE
  8
0
 10
-19.7729
 20
74.0437
 11
-19.6655
 21
74.3389
  0
LINE
  8
0
 10
-19.6655
 20
74.3389
 11
-19.5478
 21
74.6301
  0
LINE
  8
0
 10
-19.5478
 20
74.6301
 11
-19.42
 21
74.9171
  0
LINE
  8
0
 10
-19.42
 20
74.9171
 11
-19.2823
 21
75.1995
  0
LINE
  8
0
 10
-19.2823
 20
75.1995
 11
-19.1348
 21
75.4768
  0
LINE
  8
0
 10
-19.1348
 20
75.4768
 11
-18.9778
 21
75.7489
  0
LINE
  8
0
 10
-18.9778
 20
75.7489
 11
-18.8113
 21
76.0153
  0
LINE
  8
0
 10
-18.8113
 20
76.0153
 11
-18.6356
 21
76.2757
  0
LINE
  8
0
 10
-18.6356
 20
76.2757
 11
-18.451
 21
76.5299
  0
LINE
  8
0
 10
-18.451
 20
76.5299
 11
-18.2576
 21
76.7774
  0
LINE
  8
0
 10
-18.2576
 20
76.7774
 11
-18.0556
 21
77.0181
  0
LINE
  8
0
 10
-18.0556
 20
77.0181
 11
-17.8454
 21
77.2515
  0
LINE
  8
0
 10
-17.8454
 20
77.2515
 11
-17.6272
 21
77.4775
  0
LINE
  8
0
 10
-17.6272
 20
77.4775
 11
-17.4012
 21
77.6957
  0
LINE
  8
0
 10
-17.4012
 20
77.6957
 11
-17.1678
 21
77.9059
  0
LINE
  8
0
 10
-17.1678
 20
77.9059
 11
-16.9271
 21
78.1079
  0
LINE
  8
0
 10
-16.9271
 20
78.1079
 11
-16.6796
 21
78.3013
  0
LINE
  8
0
 10
-16.6796
 20
78.3013
 11
-16.4254
 21
78.4859
  0
LINE
  8
0
 10
-16.4254
 20
78.4859
 11
-16.165
 21
78.6616
  0
LINE
  8
0
 10
-16.165
 20
78.6616
 11
-15.8986
 21
78.8281
  0
LINE
  8
0
 10
-15.8986
 20
78.8281
 11
-15.6266
 21
78.9851
  0
LINE
  8
0
 10
-15.6266
 20
78.9851
 11
-15.3492
 21
79.1326
  0
LINE
  8
0
 10
-15.3492
 20
79.1326
 11
-15.0668
 21
79.2703
  0
LINE
  8
0
 10
-15.0668
 20
79.2703
 11
-14.7798
 21
79.3981
  0
LINE
  8
0
 10
-14.7798
 20
79.3981
 11
-14.4886
 21
79.5158
  0
LINE
  8
0
 10
-14.4886
 20
79.5158
 11
-14.1934
 21
79.6232
  0
LINE
  8
0
 10
-14.1934
 20
79.6232
 11
-13.8946
 21
79.7203
  0
LINE
  8
0
 10
-13.8946
 20
79.7203
 11
-13.5926
 21
79.8069
  0
LINE
  8
0
 10
-13.5926
 20
79.8069
 11
-13.2878
 21
79.8829
  0
LINE
  8
0
 10
-13.2878
 20
79.8829
 11
-12.9805
 21
79.9482
  0
LINE
  8
0
 10
-12.9805
 20
79.9482
 11
-12.6712
 21
80.0027
  0
LINE
  8
0
 10
-12.6712
 20
80.0027
 11
-12.3601
 21
80.0465
  0
LINE
  8
0
 10
-12.3601
 20
80.0465
 11
-12.0477
 21
80.0793
  0
LINE
  8
0
 10
-12.0477
 20
80.0793
 11
-0.627792
 21
80.9781
  0
LINE
  8
0
 10
-0.627792
 20
80.9781
 11
-0.314072
 21
80.9945
  0
LINE
  8
0
 10
-0.314072
 20
80.9945
 11
0
 21
81
  0
LINE
  8
0
 10
0
 20
81
 11
0.314087
 21
80.9945
  0
LINE
  8
0
 10
0.314087
 20
80.9945
 11
0.627808
 21
80.9781
  0
LINE
  8
0
 10
0.627808
 20
80.9781
 11
0.94075
 21
80.9507
  0
LINE
  8
0
 10
0.94075
 20
80.9507
 11
1.25255
 21
80.9124
  0
LINE
  8
0
 10
1.25255
 20
80.9124
 11
1.56282
 21
80.8633
  0
LINE
  8
0
 10
1.56282
 20
80.8633
 11
1.8712
 21
80.8033
  0
LINE
  8
0
 10
1.8712
 20
80.8033
 11
2.17729
 21
80.7327
  0
LINE
  8
0
 10
2.17729
 20
80.7327
 11
2.48073
 21
80.6514
  0
LINE
  8
0
 10
2.48073
 20
80.6514
 11
2.78114
 21
80.5595
  0
LINE
  8
0
 10
2.78114
 20
80.5595
 11
3.07817
 21
80.4572
  0
LINE
  8
0
 10
3.07817
 20
80.4572
 11
3.37144
 21
80.3447
  0
LINE
  8
0
 10
3.37144
 20
80.3447
 11
3.66063
 21
80.2219
  0
LINE
  8
0
 10
3.66063
 20
80.2219
 11
3.94533
 21
80.0891
  0
LINE
  8
0
 10
3.94533
 20
80.0891
 11
4.22523
 21
79.9465
  0
LINE
  8
0
 10
4.22523
 20
79.9465
 11
4.5
 21
79.7942
  0
LINE
  8
0
 10
4.5
 20
79.7942
 11
4.76927
 21
79.6324
  0
LINE
  8
0
 10
4.76927
 20
79.6324
 11
5.03273
 21
79.4613
  0
LINE
  8
0
 10
5.03273
 20
79.4613
 11
5.29005
 21
79.2811
  0
LINE
  8
0
 10
5.29005
 20
79.2811
 11
5.54094
 21
79.0921
  0
LINE
  8
0
 10
5.54094
 20
79.0921
 11
5.78508
 21
78.8944
  0
LINE
  8
0
 10
5.78508
 20
78.8944
 11
6.02217
 21
78.6883
  0
LINE
  8
0
 10
6.02217
 20
78.6883
 11
6.25192
 21
78.474
  0
LINE
  8
0
 10
6.25192
 20
78.474
 11
6.47404
 21
78.2519
  0
LINE
  8
0
 10
6.47404
 20
78.2519
 11
6.68829
 21
78.0222
  0
LINE
  8
0
 10
6.68829
 20
78.0222
 11
6.89439
 21
77.7851
  0
LINE
  8
0
 10
6.89439
 20
77.7851
 11
7.09209
 21
77.5409
  0
LINE
  8
0
 10
7.09209
 20
77.5409
 11
7.28114
 21
77.2901
  0
LINE
  8
0
 10
7.28114
 20
77.2901
 11
7.46133
 21
77.0327
  0
LINE
  8
0
 10
7.46133
 20
77.0327
 11
7.63243
 21
76.7693
  0
LINE
  8
0
 10
7.63243
 20
76.7693
 11
7.79422
 21
76.5
  0
LINE
  8
0
 10
7.79422
 20
76.5
 11
7.94652
 21
76.2252
  0
LINE
  8
0
 10
7.94652
 20
76.2252
 11
8.08914
 21
75.9453
  0
LINE
  8
0
 10
8.08914
 20
75.9453
 11
8.22191
 21
75.6606
  0
LINE
  8
0
 10
8.22191
 20
75.6606
 11
8.34465
 21
75.3714
  0
LINE
  8
0
 10
8.34465
 20
75.3714
 11
8.45723
 21
75.0782
  0
LINE
  8
0
 10
8.45723
 20
75.0782
 11
8.55949
 21
74.7811
  0
LINE
  8
0
 10
8.55949
 20
74.7811
 11
8.65135
 21
74.4807
  0
LINE
  8
0
 10
8.65135
 20
74.4807
 11
8.73265
 21
74.1773
  0
LINE
  8
0
 10
8.73265
 20
74.1773
 11
8.80331
 21
73.8712
  0
LINE
  8
0
 10
8.80331
 20
73.8712
 11
8.86327
 21
73.5628
  0
LINE
  8
0
 10
8.86327
 20
73.5628
 11
8.9124
 21
73.2525
  0
LINE
  8
0
 10
8.9124
 20
73.2525
 11
8.95068
 21
72.9408
  0
LINE
  8
0
 10
8.95068
 20
72.9408
 11
8.97807
 21
72.6278
  0
LINE
  8
0
 10
8.97807
 20
72.6278
 11
8.99451
 21
72.3141
  0
LINE
  8
0
 10
8.99451
 20
72.3141
 11
9
 21
72
  0
LINE
  8
0
 10
9
 20
72
 11
8.99451
 21
71.6859
  0
LINE
  8
0
 10
8.99451
 20
71.6859
 11
8.97807
 21
71.3722
  0
LINE
  8
0
 10
8.97807
 20
71.3722
 11
8.95068
 21
71.0592
  0
LINE
  8
0
 10
8.95068
 20
71.0592
 11
8.9124
 21
70.7474
  0
LINE
  8
0
 10
8.9124
 20
70.7474
 11
8.86327
 21
70.4372
  0
LINE
  8
0
 10
8.86327
 20
70.4372
 11
8.80331
 21
70.1288
  0
LINE
  8
0
 10
8.80331
 20
70.1288
 11
2.91087
 21
44.2742
  0
LINE
  8
0
 10
2.91087
 20
44.2742
 11
2.88377
 21
44.1731
  0
LINE
  8
0
 10
2.88377
 20
44.1731
 11
2.85316
 21
44.0729
  0
LINE
  8
0
 10
2.85316
 20
44.0729
 11
2.81908
 21
43.9739
  0
LINE
  8
0
 10
2.81908
 20
43.9739
 11
2.78154
 21
43.8762
  0
LINE
  8
0
 10
2.78154
 20
43.8762
 11
2.74063
 21
43.7798
  0
LINE
  8
0
 10
2.74063
 20
43.7798
 11
2.69638
 21
43.6849
  0
LINE
  8
0
 10
2.69638
 20
43.6849
 11
2.64883
 21
43.5916
  0
LINE
  8
0
 10
2.64883
 20
43.5916
 11
2.59807
 21
43.5
  0
LINE
  8
0
 10
2.59807
 20
43.5
 11
2.54414
 21
43.4102
  0
LINE
  8
0
 10
2.54414
 20
43.4102
 11
2.48711
 21
43.3224
  0
LINE
  8
0
 10
2.48711
 20
43.3224
 11
2.42705
 21
43.2366
  0
LINE
  8
0
 10
2.42705
 20
43.2366
 11
2.36403
 21
43.153
  0
LINE
  8
0
 10
2.36403
 20
43.153
 11
2.29813
 21
43.0716
  0
LINE
  8
0
 10
2.29813
 20
43.0716
 11
2.22943
 21
42.9926
  0
LINE
  8
0
 10
2.22943
 20
42.9926
 11
2.158
 21
42.916
  0
LINE
  8
0
 10
2.158
 20
42.916
 11
2.08397
 21
42.842
  0
LINE
  8
0
 10
2.08397
 20
42.842
 11
2.00739
 21
42.7706
  0
LINE
  8
0
 10
2.00739
 20
42.7706
 11
1.92836
 21
42.7019
  0
LINE
  8
0
 10
1.92836
 20
42.7019
 11
1.84697
 21
42.636
  0
LINE
  8
0
 10
1.84697
 20
42.636
 11
1.76335
 21
42.5729
  0
LINE
  8
0
 10
1.76335
 20
42.5729
 11
1.67757
 21
42.5129
  0
LINE
  8
0
 10
1.67757
 20
42.5129
 11
1.58975
 21
42.4558
  0
LINE
  8
0
 10
1.58975
 20
42.4558
 11
1.5
 21
42.4019
  0
LINE
  8
0
 10
1.5
 20
42.4019
 11
1.4084
 21
42.3512
  0
LINE
  8
0
 10
1.4084
 20
42.3512
 11
1.31511
 21
42.3036
  0
LINE
  8
0
 10
1.31511
 20
42.3036
 11
1.2202
 21
42.2594
  0
LINE
  8
0
 10
1.2202
 20
42.2594
 11
1.12381
 21
42.2184
  0
LINE
  8
0
 10
1.12381
 20
42.2184
 11
1.02605
 21
42.1809
  0
LINE
  8
0
 10
1.02605
 20
42.1809
 11
0.927048
 21
42.1468
  0
LINE
  8
0
 10
0.927048
 20
42.1468
 11
0.826904
 21
42.1162
  0
LINE
  8
0
 10
0.826904
 20
42.1162
 11
0.725754
 21
42.0891
  0
LINE
  8
0
 10
0.725754
 20
42.0891
 11
0.623734
 21
42.0656
  0
LINE
  8
0
 10
0.623734
 20
42.0656
 11
0.520935
 21
42.0456
  0
LINE
  8
0
 10
0.520935
 20
42.0456
 11
0.417511
 21
42.0292
  0
LINE
  8
0
 10
0.417511
 20
42.0292
 11
0.313583
 21
42.0164
  0
LINE
  8
0
 10
0.313583
 20
42.0164
 11
-6.88254
 21
41.4501
  0
LINE
  8
0
 10
-6.88254
 20
41.4501
 11
-6.98718
 21
41.4464
  0
LINE
  8
0
 10
-6.98718
 20
41.4464
 11
-7.09189
 21
41.4464
  0
LINE
  8
0
 10
-7.09189
 20
41.4464
 11
-7.19655
 21
41.4501
  0
LINE
  8
0
 10
39.1587
 20
77.1837
 11
39.4441
 21
79.8987
  0
LINE
  8
0
 10
39.4441
 20
79.8987
 11
50.8413
 21
78.7009
  0
LINE
  8
0
 10
50.8413
 20
78.7009
 11
50.5559
 21
75.9858
  0
LINE
  8
0
 10
50.5559
 20
75.9858
 11
39.1587
 21
77.1837
  0
LINE
  8
0
 10
-56.9478
 20
68.5317
 11
-51.2178
 21
78.4563
  0
LINE
  8
0
 10
-51.2178
 20
78.4563
 11
-48.8535
 21
77.0914
  0
LINE
  8
0
 10
-48.8535
 20
77.0914
 11
-54.5835
 21
67.1667
  0
LINE
  8
0
 10
-54.5835
 20
67.1667
 11
-56.9478
 21
68.5317
  0
LINE
  8
0
 10
47.0121
 20
72.6677
 11
47.5797
 21
75.338
  0
LINE
  8
0
 10
47.5797
 20
75.338
 11
58.7892
 21
72.9554
  0
LINE
  8
0
 10
58.7892
 20
72.9554
 11
58.2216
 21
70.285
  0
LINE
  8
0
 10
58.2216
 20
70.285
 11
47.0121
 21
72.6677
  0
LINE
  8
0
 10
26.3456
 20
33.4076
 11
26.241
 21
33.4131
  0
LINE
  8
0
 10
26.241
 20
33.4131
 11
26.1367
 21
33.4222
  0
LINE
  8
0
 10
26.1367
 20
33.4222
 11
26.0328
 21
33.435
  0
LINE
  8
0
 10
26.0328
 20
33.435
 11
25.9294
 21
33.4513
  0
LINE
  8
0
 10
25.9294
 20
33.4513
 11
25.8266
 21
33.4713
  0
LINE
  8
0
 10
25.8266
 20
33.4713
 11
25.7245
 21
33.4949
  0
LINE
  8
0
 10
25.7245
 20
33.4949
 11
25.6234
 21
33.522
  0
LINE
  8
0
 10
25.6234
 20
33.522
 11
25.5233
 21
33.5526
  0
LINE
  8
0
 10
25.5233
 20
33.5526
 11
25.4243
 21
33.5867
  0
LINE
  8
0
 10
25.4243
 20
33.5867
 11
25.3265
 21
33.6242
  0
LINE
  8
0
 10
25.3265
 20
33.6242
 11
25.2301
 21
33.6651
  0
LINE
  8
0
 10
25.2301
 20
33.6651
 11
25.1352
 21
33.7094
  0
LINE
  8
0
 10
25.1352
 20
33.7094
 11
25.0419
 21
33.7569
  0
LINE
  8
0
 10
25.0419
 20
33.7569
 11
24.9503
 21
33.8077
  0
LINE
  8
0
 10
24.9503
 20
33.8077
 11
18.7957
 21
37.5793
  0
LINE
  8
0
 10
18.7957
 20
37.5793
 11
18.7088
 21
37.6378
  0
LINE
  8
0
 10
18.7088
 20
37.6378
 11
18.6241
 21
37.6994
  0
LINE
  8
0
 10
18.6241
 20
37.6994
 11
18.5416
 21
37.7638
  0
LINE
  8
0
 10
18.5416
 20
37.7638
 11
18.4614
 21
37.8311
  0
LINE
  8
0
 10
18.4614
 20
37.8311
 11
18.3836
 21
37.9012
  0
LINE
  8
0
 10
18.3836
 20
37.9012
 11
18.3082
 21
37.974
  0
LINE
  8
0
 10
18.3082
 20
37.974
 11
18.2355
 21
38.0493
  0
LINE
  8
0
 10
18.2355
 20
38.0493
 11
18.1654
 21
38.1271
  0
LINE
  8
0
 10
18.1654
 20
38.1271
 11
18.0981
 21
38.2073
  0
LINE
  8
0
 10
18.0981
 20
38.2073
 11
18.0337
 21
38.2898
  0
LINE
  8
0
 10
18.0337
 20
38.2898
 11
17.9721
 21
38.3745
  0
LINE
  8
0
 10
17.9721
 20
38.3745
 11
17.9136
 21
38.4613
  0
LINE
  8
0
 10
17.9136
 20
38.4613
 11
17.8581
 21
38.5502
  0
LINE
  8
0
 10
17.8581
 20
38.5502
 11
17.8057
 21
38.6408
  0
LINE
  8
0
 10
17.8057
 20
38.6408
 11
17.7565
 21
38.7333
  0
LINE
  8
0
 10
17.7565
 20
38.7333
 11
17.7106
 21
38.8274
  0
LINE
  8
0
 10
17.7106
 20
38.8274
 11
17.668
 21
38.9231
  0
LINE
  8
0
 10
17.668
 20
38.9231
 11
17.6288
 21
39.0202
  0
LINE
  8
0
 10
17.6288
 20
39.0202
 11
17.593
 21
39.1186
  0
LINE
  8
0
 10
17.593
 20
39.1186
 11
17.5607
 21
39.2182
  0
LINE
  8
0
 10
17.5607
 20
39.2182
 11
17.5318
 21
39.3188
  0
LINE
  8
0
 10
17.5318
 20
39.3188
 11
17.5065
 21
39.4204
  0
LINE
  8
0
 10
17.5065
 20
39.4204
 11
17.4847
 21
39.5229
  0
LINE
  8
0
 10
17.4847
 20
39.5229
 11
17.4665
 21
39.626
  0
LINE
  8
0
 10
17.4665
 20
39.626
 11
17.4519
 21
39.7297
  0
LINE
  8
0
 10
17.4519
 20
39.7297
 11
17.441
 21
39.8338
  0
LINE
  8
0
 10
17.441
 20
39.8338
 11
17.4337
 21
39.9383
  0
LINE
  8
0
 10
17.4337
 20
39.9383
 11
17.43
 21
40.0429
  0
LINE
  8
0
 10
17.43
 20
40.0429
 11
17.43
 21
40.1476
  0
LINE
  8
0
 10
17.43
 20
40.1476
 11
17.4337
 21
40.2523
  0
LINE
  8
0
 10
17.4337
 20
40.2523
 11
17.441
 21
40.3568
  0
LINE
  8
0
 10
17.441
 20
40.3568
 11
17.4519
 21
40.4609
  0
LINE
  8
0
 10
17.4519
 20
40.4609
 11
17.4665
 21
40.5646
  0
LINE
  8
0
 10
17.4665
 20
40.5646
 11
17.4847
 21
40.6677
  0
LINE
  8
0
 10
17.4847
 20
40.6677
 11
17.5065
 21
40.7701
  0
LINE
  8
0
 10
17.5065
 20
40.7701
 11
23.994
 21
66.4818
  0
LINE
  8
0
 10
23.994
 20
66.4818
 11
24.0806
 21
66.7838
  0
LINE
  8
0
 10
24.0806
 20
66.7838
 11
24.1777
 21
67.0826
  0
LINE
  8
0
 10
24.1777
 20
67.0826
 11
24.2851
 21
67.3778
  0
LINE
  8
0
 10
24.2851
 20
67.3778
 11
24.4028
 21
67.669
  0
LINE
  8
0
 10
24.4028
 20
67.669
 11
24.5305
 21
67.956
  0
LINE
  8
0
 10
24.5305
 20
67.956
 11
24.6682
 21
68.2384
  0
LINE
  8
0
 10
24.6682
 20
68.2384
 11
24.8157
 21
68.5157
  0
LINE
  8
0
 10
24.8157
 20
68.5157
 11
24.9728
 21
68.7878
  0
LINE
  8
0
 10
24.9728
 20
68.7878
 11
25.1393
 21
69.0542
  0
LINE
  8
0
 10
25.1393
 20
69.0542
 11
25.3149
 21
69.3146
  0
LINE
  8
0
 10
25.3149
 20
69.3146
 11
25.4996
 21
69.5688
  0
LINE
  8
0
 10
25.4996
 20
69.5688
 11
25.693
 21
69.8163
  0
LINE
  8
0
 10
25.693
 20
69.8163
 11
25.8949
 21
70.057
  0
LINE
  8
0
 10
25.8949
 20
70.057
 11
26.1051
 21
70.2904
  0
LINE
  8
0
 10
26.1051
 20
70.2904
 11
26.3233
 21
70.5164
  0
LINE
  8
0
 10
26.3233
 20
70.5164
 11
26.5493
 21
70.7346
  0
LINE
  8
0
 10
26.5493
 20
70.7346
 11
26.7828
 21
70.9448
  0
LINE
  8
0
 10
26.7828
 20
70.9448
 11
27.0234
 21
71.1468
  0
LINE
  8
0
 10
27.0234
 20
71.1468
 11
27.271
 21
71.3402
  0
LINE
  8
0
 10
27.271
 20
71.3402
 11
27.5251
 21
71.5248
  0
LINE
  8
0
 10
27.5251
 20
71.5248
 11
27.7856
 21
71.7005
  0
LINE
  8
0
 10
27.7856
 20
71.7005
 11
28.052
 21
71.867
  0
LINE
  8
0
 10
28.052
 20
71.867
 11
28.324
 21
72.024
  0
LINE
  8
0
 10
28.324
 20
72.024
 11
28.6014
 21
72.1715
  0
LINE
  8
0
 10
28.6014
 20
72.1715
 11
28.8837
 21
72.3092
  0
LINE
  8
0
 10
28.8837
 20
72.3092
 11
29.1707
 21
72.437
  0
LINE
  8
0
 10
29.1707
 20
72.437
 11
29.462
 21
72.5547
  0
LINE
  8
0
 10
29.462
 20
72.5547
 11
29.7572
 21
72.6621
  0
LINE
  8
0
 10
29.7572
 20
72.6621
 11
30.056
 21
72.7592
  0
LINE
  8
0
 10
30.056
 20
72.7592
 11
30.3579
 21
72.8458
  0
LINE
  8
0
 10
30.3579
 20
72.8458
 11
30.6628
 21
72.9218
  0
LINE
  8
0
 10
30.6628
 20
72.9218
 11
30.97
 21
72.9871
  0
LINE
  8
0
 10
30.97
 20
72.9871
 11
31.2794
 21
73.0416
  0
LINE
  8
0
 10
31.2794
 20
73.0416
 11
31.5905
 21
73.0854
  0
LINE
  8
0
 10
31.5905
 20
73.0854
 11
31.9029
 21
73.1182
  0
LINE
  8
0
 10
31.9029
 20
73.1182
 11
32.2163
 21
73.1401
  0
LINE
  8
0
 10
32.2163
 20
73.1401
 11
32.5302
 21
73.1511
  0
LINE
  8
0
 10
32.5302
 20
73.1511
 11
32.8444
 21
73.1511
  0
LINE
  8
0
 10
32.8444
 20
73.1511
 11
33.1583
 21
73.1401
  0
LINE
  8
0
 10
33.1583
 20
73.1401
 11
33.4717
 21
73.1182
  0
LINE
  8
0
 10
33.4717
 20
73.1182
 11
33.7841
 21
73.0854
  0
LINE
  8
0
 10
33.7841
 20
73.0854
 11
34.0952
 21
73.0416
  0
LINE
  8
0
 10
34.0952
 20
73.0416
 11
34.4046
 21
72.9871
  0
LINE
  8
0
 10
34.4046
 20
72.9871
 11
34.7119
 21
72.9218
  0
LINE
  8
0
 10
34.7119
 20
72.9218
 11
35.0167
 21
72.8458
  0
LINE
  8
0
 10
35.0167
 20
72.8458
 11
35.3187
 21
72.7592
  0
LINE
  8
0
 10
35.3187
 20
72.7592
 11
35.6174
 21
72.6621
  0
LINE
  8
0
 10
35.6174
 20
72.6621
 11
35.9126
 21
72.5547
  0
LINE
  8
0
 10
35.9126
 20
72.5547
 11
36.2039
 21
72.437
  0
LINE
  8
0
 10
36.2039
 20
72.437
 11
36.4909
 21
72.3092
  0
LINE
  8
0
 10
36.4909
 20
72.3092
 11
36.7732
 21
72.1715
  0
LINE
  8
0
 10
36.7732
 20
72.1715
 11
37.0506
 21
72.024
  0
LINE
  8
0
 10
37.0506
 20
72.024
 11
37.3226
 21
71.867
  0
LINE
  8
0
 10
37.3226
 20
71.867
 11
47.0898
 21
65.8817
  0
LINE
  8
0
 10
47.0898
 20
65.8817
 11
47.3533
 21
65.7105
  0
LINE
  8
0
 10
47.3533
 20
65.7105
 11
47.6106
 21
65.5304
  0
LINE
  8
0
 10
47.6106
 20
65.5304
 11
47.8615
 21
65.3413
  0
LINE
  8
0
 10
47.8615
 20
65.3413
 11
48.1056
 21
65.1436
  0
LINE
  8
0
 10
48.1056
 20
65.1436
 11
48.3427
 21
64.9375
  0
LINE
  8
0
 10
48.3427
 20
64.9375
 11
48.5724
 21
64.7233
  0
LINE
  8
0
 10
48.5724
 20
64.7233
 11
48.7946
 21
64.5011
  0
LINE
  8
0
 10
48.7946
 20
64.5011
 11
49.0088
 21
64.2714
  0
LINE
  8
0
 10
49.0088
 20
64.2714
 11
49.2149
 21
64.0343
  0
LINE
  8
0
 10
49.2149
 20
64.0343
 11
49.4126
 21
63.7902
  0
LINE
  8
0
 10
49.4126
 20
63.7902
 11
49.6017
 21
63.5393
  0
LINE
  8
0
 10
49.6017
 20
63.5393
 11
49.7819
 21
63.282
  0
LINE
  8
0
 10
49.7819
 20
63.282
 11
49.9529
 21
63.0185
  0
LINE
  8
0
 10
49.9529
 20
63.0185
 11
50.1148
 21
62.7492
  0
LINE
  8
0
 10
50.1148
 20
62.7492
 11
50.267
 21
62.4745
  0
LINE
  8
0
 10
50.267
 20
62.4745
 11
50.4097
 21
62.1945
  0
LINE
  8
0
 10
50.4097
 20
62.1945
 11
50.5424
 21
61.9098
  0
LINE
  8
0
 10
50.5424
 20
61.9098
 11
50.6652
 21
61.6207
  0
LINE
  8
0
 10
50.6652
 20
61.6207
 11
50.7778
 21
61.3274
  0
LINE
  8
0
 10
50.7778
 20
61.3274
 11
50.88
 21
61.0304
  0
LINE
  8
0
 10
50.88
 20
61.0304
 11
50.9719
 21
60.7299
  0
LINE
  8
0
 10
50.9719
 20
60.7299
 11
51.0532
 21
60.4265
  0
LINE
  8
0
 10
51.0532
 20
60.4265
 11
51.1239
 21
60.1204
  0
LINE
  8
0
 10
51.1239
 20
60.1204
 11
51.1838
 21
59.812
  0
LINE
  8
0
 10
51.1838
 20
59.812
 11
51.2329
 21
59.5018
  0
LINE
  8
0
 10
51.2329
 20
59.5018
 11
51.2712
 21
59.19
  0
LINE
  8
0
 10
51.2712
 20
59.19
 11
51.2986
 21
58.877
  0
LINE
  8
0
 10
51.2986
 20
58.877
 11
51.315
 21
58.5633
  0
LINE
  8
0
 10
51.315
 20
58.5633
 11
51.3205
 21
58.2492
  0
LINE
  8
0
 10
51.3205
 20
58.2492
 11
51.315
 21
57.9351
  0
LINE
  8
0
 10
51.315
 20
57.9351
 11
51.2986
 21
57.6214
  0
LINE
  8
0
 10
51.2986
 20
57.6214
 11
51.2712
 21
57.3085
  0
LINE
  8
0
 10
51.2712
 20
57.3085
 11
51.2329
 21
56.9967
  0
LINE
  8
0
 10
51.2329
 20
56.9967
 11
51.1838
 21
56.6864
  0
LINE
  8
0
 10
51.1838
 20
56.6864
 11
51.1239
 21
56.378
  0
LINE
  8
0
 10
51.1239
 20
56.378
 11
51.0532
 21
56.0719
  0
LINE
  8
0
 10
51.0532
 20
56.0719
 11
50.9719
 21
55.7685
  0
LINE
  8
0
 10
50.9719
 20
55.7685
 11
50.88
 21
55.4681
  0
LINE
  8
0
 10
50.88
 20
55.4681
 11
50.7778
 21
55.171
  0
LINE
  8
0
 10
50.7778
 20
55.171
 11
50.6652
 21
54.8778
  0
LINE
  8
0
 10
50.6652
 20
54.8778
 11
50.5424
 21
54.5886
  0
LINE
  8
0
 10
50.5424
 20
54.5886
 11
50.4097
 21
54.3039
  0
LINE
  8
0
 10
50.4097
 20
54.3039
 11
50.267
 21
54.024
  0
LINE
  8
0
 10
50.267
 20
54.024
 11
50.1147
 21
53.7492
  0
LINE
  8
0
 10
50.1147
 20
53.7492
 11
49.953
 21
53.4799
  0
LINE
  8
0
 10
49.953
 20
53.4799
 11
49.7819
 21
53.2165
  0
LINE
  8
0
 10
49.7819
 20
53.2165
 11
49.6017
 21
52.9592
  0
LINE
  8
0
 10
49.6017
 20
52.9592
 11
49.4126
 21
52.7083
  0
LINE
  8
0
 10
49.4126
 20
52.7083
 11
49.2149
 21
52.4641
  0
LINE
  8
0
 10
49.2149
 20
52.4641
 11
49.0088
 21
52.227
  0
LINE
  8
0
 10
49.0088
 20
52.227
 11
48.7946
 21
51.9973
  0
LINE
  8
0
 10
48.7946
 20
51.9973
 11
48.5724
 21
51.7752
  0
LINE
  8
0
 10
48.5724
 20
51.7752
 11
48.3427
 21
51.5609
  0
LINE
  8
0
 10
48.3427
 20
51.5609
 11
28.3787
 21
34.1076
  0
LINE
  8
0
 10
28.3787
 20
34.1076
 11
28.2973
 21
34.0417
  0
LINE
  8
0
 10
28.2973
 20
34.0417
 11
28.2137
 21
33.9787
  0
LINE
  8
0
 10
28.2137
 20
33.9787
 11
28.1279
 21
33.9186
  0
LINE
  8
0
 10
28.1279
 20
33.9186
 11
28.0401
 21
33.8616
  0
LINE
  8
0
 10
28.0401
 20
33.8616
 11
27.9503
 21
33.8077
  0
LINE
  8
0
 10
27.9503
 20
33.8077
 11
27.8587
 21
33.7569
  0
LINE
  8
0
 10
27.8587
 20
33.7569
 11
27.7654
 21
33.7094
  0
LINE
  8
0
 10
27.7654
 20
33.7094
 11
27.6705
 21
33.6651
  0
LINE
  8
0
 10
27.6705
 20
33.6651
 11
27.5741
 21
33.6242
  0
LINE
  8
0
 10
27.5741
 20
33.6242
 11
27.4764
 21
33.5867
  0
LINE
  8
0
 10
27.4764
 20
33.5867
 11
27.3774
 21
33.5526
  0
LINE
  8
0
 10
27.3774
 20
33.5526
 11
27.2772
 21
33.522
  0
LINE
  8
0
 10
27.2772
 20
33.522
 11
27.1761
 21
33.4949
  0
LINE
  8
0
 10
27.1761
 20
33.4949
 11
27.0741
 21
33.4713
  0
LINE
  8
0
 10
27.0741
 20
33.4713
 11
26.9713
 21
33.4513
  0
LINE
  8
0
 10
26.9713
 20
33.4513
 11
26.8678
 21
33.435
  0
LINE
  8
0
 10
26.8678
 20
33.435
 11
26.7639
 21
33.4222
  0
LINE
  8
0
 10
26.7639
 20
33.4222
 11
26.6596
 21
33.4131
  0
LINE
  8
0
 10
26.6596
 20
33.4131
 11
26.555
 21
33.4076
  0
LINE
  8
0
 10
26.555
 20
33.4076
 11
26.4503
 21
33.4057
  0
LINE
  8
0
 10
26.4503
 20
33.4057
 11
26.3456
 21
33.4076
  0
LINE
  8
0
 10
-63.7993
 20
62.2036
 11
-59.1381
 21
72.6728
  0
LINE
  8
0
 10
-59.1381
 20
72.6728
 11
-56.6441
 21
71.5625
  0
LINE
  8
0
 10
-56.6441
 20
71.5625
 11
-61.3054
 21
61.0932
  0
LINE
  8
0
 10
-61.3054
 20
61.0932
 11
-63.7993
 21
62.2036
  0
LINE
  8
0
 10
54.3504
 20
67.3555
 11
55.194
 21
69.9519
  0
LINE
  8
0
 10
55.194
 20
69.9519
 11
66.0931
 21
66.4106
  0
LINE
  8
0
 10
66.0931
 20
66.4106
 11
65.2495
 21
63.8142
  0
LINE
  8
0
 10
65.2495
 20
63.8142
 11
54.3504
 21
67.3555
  0
LINE
  8
0
 10
-31.8721
 20
28.8203
 11
-31.9768
 21
28.8239
  0
LINE
  8
0
 10
-31.9768
 20
28.8239
 11
-32.0813
 21
28.8312
  0
LINE
  8
0
 10
-32.0813
 20
28.8312
 11
-32.1854
 21
28.8422
  0
LINE
  8
0
 10
-32.1854
 20
28.8422
 11
-32.2891
 21
28.8567
  0
LINE
  8
0
 10
-32.2891
 20
28.8567
 11
-32.3922
 21
28.8749
  0
LINE
  8
0
 10
-32.3922
 20
28.8749
 11
-32.4946
 21
28.8967
  0
LINE
  8
0
 10
-32.4946
 20
28.8967
 11
-32.5963
 21
28.922
  0
LINE
  8
0
 10
-32.5963
 20
28.922
 11
-32.6969
 21
28.9509
  0
LINE
  8
0
 10
-32.6969
 20
28.9509
 11
-32.7965
 21
28.9832
  0
LINE
  8
0
 10
-32.7965
 20
28.9832
 11
-32.8949
 21
29.0191
  0
LINE
  8
0
 10
-32.8949
 20
29.0191
 11
-32.992
 21
29.0583
  0
LINE
  8
0
 10
-32.992
 20
29.0583
 11
-33.0876
 21
29.1009
  0
LINE
  8
0
 10
-33.0876
 20
29.1009
 11
-33.1818
 21
29.1468
  0
LINE
  8
0
 10
-33.1818
 20
29.1468
 11
-33.2742
 21
29.1959
  0
LINE
  8
0
 10
-33.2742
 20
29.1959
 11
-33.3649
 21
29.2483
  0
LINE
  8
0
 10
-33.3649
 20
29.2483
 11
-55.8134
 21
43.3636
  0
LINE
  8
0
 10
-55.8134
 20
43.3636
 11
-56.0739
 21
43.5393
  0
LINE
  8
0
 10
-56.0739
 20
43.5393
 11
-56.328
 21
43.724
  0
LINE
  8
0
 10
-56.328
 20
43.724
 11
-56.5755
 21
43.9174
  0
LINE
  8
0
 10
-56.5755
 20
43.9174
 11
-56.8162
 21
44.1193
  0
LINE
  8
0
 10
-56.8162
 20
44.1193
 11
-57.0497
 21
44.3295
  0
LINE
  8
0
 10
-57.0497
 20
44.3295
 11
-57.2756
 21
44.5477
  0
LINE
  8
0
 10
-57.2756
 20
44.5477
 11
-57.4939
 21
44.7737
  0
LINE
  8
0
 10
-57.4939
 20
44.7737
 11
-57.7041
 21
45.0072
  0
LINE
  8
0
 10
-57.7041
 20
45.0072
 11
-57.906
 21
45.2478
  0
LINE
  8
0
 10
-57.906
 20
45.2478
 11
-58.0994
 21
45.4953
  0
LINE
  8
0
 10
-58.0994
 20
45.4953
 11
-58.284
 21
45.7495
  0
LINE
  8
0
 10
-58.284
 20
45.7495
 11
-58.4597
 21
46.0099
  0
LINE
  8
0
 10
-58.4597
 20
46.0099
 11
-58.6262
 21
46.2763
  0
LINE
  8
0
 10
-58.6262
 20
46.2763
 11
-58.7832
 21
46.5484
  0
LINE
  8
0
 10
-58.7832
 20
46.5484
 11
-58.9307
 21
46.8258
  0
LINE
  8
0
 10
-58.9307
 20
46.8258
 11
-59.0684
 21
47.1081
  0
LINE
  8
0
 10
-59.0684
 20
47.1081
 11
-59.1962
 21
47.3951
  0
LINE
  8
0
 10
-59.1962
 20
47.3951
 11
-59.3139
 21
47.6864
  0
LINE
  8
0
 10
-59.3139
 20
47.6864
 11
-59.4213
 21
47.9816
  0
LINE
  8
0
 10
-59.4213
 20
47.9816
 11
-59.5184
 21
48.2803
  0
LINE
  8
0
 10
-59.5184
 20
48.2803
 11
-59.605
 21
48.5823
  0
LINE
  8
0
 10
-59.605
 20
48.5823
 11
-59.681
 21
48.8871
  0
LINE
  8
0
 10
-59.681
 20
48.8871
 11
-59.7463
 21
49.1944
  0
LINE
  8
0
 10
-59.7463
 20
49.1944
 11
-59.8009
 21
49.5038
  0
LINE
  8
0
 10
-59.8009
 20
49.5038
 11
-59.8446
 21
49.8148
  0
LINE
  8
0
 10
-59.8446
 20
49.8148
 11
-59.8774
 21
50.1273
  0
LINE
  8
0
 10
-59.8774
 20
50.1273
 11
-59.8993
 21
50.4407
  0
LINE
  8
0
 10
-59.8993
 20
50.4407
 11
-59.9103
 21
50.7546
  0
LINE
  8
0
 10
-59.9103
 20
50.7546
 11
-59.9103
 21
51.0687
  0
LINE
  8
0
 10
-59.9103
 20
51.0687
 11
-59.8993
 21
51.3827
  0
LINE
  8
0
 10
-59.8993
 20
51.3827
 11
-59.8774
 21
51.6961
  0
LINE
  8
0
 10
-59.8774
 20
51.6961
 11
-59.8446
 21
52.0085
  0
LINE
  8
0
 10
-59.8446
 20
52.0085
 11
-59.8009
 21
52.3196
  0
LINE
  8
0
 10
-59.8009
 20
52.3196
 11
-59.7463
 21
52.629
  0
LINE
  8
0
 10
-59.7463
 20
52.629
 11
-59.681
 21
52.9362
  0
LINE
  8
0
 10
-59.681
 20
52.9362
 11
-59.605
 21
53.2411
  0
LINE
  8
0
 10
-59.605
 20
53.2411
 11
-59.5184
 21
53.543
  0
LINE
  8
0
 10
-59.5184
 20
53.543
 11
-59.4213
 21
53.8418
  0
LINE
  8
0
 10
-59.4213
 20
53.8418
 11
-59.3139
 21
54.137
  0
LINE
  8
0
 10
-59.3139
 20
54.137
 11
-59.1962
 21
54.4283
  0
LINE
  8
0
 10
-59.1962
 20
54.4283
 11
-59.0684
 21
54.7153
  0
LINE
  8
0
 10
-59.0684
 20
54.7153
 11
-58.9307
 21
54.9976
  0
LINE
  8
0
 10
-58.9307
 20
54.9976
 11
-58.7832
 21
55.275
  0
LINE
  8
0
 10
-58.7832
 20
55.275
 11
-58.6262
 21
55.547
  0
LINE
  8
0
 10
-58.6262
 20
55.547
 11
-58.4597
 21
55.8134
  0
LINE
  8
0
 10
-58.4597
 20
55.8134
 11
-58.284
 21
56.0739
  0
LINE
  8
0
 10
-58.284
 20
56.0739
 11
-58.0994
 21
56.328
  0
LINE
  8
0
 10
-58.0994
 20
56.328
 11
-57.906
 21
56.5756
  0
LINE
  8
0
 10
-57.906
 20
56.5756
 11
-57.7041
 21
56.8162
  0
LINE
  8
0
 10
-57.7041
 20
56.8162
 11
-57.4939
 21
57.0497
  0
LINE
  8
0
 10
-57.4939
 20
57.0497
 11
-57.2756
 21
57.2756
  0
LINE
  8
0
 10
-57.2756
 20
57.2756
 11
-57.0497
 21
57.4939
  0
LINE
  8
0
 10
-57.0497
 20
57.4939
 11
-56.8162
 21
57.7041
  0
LINE
  8
0
 10
-56.8162
 20
57.7041
 11
-48.1056
 21
65.1436
  0
LINE
  8
0
 10
-48.1056
 20
65.1436
 11
-47.8615
 21
65.3413
  0
LINE
  8
0
 10
-47.8615
 20
65.3413
 11
-47.6106
 21
65.5304
  0
LINE
  8
0
 10
-47.6106
 20
65.5304
 11
-47.3533
 21
65.7105
  0
LINE
  8
0
 10
-47.3533
 20
65.7105
 11
-47.0898
 21
65.8817
  0
LINE
  8
0
 10
-47.0898
 20
65.8817
 11
-46.8205
 21
66.0434
  0
LINE
  8
0
 10
-46.8205
 20
66.0434
 11
-46.5458
 21
66.1957
  0
LINE
  8
0
 10
-46.5458
 20
66.1957
 11
-46.2659
 21
66.3383
  0
LINE
  8
0
 10
-46.2659
 20
66.3383
 11
-45.9812
 21
66.4711
  0
LINE
  8
0
 10
-45.9812
 20
66.4711
 11
-45.692
 21
66.5939
  0
LINE
  8
0
 10
-45.692
 20
66.5939
 11
-45.3987
 21
66.7064
  0
LINE
  8
0
 10
-45.3987
 20
66.7064
 11
-45.1017
 21
66.8087
  0
LINE
  8
0
 10
-45.1017
 20
66.8087
 11
-44.8013
 21
66.9006
  0
LINE
  8
0
 10
-44.8013
 20
66.9006
 11
-44.4978
 21
66.9819
  0
LINE
  8
0
 10
-44.4978
 20
66.9819
 11
-44.1917
 21
67.0525
  0
LINE
  8
0
 10
-44.1917
 20
67.0525
 11
-43.8834
 21
67.1125
  0
LINE
  8
0
 10
-43.8834
 20
67.1125
 11
-43.5731
 21
67.1616
  0
LINE
  8
0
 10
-43.5731
 20
67.1616
 11
-43.2613
 21
67.1999
  0
LINE
  8
0
 10
-43.2613
 20
67.1999
 11
-42.9483
 21
67.2273
  0
LINE
  8
0
 10
-42.9483
 20
67.2273
 11
-42.6346
 21
67.2437
  0
LINE
  8
0
 10
-42.6346
 20
67.2437
 11
-42.3205
 21
67.2492
  0
LINE
  8
0
 10
-42.3205
 20
67.2492
 11
-42.0064
 21
67.2437
  0
LINE
  8
0
 10
-42.0064
 20
67.2437
 11
-41.6927
 21
67.2273
  0
LINE
  8
0
 10
-41.6927
 20
67.2273
 11
-41.3798
 21
67.1999
  0
LINE
  8
0
 10
-41.3798
 20
67.1999
 11
-41.068
 21
67.1616
  0
LINE
  8
0
 10
-41.068
 20
67.1616
 11
-40.7577
 21
67.1125
  0
LINE
  8
0
 10
-40.7577
 20
67.1125
 11
-40.4493
 21
67.0525
  0
LINE
  8
0
 10
-40.4493
 20
67.0525
 11
-40.1432
 21
66.9819
  0
LINE
  8
0
 10
-40.1432
 20
66.9819
 11
-39.8398
 21
66.9006
  0
LINE
  8
0
 10
-39.8398
 20
66.9006
 11
-39.5394
 21
66.8087
  0
LINE
  8
0
 10
-39.5394
 20
66.8087
 11
-39.2424
 21
66.7064
  0
LINE
  8
0
 10
-39.2424
 20
66.7064
 11
-38.9491
 21
66.5939
  0
LINE
  8
0
 10
-38.9491
 20
66.5939
 11
-38.6599
 21
66.4711
  0
LINE
  8
0
 10
-38.6599
 20
66.4711
 11
-38.3752
 21
66.3383
  0
LINE
  8
0
 10
-38.3752
 20
66.3383
 11
-38.0953
 21
66.1957
  0
LINE
  8
0
 10
-38.0953
 20
66.1957
 11
-37.8205
 21
66.0434
  0
LINE
  8
0
 10
-37.8205
 20
66.0434
 11
-37.5513
 21
65.8816
  0
LINE
  8
0
 10
-37.5513
 20
65.8816
 11
-37.2878
 21
65.7105
  0
LINE
  8
0
 10
-37.2878
 20
65.7105
 11
-37.0305
 21
65.5303
  0
LINE
  8
0
 10
-37.0305
 20
65.5303
 11
-36.7796
 21
65.3413
  0
LINE
  8
0
 10
-36.7796
 20
65.3413
 11
-36.5354
 21
65.1436
  0
LINE
  8
0
 10
-36.5354
 20
65.1436
 11
-36.2984
 21
64.9375
  0
LINE
  8
0
 10
-36.2984
 20
64.9375
 11
-36.0686
 21
64.7233
  0
LINE
  8
0
 10
-36.0686
 20
64.7233
 11
-35.8465
 21
64.5011
  0
LINE
  8
0
 10
-35.8465
 20
64.5011
 11
-35.6322
 21
64.2714
  0
LINE
  8
0
 10
-35.6322
 20
64.2714
 11
-35.4261
 21
64.0343
  0
LINE
  8
0
 10
-35.4261
 20
64.0343
 11
-35.2284
 21
63.7902
  0
LINE
  8
0
 10
-35.2284
 20
63.7902
 11
-35.0394
 21
63.5393
  0
LINE
  8
0
 10
-35.0394
 20
63.5393
 11
-34.8592
 21
63.2819
  0
LINE
  8
0
 10
-34.8592
 20
63.2819
 11
-34.6881
 21
63.0185
  0
LINE
  8
0
 10
-34.6881
 20
63.0185
 11
-34.5263
 21
62.7492
  0
LINE
  8
0
 10
-34.5263
 20
62.7492
 11
-34.374
 21
62.4744
  0
LINE
  8
0
 10
-34.374
 20
62.4744
 11
-34.2314
 21
62.1945
  0
LINE
  8
0
 10
-34.2314
 20
62.1945
 11
-34.0986
 21
61.9098
  0
LINE
  8
0
 10
-34.0986
 20
61.9098
 11
-23.6688
 21
37.5296
  0
LINE
  8
0
 10
-23.6688
 20
37.5296
 11
-23.6313
 21
37.4318
  0
LINE
  8
0
 10
-23.6313
 20
37.4318
 11
-23.5972
 21
37.3328
  0
LINE
  8
0
 10
-23.5972
 20
37.3328
 11
-23.5665
 21
37.2327
  0
LINE
  8
0
 10
-23.5665
 20
37.2327
 11
-23.5394
 21
37.1315
  0
LINE
  8
0
 10
-23.5394
 20
37.1315
 11
-23.5159
 21
37.0295
  0
LINE
  8
0
 10
-23.5159
 20
37.0295
 11
-23.4959
 21
36.9267
  0
LINE
  8
0
 10
-23.4959
 20
36.9267
 11
-23.4795
 21
36.8233
  0
LINE
  8
0
 10
-23.4795
 20
36.8233
 11
-23.4668
 21
36.7193
  0
LINE
  8
0
 10
-23.4668
 20
36.7193
 11
-23.4576
 21
36.615
  0
LINE
  8
0
 10
-23.4576
 20
36.615
 11
-23.4522
 21
36.5105
  0
LINE
  8
0
 10
-23.4522
 20
36.5105
 11
-23.4503
 21
36.4057
  0
LINE
  8
0
 10
-23.4503
 20
36.4057
 11
-23.4522
 21
36.3011
  0
LINE
  8
0
 10
-23.4522
 20
36.3011
 11
-23.4576
 21
36.1965
  0
LINE
  8
0
 10
-23.4576
 20
36.1965
 11
-23.4668
 21
36.0922
  0
LINE
  8
0
 10
-23.4668
 20
36.0922
 11
-23.4795
 21
35.9882
  0
LINE
  8
0
 10
-23.4795
 20
35.9882
 11
-23.4959
 21
35.8848
  0
LINE
  8
0
 10
-23.4959
 20
35.8848
 11
-23.5159
 21
35.782
  0
LINE
  8
0
 10
-23.5159
 20
35.782
 11
-23.5394
 21
35.68
  0
LINE
  8
0
 10
-23.5394
 20
35.68
 11
-23.5665
 21
35.5788
  0
LINE
  8
0
 10
-23.5665
 20
35.5788
 11
-23.5972
 21
35.4787
  0
LINE
  8
0
 10
-23.5972
 20
35.4787
 11
-23.6313
 21
35.3797
  0
LINE
  8
0
 10
-23.6313
 20
35.3797
 11
-23.6688
 21
35.2819
  0
LINE
  8
0
 10
-23.6688
 20
35.2819
 11
-23.7097
 21
35.1855
  0
LINE
  8
0
 10
-23.7097
 20
35.1855
 11
-23.754
 21
35.0906
  0
LINE
  8
0
 10
-23.754
 20
35.0906
 11
-23.8015
 21
34.9973
  0
LINE
  8
0
 10
-23.8015
 20
34.9973
 11
-23.8522
 21
34.9057
  0
LINE
  8
0
 10
-23.8522
 20
34.9057
 11
-23.9062
 21
34.816
  0
LINE
  8
0
 10
-23.9062
 20
34.816
 11
-23.9632
 21
34.7282
  0
LINE
  8
0
 10
-23.9632
 20
34.7282
 11
-24.0233
 21
34.6424
  0
LINE
  8
0
 10
-24.0233
 20
34.6424
 11
-24.0863
 21
34.5588
  0
LINE
  8
0
 10
-24.0863
 20
34.5588
 11
-24.1522
 21
34.4774
  0
LINE
  8
0
 10
-24.1522
 20
34.4774
 11
-24.2209
 21
34.3984
  0
LINE
  8
0
 10
-24.2209
 20
34.3984
 11
-24.2923
 21
34.3218
  0
LINE
  8
0
 10
-24.2923
 20
34.3218
 11
-24.3664
 21
34.2477
  0
LINE
  8
0
 10
-24.3664
 20
34.2477
 11
-24.4429
 21
34.1763
  0
LINE
  8
0
 10
-24.4429
 20
34.1763
 11
-29.9318
 21
29.4884
  0
LINE
  8
0
 10
-29.9318
 20
29.4884
 11
-30.0143
 21
29.4239
  0
LINE
  8
0
 10
-30.0143
 20
29.4239
 11
-30.099
 21
29.3623
  0
LINE
  8
0
 10
-30.099
 20
29.3623
 11
-30.1859
 21
29.3038
  0
LINE
  8
0
 10
-30.1859
 20
29.3038
 11
-30.2747
 21
29.2483
  0
LINE
  8
0
 10
-30.2747
 20
29.2483
 11
-30.3654
 21
29.1959
  0
LINE
  8
0
 10
-30.3654
 20
29.1959
 11
-30.4578
 21
29.1468
  0
LINE
  8
0
 10
-30.4578
 20
29.1468
 11
-30.5519
 21
29.1009
  0
LINE
  8
0
 10
-30.5519
 20
29.1009
 11
-30.6476
 21
29.0583
  0
LINE
  8
0
 10
-30.6476
 20
29.0583
 11
-30.7447
 21
29.0191
  0
LINE
  8
0
 10
-30.7447
 20
29.0191
 11
-30.8431
 21
28.9832
  0
LINE
  8
0
 10
-30.8431
 20
28.9832
 11
-30.9427
 21
28.9509
  0
LINE
  8
0
 10
-30.9427
 20
28.9509
 11
-31.0433
 21
28.922
  0
LINE
  8
0
 10
-31.0433
 20
28.922
 11
-31.1449
 21
28.8967
  0
LINE
  8
0
 10
-31.1449
 20
28.8967
 11
-31.2474
 21
28.8749
  0
LINE
  8
0
 10
-31.2474
 20
28.8749
 11
-31.3505
 21
28.8567
  0
LINE
  8
0
 10
-31.3505
 20
28.8567
 11
-31.4542
 21
28.8422
  0
LINE
  8
0
 10
-31.4542
 20
28.8422
 11
-31.5583
 21
28.8312
  0
LINE
  8
0
 10
-31.5583
 20
28.8312
 11
-31.6628
 21
28.8239
  0
LINE
  8
0
 10
-31.6628
 20
28.8239
 11
-31.7674
 21
28.8203
  0
LINE
  8
0
 10
-31.7674
 20
28.8203
 11
-31.8721
 21
28.8203
  0
LINE
  8
0
 10
-69.9519
 20
55.194
 11
-66.4106
 21
66.0931
  0
LINE
  8
0
 10
-66.4106
 20
66.0931
 11
-63.8142
 21
65.2495
  0
LINE
  8
0
 10
-63.8142
 20
65.2495
 11
-67.3555
 21
54.3504
  0
LINE
  8
0
 10
-67.3555
 20
54.3504
 11
-69.9519
 21
55.194
  0
LINE
  8
0
 10
61.0932
 20
61.3054
 11
62.2036
 21
63.7993
  0
LINE
  8
0
 10
62.2036
 20
63.7993
 11
72.6728
 21
59.1381
  0
LINE
  8
0
 10
72.6728
 20
59.1381
 11
71.5625
 21
56.6441
  0
LINE
  8
0
 10
71.5625
 20
56.6441
 11
61.0932
 21
61.3054
  0
LINE
  8
0
 10
-75.338
 20
47.5797
 11
-72.9554
 21
58.7892
  0
LINE
  8
0
 10
-72.9554
 20
58.7892
 11
-70.285
 21
58.2216
  0
LINE
  8
0
 10
-70.285
 20
58.2216
 11
-72.6677
 21
47.0121
  0
LINE
  8
0
 10
-72.6677
 20
47.0121
 11
-75.338
 21
47.5797
  0
LINE
  8
0
 10
67.1667
 20
54.5835
 11
68.5317
 21
56.9478
  0
LINE
  8
0
 10
68.5317
 20
56.9478
 11
78.4563
 21
51.2178
  0
LINE
  8
0
 10
78.4563
 20
51.2178
 11
77.0914
 21
48.8535
  0
LINE
  8
0
 10
77.0914
 20
48.8535
 11
67.1667
 21
54.5835
  0
LINE
  8
0
 10
-79.8987
 20
39.4441
 11
-78.7009
 21
50.8413
  0
LINE
  8
0
 10
-78.7009
 20
50.8413
 11
-75.9858
 21
50.5559
  0
LINE
  8
0
 10
-75.9858
 20
50.5559
 11
-77.1837
 21
39.1587
  0
LINE
  8
0
 10
-77.1837
 20
39.1587
 11
-79.8987
 21
39.4441
  0
LINE
  8
0
 10
72.5043
 20
47.2637
 11
74.1089
 21
49.4723
  0
LINE
  8
0
 10
74.1089
 20
49.4723
 11
83.3803
 21
42.7363
  0
LINE
  8
0
 10
83.3803
 20
42.7363
 11
81.7756
 21
40.5277
  0
LINE
  8
0
 10
81.7756
 20
40.5277
 11
72.5043
 21
47.2637
  0
LINE
  8
0
 10
-83.5841
 20
30.8763
 11
-83.5841
 21
42.3363
  0
LINE
  8
0
 10
-83.5841
 20
42.3363
 11
-80.8541
 21
42.3363
  0
LINE
  8
0
 10
-80.8541
 20
42.3363
 11
-80.8541
 21
30.8763
  0
LINE
  8
0
 10
-80.8541
 20
30.8763
 11
-83.5841
 21
30.8763
  0
LINE
  8
0
 10
42.6928
 20
10.9076
 11
42.5883
 21
10.9131
  0
LINE
  8
0
 10
42.5883
 20
10.9131
 11
42.4839
 21
10.9222
  0
LINE
  8
0
 10
42.4839
 20
10.9222
 11
42.38
 21
10.935
  0
LINE
  8
0
 10
42.38
 20
10.935
 11
42.2766
 21
10.9513
  0
LINE
  8
0
 10
42.2766
 20
10.9513
 11
42.1738
 21
10.9713
  0
LINE
  8
0
 10
42.1738
 20
10.9713
 11
42.0718
 21
10.9949
  0
LINE
  8
0
 10
42.0718
 20
10.9949
 11
41.9706
 21
11.022
  0
LINE
  8
0
 10
41.9706
 20
11.022
 11
41.8705
 21
11.0526
  0
LINE
  8
0
 10
41.8705
 20
11.0526
 11
41.7715
 21
11.0867
  0
LINE
  8
0
 10
41.7715
 20
11.0867
 11
41.6737
 21
11.1242
  0
LINE
  8
0
 10
41.6737
 20
11.1242
 11
41.5773
 21
11.1651
  0
LINE
  8
0
 10
41.5773
 20
11.1651
 11
41.4824
 21
11.2094
  0
LINE
  8
0
 10
41.4824
 20
11.2094
 11
41.3891
 21
11.2569
  0
LINE
  8
0
 10
41.3891
 20
11.2569
 11
41.2975
 21
11.3077
  0
LINE
  8
0
 10
41.2975
 20
11.3077
 11
41.2078
 21
11.3616
  0
LINE
  8
0
 10
41.2078
 20
11.3616
 11
41.1199
 21
11.4187
  0
LINE
  8
0
 10
41.1199
 20
11.4187
 11
41.0342
 21
11.4787
  0
LINE
  8
0
 10
41.0342
 20
11.4787
 11
40.9505
 21
11.5417
  0
LINE
  8
0
 10
40.9505
 20
11.5417
 11
40.8692
 21
11.6076
  0
LINE
  8
0
 10
40.8692
 20
11.6076
 11
40.7901
 21
11.6763
  0
LINE
  8
0
 10
40.7901
 20
11.6763
 11
40.7135
 21
11.7477
  0
LINE
  8
0
 10
40.7135
 20
11.7477
 11
40.6395
 21
11.8218
  0
LINE
  8
0
 10
40.6395
 20
11.8218
 11
40.5681
 21
11.8984
  0
LINE
  8
0
 10
40.5681
 20
11.8984
 11
40.4994
 21
11.9774
  0
LINE
  8
0
 10
40.4994
 20
11.9774
 11
40.4335
 21
12.0588
  0
LINE
  8
0
 10
40.4335
 20
12.0588
 11
40.3705
 21
12.1424
  0
LINE
  8
0
 10
40.3705
 20
12.1424
 11
40.3104
 21
12.2282
  0
LINE
  8
0
 10
40.3104
 20
12.2282
 11
40.2534
 21
12.316
  0
LINE
  8
0
 10
40.2534
 20
12.316
 11
40.1994
 21
12.4058
  0
LINE
  8
0
 10
40.1994
 20
12.4058
 11
40.1487
 21
12.4973
  0
LINE
  8
0
 10
40.1487
 20
12.4973
 11
40.1012
 21
12.5907
  0
LINE
  8
0
 10
40.1012
 20
12.5907
 11
40.0569
 21
12.6855
  0
LINE
  8
0
 10
40.0569
 20
12.6855
 11
37.2945
 21
19.3545
  0
LINE
  8
0
 10
37.2945
 20
19.3545
 11
37.2587
 21
19.4529
  0
LINE
  8
0
 10
37.2587
 20
19.4529
 11
37.2264
 21
19.5524
  0
LINE
  8
0
 10
37.2264
 20
19.5524
 11
37.1975
 21
19.6531
  0
LINE
  8
0
 10
37.1975
 20
19.6531
 11
37.1722
 21
19.7547
  0
LINE
  8
0
 10
37.1722
 20
19.7547
 11
37.1504
 21
19.8571
  0
LINE
  8
0
 10
37.1504
 20
19.8571
 11
37.1322
 21
19.9603
  0
LINE
  8
0
 10
37.1322
 20
19.9603
 11
37.1176
 21
20.0639
  0
LINE
  8
0
 10
37.1176
 20
20.0639
 11
37.1067
 21
20.1681
  0
LINE
  8
0
 10
37.1067
 20
20.1681
 11
37.0994
 21
20.2725
  0
LINE
  8
0
 10
37.0994
 20
20.2725
 11
37.0957
 21
20.3772
  0
LINE
  8
0
 10
37.0957
 20
20.3772
 11
37.0957
 21
20.4819
  0
LINE
  8
0
 10
37.0957
 20
20.4819
 11
37.0994
 21
20.5866
  0
LINE
  8
0
 10
37.0994
 20
20.5866
 11
37.1067
 21
20.691
  0
LINE
  8
0
 10
37.1067
 20
20.691
 11
37.1176
 21
20.7952
  0
LINE
  8
0
 10
37.1176
 20
20.7952
 11
37.1322
 21
20.8989
  0
LINE
  8
0
 10
37.1322
 20
20.8989
 11
37.1504
 21
21.002
  0
LINE
  8
0
 10
37.1504
 20
21.002
 11
37.1722
 21
21.1044
  0
LINE
  8
0
 10
37.1722
 20
21.1044
 11
37.1975
 21
21.206
  0
LINE
  8
0
 10
37.1975
 20
21.206
 11
37.2264
 21
21.3067
  0
LINE
  8
0
 10
37.2264
 20
21.3067
 11
37.2587
 21
21.4062
  0
LINE
  8
0
 10
37.2587
 20
21.4062
 11
37.2945
 21
21.5047
  0
LINE
  8
0
 10
37.2945
 20
21.5047
 11
37.3338
 21
21.6017
  0
LINE
  8
0
 10
37.3338
 20
21.6017
 11
37.3764
 21
21.6974
  0
LINE
  8
0
 10
37.3764
 20
21.6974
 11
37.4223
 21
21.7915
  0
LINE
  8
0
 10
37.4223
 20
21.7915
 11
37.4714
 21
21.884
  0
LINE
  8
0
 10
37.4714
 20
21.884
 11
37.5238
 21
21.9747
  0
LINE
  8
0
 10
37.5238
 20
21.9747
 11
37.5793
 21
22.0635
  0
LINE
  8
0
 10
37.5793
 20
22.0635
 11
37.6378
 21
22.1503
  0
LINE
  8
0
 10
37.6378
 20
22.1503
 11
37.6994
 21
22.235
  0
LINE
  8
0
 10
37.6994
 20
22.235
 11
37.7638
 21
22.3175
  0
LINE
  8
0
 10
37.7638
 20
22.3175
 11
37.8312
 21
22.3977
  0
LINE
  8
0
 10
37.8312
 20
22.3977
 11
37.9012
 21
22.4756
  0
LINE
  8
0
 10
37.9012
 20
22.4756
 11
37.974
 21
22.5509
  0
LINE
  8
0
 10
37.974
 20
22.5509
 11
38.0493
 21
22.6236
  0
LINE
  8
0
 10
38.0493
 20
22.6236
 11
38.1271
 21
22.6937
  0
LINE
  8
0
 10
38.1271
 20
22.6937
 11
58.4886
 21
39.6816
  0
LINE
  8
0
 10
58.4886
 20
39.6816
 11
58.7361
 21
39.875
  0
LINE
  8
0
 10
58.7361
 20
39.875
 11
58.9903
 21
40.0597
  0
LINE
  8
0
 10
58.9903
 20
40.0597
 11
59.2507
 21
40.2353
  0
LINE
  8
0
 10
59.2507
 20
40.2353
 11
59.5171
 21
40.4018
  0
LINE
  8
0
 10
59.5171
 20
40.4018
 11
59.7892
 21
40.5589
  0
LINE
  8
0
 10
59.7892
 20
40.5589
 11
60.0665
 21
40.7064
  0
LINE
  8
0
 10
60.0665
 20
40.7064
 11
60.3489
 21
40.8441
  0
LINE
  8
0
 10
60.3489
 20
40.8441
 11
60.6359
 21
40.9718
  0
LINE
  8
0
 10
60.6359
 20
40.9718
 11
60.9272
 21
41.0895
  0
LINE
  8
0
 10
60.9272
 20
41.0895
 11
61.2224
 21
41.197
  0
LINE
  8
0
 10
61.2224
 20
41.197
 11
61.5211
 21
41.294
  0
LINE
  8
0
 10
61.5211
 20
41.294
 11
61.8231
 21
41.3806
  0
LINE
  8
0
 10
61.8231
 20
41.3806
 11
62.1279
 21
41.4566
  0
LINE
  8
0
 10
62.1279
 20
41.4566
 11
62.4352
 21
41.5219
  0
LINE
  8
0
 10
62.4352
 20
41.5219
 11
62.7446
 21
41.5765
  0
LINE
  8
0
 10
62.7446
 20
41.5765
 11
63.0556
 21
41.6202
  0
LINE
  8
0
 10
63.0556
 20
41.6202
 11
63.368
 21
41.653
  0
LINE
  8
0
 10
63.368
 20
41.653
 11
63.6814
 21
41.675
  0
LINE
  8
0
 10
63.6814
 20
41.675
 11
63.9954
 21
41.6859
  0
LINE
  8
0
 10
63.9954
 20
41.6859
 11
64.3095
 21
41.6859
  0
LINE
  8
0
 10
64.3095
 20
41.6859
 11
64.6235
 21
41.675
  0
LINE
  8
0
 10
64.6235
 20
41.675
 11
64.9369
 21
41.6531
  0
LINE
  8
0
 10
64.9369
 20
41.6531
 11
65.2493
 21
41.6202
  0
LINE
  8
0
 10
65.2493
 20
41.6202
 11
65.5604
 21
41.5765
  0
LINE
  8
0
 10
65.5604
 20
41.5765
 11
65.8697
 21
41.5219
  0
LINE
  8
0
 10
65.8697
 20
41.5219
 11
66.177
 21
41.4566
  0
LINE
  8
0
 10
66.177
 20
41.4566
 11
66.4818
 21
41.3806
  0
LINE
  8
0
 10
66.4818
 20
41.3806
 11
66.7838
 21
41.294
  0
LINE
  8
0
 10
66.7838
 20
41.294
 11
67.0826
 21
41.197
  0
LINE
  8
0
 10
67.0826
 20
41.197
 11
67.3778
 21
41.0895
  0
LINE
  8
0
 10
67.3778
 20
41.0895
 11
67.669
 21
40.9718
  0
LINE
  8
0
 10
67.669
 20
40.9718
 11
67.956
 21
40.8441
  0
LINE
  8
0
 10
67.956
 20
40.8441
 11
68.2384
 21
40.7063
  0
LINE
  8
0
 10
68.2384
 20
40.7063
 11
68.5157
 21
40.5589
  0
LINE
  8
0
 10
68.5157
 20
40.5589
 11
68.7878
 21
40.4018
  0
LINE
  8
0
 10
68.7878
 20
40.4018
 11
69.0542
 21
40.2353
  0
LINE
  8
0
 10
69.0542
 20
40.2353
 11
69.3147
 21
40.0597
  0
LINE
  8
0
 10
69.3147
 20
40.0597
 11
69.5688
 21
39.875
  0
LINE
  8
0
 10
69.5688
 20
39.875
 11
69.8163
 21
39.6816
  0
LINE
  8
0
 10
69.8163
 20
39.6816
 11
70.057
 21
39.4797
  0
LINE
  8
0
 10
70.057
 20
39.4797
 11
70.2905
 21
39.2695
  0
LINE
  8
0
 10
70.2905
 20
39.2695
 11
70.5164
 21
39.0513
  0
LINE
  8
0
 10
70.5164
 20
39.0513
 11
70.7346
 21
38.8253
  0
LINE
  8
0
 10
70.7346
 20
38.8253
 11
70.9448
 21
38.5918
  0
LINE
  8
0
 10
70.9448
 20
38.5918
 11
71.1468
 21
38.3512
  0
LINE
  8
0
 10
71.1468
 20
38.3512
 11
71.3402
 21
38.1036
  0
LINE
  8
0
 10
71.3402
 20
38.1036
 11
71.5248
 21
37.8495
  0
LINE
  8
0
 10
71.5248
 20
37.8495
 11
71.7005
 21
37.5891
  0
LINE
  8
0
 10
71.7005
 20
37.5891
 11
71.867
 21
37.3226
  0
LINE
  8
0
 10
71.867
 20
37.3226
 11
72.024
 21
37.0506
  0
LINE
  8
0
 10
72.024
 20
37.0506
 11
72.1715
 21
36.7732
  0
LINE
  8
0
 10
72.1715
 20
36.7732
 11
72.3092
 21
36.4909
  0
LINE
  8
0
 10
72.3092
 20
36.4909
 11
72.437
 21
36.2039
  0
LINE
  8
0
 10
72.437
 20
36.2039
 11
76.8207
 21
25.6207
  0
LINE
  8
0
 10
76.8207
 20
25.6207
 11
76.9333
 21
25.3274
  0
LINE
  8
0
 10
76.9333
 20
25.3274
 11
77.0356
 21
25.0304
  0
LINE
  8
0
 10
77.0356
 20
25.0304
 11
77.1274
 21
24.7299
  0
LINE
  8
0
 10
77.1274
 20
24.7299
 11
77.2087
 21
24.4265
  0
LINE
  8
0
 10
77.2087
 20
24.4265
 11
77.2794
 21
24.1204
  0
LINE
  8
0
 10
77.2794
 20
24.1204
 11
77.3393
 21
23.8121
  0
LINE
  8
0
 10
77.3393
 20
23.8121
 11
77.3885
 21
23.5018
  0
LINE
  8
0
 10
77.3885
 20
23.5018
 11
77.4267
 21
23.19
  0
LINE
  8
0
 10
77.4267
 20
23.19
 11
77.4541
 21
22.877
  0
LINE
  8
0
 10
77.4541
 20
22.877
 11
77.4706
 21
22.5633
  0
LINE
  8
0
 10
77.4706
 20
22.5633
 11
77.476
 21
22.2492
  0
LINE
  8
0
 10
77.476
 20
22.2492
 11
77.4706
 21
21.9351
  0
LINE
  8
0
 10
77.4706
 20
21.9351
 11
77.4541
 21
21.6214
  0
LINE
  8
0
 10
77.4541
 20
21.6214
 11
77.4268
 21
21.3085
  0
LINE
  8
0
 10
77.4268
 20
21.3085
 11
77.3885
 21
20.9967
  0
LINE
  8
0
 10
77.3885
 20
20.9967
 11
77.3393
 21
20.6864
  0
LINE
  8
0
 10
77.3393
 20
20.6864
 11
77.2794
 21
20.378
  0
LINE
  8
0
 10
77.2794
 20
20.378
 11
77.2087
 21
20.0719
  0
LINE
  8
0
 10
77.2087
 20
20.0719
 11
77.1274
 21
19.7685
  0
LINE
  8
0
 10
77.1274
 20
19.7685
 11
77.0356
 21
19.4681
  0
LINE
  8
0
 10
77.0356
 20
19.4681
 11
76.9333
 21
19.1711
  0
LINE
  8
0
 10
76.9333
 20
19.1711
 11
76.8207
 21
18.8778
  0
LINE
  8
0
 10
76.8207
 20
18.8778
 11
76.698
 21
18.5886
  0
LINE
  8
0
 10
76.698
 20
18.5886
 11
76.5652
 21
18.3039
  0
LINE
  8
0
 10
76.5652
 20
18.3039
 11
76.4226
 21
18.024
  0
LINE
  8
0
 10
76.4226
 20
18.024
 11
76.2703
 21
17.7492
  0
LINE
  8
0
 10
76.2703
 20
17.7492
 11
76.1085
 21
17.4799
  0
LINE
  8
0
 10
76.1085
 20
17.4799
 11
75.9374
 21
17.2165
  0
LINE
  8
0
 10
75.9374
 20
17.2165
 11
75.7572
 21
16.9592
  0
LINE
  8
0
 10
75.7572
 20
16.9592
 11
75.5681
 21
16.7083
  0
LINE
  8
0
 10
75.5681
 20
16.7083
 11
75.3705
 21
16.4641
  0
LINE
  8
0
 10
75.3705
 20
16.4641
 11
75.1644
 21
16.2271
  0
LINE
  8
0
 10
75.1644
 20
16.2271
 11
74.9501
 21
15.9973
  0
LINE
  8
0
 10
74.9501
 20
15.9973
 11
74.728
 21
15.7752
  0
LINE
  8
0
 10
74.728
 20
15.7752
 11
74.4982
 21
15.5609
  0
LINE
  8
0
 10
74.4982
 20
15.5609
 11
74.2611
 21
15.3548
  0
LINE
  8
0
 10
74.2611
 20
15.3548
 11
74.017
 21
15.1571
  0
LINE
  8
0
 10
74.017
 20
15.1571
 11
73.7661
 21
14.9681
  0
LINE
  8
0
 10
73.7661
 20
14.9681
 11
73.5088
 21
14.7879
  0
LINE
  8
0
 10
73.5088
 20
14.7879
 11
73.2453
 21
14.6168
  0
LINE
  8
0
 10
73.2453
 20
14.6168
 11
72.9761
 21
14.455
  0
LINE
  8
0
 10
72.9761
 20
14.455
 11
72.7013
 21
14.3027
  0
LINE
  8
0
 10
72.7013
 20
14.3027
 11
72.4214
 21
14.1601
  0
LINE
  8
0
 10
72.4214
 20
14.1601
 11
72.1367
 21
14.0273
  0
LINE
  8
0
 10
72.1367
 20
14.0273
 11
71.8475
 21
13.9046
  0
LINE
  8
0
 10
71.8475
 20
13.9046
 11
71.5542
 21
13.792
  0
LINE
  8
0
 10
71.5542
 20
13.792
 11
71.2572
 21
13.6897
  0
LINE
  8
0
 10
71.2572
 20
13.6897
 11
70.9568
 21
13.5979
  0
LINE
  8
0
 10
70.9568
 20
13.5979
 11
70.6534
 21
13.5166
  0
LINE
  8
0
 10
70.6534
 20
13.5166
 11
70.3473
 21
13.4459
  0
LINE
  8
0
 10
70.3473
 20
13.4459
 11
70.0389
 21
13.386
  0
LINE
  8
0
 10
70.0389
 20
13.386
 11
69.7286
 21
13.3368
  0
LINE
  8
0
 10
69.7286
 20
13.3368
 11
69.4168
 21
13.2985
  0
LINE
  8
0
 10
69.4168
 20
13.2985
 11
43.0068
 21
10.9131
  0
LINE
  8
0
 10
43.0068
 20
10.9131
 11
42.9022
 21
10.9076
  0
LINE
  8
0
 10
42.9022
 20
10.9076
 11
42.7975
 21
10.9058
  0
LINE
  8
0
 10
42.7975
 20
10.9058
 11
42.6928
 21
10.9076
  0
LINE
  8
0
 10
77.0475
 20
39.426
 11
78.8742
 21
41.4548
  0
LINE
  8
0
 10
78.8742
 20
41.4548
 11
87.3907
 21
33.7866
  0
LINE
  8
0
 10
87.3907
 20
33.7866
 11
85.5639
 21
31.7578
  0
LINE
  8
0
 10
85.5639
 20
31.7578
 11
77.0475
 21
39.426
  0
LINE
  8
0
 10
-87.5515
 20
33.3674
 11
-84.8365
 21
33.6528
  0
LINE
  8
0
 10
-84.8365
 20
33.6528
 11
-83.6386
 21
22.2556
  0
LINE
  8
0
 10
-83.6386
 20
22.2556
 11
-86.3537
 21
21.9702
  0
LINE
  8
0
 10
-86.3537
 20
21.9702
 11
-87.5515
 21
33.3674
  0
LINE
  8
0
 10
80.7466
 20
31.1564
 11
82.7754
 21
32.9831
  0
LINE
  8
0
 10
82.7754
 20
32.9831
 11
90.4436
 21
24.4667
  0
LINE
  8
0
 10
90.4436
 20
24.4667
 11
88.4148
 21
22.6399
  0
LINE
  8
0
 10
88.4148
 20
22.6399
 11
80.7466
 21
31.1564
  0
LINE
  8
0
 10
-71.2706
 20
2.26466
 11
-71.5846
 21
2.27562
  0
LINE
  8
0
 10
-71.5846
 20
2.27562
 11
-71.8979
 21
2.29752
  0
LINE
  8
0
 10
-71.8979
 20
2.29752
 11
-72.2104
 21
2.33037
  0
LINE
  8
0
 10
-72.2104
 20
2.33037
 11
-72.5215
 21
2.37408
  0
LINE
  8
0
 10
-72.5215
 20
2.37408
 11
-72.8308
 21
2.42863
  0
LINE
  8
0
 10
-72.8308
 20
2.42863
 11
-73.1381
 21
2.49394
  0
LINE
  8
0
 10
-73.1381
 20
2.49394
 11
-73.4429
 21
2.56995
  0
LINE
  8
0
 10
-73.4429
 20
2.56995
 11
-73.7449
 21
2.65654
  0
LINE
  8
0
 10
-73.7449
 20
2.65654
 11
-74.0437
 21
2.7536
  0
LINE
  8
0
 10
-74.0437
 20
2.7536
 11
-74.3389
 21
2.86107
  0
LINE
  8
0
 10
-74.3389
 20
2.86107
 11
-74.6301
 21
2.97874
  0
LINE
  8
0
 10
-74.6301
 20
2.97874
 11
-74.9171
 21
3.10651
  0
LINE
  8
0
 10
-74.9171
 20
3.10651
 11
-75.1995
 21
3.24423
  0
LINE
  8
0
 10
-75.1995
 20
3.24423
 11
-75.4768
 21
3.39169
  0
LINE
  8
0
 10
-75.4768
 20
3.39169
 11
-75.7489
 21
3.54877
  0
LINE
  8
0
 10
-75.7489
 20
3.54877
 11
-76.0153
 21
3.71524
  0
LINE
  8
0
 10
-76.0153
 20
3.71524
 11
-76.2757
 21
3.89091
  0
LINE
  8
0
 10
-76.2757
 20
3.89091
 11
-76.5299
 21
4.07556
  0
LINE
  8
0
 10
-76.5299
 20
4.07556
 11
-76.7774
 21
4.26897
  0
LINE
  8
0
 10
-76.7774
 20
4.26897
 11
-77.0181
 21
4.47089
  0
LINE
  8
0
 10
-77.0181
 20
4.47089
 11
-77.2515
 21
4.68109
  0
LINE
  8
0
 10
-77.2515
 20
4.68109
 11
-77.4775
 21
4.89932
  0
LINE
  8
0
 10
-77.4775
 20
4.89932
 11
-77.6957
 21
5.12529
  0
LINE
  8
0
 10
-77.6957
 20
5.12529
 11
-77.9059
 21
5.35875
  0
LINE
  8
0
 10
-77.9059
 20
5.35875
 11
-78.1079
 21
5.5994
  0
LINE
  8
0
 10
-78.1079
 20
5.5994
 11
-78.3013
 21
5.84695
  0
LINE
  8
0
 10
-78.3013
 20
5.84695
 11
-78.4859
 21
6.10109
  0
LINE
  8
0
 10
-78.4859
 20
6.10109
 11
-78.6616
 21
6.36153
  0
LINE
  8
0
 10
-78.6616
 20
6.36153
 11
-78.828
 21
6.62794
  0
LINE
  8
0
 10
-78.828
 20
6.62794
 11
-78.9851
 21
6.89999
  0
LINE
  8
0
 10
-78.9851
 20
6.89999
 11
-79.1326
 21
7.17737
  0
LINE
  8
0
 10
-79.1326
 20
7.17737
 11
-79.2703
 21
7.45972
  0
LINE
  8
0
 10
-79.2703
 20
7.45972
 11
-79.3981
 21
7.74669
  0
LINE
  8
0
 10
-79.3981
 20
7.74669
 11
-79.5158
 21
8.03798
  0
LINE
  8
0
 10
-79.5158
 20
8.03798
 11
-79.6232
 21
8.33316
  0
LINE
  8
0
 10
-79.6232
 20
8.33316
 11
-79.7203
 21
8.63194
  0
LINE
  8
0
 10
-79.7203
 20
8.63194
 11
-79.8069
 21
8.9339
  0
LINE
  8
0
 10
-79.8069
 20
8.9339
 11
-79.8829
 21
9.23872
  0
LINE
  8
0
 10
-79.8829
 20
9.23872
 11
-79.9482
 21
9.54601
  0
LINE
  8
0
 10
-79.9482
 20
9.54601
 11
-80.0027
 21
9.85538
  0
LINE
  8
0
 10
-80.0027
 20
9.85538
 11
-80.0465
 21
10.1665
  0
LINE
  8
0
 10
-80.0465
 20
10.1665
 11
-80.0793
 21
10.4789
  0
LINE
  8
0
 10
-80.0793
 20
10.4789
 11
-80.1012
 21
10.7923
  0
LINE
  8
0
 10
-80.1012
 20
10.7923
 11
-80.1122
 21
11.1062
  0
LINE
  8
0
 10
-80.1122
 20
11.1062
 11
-80.1122
 21
11.4203
  0
LINE
  8
0
 10
-80.1122
 20
11.4203
 11
-80.1012
 21
11.7343
  0
LINE
  8
0
 10
-80.1012
 20
11.7343
 11
-80.0793
 21
12.0477
  0
LINE
  8
0
 10
-80.0793
 20
12.0477
 11
-80.0465
 21
12.3601
  0
LINE
  8
0
 10
-80.0465
 20
12.3601
 11
-80.0027
 21
12.6712
  0
LINE
  8
0
 10
-80.0027
 20
12.6712
 11
-79.9482
 21
12.9805
  0
LINE
  8
0
 10
-79.9482
 20
12.9805
 11
-79.8829
 21
13.2878
  0
LINE
  8
0
 10
-79.8829
 20
13.2878
 11
-77.2087
 21
24.4265
  0
LINE
  8
0
 10
-77.2087
 20
24.4265
 11
-77.1274
 21
24.7299
  0
LINE
  8
0
 10
-77.1274
 20
24.7299
 11
-77.0356
 21
25.0304
  0
LINE
  8
0
 10
-77.0356
 20
25.0304
 11
-76.9333
 21
25.3274
  0
LINE
  8
0
 10
-76.9333
 20
25.3274
 11
-76.8207
 21
25.6207
  0
LINE
  8
0
 10
-76.8207
 20
25.6207
 11
-76.698
 21
25.9098
  0
LINE
  8
0
 10
-76.698
 20
25.9098
 11
-76.5652
 21
26.1945
  0
LINE
  8
0
 10
-76.5652
 20
26.1945
 11
-76.4226
 21
26.4744
  0
LINE
  8
0
 10
-76.4226
 20
26.4744
 11
-76.2703
 21
26.7492
  0
LINE
  8
0
 10
-76.2703
 20
26.7492
 11
-76.1085
 21
27.0185
  0
LINE
  8
0
 10
-76.1085
 20
27.0185
 11
-75.9374
 21
27.2819
  0
LINE
  8
0
 10
-75.9374
 20
27.2819
 11
-75.7572
 21
27.5393
  0
LINE
  8
0
 10
-75.7572
 20
27.5393
 11
-75.5682
 21
27.7902
  0
LINE
  8
0
 10
-75.5682
 20
27.7902
 11
-75.3705
 21
28.0343
  0
LINE
  8
0
 10
-75.3705
 20
28.0343
 11
-75.1644
 21
28.2714
  0
LINE
  8
0
 10
-75.1644
 20
28.2714
 11
-74.9501
 21
28.5011
  0
LINE
  8
0
 10
-74.9501
 20
28.5011
 11
-74.728
 21
28.7233
  0
LINE
  8
0
 10
-74.728
 20
28.7233
 11
-74.4982
 21
28.9375
  0
LINE
  8
0
 10
-74.4982
 20
28.9375
 11
-74.2612
 21
29.1436
  0
LINE
  8
0
 10
-74.2612
 20
29.1436
 11
-74.017
 21
29.3413
  0
LINE
  8
0
 10
-74.017
 20
29.3413
 11
-73.7661
 21
29.5303
  0
LINE
  8
0
 10
-73.7661
 20
29.5303
 11
-73.5088
 21
29.7105
  0
LINE
  8
0
 10
-73.5088
 20
29.7105
 11
-73.2453
 21
29.8816
  0
LINE
  8
0
 10
-73.2453
 20
29.8816
 11
-72.9761
 21
30.0434
  0
LINE
  8
0
 10
-72.9761
 20
30.0434
 11
-72.7013
 21
30.1957
  0
LINE
  8
0
 10
-72.7013
 20
30.1957
 11
-72.4214
 21
30.3383
  0
LINE
  8
0
 10
-72.4214
 20
30.3383
 11
-72.1367
 21
30.4711
  0
LINE
  8
0
 10
-72.1367
 20
30.4711
 11
-71.8475
 21
30.5939
  0
LINE
  8
0
 10
-71.8475
 20
30.5939
 11
-71.5542
 21
30.7064
  0
LINE
  8
0
 10
-71.5542
 20
30.7064
 11
-71.2572
 21
30.8087
  0
LINE
  8
0
 10
-71.2572
 20
30.8087
 11
-70.9568
 21
30.9006
  0
LINE
  8
0
 10
-70.9568
 20
30.9006
 11
-70.6534
 21
30.9819
  0
LINE
  8
0
 10
-70.6534
 20
30.9819
 11
-70.3473
 21
31.0525
  0
LINE
  8
0
 10
-70.3473
 20
31.0525
 11
-70.0389
 21
31.1125
  0
LINE
  8
0
 10
-70.0389
 20
31.1125
 11
-69.7286
 21
31.1616
  0
LINE
  8
0
 10
-69.7286
 20
31.1616
 11
-69.4168
 21
31.1999
  0
LINE
  8
0
 10
-69.4168
 20
31.1999
 11
-69.1039
 21
31.2273
  0
LINE
  8
0
 10
-69.1039
 20
31.2273
 11
-68.7901
 21
31.2437
  0
LINE
  8
0
 10
-68.7901
 20
31.2437
 11
-68.4761
 21
31.2492
  0
LINE
  8
0
 10
-68.4761
 20
31.2492
 11
-68.162
 21
31.2437
  0
LINE
  8
0
 10
-68.162
 20
31.2437
 11
-67.8483
 21
31.2273
  0
LINE
  8
0
 10
-67.8483
 20
31.2273
 11
-67.5353
 21
31.1999
  0
LINE
  8
0
 10
-67.5353
 20
31.1999
 11
-67.2235
 21
31.1616
  0
LINE
  8
0
 10
-67.2235
 20
31.1616
 11
-66.9132
 21
31.1125
  0
LINE
  8
0
 10
-66.9132
 20
31.1125
 11
-66.6049
 21
31.0525
  0
LINE
  8
0
 10
-66.6049
 20
31.0525
 11
-66.2988
 21
30.9819
  0
LINE
  8
0
 10
-66.2988
 20
30.9819
 11
-65.9953
 21
30.9006
  0
LINE
  8
0
 10
-65.9953
 20
30.9006
 11
-65.6949
 21
30.8087
  0
LINE
  8
0
 10
-65.6949
 20
30.8087
 11
-65.3979
 21
30.7064
  0
LINE
  8
0
 10
-65.3979
 20
30.7064
 11
-65.1046
 21
30.5939
  0
LINE
  8
0
 10
-65.1046
 20
30.5939
 11
-64.8154
 21
30.4711
  0
LINE
  8
0
 10
-64.8154
 20
30.4711
 11
-64.5307
 21
30.3383
  0
LINE
  8
0
 10
-64.5307
 20
30.3383
 11
-64.2508
 21
30.1957
  0
LINE
  8
0
 10
-64.2508
 20
30.1957
 11
-63.9761
 21
30.0434
  0
LINE
  8
0
 10
-63.9761
 20
30.0434
 11
-41.2078
 21
16.4499
  0
LINE
  8
0
 10
-41.2078
 20
16.4499
 11
-41.1199
 21
16.3929
  0
LINE
  8
0
 10
-41.1199
 20
16.3929
 11
-41.0342
 21
16.3328
  0
LINE
  8
0
 10
-41.0342
 20
16.3328
 11
-40.9505
 21
16.2698
  0
LINE
  8
0
 10
-40.9505
 20
16.2698
 11
-40.8692
 21
16.2039
  0
LINE
  8
0
 10
-40.8692
 20
16.2039
 11
-40.7901
 21
16.1352
  0
LINE
  8
0
 10
-40.7901
 20
16.1352
 11
-40.7135
 21
16.0638
  0
LINE
  8
0
 10
-40.7135
 20
16.0638
 11
-40.6395
 21
15.9897
  0
LINE
  8
0
 10
-40.6395
 20
15.9897
 11
-40.5681
 21
15.9131
  0
LINE
  8
0
 10
-40.5681
 20
15.9131
 11
-40.4994
 21
15.8341
  0
LINE
  8
0
 10
-40.4994
 20
15.8341
 11
-40.4335
 21
15.7527
  0
LINE
  8
0
 10
-40.4335
 20
15.7527
 11
-40.3705
 21
15.6691
  0
LINE
  8
0
 10
-40.3705
 20
15.6691
 11
-40.3104
 21
15.5833
  0
LINE
  8
0
 10
-40.3104
 20
15.5833
 11
-40.2534
 21
15.4955
  0
LINE
  8
0
 10
-40.2534
 20
15.4955
 11
-40.1994
 21
15.4057
  0
LINE
  8
0
 10
-40.1994
 20
15.4057
 11
-40.1487
 21
15.3141
  0
LINE
  8
0
 10
-40.1487
 20
15.3141
 11
-40.1012
 21
15.2209
  0
LINE
  8
0
 10
-40.1012
 20
15.2209
 11
-40.0569
 21
15.126
  0
LINE
  8
0
 10
-40.0569
 20
15.126
 11
-40.016
 21
15.0296
  0
LINE
  8
0
 10
-40.016
 20
15.0296
 11
-39.9785
 21
14.9318
  0
LINE
  8
0
 10
-39.9785
 20
14.9318
 11
-39.9444
 21
14.8328
  0
LINE
  8
0
 10
-39.9444
 20
14.8328
 11
-39.9137
 21
14.7327
  0
LINE
  8
0
 10
-39.9137
 20
14.7327
 11
-39.8866
 21
14.6315
  0
LINE
  8
0
 10
-39.8866
 20
14.6315
 11
-39.8631
 21
14.5295
  0
LINE
  8
0
 10
-39.8631
 20
14.5295
 11
-39.8431
 21
14.4267
  0
LINE
  8
0
 10
-39.8431
 20
14.4267
 11
-39.8267
 21
14.3233
  0
LINE
  8
0
 10
-39.8267
 20
14.3233
 11
-39.814
 21
14.2193
  0
LINE
  8
0
 10
-39.814
 20
14.2193
 11
-39.8048
 21
14.115
  0
LINE
  8
0
 10
-39.8048
 20
14.115
 11
-39.7993
 21
14.0104
  0
LINE
  8
0
 10
-39.7993
 20
14.0104
 11
-39.7975
 21
13.9057
  0
LINE
  8
0
 10
-39.7975
 20
13.9057
 11
-39.7994
 21
13.8011
  0
LINE
  8
0
 10
-39.7994
 20
13.8011
 11
-39.8048
 21
13.6965
  0
LINE
  8
0
 10
-39.8048
 20
13.6965
 11
-39.814
 21
13.5922
  0
LINE
  8
0
 10
-39.814
 20
13.5922
 11
-39.8267
 21
13.4882
  0
LINE
  8
0
 10
-39.8267
 20
13.4882
 11
-39.8431
 21
13.3848
  0
LINE
  8
0
 10
-39.8431
 20
13.3848
 11
-39.8631
 21
13.282
  0
LINE
  8
0
 10
-39.8631
 20
13.282
 11
-41.5482
 21
6.26309
  0
LINE
  8
0
 10
-41.5482
 20
6.26309
 11
-41.577
 21
6.16243
  0
LINE
  8
0
 10
-41.577
 20
6.16243
 11
-41.6094
 21
6.06285
  0
LINE
  8
0
 10
-41.6094
 20
6.06285
 11
-41.6452
 21
5.96445
  0
LINE
  8
0
 10
-41.6452
 20
5.96445
 11
-41.6844
 21
5.86736
  0
LINE
  8
0
 10
-41.6844
 20
5.86736
 11
-41.727
 21
5.7717
  0
LINE
  8
0
 10
-41.727
 20
5.7717
 11
-41.7729
 21
5.67757
  0
LINE
  8
0
 10
-41.7729
 20
5.67757
 11
-41.8221
 21
5.58513
  0
LINE
  8
0
 10
-41.8221
 20
5.58513
 11
-41.8745
 21
5.49445
  0
LINE
  8
0
 10
-41.8745
 20
5.49445
 11
-41.9299
 21
5.40564
  0
LINE
  8
0
 10
-41.9299
 20
5.40564
 11
-41.9885
 21
5.31882
  0
LINE
  8
0
 10
-41.9885
 20
5.31882
 11
-42.05
 21
5.23412
  0
LINE
  8
0
 10
-42.05
 20
5.23412
 11
-42.1145
 21
5.1516
  0
LINE
  8
0
 10
-42.1145
 20
5.1516
 11
-42.1818
 21
5.07137
  0
LINE
  8
0
 10
-42.1818
 20
5.07137
 11
-42.2519
 21
4.99356
  0
LINE
  8
0
 10
-42.2519
 20
4.99356
 11
-42.3246
 21
4.91823
  0
LINE
  8
0
 10
-42.3246
 20
4.91823
 11
-42.4
 21
4.84549
  0
LINE
  8
0
 10
-42.4
 20
4.84549
 11
-42.4778
 21
4.77542
  0
LINE
  8
0
 10
-42.4778
 20
4.77542
 11
-42.558
 21
4.70811
  0
LINE
  8
0
 10
-42.558
 20
4.70811
 11
-42.6405
 21
4.64365
  0
LINE
  8
0
 10
-42.6405
 20
4.64365
 11
-42.7252
 21
4.58211
  0
LINE
  8
0
 10
-42.7252
 20
4.58211
 11
-42.812
 21
4.52353
  0
LINE
  8
0
 10
-42.812
 20
4.52353
 11
-42.9008
 21
4.46805
  0
LINE
  8
0
 10
-42.9008
 20
4.46805
 11
-42.9915
 21
4.41568
  0
LINE
  8
0
 10
-42.9915
 20
4.41568
 11
-43.084
 21
4.36653
  0
LINE
  8
0
 10
-43.084
 20
4.36653
 11
-43.1781
 21
4.32063
  0
LINE
  8
0
 10
-43.1781
 20
4.32063
 11
-43.2738
 21
4.27803
  0
LINE
  8
0
 10
-43.2738
 20
4.27803
 11
-43.3709
 21
4.23882
  0
LINE
  8
0
 10
-43.3709
 20
4.23882
 11
-43.4693
 21
4.203
  0
LINE
  8
0
 10
-43.4693
 20
4.203
 11
-43.5688
 21
4.17062
  0
LINE
  8
0
 10
-43.5688
 20
4.17062
 11
-43.6695
 21
4.14177
  0
LINE
  8
0
 10
-43.6695
 20
4.14177
 11
-43.7711
 21
4.11644
  0
LINE
  8
0
 10
-43.7711
 20
4.11644
 11
-43.8735
 21
4.09467
  0
LINE
  8
0
 10
-43.8735
 20
4.09467
 11
-43.9767
 21
4.07648
  0
LINE
  8
0
 10
-43.9767
 20
4.07648
 11
-44.0804
 21
4.06192
  0
LINE
  8
0
 10
-44.0804
 20
4.06192
 11
-44.1845
 21
4.05098
  0
LINE
  8
0
 10
-44.1845
 20
4.05098
 11
-70.6425
 21
2.27562
  0
LINE
  8
0
 10
-70.6425
 20
2.27562
 11
-70.9565
 21
2.26465
  0
LINE
  8
0
 10
-70.9565
 20
2.26465
 11
-71.2706
 21
2.26466
  0
LINE
  8
0
 10
-90.5598
 20
24.033
 11
-87.8894
 21
24.6006
  0
LINE
  8
0
 10
-87.8894
 20
24.6006
 11
-85.5068
 21
13.3911
  0
LINE
  8
0
 10
-85.5068
 20
13.3911
 11
-88.1771
 21
12.8235
  0
LINE
  8
0
 10
-88.1771
 20
12.8235
 11
-90.5598
 21
24.033
  0
LINE
  8
0
 10
83.561
 20
22.5454
 11
85.7696
 21
24.15
  0
LINE
  8
0
 10
85.7696
 20
24.15
 11
92.5056
 21
14.8787
  0
LINE
  8
0
 10
92.5056
 20
14.8787
 11
90.297
 21
13.274
  0
LINE
  8
0
 10
90.297
 20
13.274
 11
83.561
 21
22.5454
  0
LINE
  8
0
 10
-92.5758
 20
14.4353
 11
-89.9794
 21
15.2789
  0
LINE
  8
0
 10
-89.9794
 20
15.2789
 11
-86.4381
 21
4.37981
  0
LINE
  8
0
 10
-86.4381
 20
4.37981
 11
-89.0345
 21
3.53619
  0
LINE
  8
0
 10
-89.0345
 20
3.53619
 11
-92.5758
 21
14.4353
  0
LINE
  8
0
 10
85.4598
 20
13.6874
 11
87.8241
 21
15.0524
  0
LINE
  8
0
 10
87.8241
 20
15.0524
 11
93.5541
 21
5.12773
  0
LINE
  8
0
 10
93.5541
 20
5.12773
 11
91.1898
 21
3.76273
  0
LINE
  8
0
 10
91.1898
 20
3.76273
 11
85.4598
 21
13.6874
  0
LINE
  8
0
 10
86.4224
 20
4.67941
 11
88.9164
 21
5.78981
  0
LINE
  8
0
 10
88.9164
 20
5.78981
 11
93.5776
 21
-4.67941
  0
LINE
  8
0
 10
93.5776
 20
-4.67941
 11
91.0836
 21
-5.78981
  0
LINE
  8
0
 10
91.0836
 20
-5.78981
 11
86.4224
 21
4.67941
  0
LINE
  8
0
 10
-93.5776
 20
4.67941
 11
-91.0836
 21
5.78981
  0
LINE
  8
0
 10
-91.0836
 20
5.78981
 11
-86.4224
 21
-4.67941
  0
LINE
  8
0
 10
-86.4224
 20
-4.67941
 11
-88.9164
 21
-5.78981
  0
LINE
  8
0
 10
-88.9164
 20
-5.78981
 11
-93.5776
 21
4.67941
  0
LINE
  8
0
 10
-0.169785
 20
-4.86203
 11
-0.339355
 21
-4.85313
  0
LINE
  8
0
 10
-0.339355
 20
-4.85313
 11
-0.50853
 21
-4.83835
  0
LINE
  8
0
 10
-0.50853
 20
-4.83835
 11
-0.677063
 21
-4.81764
  0
LINE
  8
0
 10
-0.677063
 20
-4.81764
 11
-0.844788
 21
-4.79108
  0
LINE
  8
0
 10
-0.844788
 20
-4.79108
 11
-1.01149
 21
-4.75868
  0
LINE
  8
0
 10
-1.01149
 20
-4.75868
 11
-1.17694
 21
-4.72047
  0
LINE
  8
0
 10
-1.17694
 20
-4.72047
 11
-1.34097
 21
-4.67653
  0
LINE
  8
0
 10
-1.34097
 20
-4.67653
 11
-1.50336
 21
-4.62688
  0
LINE
  8
0
 10
-1.50336
 20
-4.62688
 11
-1.66393
 21
-4.57159
  0
LINE
  8
0
 10
-1.66393
 20
-4.57159
 11
-1.82245
 21
-4.51074
  0
LINE
  8
0
 10
-1.82245
 20
-4.51074
 11
-1.97876
 21
-4.4444
  0
LINE
  8
0
 10
-1.97876
 20
-4.4444
 11
-2.13268
 21
-4.37262
  0
LINE
  8
0
 10
-2.13268
 20
-4.37262
 11
-2.28397
 21
-4.29553
  0
LINE
  8
0
 10
-2.28397
 20
-4.29553
 11
-2.4325
 21
-4.21321
  0
LINE
  8
0
 10
-2.4325
 20
-4.21321
 11
-2.57805
 21
-4.12575
  0
LINE
  8
0
 10
-2.57805
 20
-4.12575
 11
-2.72046
 21
-4.03326
  0
LINE
  8
0
 10
-2.72046
 20
-4.03326
 11
-2.85957
 21
-3.93587
  0
LINE
  8
0
 10
-2.85957
 20
-3.93587
 11
-2.99518
 21
-3.83366
  0
LINE
  8
0
 10
-2.99518
 20
-3.83366
 11
-3.12715
 21
-3.72679
  0
LINE
  8
0
 10
-3.12715
 20
-3.72679
 11
-3.25531
 21
-3.61539
  0
LINE
  8
0
 10
-3.25531
 20
-3.61539
 11
-3.3795
 21
-3.49959
  0
LINE
  8
0
 10
-3.3795
 20
-3.49959
 11
-3.49959
 21
-3.3795
  0
LINE
  8
0
 10
-3.49959
 20
-3.3795
 11
-3.61539
 21
-3.25531
  0
LINE
  8
0
 10
-3.61539
 20
-3.25531
 11
-3.72679
 21
-3.12715
  0
LINE
  8
0
 10
-3.72679
 20
-3.12715
 11
-3.83366
 21
-2.99518
  0
LINE
  8
0
 10
-3.83366
 20
-2.99518
 11
-3.93587
 21
-2.85957
  0
LINE
  8
0
 10
-3.93587
 20
-2.85957
 11
-4.03326
 21
-2.72046
  0
LINE
  8
0
 10
-4.03326
 20
-2.72046
 11
-4.12575
 21
-2.57805
  0
LINE
  8
0
 10
-4.12575
 20
-2.57805
 11
-4.21321
 21
-2.4325
  0
LINE
  8
0
 10
-4.21321
 20
-2.4325
 11
-4.29553
 21
-2.28397
  0
LINE
  8
0
 10
-4.29553
 20
-2.28397
 11
-4.37262
 21
-2.13268
  0
LINE
  8
0
 10
-4.37262
 20
-2.13268
 11
-4.4444
 21
-1.97876
  0
LINE
  8
0
 10
-4.4444
 20
-1.97876
 11
-4.51074
 21
-1.82245
  0
LINE
  8
0
 10
-4.51074
 20
-1.82245
 11
-4.57159
 21
-1.66393
  0
LINE
  8
0
 10
-4.57159
 20
-1.66393
 11
-4.62688
 21
-1.50336
  0
LINE
  8
0
 10
-4.62688
 20
-1.50336
 11
-4.67653
 21
-1.34097
  0
LINE
  8
0
 10
-4.67653
 20
-1.34097
 11
-4.72047
 21
-1.17694
  0
LINE
  8
0
 10
-4.72047
 20
-1.17694
 11
-4.75868
 21
-1.01149
  0
LINE
  8
0
 10
-4.75868
 20
-1.01149
 11
-4.79108
 21
-0.844788
  0
LINE
  8
0
 10
-4.79108
 20
-0.844788
 11
-4.81764
 21
-0.677063
  0
LINE
  8
0
 10
-4.81764
 20
-0.677063
 11
-4.83835
 21
-0.50853
  0
LINE
  8
0
 10
-4.83835
 20
-0.50853
 11
-4.85313
 21
-0.339355
  0
LINE
  8
0
 10
-4.85313
 20
-0.339355
 11
-4.86203
 21
-0.169785
  0
LINE
  8
0
 10
-4.86203
 20
-0.169785
 11
-4.86499
 21
0
  0
LINE
  8
0
 10
-4.86499
 20
0
 11
-4.86203
 21
0.169785
  0
LINE
  8
0
 10
-4.86203
 20
0.169785
 11
-4.85313
 21
0.339355
  0
LINE
  8
0
 10
-4.85313
 20
0.339355
 11
-4.83835
 21
0.50853
  0
LINE
  8
0
 10
-4.83835
 20
0.50853
 11
-4.81764
 21
0.677063
  0
LINE
  8
0
 10
-4.81764
 20
0.677063
 11
-4.79108
 21
0.844788
  0
LINE
  8
0
 10
-4.79108
 20
0.844788
 11
-4.75868
 21
1.01149
  0
LINE
  8
0
 10
-4.75868
 20
1.01149
 11
-4.72047
 21
1.17694
  0
LINE
  8
0
 10
-4.72047
 20
1.17694
 11
-4.67653
 21
1.34097
  0
LINE
  8
0
 10
-4.67653
 20
1.34097
 11
-4.62688
 21
1.50336
  0
LINE
  8
0
 10
-4.62688
 20
1.50336
 11
-4.57159
 21
1.66393
  0
LINE
  8
0
 10
-4.57159
 20
1.66393
 11
-4.51074
 21
1.82245
  0
LINE
  8
0
 10
-4.51074
 20
1.82245
 11
-4.4444
 21
1.97876
  0
LINE
  8
0
 10
-4.4444
 20
1.97876
 11
-4.37262
 21
2.13268
  0
LINE
  8
0
 10
-4.37262
 20
2.13268
 11
-4.29553
 21
2.28397
  0
LINE
  8
0
 10
-4.29553
 20
2.28397
 11
-4.21321
 21
2.4325
  0
LINE
  8
0
 10
-4.21321
 20
2.4325
 11
-4.12575
 21
2.57805
  0
LINE
  8
0
 10
-4.12575
 20
2.57805
 11
-4.03326
 21
2.72046
  0
LINE
  8
0
 10
-4.03326
 20
2.72046
 11
-3.93587
 21
2.85957
  0
LINE
  8
0
 10
-3.93587
 20
2.85957
 11
-3.83366
 21
2.99518
  0
LINE
  8
0
 10
-3.83366
 20
2.99518
 11
-3.72679
 21
3.12715
  0
LINE
  8
0
 10
-3.72679
 20
3.12715
 11
-3.61539
 21
3.25531
  0
LINE
  8
0
 10
-3.61539
 20
3.25531
 11
-3.49959
 21
3.3795
  0
LINE
  8
0
 10
-3.49959
 20
3.3795
 11
-3.3795
 21
3.49959
  0
LINE
  8
0
 10
-3.3795
 20
3.49959
 11
-3.25531
 21
3.61539
  0
LINE
  8
0
 10
-3.25531
 20
3.61539
 11
-3.12715
 21
3.72679
  0
LINE
  8
0
 10
-3.12715
 20
3.72679
 11
-2.99518
 21
3.83366
  0
LINE
  8
0
 10
-2.99518
 20
3.83366
 11
-2.85957
 21
3.93587
  0
LINE
  8
0
 10
-2.85957
 20
3.93587
 11
-2.72046
 21
4.03326
  0
LINE
  8
0
 10
-2.72046
 20
4.03326
 11
-2.57805
 21
4.12575
  0
LINE
  8
0
 10
-2.57805
 20
4.12575
 11
-2.4325
 21
4.21321
  0
LINE
  8
0
 10
-2.4325
 20
4.21321
 11
-2.28397
 21
4.29553
  0
LINE
  8
0
 10
-2.28397
 20
4.29553
 11
-2.13268
 21
4.37262
  0
LINE
  8
0
 10
-2.13268
 20
4.37262
 11
-1.97876
 21
4.4444
  0
LINE
  8
0
 10
-1.97876
 20
4.4444
 11
-1.82245
 21
4.51074
  0
LINE
  8
0
 10
-1.82245
 20
4.51074
 11
-1.66393
 21
4.57159
  0
LINE
  8
0
 10
-1.66393
 20
4.57159
 11
-1.50336
 21
4.62688
  0
LINE
  8
0
 10
-1.50336
 20
4.62688
 11
-1.34097
 21
4.67653
  0
LINE
  8
0
 10
-1.34097
 20
4.67653
 11
-1.17694
 21
4.72047
  0
LINE
  8
0
 10
-1.17694
 20
4.72047
 11
-1.01149
 21
4.75868
  0
LINE
  8
0
 10
-1.01149
 20
4.75868
 11
-0.844788
 21
4.79108
  0
LINE
  8
0
 10
-0.844788
 20
4.79108
 11
-0.677063
 21
4.81764
  0
LINE
  8
0
 10
-0.677063
 20
4.81764
 11
-0.50853
 21
4.83835
  0
LINE
  8
0
 10
-0.50853
 20
4.83835
 11
-0.339355
 21
4.85313
  0
LINE
  8
0
 10
-0.339355
 20
4.85313
 11
-0.169785
 21
4.86203
  0
LINE
  8
0
 10
-0.169785
 20
4.86203
 11
0
 21
4.86499
  0
LINE
  8
0
 10
0
 20
4.86499
 11
0.169785
 21
4.86203
  0
LINE
  8
0
 10
0.169785
 20
4.86203
 11
0.339355
 21
4.85313
  0
LINE
  8
0
 10
0.339355
 20
4.85313
 11
0.50853
 21
4.83835
  0
LINE
  8
0
 10
0.50853
 20
4.83835
 11
0.677063
 21
4.81764
  0
LINE
  8
0
 10
0.677063
 20
4.81764
 11
0.844788
 21
4.79108
  0
LINE
  8
0
 10
0.844788
 20
4.79108
 11
1.01149
 21
4.75868
  0
LINE
  8
0
 10
1.01149
 20
4.75868
 11
1.17694
 21
4.72047
  0
LINE
  8
0
 10
1.17694
 20
4.72047
 11
1.34097
 21
4.67653
  0
LINE
  8
0
 10
1.34097
 20
4.67653
 11
1.50336
 21
4.62688
  0
LINE
  8
0
 10
1.50336
 20
4.62688
 11
1.66393
 21
4.57159
  0
LINE
  8
0
 10
1.66393
 20
4.57159
 11
1.82245
 21
4.51074
  0
LINE
  8
0
 10
1.82245
 20
4.51074
 11
1.97876
 21
4.4444
  0
LINE
  8
0
 10
1.97876
 20
4.4444
 11
2.13268
 21
4.37262
  0
LINE
  8
0
 10
2.13268
 20
4.37262
 11
2.28397
 21
4.29553
  0
LINE
  8
0
 10
2.28397
 20
4.29553
 11
2.4325
 21
4.21321
  0
LINE
  8
0
 10
2.4325
 20
4.21321
 11
2.57805
 21
4.12575
  0
LINE
  8
0
 10
2.57805
 20
4.12575
 11
2.72046
 21
4.03326
  0
LINE
  8
0
 10
2.72046
 20
4.03326
 11
2.85957
 21
3.93587
  0
LINE
  8
0
 10
2.85957
 20
3.93587
 11
2.99518
 21
3.83366
  0
LINE
  8
0
 10
2.99518
 20
3.83366
 11
3.12715
 21
3.72679
  0
LINE
  8
0
 10
3.12715
 20
3.72679
 11
3.25531
 21
3.61539
  0
LINE
  8
0
 10
3.25531
 20
3.61539
 11
3.3795
 21
3.49959
  0
LINE
  8
0
 10
3.3795
 20
3.49959
 11
3.49959
 21
3.3795
  0
LINE
  8
0
 10
3.49959
 20
3.3795
 11
3.61539
 21
3.25531
  0
LINE
  8
0
 10
3.61539
 20
3.25531
 11
3.72679
 21
3.12715
  0
LINE
  8
0
 10
3.72679
 20
3.12715
 11
3.83366
 21
2.99518
  0
LINE
  8
0
 10
3.83366
 20
2.99518
 11
3.93587
 21
2.85957
  0
LINE
  8
0
 10
3.93587
 20
2.85957
 11
4.03326
 21
2.72046
  0
LINE
  8
0
 10
4.03326
 20
2.72046
 11
4.12575
 21
2.57805
  0
LINE
  8
0
 10
4.12575
 20
2.57805
 11
4.21321
 21
2.4325
  0
LINE
  8
0
 10
4.21321
 20
2.4325
 11
4.29553
 21
2.28397
  0
LINE
  8
0
 10
4.29553
 20
2.28397
 11
4.37262
 21
2.13268
  0
LINE
  8
0
 10
4.37262
 20
2.13268
 11
4.4444
 21
1.97876
  0
LINE
  8
0
 10
4.4444
 20
1.97876
 11
4.51074
 21
1.82245
  0
LINE
  8
0
 10
4.51074
 20
1.82245
 11
4.57159
 21
1.66393
  0
LINE
  8
0
 10
4.57159
 20
1.66393
 11
4.62688
 21
1.50336
  0
LINE
  8
0
 10
4.62688
 20
1.50336
 11
4.67653
 21
1.34097
  0
LINE
  8
0
 10
4.67653
 20
1.34097
 11
4.72047
 21
1.17694
  0
LINE
  8
0
 10
4.72047
 20
1.17694
 11
4.75868
 21
1.01149
  0
LINE
  8
0
 10
4.75868
 20
1.01149
 11
4.79108
 21
0.844788
  0
LINE
  8
0
 10
4.79108
 20
0.844788
 11
4.81764
 21
0.677063
  0
LINE
  8
0
 10
4.81764
 20
0.677063
 11
4.83835
 21
0.50853
  0
LINE
  8
0
 10
4.83835
 20
0.50853
 11
4.85313
 21
0.339355
  0
LINE
  8
0
 10
4.85313
 20
0.339355
 11
4.86203
 21
0.169785
  0
LINE
  8
0
 10
4.86203
 20
0.169785
 11
4.86499
 21
0
  0
LINE
  8
0
 10
4.86499
 20
0
 11
4.86203
 21
-0.169785
  0
LINE
  8
0
 10
4.86203
 20
-0.169785
 11
4.85313
 21
-0.339355
  0
LINE
  8
0
 10
4.85313
 20
-0.339355
 11
4.83835
 21
-0.50853
  0
LINE
  8
0
 10
4.83835
 20
-0.50853
 11
4.81764
 21
-0.677063
  0
LINE
  8
0
 10
4.81764
 20
-0.677063
 11
4.79108
 21
-0.844788
  0
LINE
  8
0
 10
4.79108
 20
-0.844788
 11
4.75868
 21
-1.01149
  0
LINE
  8
0
 10
4.75868
 20
-1.01149
 11
4.72047
 21
-1.17694
  0
LINE
  8
0
 10
4.72047
 20
-1.17694
 11
4.67653
 21
-1.34097
  0
LINE
  8
0
 10
4.67653
 20
-1.34097
 11
4.62688
 21
-1.50336
  0
LINE
  8
0
 10
4.62688
 20
-1.50336
 11
4.57159
 21
-1.66393
  0
LINE
  8
0
 10
4.57159
 20
-1.66393
 11
4.51074
 21
-1.82245
  0
LINE
  8
0
 10
4.51074
 20
-1.82245
 11
4.4444
 21
-1.97876
  0
LINE
  8
0
 10
4.4444
 20
-1.97876
 11
4.37262
 21
-2.13268
  0
LINE
  8
0
 10
4.37262
 20
-2.13268
 11
4.29553
 21
-2.28397
  0
LINE
  8
0
 10
4.29553
 20
-2.28397
 11
4.21321
 21
-2.4325
  0
LINE
  8
0
 10
4.21321
 20
-2.4325
 11
4.12575
 21
-2.57805
  0
LINE
  8
0
 10
4.12575
 20
-2.57805
 11
4.03326
 21
-2.72046
  0
LINE
  8
0
 10
4.03326
 20
-2.72046
 11
3.93587
 21
-2.85957
  0
LINE
  8
0
 10
3.93587
 20
-2.85957
 11
3.83366
 21
-2.99518
  0
LINE
  8
0
 10
3.83366
 20
-2.99518
 11
3.72679
 21
-3.12715
  0
LINE
  8
0
 10
3.72679
 20
-3.12715
 11
3.61539
 21
-3.25531
  0
LINE
  8
0
 10
3.61539
 20
-3.25531
 11
3.49959
 21
-3.3795
  0
LINE
  8
0
 10
3.49959
 20
-3.3795
 11
3.3795
 21
-3.49959
  0
LINE
  8
0
 10
3.3795
 20
-3.49959
 11
3.25531
 21
-3.61539
  0
LINE
  8
0
 10
3.25531
 20
-3.61539
 11
3.12715
 21
-3.72679
  0
LINE
  8
0
 10
3.12715
 20
-3.72679
 11
2.99518
 21
-3.83366
  0
LINE
  8
0
 10
2.99518
 20
-3.83366
 11
2.85957
 21
-3.93587
  0
LINE
  8
0
 10
2.85957
 20
-3.93587
 11
2.72046
 21
-4.03326
  0
LINE
  8
0
 10
2.72046
 20
-4.03326
 11
2.57805
 21
-4.12575
  0
LINE
  8
0
 10
2.57805
 20
-4.12575
 11
2.4325
 21
-4.21321
  0
LINE
  8
0
 10
2.4325
 20
-4.21321
 11
2.28397
 21
-4.29553
  0
LINE
  8
0
 10
2.28397
 20
-4.29553
 11
2.13268
 21
-4.37262
  0
LINE
  8
0
 10
2.13268
 20
-4.37262
 11
1.97876
 21
-4.4444
  0
LINE
  8
0
 10
1.97876
 20
-4.4444
 11
1.82245
 21
-4.51074
  0
LINE
  8
0
 10
1.82245
 20
-4.51074
 11
1.66393
 21
-4.57159
  0
LINE
  8
0
 10
1.66393
 20
-4.57159
 11
1.50336
 21
-4.62688
  0
LINE
  8
0
 10
1.50336
 20
-4.62688
 11
1.34097
 21
-4.67653
  0
LINE
  8
0
 10
1.34097
 20
-4.67653
 11
1.17694
 21
-4.72047
  0
LINE
  8
0
 10
1.17694
 20
-4.72047
 11
1.01149
 21
-4.75868
  0
LINE
  8
0
 10
1.01149
 20
-4.75868
 11
0.844788
 21
-4.79108
  0
LINE
  8
0
 10
0.844788
 20
-4.79108
 11
0.677063
 21
-4.81764
  0
LINE
  8
0
 10
0.677063
 20
-4.81764
 11
0.50853
 21
-4.83835
  0
LINE
  8
0
 10
0.50853
 20
-4.83835
 11
0.339355
 21
-4.85313
  0
LINE
  8
0
 10
0.339355
 20
-4.85313
 11
0.169785
 21
-4.86203
  0
LINE
  8
0
 10
0.169785
 20
-4.86203
 11
0
 21
-4.86499
  0
LINE
  8
0
 10
0
 20
-4.86499
 11
-0.169785
 21
-4.86203
  0
LINE
  8
0
 10
68.162
 20
-31.2437
 11
67.8483
 21
-31.2273
  0
LINE
  8
0
 10
67.8483
 20
-31.2273
 11
67.5353
 21
-31.1999
  0
LINE
  8
0
 10
67.5353
 20
-31.1999
 11
67.2235
 21
-31.1616
  0
LINE
  8
0
 10
67.2235
 20
-31.1616
 11
66.9132
 21
-31.1125
  0
LINE
  8
0
 10
66.9132
 20
-31.1125
 11
66.6049
 21
-31.0525
  0
LINE
  8
0
 10
66.6049
 20
-31.0525
 11
66.2988
 21
-30.9819
  0
LINE
  8
0
 10
66.2988
 20
-30.9819
 11
65.9953
 21
-30.9006
  0
LINE
  8
0
 10
65.9953
 20
-30.9006
 11
65.6949
 21
-30.8087
  0
LINE
  8
0
 10
65.6949
 20
-30.8087
 11
65.3979
 21
-30.7064
  0
LINE
  8
0
 10
65.3979
 20
-30.7064
 11
65.1046
 21
-30.5939
  0
LINE
  8
0
 10
65.1046
 20
-30.5939
 11
64.8154
 21
-30.4711
  0
LINE
  8
0
 10
64.8154
 20
-30.4711
 11
64.5307
 21
-30.3383
  0
LINE
  8
0
 10
64.5307
 20
-30.3383
 11
64.2508
 21
-30.1957
  0
LINE
  8
0
 10
64.2508
 20
-30.1957
 11
63.9761
 21
-30.0434
  0
LINE
  8
0
 10
63.9761
 20
-30.0434
 11
41.2078
 21
-16.4499
  0
LINE
  8
0
 10
41.2078
 20
-16.4499
 11
41.1199
 21
-16.3929
  0
LINE
  8
0
 10
41.1199
 20
-16.3929
 11
41.0342
 21
-16.3328
  0
LINE
  8
0
 10
41.0342
 20
-16.3328
 11
40.9505
 21
-16.2698
  0
LINE
  8
0
 10
40.9505
 20
-16.2698
 11
40.8692
 21
-16.2039
  0
LINE
  8
0
 10
40.8692
 20
-16.2039
 11
40.7901
 21
-16.1352
  0
LINE
  8
0
 10
40.7901
 20
-16.1352
 11
40.7135
 21
-16.0638
  0
LINE
  8
0
 10
40.7135
 20
-16.0638
 11
40.6395
 21
-15.9897
  0
LINE
  8
0
 10
40.6395
 20
-15.9897
 11
40.5681
 21
-15.9131
  0
LINE
  8
0
 10
40.5681
 20
-15.9131
 11
40.4994
 21
-15.8341
  0
LINE
  8
0
 10
40.4994
 20
-15.8341
 11
40.4335
 21
-15.7527
  0
LINE
  8
0
 10
40.4335
 20
-15.7527
 11
40.3705
 21
-15.6691
  0
LINE
  8
0
 10
40.3705
 20
-15.6691
 11
40.3104
 21
-15.5833
  0
LINE
  8
0
 10
40.3104
 20
-15.5833
 11
40.2534
 21
-15.4955
  0
LINE
  8
0
 10
40.2534
 20
-15.4955
 11
40.1994
 21
-15.4057
  0
LINE
  8
0
 10
40.1994
 20
-15.4057
 11
40.1487
 21
-15.3141
  0
LINE
  8
0
 10
40.1487
 20
-15.3141
 11
40.1012
 21
-15.2209
  0
LINE
  8
0
 10
40.1012
 20
-15.2209
 11
40.0569
 21
-15.126
  0
LINE
  8
0
 10
40.0569
 20
-15.126
 11
40.016
 21
-15.0296
  0
LINE
  8
0
 10
40.016
 20
-15.0296
 11
39.9785
 21
-14.9318
  0
LINE
  8
0
 10
39.9785
 20
-14.9318
 11
39.9444
 21
-14.8328
  0
LINE
  8
0
 10
39.9444
 20
-14.8328
 11
39.9137
 21
-14.7327
  0
LINE
  8
0
 10
39.9137
 20
-14.7327
 11
39.8866
 21
-14.6315
  0
LINE
  8
0
 10
39.8866
 20
-14.6315
 11
39.8631
 21
-14.5295
  0
LINE
  8
0
 10
39.8631
 20
-14.5295
 11
39.8431
 21
-14.4267
  0
LINE
  8
0
 10
39.8431
 20
-14.4267
 11
39.8267
 21
-14.3233
  0
LINE
  8
0
 10
39.8267
 20
-14.3233
 11
39.814
 21
-14.2193
  0
LINE
  8
0
 10
39.814
 20
-14.2193
 11
39.8048
 21
-14.115
  0
LINE
  8
0
 10
39.8048
 20
-14.115
 11
39.7993
 21
-14.0104
  0
LINE
  8
0
 10
39.7993
 20
-14.0104
 11
39.7975
 21
-13.9057
  0
LINE
  8
0
 10
39.7975
 20
-13.9057
 11
39.7994
 21
-13.8011
  0
LINE
  8
0
 10
39.7994
 20
-13.8011
 11
39.8048
 21
-13.6965
  0
LINE
  8
0
 10
39.8048
 20
-13.6965
 11
39.814
 21
-13.5922
  0
LINE
  8
0
 10
39.814
 20
-13.5922
 11
39.8267
 21
-13.4882
  0
LINE
  8
0
 10
39.8267
 20
-13.4882
 11
39.8431
 21
-13.3848
  0
LINE
  8
0
 10
39.8431
 20
-13.3848
 11
39.8631
 21
-13.282
  0
LINE
  8
0
 10
39.8631
 20
-13.282
 11
41.5482
 21
-6.26309
  0
LINE
  8
0
 10
41.5482
 20
-6.26309
 11
41.577
 21
-6.16243
  0
LINE
  8
0
 10
41.577
 20
-6.16243
 11
41.6094
 21
-6.06285
  0
LINE
  8
0
 10
41.6094
 20
-6.06285
 11
41.6452
 21
-5.96445
  0
LINE
  8
0
 10
41.6452
 20
-5.96445
 11
41.6844
 21
-5.86736
  0
LINE
  8
0
 10
41.6844
 20
-5.86736
 11
41.727
 21
-5.7717
  0
LINE
  8
0
 10
41.727
 20
-5.7717
 11
41.7729
 21
-5.67757
  0
LINE
  8
0
 10
41.7729
 20
-5.67757
 11
41.8221
 21
-5.58513
  0
LINE
  8
0
 10
41.8221
 20
-5.58513
 11
41.8745
 21
-5.49445
  0
LINE
  8
0
 10
41.8745
 20
-5.49445
 11
41.9299
 21
-5.40564
  0
LINE
  8
0
 10
41.9299
 20
-5.40564
 11
41.9885
 21
-5.31882
  0
LINE
  8
0
 10
41.9885
 20
-5.31882
 11
42.05
 21
-5.23412
  0
LINE
  8
0
 10
42.05
 20
-5.23412
 11
42.1145
 21
-5.1516
  0
LINE
  8
0
 10
42.1145
 20
-5.1516
 11
42.1818
 21
-5.07137
  0
LINE
  8
0
 10
42.1818
 20
-5.07137
 11
42.2519
 21
-4.99356
  0
LINE
  8
0
 10
42.2519
 20
-4.99356
 11
42.3246
 21
-4.91823
  0
LINE
  8
0
 10
42.3246
 20
-4.91823
 11
42.4
 21
-4.84549
  0
LINE
  8
0
 10
42.4
 20
-4.84549
 11
42.4778
 21
-4.77542
  0
LINE
  8
0
 10
42.4778
 20
-4.77542
 11
42.558
 21
-4.70811
  0
LINE
  8
0
 10
42.558
 20
-4.70811
 11
42.6405
 21
-4.64365
  0
LINE
  8
0
 10
42.6405
 20
-4.64365
 11
42.7252
 21
-4.58211
  0
LINE
  8
0
 10
42.7252
 20
-4.58211
 11
42.812
 21
-4.52353
  0
LINE
  8
0
 10
42.812
 20
-4.52353
 11
42.9008
 21
-4.46805
  0
LINE
  8
0
 10
42.9008
 20
-4.46805
 11
42.9915
 21
-4.41568
  0
LINE
  8
0
 10
42.9915
 20
-4.41568
 11
43.084
 21
-4.36653
  0
LINE
  8
0
 10
43.084
 20
-4.36653
 11
43.1781
 21
-4.32063
  0
LINE
  8
0
 10
43.1781
 20
-4.32063
 11
43.2738
 21
-4.27803
  0
LINE
  8
0
 10
43.2738
 20
-4.27803
 11
43.3709
 21
-4.23882
  0
LINE
  8
0
 10
43.3709
 20
-4.23882
 11
43.4693
 21
-4.203
  0
LINE
  8
0
 10
43.4693
 20
-4.203
 11
43.5688
 21
-4.17062
  0
LINE
  8
0
 10
43.5688
 20
-4.17062
 11
43.6695
 21
-4.14177
  0
LINE
  8
0
 10
43.6695
 20
-4.14177
 11
43.7711
 21
-4.11644
  0
LINE
  8
0
 10
43.7711
 20
-4.11644
 11
43.8735
 21
-4.09467
  0
LINE
  8
0
 10
43.8735
 20
-4.09467
 11
43.9767
 21
-4.07648
  0
LINE
  8
0
 10
43.9767
 20
-4.07648
 11
44.0804
 21
-4.06192
  0
LINE
  8
0
 10
44.0804
 20
-4.06192
 11
44.1845
 21
-4.05098
  0
LINE
  8
0
 10
44.1845
 20
-4.05098
 11
70.6425
 21
-2.27562
  0
LINE
  8
0
 10
70.6425
 20
-2.27562
 11
70.9565
 21
-2.26465
  0
LINE
  8
0
 10
70.9565
 20
-2.26465
 11
71.2706
 21
-2.26466
  0
LINE
  8
0
 10
71.2706
 20
-2.26466
 11
71.5846
 21
-2.27562
  0
LINE
  8
0
 10
71.5846
 20
-2.27562
 11
71.8979
 21
-2.29752
  0
LINE
  8
0
 10
71.8979
 20
-2.29752
 11
72.2104
 21
-2.33037
  0
LINE
  8
0
 10
72.2104
 20
-2.33037
 11
72.5215
 21
-2.37408
  0
LINE
  8
0
 10
72.5215
 20
-2.37408
 11
72.8308
 21
-2.42863
  0
LINE
  8
0
 10
72.8308
 20
-2.42863
 11
73.1381
 21
-2.49394
  0
LINE
  8
0
 10
73.1381
 20
-2.49394
 11
73.4429
 21
-2.56995
  0
LINE
  8
0
 10
73.4429
 20
-2.56995
 11
73.7449
 21
-2.65654
  0
LINE
  8
0
 10
73.7449
 20
-2.65654
 11
74.0437
 21
-2.7536
  0
LINE
  8
0
 10
74.0437
 20
-2.7536
 11
74.3389
 21
-2.86107
  0
LINE
  8
0
 10
74.3389
 20
-2.86107
 11
74.6301
 21
-2.97874
  0
LINE
  8
0
 10
74.6301
 20
-2.97874
 11
74.9171
 21
-3.10651
  0
LINE
  8
0
 10
74.9171
 20
-3.10651
 11
75.1995
 21
-3.24423
  0
LINE
  8
0
 10
75.1995
 20
-3.24423
 11
75.4768
 21
-3.39169
  0
LINE
  8
0
 10
75.4768
 20
-3.39169
 11
75.7489
 21
-3.54877
  0
LINE
  8
0
 10
75.7489
 20
-3.54877
 11
76.0153
 21
-3.71524
  0
LINE
  8
0
 10
76.0153
 20
-3.71524
 11
76.2757
 21
-3.89091
  0
LINE
  8
0
 10
76.2757
 20
-3.89091
 11
76.5299
 21
-4.07556
  0
LINE
  8
0
 10
76.5299
 20
-4.07556
 11
76.7774
 21
-4.26897
  0
LINE
  8
0
 10
76.7774
 20
-4.26897
 11
77.0181
 21
-4.47089
  0
LINE
  8
0
 10
77.0181
 20
-4.47089
 11
77.2515
 21
-4.68109
  0
LINE
  8
0
 10
77.2515
 20
-4.68109
 11
77.4775
 21
-4.89932
  0
LINE
  8
0
 10
77.4775
 20
-4.89932
 11
77.6957
 21
-5.12529
  0
LINE
  8
0
 10
77.6957
 20
-5.12529
 11
77.9059
 21
-5.35875
  0
LINE
  8
0
 10
77.9059
 20
-5.35875
 11
78.1079
 21
-5.5994
  0
LINE
  8
0
 10
78.1079
 20
-5.5994
 11
78.3013
 21
-5.84695
  0
LINE
  8
0
 10
78.3013
 20
-5.84695
 11
78.4859
 21
-6.10109
  0
LINE
  8
0
 10
78.4859
 20
-6.10109
 11
78.6616
 21
-6.36153
  0
LINE
  8
0
 10
78.6616
 20
-6.36153
 11
78.828
 21
-6.62794
  0
LINE
  8
0
 10
78.828
 20
-6.62794
 11
78.9851
 21
-6.89999
  0
LINE
  8
0
 10
78.9851
 20
-6.89999
 11
79.1326
 21
-7.17737
  0
LINE
  8
0
 10
79.1326
 20
-7.17737
 11
79.2703
 21
-7.45972
  0
LINE
  8
0
 10
79.2703
 20
-7.45972
 11
79.3981
 21
-7.74669
  0
LINE
  8
0
 10
79.3981
 20
-7.74669
 11
79.5158
 21
-8.03798
  0
LINE
  8
0
 10
79.5158
 20
-8.03798
 11
79.6232
 21
-8.33316
  0
LINE
  8
0
 10
79.6232
 20
-8.33316
 11
79.7203
 21
-8.63194
  0
LINE
  8
0
 10
79.7203
 20
-8.63194
 11
79.8069
 21
-8.9339
  0
LINE
  8
0
 10
79.8069
 20
-8.9339
 11
79.8829
 21
-9.23872
  0
LINE
  8
0
 10
79.8829
 20
-9.23872
 11
79.9482
 21
-9.54601
  0
LINE
  8
0
 10
79.9482
 20
-9.54601
 11
80.0027
 21
-9.85538
  0
LINE
  8
0
 10
80.0027
 20
-9.85538
 11
80.0465
 21
-10.1665
  0
LINE
  8
0
 10
80.0465
 20
-10.1665
 11
80.0793
 21
-10.4789
  0
LINE
  8
0
 10
80.0793
 20
-10.4789
 11
80.1012
 21
-10.7923
  0
LINE
  8
0
 10
80.1012
 20
-10.7923
 11
80.1122
 21
-11.1062
  0
LINE
  8
0
 10
80.1122
 20
-11.1062
 11
80.1122
 21
-11.4203
  0
LINE
  8
0
 10
80.1122
 20
-11.4203
 11
80.1012
 21
-11.7343
  0
LINE
  8
0
 10
80.1012
 20
-11.7343
 11
80.0793
 21
-12.0477
  0
LINE
  8
0
 10
80.0793
 20
-12.0477
 11
80.0465
 21
-12.3601
  0
LINE
  8
0
 10
80.0465
 20
-12.3601
 11
80.0027
 21
-12.6712
  0
LINE
  8
0
 10
80.0027
 20
-12.6712
 11
79.9482
 21
-12.9805
  0
LINE
  8
0
 10
79.9482
 20
-12.9805
 11
79.8829
 21
-13.2878
  0
LINE
  8
0
 10
79.8829
 20
-13.2878
 11
77.2087
 21
-24.4265
  0
LINE
  8
0
 10
77.2087
 20
-24.4265
 11
77.1274
 21
-24.7299
  0
LINE
  8
0
 10
77.1274
 20
-24.7299
 11
77.0356
 21
-25.0304
  0
LINE
  8
0
 10
77.0356
 20
-25.0304
 11
76.9333
 21
-25.3274
  0
LINE
  8
0
 10
76.9333
 20
-25.3274
 11
76.8207
 21
-25.6207
  0
LINE
  8
0
 10
76.8207
 20
-25.6207
 11
76.698
 21
-25.9098
  0
LINE
  8
0
 10
76.698
 20
-25.9098
 11
76.5652
 21
-26.1945
  0
LINE
  8
0
 10
76.5652
 20
-26.1945
 11
76.4226
 21
-26.4744
  0
LINE
  8
0
 10
76.4226
 20
-26.4744
 11
76.2703
 21
-26.7492
  0
LINE
  8
0
 10
76.2703
 20
-26.7492
 11
76.1085
 21
-27.0185
  0
LINE
  8
0
 10
76.1085
 20
-27.0185
 11
75.9374
 21
-27.2819
  0
LINE
  8
0
 10
75.9374
 20
-27.2819
 11
75.7572
 21
-27.5393
  0
LINE
  8
0
 10
75.7572
 20
-27.5393
 11
75.5682
 21
-27.7902
  0
LINE
  8
0
 10
75.5682
 20
-27.7902
 11
75.3705
 21
-28.0343
  0
LINE
  8
0
 10
75.3705
 20
-28.0343
 11
75.1644
 21
-28.2714
  0
LINE
  8
0
 10
75.1644
 20
-28.2714
 11
74.9501
 21
-28.5011
  0
LINE
  8
0
 10
74.9501
 20
-28.5011
 11
74.728
 21
-28.7233
  0
LINE
  8
0
 10
74.728
 20
-28.7233
 11
74.4982
 21
-28.9375
  0
LINE
  8
0
 10
74.4982
 20
-28.9375
 11
74.2612
 21
-29.1436
  0
LINE
  8
0
 10
74.2612
 20
-29.1436
 11
74.017
 21
-29.3413
  0
LINE
  8
0
 10
74.017
 20
-29.3413
 11
73.7661
 21
-29.5303
  0
LINE
  8
0
 10
73.7661
 20
-29.5303
 11
73.5088
 21
-29.7105
  0
LINE
  8
0
 10
73.5088
 20
-29.7105
 11
73.2453
 21
-29.8816
  0
LINE
  8
0
 10
73.2453
 20
-29.8816
 11
72.9761
 21
-30.0434
  0
LINE
  8
0
 10
72.9761
 20
-30.0434
 11
72.7013
 21
-30.1957
  0
LINE
  8
0
 10
72.7013
 20
-30.1957
 11
72.4214
 21
-30.3383
  0
LINE
  8
0
 10
72.4214
 20
-30.3383
 11
72.1367
 21
-30.4711
  0
LINE
  8
0
 10
72.1367
 20
-30.4711
 11
71.8475
 21
-30.5939
  0
LINE
  8
0
 10
71.8475
 20
-30.5939
 11
71.5542
 21
-30.7064
  0
LINE
  8
0
 10
71.5542
 20
-30.7064
 11
71.2572
 21
-30.8087
  0
LINE
  8
0
 10
71.2572
 20
-30.8087
 11
70.9568
 21
-30.9006
  0
LINE
  8
0
 10
70.9568
 20
-30.9006
 11
70.6534
 21
-30.9819
  0
LINE
  8
0
 10
70.6534
 20
-30.9819
 11
70.3473
 21
-31.0525
  0
LINE
  8
0
 10
70.3473
 20
-31.0525
 11
70.0389
 21
-31.1125
  0
LINE
  8
0
 10
70.0389
 20
-31.1125
 11
69.7286
 21
-31.1616
  0
LINE
  8
0
 10
69.7286
 20
-31.1616
 11
69.4168
 21
-31.1999
  0
LINE
  8
0
 10
69.4168
 20
-31.1999
 11
69.1039
 21
-31.2273
  0
LINE
  8
0
 10
69.1039
 20
-31.2273
 11
68.7901
 21
-31.2437
  0
LINE
  8
0
 10
68.7901
 20
-31.2437
 11
68.4761
 21
-31.2492
  0
LINE
  8
0
 10
68.4761
 20
-31.2492
 11
68.162
 21
-31.2437
  0
LINE
  8
0
 10
86.4381
 20
-4.37981
 11
89.0345
 21
-3.53619
  0
LINE
  8
0
 10
89.0345
 20
-3.53619
 11
92.5758
 21
-14.4353
  0
LINE
  8
0
 10
92.5758
 20
-14.4353
 11
89.9794
 21
-15.2789
  0
LINE
  8
0
 10
89.9794
 20
-15.2789
 11
86.4381
 21
-4.37981
  0
LINE
  8
0
 10
-93.5541
 20
-5.12773
 11
-91.1898
 21
-3.76273
  0
LINE
  8
0
 10
-91.1898
 20
-3.76273
 11
-85.4598
 21
-13.6874
  0
LINE
  8
0
 10
-85.4598
 20
-13.6874
 11
-87.8241
 21
-15.0524
  0
LINE
  8
0
 10
-87.8241
 20
-15.0524
 11
-93.5541
 21
-5.12773
  0
LINE
  8
0
 10
-64.3095
 20
-41.6859
 11
-64.6235
 21
-41.675
  0
LINE
  8
0
 10
-64.6235
 20
-41.675
 11
-64.9369
 21
-41.6531
  0
LINE
  8
0
 10
-64.9369
 20
-41.6531
 11
-65.2493
 21
-41.6202
  0
LINE
  8
0
 10
-65.2493
 20
-41.6202
 11
-65.5604
 21
-41.5765
  0
LINE
  8
0
 10
-65.5604
 20
-41.5765
 11
-65.8697
 21
-41.5219
  0
LINE
  8
0
 10
-65.8697
 20
-41.5219
 11
-66.177
 21
-41.4566
  0
LINE
  8
0
 10
-66.177
 20
-41.4566
 11
-66.4818
 21
-41.3806
  0
LINE
  8
0
 10
-66.4818
 20
-41.3806
 11
-66.7838
 21
-41.294
  0
LINE
  8
0
 10
-66.7838
 20
-41.294
 11
-67.0826
 21
-41.197
  0
LINE
  8
0
 10
-67.0826
 20
-41.197
 11
-67.3778
 21
-41.0895
  0
LINE
  8
0
 10
-67.3778
 20
-41.0895
 11
-67.669
 21
-40.9718
  0
LINE
  8
0
 10
-67.669
 20
-40.9718
 11
-67.956
 21
-40.8441
  0
LINE
  8
0
 10
-67.956
 20
-40.8441
 11
-68.2384
 21
-40.7063
  0
LINE
  8
0
 10
-68.2384
 20
-40.7063
 11
-68.5157
 21
-40.5589
  0
LINE
  8
0
 10
-68.5157
 20
-40.5589
 11
-68.7878
 21
-40.4018
  0
LINE
  8
0
 10
-68.7878
 20
-40.4018
 11
-69.0542
 21
-40.2353
  0
LINE
  8
0
 10
-69.0542
 20
-40.2353
 11
-69.3147
 21
-40.0597
  0
LINE
  8
0
 10
-69.3147
 20
-40.0597
 11
-69.5688
 21
-39.875
  0
LINE
  8
0
 10
-69.5688
 20
-39.875
 11
-69.8163
 21
-39.6816
  0
LINE
  8
0
 10
-69.8163
 20
-39.6816
 11
-70.057
 21
-39.4797
  0
LINE
  8
0
 10
-70.057
 20
-39.4797
 11
-70.2905
 21
-39.2695
  0
LINE
  8
0
 10
-70.2905
 20
-39.2695
 11
-70.5164
 21
-39.0513
  0
LINE
  8
0
 10
-70.5164
 20
-39.0513
 11
-70.7346
 21
-38.8253
  0
LINE
  8
0
 10
-70.7346
 20
-38.8253
 11
-70.9448
 21
-38.5918
  0
LINE
  8
0
 10
-70.9448
 20
-38.5918
 11
-71.1468
 21
-38.3512
  0
LINE
  8
0
 10
-71.1468
 20
-38.3512
 11
-71.3402
 21
-38.1036
  0
LINE
  8
0
 10
-71.3402
 20
-38.1036
 11
-71.5248
 21
-37.8495
  0
LINE
  8
0
 10
-71.5248
 20
-37.8495
 11
-71.7005
 21
-37.5891
  0
LINE
  8
0
 10
-71.7005
 20
-37.5891
 11
-71.867
 21
-37.3226
  0
LINE
  8
0
 10
-71.867
 20
-37.3226
 11
-72.024
 21
-37.0506
  0
LINE
  8
0
 10
-72.024
 20
-37.0506
 11
-72.1715
 21
-36.7732
  0
LINE
  8
0
 10
-72.1715
 20
-36.7732
 11
-72.3092
 21
-36.4909
  0
LINE
  8
0
 10
-72.3092
 20
-36.4909
 11
-72.437
 21
-36.2039
  0
LINE
  8
0
 10
-72.437
 20
-36.2039
 11
-76.8207
 21
-25.6207
  0
LINE
  8
0
 10
-76.8207
 20
-25.6207
 11
-76.9333
 21
-25.3274
  0
LINE
  8
0
 10
-76.9333
 20
-25.3274
 11
-77.0356
 21
-25.0304
  0
LINE
  8
0
 10
-77.0356
 20
-25.0304
 11
-77.1274
 21
-24.7299
  0
LINE
  8
0
 10
-77.1274
 20
-24.7299
 11
-77.2087
 21
-24.4265
  0
LINE
  8
0
 10
-77.2087
 20
-24.4265
 11
-77.2794
 21
-24.1204
  0
LINE
  8
0
 10
-77.2794
 20
-24.1204
 11
-77.3393
 21
-23.8121
  0
LINE
  8
0
 10
-77.3393
 20
-23.8121
 11
-77.3885
 21
-23.5018
  0
LINE
  8
0
 10
-77.3885
 20
-23.5018
 11
-77.4267
 21
-23.19
  0
LINE
  8
0
 10
-77.4267
 20
-23.19
 11
-77.4541
 21
-22.877
  0
LINE
  8
0
 10
-77.4541
 20
-22.877
 11
-77.4706
 21
-22.5633
  0
LINE
  8
0
 10
-77.4706
 20
-22.5633
 11
-77.476
 21
-22.2492
  0
LINE
  8
0
 10
-77.476
 20
-22.2492
 11
-77.4706
 21
-21.9351
  0
LINE
  8
0
 10
-77.4706
 20
-21.9351
 11
-77.4541
 21
-21.6214
  0
LINE
  8
0
 10
-77.4541
 20
-21.6214
 11
-77.4268
 21
-21.3085
  0
LINE
  8
0
 10
-77.4268
 20
-21.3085
 11
-77.3885
 21
-20.9967
  0
LINE
  8
0
 10
-77.3885
 20
-20.9967
 11
-77.3393
 21
-20.6864
  0
LINE
  8
0
 10
-77.3393
 20
-20.6864
 11
-77.2794
 21
-20.378
  0
LINE
  8
0
 10
-77.2794
 20
-20.378
 11
-77.2087
 21
-20.0719
  0
LINE
  8
0
 10
-77.2087
 20
-20.0719
 11
-77.1274
 21
-19.7685
  0
LINE
  8
0
 10
-77.1274
 20
-19.7685
 11
-77.0356
 21
-19.4681
  0
LINE
  8
0
 10
-77.0356
 20
-19.4681
 11
-76.9333
 21
-19.1711
  0
LINE
  8
0
 10
-76.9333
 20
-19.1711
 11
-76.8207
 21
-18.8778
  0
LINE
  8
0
 10
-76.8207
 20
-18.8778
 11
-76.698
 21
-18.5886
  0
LINE
  8
0
 10
-76.698
 20
-18.5886
 11
-76.5652
 21
-18.3039
  0
LINE
  8
0
 10
-76.5652
 20
-18.3039
 11
-76.4226
 21
-18.024
  0
LINE
  8
0
 10
-76.4226
 20
-18.024
 11
-76.2703
 21
-17.7492
  0
LINE
  8
0
 10
-76.2703
 20
-17.7492
 11
-76.1085
 21
-17.4799
  0
LINE
  8
0
 10
-76.1085
 20
-17.4799
 11
-75.9374
 21
-17.2165
  0
LINE
  8
0
 10
-75.9374
 20
-17.2165
 11
-75.7572
 21
-16.9592
  0
LINE
  8
0
 10
-75.7572
 20
-16.9592
 11
-75.5681
 21
-16.7083
  0
LINE
  8
0
 10
-75.5681
 20
-16.7083
 11
-75.3705
 21
-16.4641
  0
LINE
  8
0
 10
-75.3705
 20
-16.4641
 11
-75.1644
 21
-16.2271
  0
LINE
  8
0
 10
-75.1644
 20
-16.2271
 11
-74.9501
 21
-15.9973
  0
LINE
  8
0
 10
-74.9501
 20
-15.9973
 11
-74.728
 21
-15.7752
  0
LINE
  8
0
 10
-74.728
 20
-15.7752
 11
-74.4982
 21
-15.5609
  0
LINE
  8
0
 10
-74.4982
 20
-15.5609
 11
-74.2611
 21
-15.3548
  0
LINE
  8
0
 10
-74.2611
 20
-15.3548
 11
-74.017
 21
-15.1571
  0
LINE
  8
0
 10
-74.017
 20
-15.1571
 11
-73.7661
 21
-14.9681
  0
LINE
  8
0
 10
-73.7661
 20
-14.9681
 11
-73.5088
 21
-14.7879
  0
LINE
  8
0
 10
-73.5088
 20
-14.7879
 11
-73.2453
 21
-14.6168
  0
LINE
  8
0
 10
-73.2453
 20
-14.6168
 11
-72.9761
 21
-14.455
  0
LINE
  8
0
 10
-72.9761
 20
-14.455
 11
-72.7013
 21
-14.3027
  0
LINE
  8
0
 10
-72.7013
 20
-14.3027
 11
-72.4214
 21
-14.1601
  0
LINE
  8
0
 10
-72.4214
 20
-14.1601
 11
-72.1367
 21
-14.0273
  0
LINE
  8
0
 10
-72.1367
 20
-14.0273
 11
-71.8475
 21
-13.9046
  0
LINE
  8
0
 10
-71.8475
 20
-13.9046
 11
-71.5542
 21
-13.792
  0
LINE
  8
0
 10
-71.5542
 20
-13.792
 11
-71.2572
 21
-13.6897
  0
LINE
  8
0
 10
-71.2572
 20
-13.6897
 11
-70.9568
 21
-13.5979
  0
LINE
  8
0
 10
-70.9568
 20
-13.5979
 11
-70.6534
 21
-13.5166
  0
LINE
  8
0
 10
-70.6534
 20
-13.5166
 11
-70.3473
 21
-13.4459
  0
LINE
  8
0
 10
-70.3473
 20
-13.4459
 11
-70.0389
 21
-13.386
  0
LINE
  8
0
 10
-70.0389
 20
-13.386
 11
-69.7286
 21
-13.3368
  0
LINE
  8
0
 10
-69.7286
 20
-13.3368
 11
-69.4168
 21
-13.2985
  0
LINE
  8
0
 10
-69.4168
 20
-13.2985
 11
-43.0068
 21
-10.9131
  0
LINE
  8
0
 10
-43.0068
 20
-10.9131
 11
-42.9022
 21
-10.9076
  0
LINE
  8
0
 10
-42.9022
 20
-10.9076
 11
-42.7975
 21
-10.9058
  0
LINE
  8
0
 10
-42.7975
 20
-10.9058
 11
-42.6928
 21
-10.9076
  0
LINE
  8
0
 10
-42.6928
 20
-10.9076
 11
-42.5883
 21
-10.9131
  0
LINE
  8
0
 10
-42.5883
 20
-10.9131
 11
-42.4839
 21
-10.9222
  0
LINE
  8
0
 10
-42.4839
 20
-10.9222
 11
-42.38
 21
-10.935
  0
LINE
  8
0
 10
-42.38
 20
-10.935
 11
-42.2766
 21
-10.9513
  0
LINE
  8
0
 10
-42.2766
 20
-10.9513
 11
-42.1738
 21
-10.9713
  0
LINE
  8
0
 10
-42.1738
 20
-10.9713
 11
-42.0718
 21
-10.9949
  0
LINE
  8
0
 10
-42.0718
 20
-10.9949
 11
-41.9706
 21
-11.022
  0
LINE
  8
0
 10
-41.9706
 20
-11.022
 11
-41.8705
 21
-11.0526
  0
LINE
  8
0
 10
-41.8705
 20
-11.0526
 11
-41.7715
 21
-11.0867
  0
LINE
  8
0
 10
-41.7715
 20
-11.0867
 11
-41.6737
 21
-11.1242
  0
LINE
  8
0
 10
-41.6737
 20
-11.1242
 11
-41.5773
 21
-11.1651
  0
LINE
  8
0
 10
-41.5773
 20
-11.1651
 11
-41.4824
 21
-11.2094
  0
LINE
  8
0
 10
-41.4824
 20
-11.2094
 11
-41.3891
 21
-11.2569
  0
LINE
  8
0
 10
-41.3891
 20
-11.2569
 11
-41.2975
 21
-11.3077
  0
LINE
  8
0
 10
-41.2975
 20
-11.3077
 11
-41.2078
 21
-11.3616
  0
LINE
  8
0
 10
-41.2078
 20
-11.3616
 11
-41.1199
 21
-11.4187
  0
LINE
  8
0
 10
-41.1199
 20
-11.4187
 11
-41.0342
 21
-11.4787
  0
LINE
  8
0
 10
-41.0342
 20
-11.4787
 11
-40.9505
 21
-11.5417
  0
LINE
  8
0
 10
-40.9505
 20
-11.5417
 11
-40.8692
 21
-11.6076
  0
LINE
  8
0
 10
-40.8692
 20
-11.6076
 11
-40.7901
 21
-11.6763
  0
LINE
  8
0
 10
-40.7901
 20
-11.6763
 11
-40.7135
 21
-11.7477
  0
LINE
  8
0
 10
-40.7135
 20
-11.7477
 11
-40.6395
 21
-11.8218
  0
LINE
  8
0
 10
-40.6395
 20
-11.8218
 11
-40.5681
 21
-11.8984
  0
LINE
  8
0
 10
-40.5681
 20
-11.8984
 11
-40.4994
 21
-11.9774
  0
LINE
  8
0
 10
-40.4994
 20
-11.9774
 11
-40.4335
 21
-12.0588
  0
LINE
  8
0
 10
-40.4335
 20
-12.0588
 11
-40.3705
 21
-12.1424
  0
LINE
  8
0
 10
-40.3705
 20
-12.1424
 11
-40.3104
 21
-12.2282
  0
LINE
  8
0
 10
-40.3104
 20
-12.2282
 11
-40.2534
 21
-12.316
  0
LINE
  8
0
 10
-40.2534
 20
-12.316
 11
-40.1994
 21
-12.4058
  0
LINE
  8
0
 10
-40.1994
 20
-12.4058
 11
-40.1487
 21
-12.4973
  0
LINE
  8
0
 10
-40.1487
 20
-12.4973
 11
-40.1012
 21
-12.5907
  0
LINE
  8
0
 10
-40.1012
 20
-12.5907
 11
-40.0569
 21
-12.6855
  0
LINE
  8
0
 10
-40.0569
 20
-12.6855
 11
-37.2945
 21
-19.3545
  0
LINE
  8
0
 10
-37.2945
 20
-19.3545
 11
-37.2587
 21
-19.4529
  0
LINE
  8
0
 10
-37.2587
 20
-19.4529
 11
-37.2264
 21
-19.5524
  0
LINE
  8
0
 10
-37.2264
 20
-19.5524
 11
-37.1975
 21
-19.6531
  0
LINE
  8
0
 10
-37.1975
 20
-19.6531
 11
-37.1722
 21
-19.7547
  0
LINE
  8
0
 10
-37.1722
 20
-19.7547
 11
-37.1504
 21
-19.8571
  0
LINE
  8
0
 10
-37.1504
 20
-19.8571
 11
-37.1322
 21
-19.9603
  0
LINE
  8
0
 10
-37.1322
 20
-19.9603
 11
-37.1176
 21
-20.0639
  0
LINE
  8
0
 10
-37.1176
 20
-20.0639
 11
-37.1067
 21
-20.1681
  0
LINE
  8
0
 10
-37.1067
 20
-20.1681
 11
-37.0994
 21
-20.2725
  0
LINE
  8
0
 10
-37.0994
 20
-20.2725
 11
-37.0957
 21
-20.3772
  0
LINE
  8
0
 10
-37.0957
 20
-20.3772
 11
-37.0957
 21
-20.4819
  0
LINE
  8
0
 10
-37.0957
 20
-20.4819
 11
-37.0994
 21
-20.5866
  0
LINE
  8
0
 10
-37.0994
 20
-20.5866
 11
-37.1067
 21
-20.691
  0
LINE
  8
0
 10
-37.1067
 20
-20.691
 11
-37.1176
 21
-20.7952
  0
LINE
  8
0
 10
-37.1176
 20
-20.7952
 11
-37.1322
 21
-20.8989
  0
LINE
  8
0
 10
-37.1322
 20
-20.8989
 11
-37.1504
 21
-21.002
  0
LINE
  8
0
 10
-37.1504
 20
-21.002
 11
-37.1722
 21
-21.1044
  0
LINE
  8
0
 10
-37.1722
 20
-21.1044
 11
-37.1975
 21
-21.206
  0
LINE
  8
0
 10
-37.1975
 20
-21.206
 11
-37.2264
 21
-21.3067
  0
LINE
  8
0
 10
-37.2264
 20
-21.3067
 11
-37.2587
 21
-21.4062
  0
LINE
  8
0
 10
-37.2587
 20
-21.4062
 11
-37.2945
 21
-21.5047
  0
LINE
  8
0
 10
-37.2945
 20
-21.5047
 11
-37.3338
 21
-21.6017
  0
LINE
  8
0
 10
-37.3338
 20
-21.6017
 11
-37.3764
 21
-21.6974
  0
LINE
  8
0
 10
-37.3764
 20
-21.6974
 11
-37.4223
 21
-21.7915
  0
LINE
  8
0
 10
-37.4223
 20
-21.7915
 11
-37.4714
 21
-21.884
  0
LINE
  8
0
 10
-37.4714
 20
-21.884
 11
-37.5238
 21
-21.9747
  0
LINE
  8
0
 10
-37.5238
 20
-21.9747
 11
-37.5793
 21
-22.0635
  0
LINE
  8
0
 10
-37.5793
 20
-22.0635
 11
-37.6378
 21
-22.1503
  0
LINE
  8
0
 10
-37.6378
 20
-22.1503
 11
-37.6994
 21
-22.235
  0
LINE
  8
0
 10
-37.6994
 20
-22.235
 11
-37.7638
 21
-22.3175
  0
LINE
  8
0
 10
-37.7638
 20
-22.3175
 11
-37.8312
 21
-22.3977
  0
LINE
  8
0
 10
-37.8312
 20
-22.3977
 11
-37.9012
 21
-22.4756
  0
LINE
  8
0
 10
-37.9012
 20
-22.4756
 11
-37.974
 21
-22.5509
  0
LINE
  8
0
 10
-37.974
 20
-22.5509
 11
-38.0493
 21
-22.6236
  0
LINE
  8
0
 10
-38.0493
 20
-22.6236
 11
-38.1271
 21
-22.6937
  0
LINE
  8
0
 10
-38.1271
 20
-22.6937
 11
-58.4886
 21
-39.6816
  0
LINE
  8
0
 10
-58.4886
 20
-39.6816
 11
-58.7361
 21
-39.875
  0
LINE
  8
0
 10
-58.7361
 20
-39.875
 11
-58.9903
 21
-40.0597
  0
LINE
  8
0
 10
-58.9903
 20
-40.0597
 11
-59.2507
 21
-40.2353
  0
LINE
  8
0
 10
-59.2507
 20
-40.2353
 11
-59.5171
 21
-40.4018
  0
LINE
  8
0
 10
-59.5171
 20
-40.4018
 11
-59.7892
 21
-40.5589
  0
LINE
  8
0
 10
-59.7892
 20
-40.5589
 11
-60.0665
 21
-40.7064
  0
LINE
  8
0
 10
-60.0665
 20
-40.7064
 11
-60.3489
 21
-40.8441
  0
LINE
  8
0
 10
-60.3489
 20
-40.8441
 11
-60.6359
 21
-40.9718
  0
LINE
  8
0
 10
-60.6359
 20
-40.9718
 11
-60.9272
 21
-41.0895
  0
LINE
  8
0
 10
-60.9272
 20
-41.0895
 11
-61.2224
 21
-41.197
  0
LINE
  8
0
 10
-61.2224
 20
-41.197
 11
-61.5211
 21
-41.294
  0
LINE
  8
0
 10
-61.5211
 20
-41.294
 11
-61.8231
 21
-41.3806
  0
LINE
  8
0
 10
-61.8231
 20
-41.3806
 11
-62.1279
 21
-41.4566
  0
LINE
  8
0
 10
-62.1279
 20
-41.4566
 11
-62.4352
 21
-41.5219
  0
LINE
  8
0
 10
-62.4352
 20
-41.5219
 11
-62.7446
 21
-41.5765
  0
LINE
  8
0
 10
-62.7446
 20
-41.5765
 11
-63.0556
 21
-41.6202
  0
LINE
  8
0
 10
-63.0556
 20
-41.6202
 11
-63.368
 21
-41.653
  0
LINE
  8
0
 10
-63.368
 20
-41.653
 11
-63.6814
 21
-41.675
  0
LINE
  8
0
 10
-63.6814
 20
-41.675
 11
-63.9954
 21
-41.6859
  0
LINE
  8
0
 10
-63.9954
 20
-41.6859
 11
-64.3095
 21
-41.6859
  0
LINE
  8
0
 10
85.5068
 20
-13.3911
 11
88.1771
 21
-12.8235
  0
LINE
  8
0
 10
88.1771
 20
-12.8235
 11
90.5598
 21
-24.033
  0
LINE
  8
0
 10
90.5598
 20
-24.033
 11
87.8894
 21
-24.6006
  0
LINE
  8
0
 10
87.8894
 20
-24.6006
 11
85.5068
 21
-13.3911
  0
LINE
  8
0
 10
-92.5056
 20
-14.8787
 11
-90.297
 21
-13.274
  0
LINE
  8
0
 10
-90.297
 20
-13.274
 11
-83.561
 21
-22.5454
  0
LINE
  8
0
 10
-83.561
 20
-22.5454
 11
-85.7696
 21
-24.15
  0
LINE
  8
0
 10
-85.7696
 20
-24.15
 11
-92.5056
 21
-14.8787
  0
LINE
  8
0
 10
83.6386
 20
-22.2556
 11
86.3537
 21
-21.9702
  0
LINE
  8
0
 10
86.3537
 20
-21.9702
 11
87.5515
 21
-33.3674
  0
LINE
  8
0
 10
87.5515
 20
-33.3674
 11
84.8365
 21
-33.6528
  0
LINE
  8
0
 10
84.8365
 20
-33.6528
 11
83.6386
 21
-22.2556
  0
LINE
  8
0
 10
-90.4436
 20
-24.4667
 11
-88.4148
 21
-22.6399
  0
LINE
  8
0
 10
-88.4148
 20
-22.6399
 11
-80.7466
 21
-31.1564
  0
LINE
  8
0
 10
-80.7466
 20
-31.1564
 11
-82.7754
 21
-32.9831
  0
LINE
  8
0
 10
-82.7754
 20
-32.9831
 11
-90.4436
 21
-24.4667
  0
LINE
  8
0
 10
42.0064
 20
-67.2437
 11
41.6927
 21
-67.2273
  0
LINE
  8
0
 10
41.6927
 20
-67.2273
 11
41.3798
 21
-67.1999
  0
LINE
  8
0
 10
41.3798
 20
-67.1999
 11
41.068
 21
-67.1616
  0
LINE
  8
0
 10
41.068
 20
-67.1616
 11
40.7577
 21
-67.1125
  0
LINE
  8
0
 10
40.7577
 20
-67.1125
 11
40.4493
 21
-67.0525
  0
LINE
  8
0
 10
40.4493
 20
-67.0525
 11
40.1432
 21
-66.9819
  0
LINE
  8
0
 10
40.1432
 20
-66.9819
 11
39.8398
 21
-66.9006
  0
LINE
  8
0
 10
39.8398
 20
-66.9006
 11
39.5394
 21
-66.8087
  0
LINE
  8
0
 10
39.5394
 20
-66.8087
 11
39.2424
 21
-66.7064
  0
LINE
  8
0
 10
39.2424
 20
-66.7064
 11
38.9491
 21
-66.5939
  0
LINE
  8
0
 10
38.9491
 20
-66.5939
 11
38.6599
 21
-66.4711
  0
LINE
  8
0
 10
38.6599
 20
-66.4711
 11
38.3752
 21
-66.3383
  0
LINE
  8
0
 10
38.3752
 20
-66.3383
 11
38.0953
 21
-66.1957
  0
LINE
  8
0
 10
38.0953
 20
-66.1957
 11
37.8205
 21
-66.0434
  0
LINE
  8
0
 10
37.8205
 20
-66.0434
 11
37.5513
 21
-65.8816
  0
LINE
  8
0
 10
37.5513
 20
-65.8816
 11
37.2878
 21
-65.7105
  0
LINE
  8
0
 10
37.2878
 20
-65.7105
 11
37.0305
 21
-65.5303
  0
LINE
  8
0
 10
37.0305
 20
-65.5303
 11
36.7796
 21
-65.3413
  0
LINE
  8
0
 10
36.7796
 20
-65.3413
 11
36.5354
 21
-65.1436
  0
LINE
  8
0
 10
36.5354
 20
-65.1436
 11
36.2984
 21
-64.9375
  0
LINE
  8
0
 10
36.2984
 20
-64.9375
 11
36.0686
 21
-64.7233
  0
LINE
  8
0
 10
36.0686
 20
-64.7233
 11
35.8465
 21
-64.5011
  0
LINE
  8
0
 10
35.8465
 20
-64.5011
 11
35.6322
 21
-64.2714
  0
LINE
  8
0
 10
35.6322
 20
-64.2714
 11
35.4261
 21
-64.0343
  0
LINE
  8
0
 10
35.4261
 20
-64.0343
 11
35.2284
 21
-63.7902
  0
LINE
  8
0
 10
35.2284
 20
-63.7902
 11
35.0394
 21
-63.5393
  0
LINE
  8
0
 10
35.0394
 20
-63.5393
 11
34.8592
 21
-63.2819
  0
LINE
  8
0
 10
34.8592
 20
-63.2819
 11
34.6881
 21
-63.0185
  0
LINE
  8
0
 10
34.6881
 20
-63.0185
 11
34.5263
 21
-62.7492
  0
LINE
  8
0
 10
34.5263
 20
-62.7492
 11
34.374
 21
-62.4744
  0
LINE
  8
0
 10
34.374
 20
-62.4744
 11
34.2314
 21
-62.1945
  0
LINE
  8
0
 10
34.2314
 20
-62.1945
 11
34.0986
 21
-61.9098
  0
LINE
  8
0
 10
34.0986
 20
-61.9098
 11
23.6688
 21
-37.5296
  0
LINE
  8
0
 10
23.6688
 20
-37.5296
 11
23.6313
 21
-37.4318
  0
LINE
  8
0
 10
23.6313
 20
-37.4318
 11
23.5972
 21
-37.3328
  0
LINE
  8
0
 10
23.5972
 20
-37.3328
 11
23.5665
 21
-37.2327
  0
LINE
  8
0
 10
23.5665
 20
-37.2327
 11
23.5394
 21
-37.1315
  0
LINE
  8
0
 10
23.5394
 20
-37.1315
 11
23.5159
 21
-37.0295
  0
LINE
  8
0
 10
23.5159
 20
-37.0295
 11
23.4959
 21
-36.9267
  0
LINE
  8
0
 10
23.4959
 20
-36.9267
 11
23.4795
 21
-36.8233
  0
LINE
  8
0
 10
23.4795
 20
-36.8233
 11
23.4668
 21
-36.7193
  0
LINE
  8
0
 10
23.4668
 20
-36.7193
 11
23.4576
 21
-36.615
  0
LINE
  8
0
 10
23.4576
 20
-36.615
 11
23.4522
 21
-36.5105
  0
LINE
  8
0
 10
23.4522
 20
-36.5105
 11
23.4503
 21
-36.4057
  0
LINE
  8
0
 10
23.4503
 20
-36.4057
 11
23.4522
 21
-36.3011
  0
LINE
  8
0
 10
23.4522
 20
-36.3011
 11
23.4576
 21
-36.1965
  0
LINE
  8
0
 10
23.4576
 20
-36.1965
 11
23.4668
 21
-36.0922
  0
LINE
  8
0
 10
23.4668
 20
-36.0922
 11
23.4795
 21
-35.9882
  0
LINE
  8
0
 10
23.4795
 20
-35.9882
 11
23.4959
 21
-35.8848
  0
LINE
  8
0
 10
23.4959
 20
-35.8848
 11
23.5159
 21
-35.782
  0
LINE
  8
0
 10
23.5159
 20
-35.782
 11
23.5394
 21
-35.68
  0
LINE
  8
0
 10
23.5394
 20
-35.68
 11
23.5665
 21
-35.5788
  0
LINE
  8
0
 10
23.5665
 20
-35.5788
 11
23.5972
 21
-35.4787
  0
LINE
  8
0
 10
23.5972
 20
-35.4787
 11
23.6313
 21
-35.3797
  0
LINE
  8
0
 10
23.6313
 20
-35.3797
 11
23.6688
 21
-35.2819
  0
LINE
  8
0
 10
23.6688
 20
-35.2819
 11
23.7097
 21
-35.1855
  0
LINE
  8
0
 10
23.7097
 20
-35.1855
 11
23.754
 21
-35.0906
  0
LINE
  8
0
 10
23.754
 20
-35.0906
 11
23.8015
 21
-34.9973
  0
LINE
  8
0
 10
23.8015
 20
-34.9973
 11
23.8522
 21
-34.9057
  0
LINE
  8
0
 10
23.8522
 20
-34.9057
 11
23.9062
 21
-34.816
  0
LINE
  8
0
 10
23.9062
 20
-34.816
 11
23.9632
 21
-34.7282
  0
LINE
  8
0
 10
23.9632
 20
-34.7282
 11
24.0233
 21
-34.6424
  0
LINE
  8
0
 10
24.0233
 20
-34.6424
 11
24.0863
 21
-34.5588
  0
LINE
  8
0
 10
24.0863
 20
-34.5588
 11
24.1522
 21
-34.4774
  0
LINE
  8
0
 10
24.1522
 20
-34.4774
 11
24.2209
 21
-34.3984
  0
LINE
  8
0
 10
24.2209
 20
-34.3984
 11
24.2923
 21
-34.3218
  0
LINE
  8
0
 10
24.2923
 20
-34.3218
 11
24.3664
 21
-34.2477
  0
LINE
  8
0
 10
24.3664
 20
-34.2477
 11
24.4429
 21
-34.1763
  0
LINE
  8
0
 10
24.4429
 20
-34.1763
 11
29.9318
 21
-29.4884
  0
LINE
  8
0
 10
29.9318
 20
-29.4884
 11
30.0143
 21
-29.4239
  0
LINE
  8
0
 10
30.0143
 20
-29.4239
 11
30.099
 21
-29.3623
  0
LINE
  8
0
 10
30.099
 20
-29.3623
 11
30.1859
 21
-29.3038
  0
LINE
  8
0
 10
30.1859
 20
-29.3038
 11
30.2747
 21
-29.2483
  0
LINE
  8
0
 10
30.2747
 20
-29.2483
 11
30.3654
 21
-29.1959
  0
LINE
  8
0
 10
30.3654
 20
-29.1959
 11
30.4578
 21
-29.1468
  0
LINE
  8
0
 10
30.4578
 20
-29.1468
 11
30.5519
 21
-29.1009
  0
LINE
  8
0
 10
30.5519
 20
-29.1009
 11
30.6476
 21
-29.0583
  0
LINE
  8
0
 10
30.6476
 20
-29.0583
 11
30.7447
 21
-29.0191
  0
LINE
  8
0
 10
30.7447
 20
-29.0191
 11
30.8431
 21
-28.9832
  0
LINE
  8
0
 10
30.8431
 20
-28.9832
 11
30.9427
 21
-28.9509
  0
LINE
  8
0
 10
30.9427
 20
-28.9509
 11
31.0433
 21
-28.922
  0
LINE
  8
0
 10
31.0433
 20
-28.922
 11
31.1449
 21
-28.8967
  0
LINE
  8
0
 10
31.1449
 20
-28.8967
 11
31.2474
 21
-28.8749
  0
LINE
  8
0
 10
31.2474
 20
-28.8749
 11
31.3505
 21
-28.8567
  0
LINE
  8
0
 10
31.3505
 20
-28.8567
 11
31.4542
 21
-28.8422
  0
LINE
  8
0
 10
31.4542
 20
-28.8422
 11
31.5583
 21
-28.8312
  0
LINE
  8
0
 10
31.5583
 20
-28.8312
 11
31.6628
 21
-28.8239
  0
LINE
  8
0
 10
31.6628
 20
-28.8239
 11
31.7674
 21
-28.8203
  0
LINE
  8
0
 10
31.7674
 20
-28.8203
 11
31.8721
 21
-28.8203
  0
LINE
  8
0
 10
31.8721
 20
-28.8203
 11
31.9768
 21
-28.8239
  0
LINE
  8
0
 10
31.9768
 20
-28.8239
 11
32.0813
 21
-28.8312
  0
LINE
  8
0
 10
32.0813
 20
-28.8312
 11
32.1854
 21
-28.8422
  0
LINE
  8
0
 10
32.1854
 20
-28.8422
 11
32.2891
 21
-28.8567
  0
LINE
  8
0
 10
32.2891
 20
-28.8567
 11
32.3922
 21
-28.8749
  0
LINE
  8
0
 10
32.3922
 20
-28.8749
 11
32.4946
 21
-28.8967
  0
LINE
  8
0
 10
32.4946
 20
-28.8967
 11
32.5963
 21
-28.922
  0
LINE
  8
0
 10
32.5963
 20
-28.922
 11
32.6969
 21
-28.9509
  0
LINE
  8
0
 10
32.6969
 20
-28.9509
 11
32.7965
 21
-28.9832
  0
LINE
  8
0
 10
32.7965
 20
-28.9832
 11
32.8949
 21
-29.0191
  0
LINE
  8
0
 10
32.8949
 20
-29.0191
 11
32.992
 21
-29.0583
  0
LINE
  8
0
 10
32.992
 20
-29.0583
 11
33.0876
 21
-29.1009
  0
LINE
  8
0
 10
33.0876
 20
-29.1009
 11
33.1818
 21
-29.1468
  0
LINE
  8
0
 10
33.1818
 20
-29.1468
 11
33.2742
 21
-29.1959
  0
LINE
  8
0
 10
33.2742
 20
-29.1959
 11
33.3649
 21
-29.2483
  0
LINE
  8
0
 10
33.3649
 20
-29.2483
 11
55.8134
 21
-43.3636
  0
LINE
  8
0
 10
55.8134
 20
-43.3636
 11
56.0739
 21
-43.5393
  0
LINE
  8
0
 10
56.0739
 20
-43.5393
 11
56.328
 21
-43.724
  0
LINE
  8
0
 10
56.328
 20
-43.724
 11
56.5755
 21
-43.9174
  0
LINE
  8
0
 10
56.5755
 20
-43.9174
 11
56.8162
 21
-44.1193
  0
LINE
  8
0
 10
56.8162
 20
-44.1193
 11
57.0497
 21
-44.3295
  0
LINE
  8
0
 10
57.0497
 20
-44.3295
 11
57.2756
 21
-44.5477
  0
LINE
  8
0
 10
57.2756
 20
-44.5477
 11
57.4939
 21
-44.7737
  0
LINE
  8
0
 10
57.4939
 20
-44.7737
 11
57.7041
 21
-45.0072
  0
LINE
  8
0
 10
57.7041
 20
-45.0072
 11
57.906
 21
-45.2478
  0
LINE
  8
0
 10
57.906
 20
-45.2478
 11
58.0994
 21
-45.4953
  0
LINE
  8
0
 10
58.0994
 20
-45.4953
 11
58.284
 21
-45.7495
  0
LINE
  8
0
 10
58.284
 20
-45.7495
 11
58.4597
 21
-46.0099
  0
LINE
  8
0
 10
58.4597
 20
-46.0099
 11
58.6262
 21
-46.2763
  0
LINE
  8
0
 10
58.6262
 20
-46.2763
 11
58.7832
 21
-46.5484
  0
LINE
  8
0
 10
58.7832
 20
-46.5484
 11
58.9307
 21
-46.8258
  0
LINE
  8
0
 10
58.9307
 20
-46.8258
 11
59.0684
 21
-47.1081
  0
LINE
  8
0
 10
59.0684
 20
-47.1081
 11
59.1962
 21
-47.3951
  0
LINE
  8
0
 10
59.1962
 20
-47.3951
 11
59.3139
 21
-47.6864
  0
LINE
  8
0
 10
59.3139
 20
-47.6864
 11
59.4213
 21
-47.9816
  0
LINE
  8
0
 10
59.4213
 20
-47.9816
 11
59.5184
 21
-48.2803
  0
LINE
  8
0
 10
59.5184
 20
-48.2803
 11
59.605
 21
-48.5823
  0
LINE
  8
0
 10
59.605
 20
-48.5823
 11
59.681
 21
-48.8871
  0
LINE
  8
0
 10
59.681
 20
-48.8871
 11
59.7463
 21
-49.1944
  0
LINE
  8
0
 10
59.7463
 20
-49.1944
 11
59.8009
 21
-49.5038
  0
LINE
  8
0
 10
59.8009
 20
-49.5038
 11
59.8446
 21
-49.8148
  0
LINE
  8
0
 10
59.8446
 20
-49.8148
 11
59.8774
 21
-50.1273
  0
LINE
  8
0
 10
59.8774
 20
-50.1273
 11
59.8993
 21
-50.4407
  0
LINE
  8
0
 10
59.8993
 20
-50.4407
 11
59.9103
 21
-50.7546
  0
LINE
  8
0
 10
59.9103
 20
-50.7546
 11
59.9103
 21
-51.0687
  0
LINE
  8
0
 10
59.9103
 20
-51.0687
 11
59.8993
 21
-51.3827
  0
LINE
  8
0
 10
59.8993
 20
-51.3827
 11
59.8774
 21
-51.6961
  0
LINE
  8
0
 10
59.8774
 20
-51.6961
 11
59.8446
 21
-52.0085
  0
LINE
  8
0
 10
59.8446
 20
-52.0085
 11
59.8009
 21
-52.3196
  0
LINE
  8
0
 10
59.8009
 20
-52.3196
 11
59.7463
 21
-52.629
  0
LINE
  8
0
 10
59.7463
 20
-52.629
 11
59.681
 21
-52.9362
  0
LINE
  8
0
 10
59.681
 20
-52.9362
 11
59.605
 21
-53.2411
  0
LINE
  8
0
 10
59.605
 20
-53.2411
 11
59.5184
 21
-53.543
  0
LINE
  8
0
 10
59.5184
 20
-53.543
 11
59.4213
 21
-53.8418
  0
LINE
  8
0
 10
59.4213
 20
-53.8418
 11
59.3139
 21
-54.137
  0
LINE
  8
0
 10
59.3139
 20
-54.137
 11
59.1962
 21
-54.4283
  0
LINE
  8
0
 10
59.1962
 20
-54.4283
 11
59.0684
 21
-54.7153
  0
LINE
  8
0
 10
59.0684
 20
-54.7153
 11
58.9307
 21
-54.9976
  0
LINE
  8
0
 10
58.9307
 20
-54.9976
 11
58.7832
 21
-55.275
  0
LINE
  8
0
 10
58.7832
 20
-55.275
 11
58.6262
 21
-55.547
  0
LINE
  8
0
 10
58.6262
 20
-55.547
 11
58.4597
 21
-55.8134
  0
LINE
  8
0
 10
58.4597
 20
-55.8134
 11
58.284
 21
-56.0739
  0
LINE
  8
0
 10
58.284
 20
-56.0739
 11
58.0994
 21
-56.328
  0
LINE
  8
0
 10
58.0994
 20
-56.328
 11
57.906
 21
-56.5756
  0
LINE
  8
0
 10
57.906
 20
-56.5756
 11
57.7041
 21
-56.8162
  0
LINE
  8
0
 10
57.7041
 20
-56.8162
 11
57.4939
 21
-57.0497
  0
LINE
  8
0
 10
57.4939
 20
-57.0497
 11
57.2756
 21
-57.2756
  0
LINE
  8
0
 10
57.2756
 20
-57.2756
 11
57.0497
 21
-57.4939
  0
LINE
  8
0
 10
57.0497
 20
-57.4939
 11
56.8162
 21
-57.7041
  0
LINE
  8
0
 10
56.8162
 20
-57.7041
 11
48.1056
 21
-65.1436
  0
LINE
  8
0
 10
48.1056
 20
-65.1436
 11
47.8615
 21
-65.3413
  0
LINE
  8
0
 10
47.8615
 20
-65.3413
 11
47.6106
 21
-65.5304
  0
LINE
  8
0
 10
47.6106
 20
-65.5304
 11
47.3533
 21
-65.7105
  0
LINE
  8
0
 10
47.3533
 20
-65.7105
 11
47.0898
 21
-65.8817
  0
LINE
  8
0
 10
47.0898
 20
-65.8817
 11
46.8205
 21
-66.0434
  0
LINE
  8
0
 10
46.8205
 20
-66.0434
 11
46.5458
 21
-66.1957
  0
LINE
  8
0
 10
46.5458
 20
-66.1957
 11
46.2659
 21
-66.3383
  0
LINE
  8
0
 10
46.2659
 20
-66.3383
 11
45.9812
 21
-66.4711
  0
LINE
  8
0
 10
45.9812
 20
-66.4711
 11
45.692
 21
-66.5939
  0
LINE
  8
0
 10
45.692
 20
-66.5939
 11
45.3987
 21
-66.7064
  0
LINE
  8
0
 10
45.3987
 20
-66.7064
 11
45.1017
 21
-66.8087
  0
LINE
  8
0
 10
45.1017
 20
-66.8087
 11
44.8013
 21
-66.9006
  0
LINE
  8
0
 10
44.8013
 20
-66.9006
 11
44.4978
 21
-66.9819
  0
LINE
  8
0
 10
44.4978
 20
-66.9819
 11
44.1917
 21
-67.0525
  0
LINE
  8
0
 10
44.1917
 20
-67.0525
 11
43.8834
 21
-67.1125
  0
LINE
  8
0
 10
43.8834
 20
-67.1125
 11
43.5731
 21
-67.1616
  0
LINE
  8
0
 10
43.5731
 20
-67.1616
 11
43.2613
 21
-67.1999
  0
LINE
  8
0
 10
43.2613
 20
-67.1999
 11
42.9483
 21
-67.2273
  0
LINE
  8
0
 10
42.9483
 20
-67.2273
 11
42.6346
 21
-67.2437
  0
LINE
  8
0
 10
42.6346
 20
-67.2437
 11
42.3205
 21
-67.2492
  0
LINE
  8
0
 10
42.3205
 20
-67.2492
 11
42.0064
 21
-67.2437
  0
LINE
  8
0
 10
80.8541
 20
-42.3363
 11
80.8541
 21
-30.8763
  0
LINE
  8
0
 10
80.8541
 20
-30.8763
 11
83.5841
 21
-30.8763
  0
LINE
  8
0
 10
83.5841
 20
-30.8763
 11
83.5841
 21
-42.3363
  0
LINE
  8
0
 10
83.5841
 20
-42.3363
 11
80.8541
 21
-42.3363
  0
LINE
  8
0
 10
-87.3907
 20
-33.7866
 11
-85.5639
 21
-31.7578
  0
LINE
  8
0
 10
-85.5639
 20
-31.7578
 11
-77.0475
 21
-39.426
  0
LINE
  8
0
 10
-77.0475
 20
-39.426
 11
-78.8742
 21
-41.4548
  0
LINE
  8
0
 10
-78.8742
 20
-41.4548
 11
-87.3907
 21
-33.7866
  0
LINE
  8
0
 10
-32.8444
 20
-73.1511
 11
-33.1583
 21
-73.1401
  0
LINE
  8
0
 10
-33.1583
 20
-73.1401
 11
-33.4717
 21
-73.1182
  0
LINE
  8
0
 10
-33.4717
 20
-73.1182
 11
-33.7841
 21
-73.0854
  0
LINE
  8
0
 10
-33.7841
 20
-73.0854
 11
-34.0952
 21
-73.0416
  0
LINE
  8
0
 10
-34.0952
 20
-73.0416
 11
-34.4046
 21
-72.9871
  0
LINE
  8
0
 10
-34.4046
 20
-72.9871
 11
-34.7119
 21
-72.9218
  0
LINE
  8
0
 10
-34.7119
 20
-72.9218
 11
-35.0167
 21
-72.8458
  0
LINE
  8
0
 10
-35.0167
 20
-72.8458
 11
-35.3187
 21
-72.7592
  0
LINE
  8
0
 10
-35.3187
 20
-72.7592
 11
-35.6174
 21
-72.6621
  0
LINE
  8
0
 10
-35.6174
 20
-72.6621
 11
-35.9126
 21
-72.5547
  0
LINE
  8
0
 10
-35.9126
 20
-72.5547
 11
-36.2039
 21
-72.437
  0
LINE
  8
0
 10
-36.2039
 20
-72.437
 11
-36.4909
 21
-72.3092
  0
LINE
  8
0
 10
-36.4909
 20
-72.3092
 11
-36.7732
 21
-72.1715
  0
LINE
  8
0
 10
-36.7732
 20
-72.1715
 11
-37.0506
 21
-72.024
  0
LINE
  8
0
 10
-37.0506
 20
-72.024
 11
-37.3226
 21
-71.867
  0
LINE
  8
0
 10
-37.3226
 20
-71.867
 11
-47.0898
 21
-65.8817
  0
LINE
  8
0
 10
-47.0898
 20
-65.8817
 11
-47.3533
 21
-65.7105
  0
LINE
  8
0
 10
-47.3533
 20
-65.7105
 11
-47.6106
 21
-65.5304
  0
LINE
  8
0
 10
-47.6106
 20
-65.5304
 11
-47.8615
 21
-65.3413
  0
LINE
  8
0
 10
-47.8615
 20
-65.3413
 11
-48.1056
 21
-65.1436
  0
LINE
  8
0
 10
-48.1056
 20
-65.1436
 11
-48.3427
 21
-64.9375
  0
LINE
  8
0
 10
-48.3427
 20
-64.9375
 11
-48.5724
 21
-64.7233
  0
LINE
  8
0
 10
-48.5724
 20
-64.7233
 11
-48.7946
 21
-64.5011
  0
LINE
  8
0
 10
-48.7946
 20
-64.5011
 11
-49.0088
 21
-64.2714
  0
LINE
  8
0
 10
-49.0088
 20
-64.2714
 11
-49.2149
 21
-64.0343
  0
LINE
  8
0
 10
-49.2149
 20
-64.0343
 11
-49.4126
 21
-63.7902
  0
LINE
  8
0
 10
-49.4126
 20
-63.7902
 11
-49.6017
 21
-63.5393
  0
LINE
  8
0
 10
-49.6017
 20
-63.5393
 11
-49.7819
 21
-63.282
  0
LINE
  8
0
 10
-49.7819
 20
-63.282
 11
-49.9529
 21
-63.0185
  0
LINE
  8
0
 10
-49.9529
 20
-63.0185
 11
-50.1148
 21
-62.7492
  0
LINE
  8
0
 10
-50.1148
 20
-62.7492
 11
-50.267
 21
-62.4745
  0
LINE
  8
0
 10
-50.267
 20
-62.4745
 11
-50.4097
 21
-62.1945
  0
LINE
  8
0
 10
-50.4097
 20
-62.1945
 11
-50.5424
 21
-61.9098
  0
LINE
  8
0
 10
-50.5424
 20
-61.9098
 11
-50.6652
 21
-61.6207
  0
LINE
  8
0
 10
-50.6652
 20
-61.6207
 11
-50.7778
 21
-61.3274
  0
LINE
  8
0
 10
-50.7778
 20
-61.3274
 11
-50.88
 21
-61.0304
  0
LINE
  8
0
 10
-50.88
 20
-61.0304
 11
-50.9719
 21
-60.7299
  0
LINE
  8
0
 10
-50.9719
 20
-60.7299
 11
-51.0532
 21
-60.4265
  0
LINE
  8
0
 10
-51.0532
 20
-60.4265
 11
-51.1239
 21
-60.1204
  0
LINE
  8
0
 10
-51.1239
 20
-60.1204
 11
-51.1838
 21
-59.812
  0
LINE
  8
0
 10
-51.1838
 20
-59.812
 11
-51.2329
 21
-59.5018
  0
LINE
  8
0
 10
-51.2329
 20
-59.5018
 11
-51.2712
 21
-59.19
  0
LINE
  8
0
 10
-51.2712
 20
-59.19
 11
-51.2986
 21
-58.877
  0
LINE
  8
0
 10
-51.2986
 20
-58.877
 11
-51.315
 21
-58.5633
  0
LINE
  8
0
 10
-51.315
 20
-58.5633
 11
-51.3205
 21
-58.2492
  0
LINE
  8
0
 10
-51.3205
 20
-58.2492
 11
-51.315
 21
-57.9351
  0
LINE
  8
0
 10
-51.315
 20
-57.9351
 11
-51.2986
 21
-57.6214
  0
LINE
  8
0
 10
-51.2986
 20
-57.6214
 11
-51.2712
 21
-57.3085
  0
LINE
  8
0
 10
-51.2712
 20
-57.3085
 11
-51.2329
 21
-56.9967
  0
LINE
  8
0
 10
-51.2329
 20
-56.9967
 11
-51.1838
 21
-56.6864
  0
LINE
  8
0
 10
-51.1838
 20
-56.6864
 11
-51.1239
 21
-56.378
  0
LINE
  8
0
 10
-51.1239
 20
-56.378
 11
-51.0532
 21
-56.0719
  0
LINE
  8
0
 10
-51.0532
 20
-56.0719
 11
-50.9719
 21
-55.7685
  0
LINE
  8
0
 10
-50.9719
 20
-55.7685
 11
-50.88
 21
-55.4681
  0
LINE
  8
0
 10
-50.88
 20
-55.4681
 11
-50.7778
 21
-55.171
  0
LINE
  8
0
 10
-50.7778
 20
-55.171
 11
-50.6652
 21
-54.8778
  0
LINE
  8
0
 10
-50.6652
 20
-54.8778
 11
-50.5424
 21
-54.5886
  0
LINE
  8
0
 10
-50.5424
 20
-54.5886
 11
-50.4097
 21
-54.3039
  0
LINE
  8
0
 10
-50.4097
 20
-54.3039
 11
-50.267
 21
-54.024
  0
LINE
  8
0
 10
-50.267
 20
-54.024
 11
-50.1147
 21
-53.7492
  0
LINE
  8
0
 10
-50.1147
 20
-53.7492
 11
-49.953
 21
-53.4799
  0
LINE
  8
0
 10
-49.953
 20
-53.4799
 11
-49.7819
 21
-53.2165
  0
LINE
  8
0
 10
-49.7819
 20
-53.2165
 11
-49.6017
 21
-52.9592
  0
LINE
  8
0
 10
-49.6017
 20
-52.9592
 11
-49.4126
 21
-52.7083
  0
LINE
  8
0
 10
-49.4126
 20
-52.7083
 11
-49.2149
 21
-52.4641
  0
LINE
  8
0
 10
-49.2149
 20
-52.4641
 11
-49.0088
 21
-52.227
  0
LINE
  8
0
 10
-49.0088
 20
-52.227
 11
-48.7946
 21
-51.9973
  0
LINE
  8
0
 10
-48.7946
 20
-51.9973
 11
-48.5724
 21
-51.7752
  0
LINE
  8
0
 10
-48.5724
 20
-51.7752
 11
-48.3427
 21
-51.5609
  0
LINE
  8
0
 10
-48.3427
 20
-51.5609
 11
-28.3787
 21
-34.1076
  0
LINE
  8
0
 10
-28.3787
 20
-34.1076
 11
-28.2973
 21
-34.0417
  0
LINE
  8
0
 10
-28.2973
 20
-34.0417
 11
-28.2137
 21
-33.9787
  0
LINE
  8
0
 10
-28.2137
 20
-33.9787
 11
-28.1279
 21
-33.9186
  0
LINE
  8
0
 10
-28.1279
 20
-33.9186
 11
-28.0401
 21
-33.8616
  0
LINE
  8
0
 10
-28.0401
 20
-33.8616
 11
-27.9503
 21
-33.8077
  0
LINE
  8
0
 10
-27.9503
 20
-33.8077
 11
-27.8587
 21
-33.7569
  0
LINE
  8
0
 10
-27.8587
 20
-33.7569
 11
-27.7654
 21
-33.7094
  0
LINE
  8
0
 10
-27.7654
 20
-33.7094
 11
-27.6705
 21
-33.6651
  0
LINE
  8
0
 10
-27.6705
 20
-33.6651
 11
-27.5741
 21
-33.6242
  0
LINE
  8
0
 10
-27.5741
 20
-33.6242
 11
-27.4764
 21
-33.5867
  0
LINE
  8
0
 10
-27.4764
 20
-33.5867
 11
-27.3774
 21
-33.5526
  0
LINE
  8
0
 10
-27.3774
 20
-33.5526
 11
-27.2772
 21
-33.522
  0
LINE
  8
0
 10
-27.2772
 20
-33.522
 11
-27.1761
 21
-33.4949
  0
LINE
  8
0
 10
-27.1761
 20
-33.4949
 11
-27.0741
 21
-33.4713
  0
LINE
  8
0
 10
-27.0741
 20
-33.4713
 11
-26.9713
 21
-33.4513
  0
LINE
  8
0
 10
-26.9713
 20
-33.4513
 11
-26.8678
 21
-33.435
  0
LINE
  8
0
 10
-26.8678
 20
-33.435
 11
-26.7639
 21
-33.4222
  0
LINE
  8
0
 10
-26.7639
 20
-33.4222
 11
-26.6596
 21
-33.4131
  0
LINE
  8
0
 10
-26.6596
 20
-33.4131
 11
-26.555
 21
-33.4076
  0
LINE
  8
0
 10
-26.555
 20
-33.4076
 11
-26.4503
 21
-33.4057
  0
LINE
  8
0
 10
-26.4503
 20
-33.4057
 11
-26.3456
 21
-33.4076
  0
LINE
  8
0
 10
-26.3456
 20
-33.4076
 11
-26.241
 21
-33.4131
  0
LINE
  8
0
 10
-26.241
 20
-33.4131
 11
-26.1367
 21
-33.4222
  0
LINE
  8
0
 10
-26.1367
 20
-33.4222
 11
-26.0328
 21
-33.435
  0
LINE
  8
0
 10
-26.0328
 20
-33.435
 11
-25.9294
 21
-33.4513
  0
LINE
  8
0
 10
-25.9294
 20
-33.4513
 11
-25.8266
 21
-33.4713
  0
LINE
  8
0
 10
-25.8266
 20
-33.4713
 11
-25.7245
 21
-33.4949
  0
LINE
  8
0
 10
-25.7245
 20
-33.4949
 11
-25.6234
 21
-33.522
  0
LINE
  8
0
 10
-25.6234
 20
-33.522
 11
-25.5233
 21
-33.5526
  0
LINE
  8
0
 10
-25.5233
 20
-33.5526
 11
-25.4243
 21
-33.5867
  0
LINE
  8
0
 10
-25.4243
 20
-33.5867
 11
-25.3265
 21
-33.6242
  0
LINE
  8
0
 10
-25.3265
 20
-33.6242
 11
-25.2301
 21
-33.6651
  0
LINE
  8
0
 10
-25.2301
 20
-33.6651
 11
-25.1352
 21
-33.7094
  0
LINE
  8
0
 10
-25.1352
 20
-33.7094
 11
-25.0419
 21
-33.7569
  0
LINE
  8
0
 10
-25.0419
 20
-33.7569
 11
-24.9503
 21
-33.8077
  0
LINE
  8
0
 10
-24.9503
 20
-33.8077
 11
-18.7957
 21
-37.5793
  0
LINE
  8
0
 10
-18.7957
 20
-37.5793
 11
-18.7088
 21
-37.6378
  0
LINE
  8
0
 10
-18.7088
 20
-37.6378
 11
-18.6241
 21
-37.6994
  0
LINE
  8
0
 10
-18.6241
 20
-37.6994
 11
-18.5416
 21
-37.7638
  0
LINE
  8
0
 10
-18.5416
 20
-37.7638
 11
-18.4614
 21
-37.8311
  0
LINE
  8
0
 10
-18.4614
 20
-37.8311
 11
-18.3836
 21
-37.9012
  0
LINE
  8
0
 10
-18.3836
 20
-37.9012
 11
-18.3082
 21
-37.974
  0
LINE
  8
0
 10
-18.3082
 20
-37.974
 11
-18.2355
 21
-38.0493
  0
LINE
  8
0
 10
-18.2355
 20
-38.0493
 11
-18.1654
 21
-38.1271
  0
LINE
  8
0
 10
-18.1654
 20
-38.1271
 11
-18.0981
 21
-38.2073
  0
LINE
  8
0
 10
-18.0981
 20
-38.2073
 11
-18.0337
 21
-38.2898
  0
LINE
  8
0
 10
-18.0337
 20
-38.2898
 11
-17.9721
 21
-38.3745
  0
LINE
  8
0
 10
-17.9721
 20
-38.3745
 11
-17.9136
 21
-38.4613
  0
LINE
  8
0
 10
-17.9136
 20
-38.4613
 11
-17.8581
 21
-38.5502
  0
LINE
  8
0
 10
-17.8581
 20
-38.5502
 11
-17.8057
 21
-38.6408
  0
LINE
  8
0
 10
-17.8057
 20
-38.6408
 11
-17.7565
 21
-38.7333
  0
LINE
  8
0
 10
-17.7565
 20
-38.7333
 11
-17.7106
 21
-38.8274
  0
LINE
  8
0
 10
-17.7106
 20
-38.8274
 11
-17.668
 21
-38.9231
  0
LINE
  8
0
 10
-17.668
 20
-38.9231
 11
-17.6288
 21
-39.0202
  0
LINE
  8
0
 10
-17.6288
 20
-39.0202
 11
-17.593
 21
-39.1186
  0
LINE
  8
0
 10
-17.593
 20
-39.1186
 11
-17.5607
 21
-39.2182
  0
LINE
  8
0
 10
-17.5607
 20
-39.2182
 11
-17.5318
 21
-39.3188
  0
LINE
  8
0
 10
-17.5318
 20
-39.3188
 11
-17.5065
 21
-39.4204
  0
LINE
  8
0
 10
-17.5065
 20
-39.4204
 11
-17.4847
 21
-39.5229
  0
LINE
  8
0
 10
-17.4847
 20
-39.5229
 11
-17.4665
 21
-39.626
  0
LINE
  8
0
 10
-17.4665
 20
-39.626
 11
-17.4519
 21
-39.7297
  0
LINE
  8
0
 10
-17.4519
 20
-39.7297
 11
-17.441
 21
-39.8338
  0
LINE
  8
0
 10
-17.441
 20
-39.8338
 11
-17.4337
 21
-39.9383
  0
LINE
  8
0
 10
-17.4337
 20
-39.9383
 11
-17.43
 21
-40.0429
  0
LINE
  8
0
 10
-17.43
 20
-40.0429
 11
-17.43
 21
-40.1476
  0
LINE
  8
0
 10
-17.43
 20
-40.1476
 11
-17.4337
 21
-40.2523
  0
LINE
  8
0
 10
-17.4337
 20
-40.2523
 11
-17.441
 21
-40.3568
  0
LINE
  8
0
 10
-17.441
 20
-40.3568
 11
-17.4519
 21
-40.4609
  0
LINE
  8
0
 10
-17.4519
 20
-40.4609
 11
-17.4665
 21
-40.5646
  0
LINE
  8
0
 10
-17.4665
 20
-40.5646
 11
-17.4847
 21
-40.6677
  0
LINE
  8
0
 10
-17.4847
 20
-40.6677
 11
-17.5065
 21
-40.7701
  0
LINE
  8
0
 10
-17.5065
 20
-40.7701
 11
-23.994
 21
-66.4818
  0
LINE
  8
0
 10
-23.994
 20
-66.4818
 11
-24.0806
 21
-66.7838
  0
LINE
  8
0
 10
-24.0806
 20
-66.7838
 11
-24.1777
 21
-67.0826
  0
LINE
  8
0
 10
-24.1777
 20
-67.0826
 11
-24.2851
 21
-67.3778
  0
LINE
  8
0
 10
-24.2851
 20
-67.3778
 11
-24.4028
 21
-67.669
  0
LINE
  8
0
 10
-24.4028
 20
-67.669
 11
-24.5305
 21
-67.956
  0
LINE
  8
0
 10
-24.5305
 20
-67.956
 11
-24.6682
 21
-68.2384
  0
LINE
  8
0
 10
-24.6682
 20
-68.2384
 11
-24.8157
 21
-68.5157
  0
LINE
  8
0
 10
-24.8157
 20
-68.5157
 11
-24.9728
 21
-68.7878
  0
LINE
  8
0
 10
-24.9728
 20
-68.7878
 11
-25.1393
 21
-69.0542
  0
LINE
  8
0
 10
-25.1393
 20
-69.0542
 11
-25.3149
 21
-69.3146
  0
LINE
  8
0
 10
-25.3149
 20
-69.3146
 11
-25.4996
 21
-69.5688
  0
LINE
  8
0
 10
-25.4996
 20
-69.5688
 11
-25.693
 21
-69.8163
  0
LINE
  8
0
 10
-25.693
 20
-69.8163
 11
-25.8949
 21
-70.057
  0
LINE
  8
0
 10
-25.8949
 20
-70.057
 11
-26.1051
 21
-70.2904
  0
LINE
  8
0
 10
-26.1051
 20
-70.2904
 11
-26.3233
 21
-70.5164
  0
LINE
  8
0
 10
-26.3233
 20
-70.5164
 11
-26.5493
 21
-70.7346
  0
LINE
  8
0
 10
-26.5493
 20
-70.7346
 11
-26.7828
 21
-70.9448
  0
LINE
  8
0
 10
-26.7828
 20
-70.9448
 11
-27.0234
 21
-71.1468
  0
LINE
  8
0
 10
-27.0234
 20
-71.1468
 11
-27.271
 21
-71.3402
  0
LINE
  8
0
 10
-27.271
 20
-71.3402
 11
-27.5251
 21
-71.5248
  0
LINE
  8
0
 10
-27.5251
 20
-71.5248
 11
-27.7856
 21
-71.7005
  0
LINE
  8
0
 10
-27.7856
 20
-71.7005
 11
-28.052
 21
-71.867
  0
LINE
  8
0
 10
-28.052
 20
-71.867
 11
-28.324
 21
-72.024
  0
LINE
  8
0
 10
-28.324
 20
-72.024
 11
-28.6014
 21
-72.1715
  0
LINE
  8
0
 10
-28.6014
 20
-72.1715
 11
-28.8837
 21
-72.3092
  0
LINE
  8
0
 10
-28.8837
 20
-72.3092
 11
-29.1707
 21
-72.437
  0
LINE
  8
0
 10
-29.1707
 20
-72.437
 11
-29.462
 21
-72.5547
  0
LINE
  8
0
 10
-29.462
 20
-72.5547
 11
-29.7572
 21
-72.6621
  0
LINE
  8
0
 10
-29.7572
 20
-72.6621
 11
-30.056
 21
-72.7592
  0
LINE
  8
0
 10
-30.056
 20
-72.7592
 11
-30.3579
 21
-72.8458
  0
LINE
  8
0
 10
-30.3579
 20
-72.8458
 11
-30.6628
 21
-72.9218
  0
LINE
  8
0
 10
-30.6628
 20
-72.9218
 11
-30.97
 21
-72.9871
  0
LINE
  8
0
 10
-30.97
 20
-72.9871
 11
-31.2794
 21
-73.0416
  0
LINE
  8
0
 10
-31.2794
 20
-73.0416
 11
-31.5905
 21
-73.0854
  0
LINE
  8
0
 10
-31.5905
 20
-73.0854
 11
-31.9029
 21
-73.1182
  0
LINE
  8
0
 10
-31.9029
 20
-73.1182
 11
-32.2163
 21
-73.1401
  0
LINE
  8
0
 10
-32.2163
 20
-73.1401
 11
-32.5302
 21
-73.1511
  0
LINE
  8
0
 10
-32.5302
 20
-73.1511
 11
-32.8444
 21
-73.1511
  0
LINE
  8
0
 10
75.9858
 20
-50.5559
 11
77.1837
 21
-39.1587
  0
LINE
  8
0
 10
77.1837
 20
-39.1587
 11
79.8987
 21
-39.4441
  0
LINE
  8
0
 10
79.8987
 20
-39.4441
 11
78.7009
 21
-50.8413
  0
LINE
  8
0
 10
78.7009
 20
-50.8413
 11
75.9858
 21
-50.5559
  0
LINE
  8
0
 10
-83.3803
 20
-42.7363
 11
-81.7756
 21
-40.5277
  0
LINE
  8
0
 10
-81.7756
 20
-40.5277
 11
-72.5043
 21
-47.2637
  0
LINE
  8
0
 10
-72.5043
 20
-47.2637
 11
-74.1089
 21
-49.4723
  0
LINE
  8
0
 10
-74.1089
 20
-49.4723
 11
-83.3803
 21
-42.7363
  0
LINE
  8
0
 10
-0.314087
 20
-80.9945
 11
-0.627808
 21
-80.9781
  0
LINE
  8
0
 10
-0.627808
 20
-80.9781
 11
-0.94075
 21
-80.9507
  0
LINE
  8
0
 10
-0.94075
 20
-80.9507
 11
-1.25255
 21
-80.9124
  0
LINE
  8
0
 10
-1.25255
 20
-80.9124
 11
-1.56282
 21
-80.8633
  0
LINE
  8
0
 10
-1.56282
 20
-80.8633
 11
-1.8712
 21
-80.8033
  0
LINE
  8
0
 10
-1.8712
 20
-80.8033
 11
-2.17729
 21
-80.7327
  0
LINE
  8
0
 10
-2.17729
 20
-80.7327
 11
-2.48073
 21
-80.6514
  0
LINE
  8
0
 10
-2.48073
 20
-80.6514
 11
-2.78114
 21
-80.5595
  0
LINE
  8
0
 10
-2.78114
 20
-80.5595
 11
-3.07817
 21
-80.4572
  0
LINE
  8
0
 10
-3.07817
 20
-80.4572
 11
-3.37144
 21
-80.3447
  0
LINE
  8
0
 10
-3.37144
 20
-80.3447
 11
-3.66063
 21
-80.2219
  0
LINE
  8
0
 10
-3.66063
 20
-80.2219
 11
-3.94533
 21
-80.0891
  0
LINE
  8
0
 10
-3.94533
 20
-80.0891
 11
-4.22523
 21
-79.9465
  0
LINE
  8
0
 10
-4.22523
 20
-79.9465
 11
-4.5
 21
-79.7942
  0
LINE
  8
0
 10
-4.5
 20
-79.7942
 11
-4.76927
 21
-79.6324
  0
LINE
  8
0
 10
-4.76927
 20
-79.6324
 11
-5.03273
 21
-79.4613
  0
LINE
  8
0
 10
-5.03273
 20
-79.4613
 11
-5.29005
 21
-79.2811
  0
LINE
  8
0
 10
-5.29005
 20
-79.2811
 11
-5.54094
 21
-79.0921
  0
LINE
  8
0
 10
-5.54094
 20
-79.0921
 11
-5.78508
 21
-78.8944
  0
LINE
  8
0
 10
-5.78508
 20
-78.8944
 11
-6.02217
 21
-78.6883
  0
LINE
  8
0
 10
-6.02217
 20
-78.6883
 11
-6.25192
 21
-78.474
  0
LINE
  8
0
 10
-6.25192
 20
-78.474
 11
-6.47404
 21
-78.2519
  0
LINE
  8
0
 10
-6.47404
 20
-78.2519
 11
-6.68829
 21
-78.0222
  0
LINE
  8
0
 10
-6.68829
 20
-78.0222
 11
-6.89439
 21
-77.7851
  0
LINE
  8
0
 10
-6.89439
 20
-77.7851
 11
-7.09209
 21
-77.5409
  0
LINE
  8
0
 10
-7.09209
 20
-77.5409
 11
-7.28114
 21
-77.2901
  0
LINE
  8
0
 10
-7.28114
 20
-77.2901
 11
-7.46133
 21
-77.0327
  0
LINE
  8
0
 10
-7.46133
 20
-77.0327
 11
-7.63243
 21
-76.7693
  0
LINE
  8
0
 10
-7.63243
 20
-76.7693
 11
-7.79422
 21
-76.5
  0
LINE
  8
0
 10
-7.79422
 20
-76.5
 11
-7.94652
 21
-76.2252
  0
LINE
  8
0
 10
-7.94652
 20
-76.2252
 11
-8.08914
 21
-75.9453
  0
LINE
  8
0
 10
-8.08914
 20
-75.9453
 11
-8.22191
 21
-75.6606
  0
LINE
  8
0
 10
-8.22191
 20
-75.6606
 11
-8.34465
 21
-75.3714
  0
LINE
  8
0
 10
-8.34465
 20
-75.3714
 11
-8.45723
 21
-75.0782
  0
LINE
  8
0
 10
-8.45723
 20
-75.0782
 11
-8.55949
 21
-74.7811
  0
LINE
  8
0
 10
-8.55949
 20
-74.7811
 11
-8.65135
 21
-74.4807
  0
LINE
  8
0
 10
-8.65135
 20
-74.4807
 11
-8.73265
 21
-74.1773
  0
LINE
  8
0
 10
-8.73265
 20
-74.1773
 11
-8.80331
 21
-73.8712
  0
LINE
  8
0
 10
-8.80331
 20
-73.8712
 11
-8.86327
 21
-73.5628
  0
LINE
  8
0
 10
-8.86327
 20
-73.5628
 11
-8.9124
 21
-73.2525
  0
LINE
  8
0
 10
-8.9124
 20
-73.2525
 11
-8.95068
 21
-72.9408
  0
LINE
  8
0
 10
-8.95068
 20
-72.9408
 11
-8.97807
 21
-72.6278
  0
LINE
  8
0
 10
-8.97807
 20
-72.6278
 11
-8.99451
 21
-72.3141
  0
LINE
  8
0
 10
-8.99451
 20
-72.3141
 11
-9
 21
-72
  0
LINE
  8
0
 10
-9
 20
-72
 11
-8.99451
 21
-71.6859
  0
LINE
  8
0
 10
-8.99451
 20
-71.6859
 11
-8.97807
 21
-71.3722
  0
LINE
  8
0
 10
-8.97807
 20
-71.3722
 11
-8.95068
 21
-71.0592
  0
LINE
  8
0
 10
-8.95068
 20
-71.0592
 11
-8.9124
 21
-70.7474
  0
LINE
  8
0
 10
-8.9124
 20
-70.7474
 11
-8.86327
 21
-70.4372
  0
LINE
  8
0
 10
-8.86327
 20
-70.4372
 11
-8.80331
 21
-70.1288
  0
LINE
  8
0
 10
-8.80331
 20
-70.1288
 11
-2.91087
 21
-44.2742
  0
LINE
  8
0
 10
-2.91087
 20
-44.2742
 11
-2.88377
 21
-44.1731
  0
LINE
  8
0
 10
-2.88377
 20
-44.1731
 11
-2.85316
 21
-44.0729
  0
LINE
  8
0
 10
-2.85316
 20
-44.0729
 11
-2.81908
 21
-43.9739
  0
LINE
  8
0
 10
-2.81908
 20
-43.9739
 11
-2.78154
 21
-43.8762
  0
LINE
  8
0
 10
-2.78154
 20
-43.8762
 11
-2.74063
 21
-43.7798
  0
LINE
  8
0
 10
-2.74063
 20
-43.7798
 11
-2.69638
 21
-43.6849
  0
LINE
  8
0
 10
-2.69638
 20
-43.6849
 11
-2.64883
 21
-43.5916
  0
LINE
  8
0
 10
-2.64883
 20
-43.5916
 11
-2.59807
 21
-43.5
  0
LINE
  8
0
 10
-2.59807
 20
-43.5
 11
-2.54414
 21
-43.4102
  0
LINE
  8
0
 10
-2.54414
 20
-43.4102
 11
-2.48711
 21
-43.3224
  0
LINE
  8
0
 10
-2.48711
 20
-43.3224
 11
-2.42705
 21
-43.2366
  0
LINE
  8
0
 10
-2.42705
 20
-43.2366
 11
-2.36403
 21
-43.153
  0
LINE
  8
0
 10
-2.36403
 20
-43.153
 11
-2.29813
 21
-43.0716
  0
LINE
  8
0
 10
-2.29813
 20
-43.0716
 11
-2.22943
 21
-42.9926
  0
LINE
  8
0
 10
-2.22943
 20
-42.9926
 11
-2.158
 21
-42.916
  0
LINE
  8
0
 10
-2.158
 20
-42.916
 11
-2.08397
 21
-42.842
  0
LINE
  8
0
 10
-2.08397
 20
-42.842
 11
-2.00739
 21
-42.7706
  0
LINE
  8
0
 10
-2.00739
 20
-42.7706
 11
-1.92836
 21
-42.7019
  0
LINE
  8
0
 10
-1.92836
 20
-42.7019
 11
-1.84697
 21
-42.636
  0
LINE
  8
0
 10
-1.84697
 20
-42.636
 11
-1.76335
 21
-42.5729
  0
LINE
  8
0
 10
-1.76335
 20
-42.5729
 11
-1.67757
 21
-42.5129
  0
LINE
  8
0
 10
-1.67757
 20
-42.5129
 11
-1.58975
 21
-42.4558
  0
LINE
  8
0
 10
-1.58975
 20
-42.4558
 11
-1.5
 21
-42.4019
  0
LINE
  8
0
 10
-1.5
 20
-42.4019
 11
-1.4084
 21
-42.3512
  0
LINE
  8
0
 10
-1.4084
 20
-42.3512
 11
-1.31511
 21
-42.3036
  0
LINE
  8
0
 10
-1.31511
 20
-42.3036
 11
-1.2202
 21
-42.2594
  0
LINE
  8
0
 10
-1.2202
 20
-42.2594
 11
-1.12381
 21
-42.2184
  0
LINE
  8
0
 10
-1.12381
 20
-42.2184
 11
-1.02605
 21
-42.1809
  0
LINE
  8
0
 10
-1.02605
 20
-42.1809
 11
-0.927048
 21
-42.1468
  0
LINE
  8
0
 10
-0.927048
 20
-42.1468
 11
-0.826904
 21
-42.1162
  0
LINE
  8
0
 10
-0.826904
 20
-42.1162
 11
-0.725754
 21
-42.0891
  0
LINE
  8
0
 10
-0.725754
 20
-42.0891
 11
-0.623734
 21
-42.0656
  0
LINE
  8
0
 10
-0.623734
 20
-42.0656
 11
-0.520935
 21
-42.0456
  0
LINE
  8
0
 10
-0.520935
 20
-42.0456
 11
-0.417511
 21
-42.0292
  0
LINE
  8
0
 10
-0.417511
 20
-42.0292
 11
-0.313583
 21
-42.0164
  0
LINE
  8
0
 10
-0.313583
 20
-42.0164
 11
6.88254
 21
-41.4501
  0
LINE
  8
0
 10
6.88254
 20
-41.4501
 11
6.98718
 21
-41.4464
  0
LINE
  8
0
 10
6.98718
 20
-41.4464
 11
7.09189
 21
-41.4464
  0
LINE
  8
0
 10
7.09189
 20
-41.4464
 11
7.19655
 21
-41.4501
  0
LINE
  8
0
 10
7.19655
 20
-41.4501
 11
7.30099
 21
-41.4574
  0
LINE
  8
0
 10
7.30099
 20
-41.4574
 11
7.40514
 21
-41.4683
  0
LINE
  8
0
 10
7.40514
 20
-41.4683
 11
7.50883
 21
-41.4829
  0
LINE
  8
0
 10
7.50883
 20
-41.4829
 11
7.61195
 21
-41.5011
  0
LINE
  8
0
 10
7.61195
 20
-41.5011
 11
7.71439
 21
-41.5229
  0
LINE
  8
0
 10
7.71439
 20
-41.5229
 11
7.81599
 21
-41.5482
  0
LINE
  8
0
 10
7.81599
 20
-41.5482
 11
7.91666
 21
-41.577
  0
LINE
  8
0
 10
7.91666
 20
-41.577
 11
8.01624
 21
-41.6094
  0
LINE
  8
0
 10
8.01624
 20
-41.6094
 11
8.11462
 21
-41.6452
  0
LINE
  8
0
 10
8.11462
 20
-41.6452
 11
8.21173
 21
-41.6844
  0
LINE
  8
0
 10
8.21173
 20
-41.6844
 11
8.30739
 21
-41.727
  0
LINE
  8
0
 10
8.30739
 20
-41.727
 11
8.4015
 21
-41.7729
  0
LINE
  8
0
 10
8.4015
 20
-41.7729
 11
8.49396
 21
-41.8221
  0
LINE
  8
0
 10
8.49396
 20
-41.8221
 11
8.58466
 21
-41.8745
  0
LINE
  8
0
 10
8.58466
 20
-41.8745
 11
8.67345
 21
-41.9299
  0
LINE
  8
0
 10
8.67345
 20
-41.9299
 11
8.76027
 21
-41.9885
  0
LINE
  8
0
 10
8.76027
 20
-41.9885
 11
8.84497
 21
-42.05
  0
LINE
  8
0
 10
8.84497
 20
-42.05
 11
8.92751
 21
-42.1145
  0
LINE
  8
0
 10
8.92751
 20
-42.1145
 11
9.00771
 21
-42.1818
  0
LINE
  8
0
 10
9.00771
 20
-42.1818
 11
9.08554
 21
-42.2519
  0
LINE
  8
0
 10
9.08554
 20
-42.2519
 11
9.16086
 21
-42.3246
  0
LINE
  8
0
 10
9.16086
 20
-42.3246
 11
9.2336
 21
-42.4
  0
LINE
  8
0
 10
9.2336
 20
-42.4
 11
9.30367
 21
-42.4778
  0
LINE
  8
0
 10
9.30367
 20
-42.4778
 11
9.37097
 21
-42.558
  0
LINE
  8
0
 10
9.37097
 20
-42.558
 11
9.43544
 21
-42.6405
  0
LINE
  8
0
 10
9.43544
 20
-42.6405
 11
9.49699
 21
-42.7252
  0
LINE
  8
0
 10
9.49699
 20
-42.7252
 11
9.55554
 21
-42.812
  0
LINE
  8
0
 10
9.55554
 20
-42.812
 11
9.61104
 21
-42.9008
  0
LINE
  8
0
 10
9.61104
 20
-42.9008
 11
9.66341
 21
-42.9915
  0
LINE
  8
0
 10
9.66341
 20
-42.9915
 11
9.71255
 21
-43.084
  0
LINE
  8
0
 10
9.71255
 20
-43.084
 11
9.75845
 21
-43.1781
  0
LINE
  8
0
 10
9.75845
 20
-43.1781
 11
9.80104
 21
-43.2738
  0
LINE
  8
0
 10
9.80104
 20
-43.2738
 11
19.6655
 21
-67.8882
  0
LINE
  8
0
 10
19.6655
 20
-67.8882
 11
19.7729
 21
-68.1834
  0
LINE
  8
0
 10
19.7729
 20
-68.1834
 11
19.87
 21
-68.4822
  0
LINE
  8
0
 10
19.87
 20
-68.4822
 11
19.9566
 21
-68.7842
  0
LINE
  8
0
 10
19.9566
 20
-68.7842
 11
20.0326
 21
-69.089
  0
LINE
  8
0
 10
20.0326
 20
-69.089
 11
20.0979
 21
-69.3963
  0
LINE
  8
0
 10
20.0979
 20
-69.3963
 11
20.1525
 21
-69.7056
  0
LINE
  8
0
 10
20.1525
 20
-69.7056
 11
20.1962
 21
-70.0167
  0
LINE
  8
0
 10
20.1962
 20
-70.0167
 11
20.229
 21
-70.3291
  0
LINE
  8
0
 10
20.229
 20
-70.3291
 11
20.2509
 21
-70.6425
  0
LINE
  8
0
 10
20.2509
 20
-70.6425
 11
20.2619
 21
-70.9565
  0
LINE
  8
0
 10
20.2619
 20
-70.9565
 11
20.2619
 21
-71.2706
  0
LINE
  8
0
 10
20.2619
 20
-71.2706
 11
20.2509
 21
-71.5846
  0
LINE
  8
0
 10
20.2509
 20
-71.5846
 11
20.229
 21
-71.8979
  0
LINE
  8
0
 10
20.229
 20
-71.8979
 11
20.1962
 21
-72.2104
  0
LINE
  8
0
 10
20.1962
 20
-72.2104
 11
20.1525
 21
-72.5215
  0
LINE
  8
0
 10
20.1525
 20
-72.5215
 11
20.0979
 21
-72.8308
  0
LINE
  8
0
 10
20.0979
 20
-72.8308
 11
20.0326
 21
-73.1381
  0
LINE
  8
0
 10
20.0326
 20
-73.1381
 11
19.9566
 21
-73.4429
  0
LINE
  8
0
 10
19.9566
 20
-73.4429
 11
19.87
 21
-73.7449
  0
LINE
  8
0
 10
19.87
 20
-73.7449
 11
19.7729
 21
-74.0437
  0
LINE
  8
0
 10
19.7729
 20
-74.0437
 11
19.6655
 21
-74.3389
  0
LINE
  8
0
 10
19.6655
 20
-74.3389
 11
19.5478
 21
-74.6301
  0
LINE
  8
0
 10
19.5478
 20
-74.6301
 11
19.42
 21
-74.9171
  0
LINE
  8
0
 10
19.42
 20
-74.9171
 11
19.2823
 21
-75.1995
  0
LINE
  8
0
 10
19.2823
 20
-75.1995
 11
19.1348
 21
-75.4768
  0
LINE
  8
0
 10
19.1348
 20
-75.4768
 11
18.9778
 21
-75.7489
  0
LINE
  8
0
 10
18.9778
 20
-75.7489
 11
18.8113
 21
-76.0153
  0
LINE
  8
0
 10
18.8113
 20
-76.0153
 11
18.6356
 21
-76.2757
  0
LINE
  8
0
 10
18.6356
 20
-76.2757
 11
18.451
 21
-76.5299
  0
LINE
  8
0
 10
18.451
 20
-76.5299
 11
18.2576
 21
-76.7774
  0
LINE
  8
0
 10
18.2576
 20
-76.7774
 11
18.0556
 21
-77.0181
  0
LINE
  8
0
 10
18.0556
 20
-77.0181
 11
17.8454
 21
-77.2515
  0
LINE
  8
0
 10
17.8454
 20
-77.2515
 11
17.6272
 21
-77.4775
  0
LINE
  8
0
 10
17.6272
 20
-77.4775
 11
17.4012
 21
-77.6957
  0
LINE
  8
0
 10
17.4012
 20
-77.6957
 11
17.1678
 21
-77.9059
  0
LINE
  8
0
 10
17.1678
 20
-77.9059
 11
16.9271
 21
-78.1079
  0
LINE
  8
0
 10
16.9271
 20
-78.1079
 11
16.6796
 21
-78.3013
  0
LINE
  8
0
 10
16.6796
 20
-78.3013
 11
16.4254
 21
-78.4859
  0
LINE
  8
0
 10
16.4254
 20
-78.4859
 11
16.165
 21
-78.6616
  0
LINE
  8
0
 10
16.165
 20
-78.6616
 11
15.8986
 21
-78.8281
  0
LINE
  8
0
 10
15.8986
 20
-78.8281
 11
15.6266
 21
-78.9851
  0
LINE
  8
0
 10
15.6266
 20
-78.9851
 11
15.3492
 21
-79.1326
  0
LINE
  8
0
 10
15.3492
 20
-79.1326
 11
15.0668
 21
-79.2703
  0
LINE
  8
0
 10
15.0668
 20
-79.2703
 11
14.7798
 21
-79.3981
  0
LINE
  8
0
 10
14.7798
 20
-79.3981
 11
14.4886
 21
-79.5158
  0
LINE
  8
0
 10
14.4886
 20
-79.5158
 11
14.1934
 21
-79.6232
  0
LINE
  8
0
 10
14.1934
 20
-79.6232
 11
13.8946
 21
-79.7203
  0
LINE
  8
0
 10
13.8946
 20
-79.7203
 11
13.5926
 21
-79.8069
  0
LINE
  8
0
 10
13.5926
 20
-79.8069
 11
13.2878
 21
-79.8829
  0
LINE
  8
0
 10
13.2878
 20
-79.8829
 11
12.9805
 21
-79.9482
  0
LINE
  8
0
 10
12.9805
 20
-79.9482
 11
12.6712
 21
-80.0027
  0
LINE
  8
0
 10
12.6712
 20
-80.0027
 11
12.3601
 21
-80.0465
  0
LINE
  8
0
 10
12.3601
 20
-80.0465
 11
12.0477
 21
-80.0793
  0
LINE
  8
0
 10
12.0477
 20
-80.0793
 11
0.627792
 21
-80.9781
  0
LINE
  8
0
 10
0.627792
 20
-80.9781
 11
0.314072
 21
-80.9945
  0
LINE
  8
0
 10
0.314072
 20
-80.9945
 11
0
 21
-81
  0
LINE
  8
0
 10
0
 20
-81
 11
-0.314087
 21
-80.9945
  0
LINE
  8
0
 10
70.285
 20
-58.2216
 11
72.6677
 21
-47.0121
  0
LINE
  8
0
 10
72.6677
 20
-47.0121
 11
75.338
 21
-47.5797
  0
LINE
  8
0
 10
75.338
 20
-47.5797
 11
72.9554
 21
-58.7892
  0
LINE
  8
0
 10
72.9554
 20
-58.7892
 11
70.285
 21
-58.2216
  0
LINE
  8
0
 10
-78.4563
 20
-51.2178
 11
-77.0914
 21
-48.8535
  0
LINE
  8
0
 10
-77.0914
 20
-48.8535
 11
-67.1667
 21
-54.5835
  0
LINE
  8
0
 10
-67.1667
 20
-54.5835
 11
-68.5317
 21
-56.9478
  0
LINE
  8
0
 10
-68.5317
 20
-56.9478
 11
-78.4563
 21
-51.2178
  0
LINE
  8
0
 10
63.8142
 20
-65.2495
 11
67.3555
 21
-54.3504
  0
LINE
  8
0
 10
67.3555
 20
-54.3504
 11
69.9519
 21
-55.194
  0
LINE
  8
0
 10
69.9519
 20
-55.194
 11
66.4106
 21
-66.0931
  0
LINE
  8
0
 10
66.4106
 20
-66.0931
 11
63.8142
 21
-65.2495
  0
LINE
  8
0
 10
-72.6728
 20
-59.1381
 11
-71.5625
 21
-56.6441
  0
LINE
  8
0
 10
-71.5625
 20
-56.6441
 11
-61.0932
 21
-61.3054
  0
LINE
  8
0
 10
-61.0932
 20
-61.3054
 11
-62.2036
 21
-63.7993
  0
LINE
  8
0
 10
-62.2036
 20
-63.7993
 11
-72.6728
 21
-59.1381
  0
LINE
  8
0
 10
56.6441
 20
-71.5625
 11
61.3054
 21
-61.0932
  0
LINE
  8
0
 10
61.3054
 20
-61.0932
 11
63.7993
 21
-62.2036
  0
LINE
  8
0
 10
63.7993
 20
-62.2036
 11
59.1381
 21
-72.6728
  0
LINE
  8
0
 10
59.1381
 20
-72.6728
 11
56.6441
 21
-71.5625
  0
LINE
  8
0
 10
-66.0931
 20
-66.4106
 11
-65.2495
 21
-63.8142
  0
LINE
  8
0
 10
-65.2495
 20
-63.8142
 11
-54.3504
 21
-67.3555
  0
LINE
  8
0
 10
-54.3504
 20
-67.3555
 11
-55.194
 21
-69.9519
  0
LINE
  8
0
 10
-55.194
 20
-69.9519
 11
-66.0931
 21
-66.4106
  0
LINE
  8
0
 10
48.8535
 20
-77.0914
 11
54.5835
 21
-67.1667
  0
LINE
  8
0
 10
54.5835
 20
-67.1667
 11
56.9478
 21
-68.5317
  0
LINE
  8
0
 10
56.9478
 20
-68.5317
 11
51.2178
 21
-78.4563
  0
LINE
  8
0
 10
51.2178
 20
-78.4563
 11
48.8535
 21
-77.0914
  0
LINE
  8
0
 10
-58.7892
 20
-72.9554
 11
-58.2216
 21
-70.285
  0
LINE
  8
0
 10
-58.2216
 20
-70.285
 11
-47.0121
 21
-72.6677
  0
LINE
  8
0
 10
-47.0121
 20
-72.6677
 11
-47.5797
 21
-75.338
  0
LINE
  8
0
 10
-47.5797
 20
-75.338
 11
-58.7892
 21
-72.9554
  0
LINE
  8
0
 10
40.5277
 20
-81.7756
 11
47.2637
 21
-72.5043
  0
LINE
  8
0
 10
47.2637
 20
-72.5043
 11
49.4723
 21
-74.1089
  0
LINE
  8
0
 10
49.4723
 20
-74.1089
 11
42.7363
 21
-83.3803
  0
LINE
  8
0
 10
42.7363
 20
-83.3803
 11
40.5277
 21
-81.7756
  0
LINE
  8
0
 10
-50.8413
 20
-78.7009
 11
-50.5559
 21
-75.9858
  0
LINE
  8
0
 10
-50.5559
 20
-75.9858
 11
-39.1587
 21
-77.1837
  0
LINE
  8
0
 10
-39.1587
 20
-77.1837
 11
-39.4441
 21
-79.8987
  0
LINE
  8
0
 10
-39.4441
 20
-79.8987
 11
-50.8413
 21
-78.7009
  0
LINE
  8
0
 10
31.7578
 20
-85.5639
 11
39.426
 21
-77.0475
  0
LINE
  8
0
 10
39.426
 20
-77.0475
 11
41.4548
 21
-78.8742
  0
LINE
  8
0
 10
41.4548
 20
-78.8742
 11
33.7866
 21
-87.3907
  0
LINE
  8
0
 10
33.7866
 20
-87.3907
 11
31.7578
 21
-85.5639
  0
LINE
  8
0
 10
22.6399
 20
-88.4148
 11
31.1564
 21
-80.7466
  0
LINE
  8
0
 10
31.1564
 20
-80.7466
 11
32.9831
 21
-82.7754
  0
LINE
  8
0
 10
32.9831
 20
-82.7754
 11
24.4667
 21
-90.4436
  0
LINE
  8
0
 10
24.4667
 20
-90.4436
 11
22.6399
 21
-88.4148
  0
LINE
  8
0
 10
-42.3363
 20
-83.5841
 11
-42.3363
 21
-80.8541
  0
LINE
  8
0
 10
-42.3363
 20
-80.8541
 11
-30.8763
 21
-80.8541
  0
LINE
  8
0
 10
-30.8763
 20
-80.8541
 11
-30.8763
 21
-83.5841
  0
LINE
  8
0
 10
-30.8763
 20
-83.5841
 11
-42.3363
 21
-83.5841
  0
LINE
  8
0
 10
13.274
 20
-90.297
 11
22.5454
 21
-83.561
  0
LINE
  8
0
 10
22.5454
 20
-83.561
 11
24.15
 21
-85.7696
  0
LINE
  8
0
 10
24.15
 20
-85.7696
 11
14.8787
 21
-92.5056
  0
LINE
  8
0
 10
14.8787
 20
-92.5056
 11
13.274
 21
-90.297
  0
LINE
  8
0
 10
-33.6528
 20
-84.8365
 11
-22.2556
 21
-83.6386
  0
LINE
  8
0
 10
-22.2556
 20
-83.6386
 11
-21.9702
 21
-86.3537
  0
LINE
  8
0
 10
-21.9702
 20
-86.3537
 11
-33.3674
 21
-87.5515
  0
LINE
  8
0
 10
-33.3674
 20
-87.5515
 11
-33.6528
 21
-84.8365
  0
LINE
  8
0
 10
3.76273
 20
-91.1898
 11
13.6874
 21
-85.4598
  0
LINE
  8
0
 10
13.6874
 20
-85.4598
 11
15.0524
 21
-87.8241
  0
LINE
  8
0
 10
15.0524
 20
-87.8241
 11
5.12773
 21
-93.5541
  0
LINE
  8
0
 10
5.12773
 20
-93.5541
 11
3.76273
 21
-91.1898
  0
LINE
  8
0
 10
-24.6006
 20
-87.8894
 11
-13.3911
 21
-85.5068
  0
LINE
  8
0
 10
-13.3911
 20
-85.5068
 11
-12.8235
 21
-88.1771
  0
LINE
  8
0
 10
-12.8235
 20
-88.1771
 11
-24.033
 21
-90.5598
  0
LINE
  8
0
 10
-24.033
 20
-90.5598
 11
-24.6006
 21
-87.8894
  0
LINE
  8
0
 10
-5.78981
 20
-91.0836
 11
4.67941
 21
-86.4224
  0
LINE
  8
0
 10
4.67941
 20
-86.4224
 11
5.78981
 21
-88.9164
  0
LINE
  8
0
 10
5.78981
 20
-88.9164
 11
-4.67941
 21
-93.5776
  0
LINE
  8
0
 10
-4.67941
 20
-93.5776
 11
-5.78981
 21
-91.0836
  0
LINE
  8
0
 10
-15.2789
 20
-89.9794
 11
-4.37981
 21
-86.4381
  0
LINE
  8
0
 10
-4.37981
 20
-86.4381
 11
-3.53619
 21
-89.0345
  0
LINE
  8
0
 10
-3.53619
 20
-89.0345
 11
-14.4353
 21
-92.5758
  0
LINE
  8
0
 10
-14.4353
 20
-92.5758
 11
-15.2789
 21
-89.9794
  0
ENDSEC
  0
SECTION
  2
OBJECTS
  0
DICTIONARY
  0
ENDSEC
  0
EOF
